<?xml version="1.0" encoding="UTF-8" standalone="no"?>
<!-- Created with Inkscape (http://www.inkscape.org/) -->

<svg
   width="210mm"
   height="297mm"
   viewBox="0 0 210 297"
   version="1.1"
   id="svg13598"
   inkscape:version="1.2.2 (732a01da63, 2022-12-09)"
   sodipodi:docname="Ackrum_Backward_Walking.svg"
   xmlns:inkscape="http://www.inkscape.org/namespaces/inkscape"
   xmlns:sodipodi="http://sodipodi.sourceforge.net/DTD/sodipodi-0.dtd"
   xmlns:xlink="http://www.w3.org/1999/xlink"
   xmlns="http://www.w3.org/2000/svg"
   xmlns:svg="http://www.w3.org/2000/svg">
  <sodipodi:namedview
     id="namedview13600"
     pagecolor="#505050"
     bordercolor="#eeeeee"
     borderopacity="1"
     inkscape:showpageshadow="0"
     inkscape:pageopacity="0"
     inkscape:pagecheckerboard="0"
     inkscape:deskcolor="#505050"
     inkscape:document-units="mm"
     showgrid="false"
     inkscape:zoom="1.0444209"
     inkscape:cx="655.86584"
     inkscape:cy="772.67698"
     inkscape:window-width="1920"
     inkscape:window-height="1009"
     inkscape:window-x="-8"
     inkscape:window-y="-8"
     inkscape:window-maximized="1"
     inkscape:current-layer="layer1" />
  <defs
     id="defs13595">
    <inkscape:path-effect
       effect="bspline"
       id="path-effect2721-8"
       is_visible="true"
       lpeversion="1"
       weight="33.333333"
       steps="2"
       helper_size="0"
       apply_no_weight="true"
       apply_with_weight="true"
       only_selected="false" />
    <linearGradient
       inkscape:collect="always"
       xlink:href="#linearGradient8824"
       id="linearGradient8929"
       x1="139.00603"
       y1="137.75211"
       x2="139.90169"
       y2="140.61821"
       gradientUnits="userSpaceOnUse"
       gradientTransform="matrix(-1.0249146,0,0,0.98360496,305.4582,92.665125)" />
    <linearGradient
       inkscape:collect="always"
       id="linearGradient8824">
      <stop
         style="stop-color:#f4e3d7;stop-opacity:1;"
         offset="0"
         id="stop8820" />
      <stop
         style="stop-color:#e9c6af;stop-opacity:1"
         offset="1"
         id="stop8822" />
    </linearGradient>
    <inkscape:path-effect
       effect="bspline"
       id="path-effect12393"
       is_visible="true"
       lpeversion="1"
       weight="33.333333"
       steps="2"
       helper_size="0"
       apply_no_weight="true"
       apply_with_weight="true"
       only_selected="false" />
  </defs>
  <g
     inkscape:label="Layer 1"
     inkscape:groupmode="layer"
     id="layer1">
    <path
       id="rect456"
       style="fill:#f4e3d7;stroke-width:0.18715"
       d="m 161.8465,173.90252 c -0.0907,0.19805 -0.23651,0.36872 -0.44397,0.4656 -0.20929,0.0977 -0.42084,0.17734 -0.62878,0.28617 -0.23435,0.13092 -0.47121,0.24587 -0.71262,0.31767 -0.0208,0.008 -0.0417,0.0169 -0.0625,0.0249 -0.0488,0.0672 -0.10448,0.13089 -0.16744,0.18959 -0.30984,0.28891 -0.61793,0.5932 -0.89637,0.98711 -0.26022,0.34867 -0.52343,0.70111 -0.74469,1.14213 -0.19976,0.43262 -0.40728,0.86843 -0.55359,1.37747 -0.14364,0.51111 -0.29283,1.01325 -0.36722,1.58333 -0.10075,0.64676 -0.17882,1.30615 -0.2179,1.97827 -0.0339,0.76877 -0.009,1.5383 0.006,2.30815 0.0228,0.92238 0.0538,1.84392 0.10044,2.76308 0.0239,0.6674 0.0563,1.33511 0.15036,1.98182 0.0826,0.58963 0.15922,1.18061 0.20451,1.78614 0.0459,0.4723 0.0832,0.95216 0.19005,1.39172 0.12882,0.53979 0.27334,1.07544 0.4721,1.53249 0.21637,0.44632 0.46547,0.82952 0.72366,1.18178 0.25196,0.32423 0.49878,0.66679 0.70763,1.09385 0.23542,0.36982 0.46532,0.75065 0.70448,1.11163 0.18435,0.26592 0.38331,0.50554 0.60432,0.63892 h 2.5e-4 c 0.43197,0.26069 0.58524,0.8095 0.52152,1.23007 h 14.28843 c 0.0582,-0.21042 0.1602,-0.42451 0.31385,-0.61809 0.16543,-0.20839 0.33852,-0.39349 0.49683,-0.62215 0.19976,-0.27262 0.39319,-0.56111 0.59486,-0.82852 0.24652,-0.31162 0.48831,-0.63583 0.72891,-0.96423 0.30297,-0.38024 0.56428,-0.8557 0.81487,-1.3546 0.2451,-0.49288 0.42118,-1.08065 0.57961,-1.68599 0.15927,-0.58441 0.29832,-1.18277 0.4198,-1.79936 0.0885,-0.47003 0.14504,-0.95774 0.20189,-1.44455 8.1e-4,-0.19402 0.004,-0.38802 0.005,-0.582 0.0197,-1.00594 -0.0139,-2.00884 -0.0529,-3.01112 -0.0613,-1.35075 -0.17728,-2.68646 -0.29731,-4.02111 -0.0847,-1.03672 -0.22582,-2.04872 -0.38194,-3.0523 -0.12957,-0.7999 -0.30727,-1.56405 -0.48735,-2.32492 -0.0374,-0.0498 -0.0754,-0.10692 -0.11356,-0.1723 -0.18231,-0.31209 -0.37606,-0.59727 -0.56409,-0.89613 -0.16165,-0.2562 -0.32557,-0.51839 -0.51338,-0.70042 -0.18365,-0.18947 -0.38102,-0.32465 -0.57751,-0.45492 -0.22608,-0.12961 -0.45149,-0.25956 -0.68292,-0.34869 -0.23115,-0.089 -0.38943,-0.27322 -0.48156,-0.49051 z m 18.35495,6.11832 c 0.0144,0.10491 0.0294,0.2094 0.0432,0.31462 -0.002,-0.0417 -0.004,-0.0833 -0.005,-0.12504 -0.0123,-0.0634 -0.0253,-0.12636 -0.0378,-0.18958 z m -23.82092,13.15713 v 0.2455 c 0.0209,-0.005 0.0425,-0.007 0.0649,-0.007 0.002,2e-5 0.005,4.3e-4 0.007,5.1e-4 -0.0244,-0.0794 -0.048,-0.15965 -0.0726,-0.23889 z m 24.78432,0.96118 c -0.0153,0.31336 -0.0316,0.62652 -0.053,0.9383 0.0178,-0.0345 0.0351,-0.0699 0.053,-0.1042 z" />
    <path
       style="fill:none;stroke:#000000;stroke-width:0.265654"
       d="m 170.70047,179.40251 -13.2188,-0.35239"
       id="path2494" />
    <path
       id="path2526"
       style="fill:none;stroke:#000000;stroke-width:0.265654"
       d="m 166.66122,178.34515 c 0.12269,0.94194 0.24529,1.88202 0.429,2.58619 0.18372,0.70418 0.42871,1.17375 0.55083,1.52692 0.12212,0.35317 0.12206,0.58805 0.18326,0.76294 0.0612,0.17489 0.18349,0.2924 0.24469,0.52863 0.0612,0.23622 0.0614,0.58849 0.12288,0.88138 0.0615,0.29287 0.18382,0.52808 0.18219,0.64501 -0.002,0.11694 -0.1244,0.11706 -0.24575,0.41223 -0.12136,0.29516 -0.24366,0.88217 -0.30455,1.29309 -0.0609,0.41092 -0.0609,0.64577 -0.12341,0.76193 -0.0625,0.11616 -0.18473,0.1163 -0.42953,0.2938 -0.24479,0.1775 -0.61234,0.53 -1.83573,0.35224 -1.22338,-0.17775 -3.30385,-0.88265 -4.52683,-2.17346 -1.22298,-1.2908 -1.5905,-3.17002 -1.7743,-4.34436 -0.18378,-1.17435 -0.18377,-1.64446 -0.18377,-1.93811 0,-0.17465 -2.8e-4,-0.28617 -0.0392,-0.34869 z m -7.75021,1.23974 -1.06194,0.16976 c 0.36394,-0.11642 0.73106,-0.23358 0.91628,-0.2328 0.075,3.1e-4 0.1191,0.0204 0.14566,0.063 z" />
    <path
       style="fill:none;stroke:#000000;stroke-width:0.265654"
       d="m 158.85863,179.75489 c -0.0913,-0.23358 -0.18308,-0.46852 -0.2754,-0.70477"
       id="path2719"
       inkscape:path-effect="#path-effect2721-8"
       inkscape:original-d="m 158.85863,179.75489 c -0.0945,-0.23232 -0.18631,-0.46726 -0.2754,-0.70477" />
    <path
       id="path2813"
       style="fill:none;stroke:#000000;stroke-width:0.0899282"
       d="m 159.22349,179.28599 c 0.59388,0.004 1.9576,0.0331 3.52369,0.0763 2.9024,0.08 3.81371,0.13135 3.86955,0.21806 0.0402,0.0624 0.10054,0.33522 0.13453,0.60639 0.0511,0.40848 0.5803,2.14585 0.98195,3.2241 0.0541,0.14536 0.14873,0.5222 0.21026,0.83716 0.0615,0.31493 0.13979,0.6552 0.17372,0.75633 0.0367,0.10941 -0.0102,0.34155 -0.11599,0.57284 -0.15657,0.34211 -0.22565,0.63481 -0.4253,1.81004 -0.0517,0.30393 -0.59523,0.71588 -1.09741,0.83156 -0.38567,0.0888 -0.38179,0.0892 -1.14826,-0.0442 -1.42439,-0.24793 -2.97295,-0.9445 -3.92304,-1.76428 -1.25584,-1.08359 -1.96522,-2.93189 -2.23243,-5.81843 -0.059,-0.63788 -0.15106,-1.17254 -0.20815,-1.20668 -0.0564,-0.0337 -0.0831,-0.0758 -0.0593,-0.094 0.006,-0.005 0.11823,-0.006 0.3162,-0.005 z" />
    <path
       id="path2815"
       style="fill:none;stroke:#000000;stroke-width:0.0899282"
       d="m 159.07731,179.37495 2.96598,0.0681 c 3.65707,0.0839 4.3919,0.13481 4.48604,0.31158 0.0388,0.0727 0.15731,0.4946 0.26376,0.93728 0.10646,0.44269 0.3802,1.37157 0.60804,2.06418 0.57396,1.74488 0.67224,2.33843 0.47667,2.87846 -0.0835,0.23069 -0.19912,0.67672 -0.25634,0.99167 -0.0572,0.31495 -0.14657,0.68147 -0.19862,0.81429 -0.0978,0.24949 -0.53036,0.55547 -0.96924,0.68569 -0.46748,0.13869 -1.75455,-0.11982 -2.90031,-0.58301 -2.64173,-1.068 -3.72723,-2.70749 -4.19527,-6.33485 -0.10003,-0.77531 -0.20434,-1.50489 -0.23146,-1.62144 z" />
    <path
       id="path2817"
       style="fill:none;stroke:#000000;stroke-width:0.0899282"
       d="m 159.21184,179.49034 1.06245,0.002 c 1.47567,0.002 5.66438,0.16351 5.93514,0.22872 0.17486,0.0421 0.25092,0.15106 0.35169,0.50627 0.0706,0.24908 0.32435,1.10711 0.56353,1.9066 0.23919,0.79949 0.51574,1.77675 0.61491,2.17193 l 0.18062,0.71873 -0.28919,1.16653 c -0.1589,0.64144 -0.32983,1.23915 -0.37976,1.32866 -0.0499,0.0895 -0.2444,0.24084 -0.43218,0.33599 -0.20402,0.10339 -0.52845,0.17455 -0.80611,0.17689 -1.21781,0.0102 -3.33345,-0.83807 -4.37377,-1.75361 -1.26721,-1.1152 -1.79,-2.37098 -2.21495,-5.31673 z" />
    <path
       id="path2819"
       style="fill:none;stroke:#000000;stroke-width:0.0899282"
       d="m 159.36331,179.55133 2.40986,0.063 c 2.67984,0.0701 4.44276,0.16838 4.53001,0.25211 0.0654,0.0627 0.70582,2.17042 1.1954,3.9347 l 0.32837,1.1833 -0.24893,1.01912 c -0.34622,1.41716 -0.42054,1.56423 -0.89032,1.76886 -0.21648,0.0943 -0.5417,0.17228 -0.72296,0.17332 -0.49544,0.003 -1.64084,-0.30293 -2.40774,-0.64299 -2.01501,-0.89347 -3.05814,-2.08971 -3.59149,-4.12072 -0.21391,-0.81456 -0.6022,-3.02895 -0.6022,-3.43402 z" />
    <path
       id="path2821"
       style="fill:none;stroke:#000000;stroke-width:0.0899282"
       d="m 160.35056,179.66722 c 1.18162,2.6e-4 5.11612,0.16125 5.55221,0.2272 0.40067,0.0606 0.34656,-0.0737 1.27272,3.1443 l 0.55613,1.93253 -0.23251,0.95253 c -0.33109,1.3575 -0.43273,1.55588 -0.90303,1.76074 -0.21648,0.0943 -0.50056,0.17228 -0.63134,0.17332 -0.5028,0.004 -1.72995,-0.36685 -2.64449,-0.79954 -0.78494,-0.37139 -1.07873,-0.57087 -1.65619,-1.12434 -0.81165,-0.77796 -1.18124,-1.39482 -1.51529,-2.52876 -0.21694,-0.7364 -0.6933,-3.18805 -0.6933,-3.5677 0,-0.15732 0.0706,-0.17046 0.89509,-0.17028 z" />
    <path
       id="path2823"
       style="fill:none;stroke:#000000;stroke-width:0.0899282"
       d="m 160.43371,179.75465 c 1.69616,-9e-5 5.30709,0.19278 5.53103,0.29532 0.26947,0.12337 0.31398,0.24171 1.07517,2.87387 l 0.59797,2.06773 -0.2394,0.91646 c -0.34578,1.32429 -0.43169,1.48716 -0.89403,1.68855 -0.21648,0.0943 -0.47744,0.17229 -0.57943,0.17333 -0.3978,0.004 -1.60157,-0.37834 -2.4766,-0.78684 -1.44753,-0.67579 -2.48327,-1.70825 -2.98823,-2.97859 -0.19336,-0.48647 -0.72857,-2.83169 -0.86436,-3.78728 l -0.0662,-0.46255 z" />
    <path
       id="path2825"
       style="fill:none;stroke:#000000;stroke-width:0.0899282"
       d="m 160.27694,179.84564 c 0.30845,1.1e-4 0.75774,0.0101 1.40461,0.029 2.61342,0.0765 4.20929,0.2028 4.3494,0.3436 0.13238,0.13304 0.41372,0.99102 1.03967,3.16869 l 0.47456,1.64991 -0.24416,0.86105 c -0.3632,1.28138 -0.43627,1.41319 -0.88873,1.61027 -0.52011,0.22655 -0.59763,0.22164 -1.57568,-0.0996 -2.40089,-0.78862 -3.80523,-1.99934 -4.37959,-3.77711 -0.17712,-0.54819 -0.81588,-3.43422 -0.81724,-3.69224 -2.7e-4,-0.0655 0.12308,-0.0937 0.63716,-0.0935 z" />
    <path
       id="path2827"
       style="fill:none;stroke:#000000;stroke-width:0.0899282"
       d="m 160.31243,179.93712 c 1.07259,0.008 3.3449,0.0914 4.36052,0.17485 0.57243,0.047 1.11235,0.1224 1.19964,0.16724 0.16695,0.0857 0.52687,1.1215 1.20387,3.46553 l 0.37604,1.30326 -0.24257,0.81022 c -0.35678,1.19013 -0.44388,1.35151 -0.83948,1.55181 -0.45704,0.23143 -0.45772,0.23125 -1.43956,-0.0844 -2.47312,-0.79499 -3.90866,-2.09999 -4.45693,-4.05108 -0.16108,-0.57327 -0.74308,-3.17093 -0.74308,-3.31661 0,-0.0173 0.22401,-0.0234 0.58155,-0.0209 z" />
    <path
       id="path2829"
       style="fill:none;stroke:#000000;stroke-width:0.0899282"
       d="m 159.81192,179.99253 1.81825,0.0615 c 1.85769,0.0625 3.80638,0.19564 4.08564,0.27955 0.20503,0.0616 0.43667,0.67086 1.09795,2.88355 l 0.54764,1.83188 -0.28865,0.89867 c -0.34048,1.06019 -0.46475,1.26871 -0.85431,1.43134 -0.37981,0.15855 -0.29613,0.16855 -1.22505,-0.14436 -1.75912,-0.59253 -2.99714,-1.42227 -3.71596,-2.48961 -0.47493,-0.70518 -0.65207,-1.19885 -1.03545,-2.88303 -0.18107,-0.79549 -0.35213,-1.54172 -0.37975,-1.65805 z" />
    <path
       id="path2831"
       style="fill:none;stroke:#000000;stroke-width:0.0899282"
       d="m 159.92844,180.08148 1.62228,0.0595 c 2.83683,0.1043 4.08487,0.21953 4.21965,0.38935 0.13447,0.16946 0.65799,1.70908 1.15937,3.40911 l 0.33791,1.14518 -0.34903,0.96728 c -0.29926,0.82908 -0.39354,0.99525 -0.66099,1.16704 -0.17155,0.1102 -0.34441,0.20027 -0.38399,0.20027 -0.0395,0 -0.41526,-0.12137 -0.83524,-0.2699 -1.32302,-0.46788 -2.16422,-0.94689 -2.93632,-1.67178 -1.05966,-0.99485 -1.279,-1.50218 -1.99357,-4.61224 z" />
    <path
       id="path2833"
       style="fill:none;stroke:#000000;stroke-width:0.0899282"
       d="m 160.61538,180.19534 c 0.90407,9e-5 3.90157,0.17726 4.47863,0.26482 0.29909,0.0454 0.57752,0.13327 0.61916,0.19519 0.10655,0.15843 0.82917,2.30076 1.17261,3.4767 l 0.2876,0.98559 -0.33102,0.86461 c -0.23797,0.62144 -0.41208,0.93239 -0.61969,1.10654 -0.15884,0.13325 -0.29831,0.24246 -0.30983,0.24246 -0.0115,0 -0.32266,-0.10376 -0.69171,-0.23026 -1.99439,-0.68366 -3.45025,-1.77247 -4.05758,-3.03501 -0.27194,-0.56534 -0.83321,-2.50438 -1.02484,-3.54025 l -0.0615,-0.33039 z" />
    <path
       id="path2835"
       style="fill:none;stroke:#000000;stroke-width:0.0899282"
       d="m 160.63656,180.29597 c 1.20419,-0.005 4.45126,0.20136 4.83138,0.34005 0.14977,0.0546 0.29907,0.39887 0.71131,1.6423 0.28685,0.86525 0.60568,1.85537 0.70866,2.2004 l 0.18748,0.62723 -0.23356,0.5947 c -0.29816,0.7602 -0.47619,1.0971 -0.71184,1.34443 -0.10387,0.10903 -0.19771,0.19824 -0.20814,0.19824 -0.099,0 -1.36558,-0.50176 -1.8119,-0.71772 -1.28064,-0.61966 -2.31932,-1.50412 -2.76632,-2.35593 -0.29714,-0.56624 -1.15354,-3.41047 -1.15408,-3.83354 -4e-5,-0.027 0.16912,-0.039 0.44701,-0.0402 z" />
    <path
       id="path2837"
       style="fill:none;stroke:#000000;stroke-width:0.0899282"
       d="m 160.6694,180.39001 c 1.04952,-0.006 3.91209,0.16283 4.58457,0.29633 0.29932,0.0594 0.33476,0.1393 1.12972,2.55723 l 0.60061,1.82731 -0.18591,0.47678 c -0.22263,0.57104 -0.40929,0.93649 -0.67423,1.32053 -0.1084,0.15715 -0.2005,0.28592 -0.20444,0.28618 -0.0545,0.005 -1.31926,-0.52363 -1.73509,-0.72484 -1.21314,-0.58698 -2.29146,-1.48267 -2.69163,-2.23545 -0.28068,-0.52801 -1.21021,-3.42045 -1.21129,-3.769 -7e-5,-0.0227 0.14549,-0.0336 0.38769,-0.0351 z" />
    <path
       id="path2839"
       style="fill:none;stroke:#000000;stroke-width:0.0899282"
       d="m 160.68953,180.46168 c 0.185,-5.2e-4 0.47827,0.0125 0.93587,0.0346 1.53438,0.074 3.28549,0.21172 3.57348,0.28108 0.25923,0.0624 0.34759,0.26636 1.10166,2.53995 l 0.5826,1.75615 -0.24098,0.57843 c -0.13247,0.31808 -0.35961,0.76355 -0.50476,0.99015 l -0.26376,0.41223 -0.50368,-0.214 c -0.81624,-0.34643 -1.61705,-0.74688 -2.05924,-1.0303 -0.63635,-0.40787 -1.46054,-1.21095 -1.69433,-1.65042 -0.20576,-0.38683 -0.84688,-2.20278 -1.05715,-2.99487 -0.0579,-0.21804 -0.12781,-0.47157 -0.15572,-0.56318 -0.0304,-0.0998 -0.0223,-0.13885 0.28601,-0.13978 z" />
    <path
       id="path2841"
       style="fill:none;stroke:#000000;stroke-width:0.0899282"
       d="m 160.47237,180.5242 1.1668,0.0605 c 1.37988,0.0712 3.19759,0.21374 3.47444,0.27244 0.24317,0.0516 0.35094,0.29747 1.09371,2.49622 l 0.57572,1.70482 -0.26695,0.60232 c -0.14691,0.33132 -0.3541,0.7438 -0.46025,0.91646 -0.10614,0.17264 -0.23318,0.31361 -0.2823,0.31361 -0.0491,0 -0.62879,-0.26281 -1.28808,-0.58454 -1.29837,-0.63359 -2.25303,-1.38023 -2.69799,-2.10889 -0.22519,-0.36878 -0.79041,-1.89282 -1.13501,-3.06144 z" />
    <path
       id="path2843"
       style="fill:none;stroke:#000000;stroke-width:0.0899282"
       d="m 160.93952,180.63602 c 0.50164,1.5e-4 3.96392,0.2623 4.12908,0.31261 0.19111,0.0582 0.32871,0.37968 1.04656,2.44945 l 0.57572,1.6606 -0.27277,0.58454 c -0.15022,0.3213 -0.35595,0.71263 -0.45707,0.86969 l -0.18379,0.28564 -0.93482,-0.45034 c -1.73537,-0.83559 -2.65751,-1.57963 -3.09415,-2.49672 -0.26298,-0.55235 -0.93742,-2.43527 -1.04922,-2.9293 -0.0629,-0.27816 -0.0565,-0.28626 0.24046,-0.28617 z" />
    <path
       id="path2845"
       style="fill:none;stroke:#000000;stroke-width:0.0899282"
       d="m 160.88761,180.73107 c 0.30755,-0.008 1.13811,0.0465 2.8643,0.18198 l 1.31351,0.10318 0.1467,0.27244 c 0.19662,0.36456 1.31139,3.57243 1.31139,3.77357 0,0.0873 -0.16558,0.47499 -0.3681,0.86154 -0.20252,0.38655 -0.41501,0.70247 -0.47244,0.70247 -0.14813,0 -1.58074,-0.75478 -2.23137,-1.17568 -0.76851,-0.49719 -1.28717,-1.03815 -1.60163,-1.67178 -0.23543,-0.47438 -1.1096,-2.85393 -1.1096,-3.02026 0,-0.0156 0.0447,-0.0249 0.14724,-0.0275 z" />
    <path
       id="path2847"
       style="fill:none;stroke:#000000;stroke-width:0.0899282"
       d="m 161.04121,180.81189 c 0.79731,-0.001 3.89411,0.29555 3.98183,0.38123 0.10456,0.1021 0.69979,1.68202 1.18428,3.14429 l 0.2484,0.74972 -0.38082,0.72636 -0.38027,0.72635 -0.48039,-0.23128 c -1.01165,-0.48668 -2.03527,-1.13387 -2.5036,-1.58332 -0.56569,-0.5429 -0.86171,-1.10222 -1.45334,-2.74579 -0.41195,-1.1444 -0.41623,-1.16732 -0.21609,-1.16756 z" />
    <path
       style="fill:none;stroke:#000000;stroke-width:0.0899282"
       d="m 166.02479,185.73413 0.32956,-0.62805 -0.24558,-0.75948 c -0.32534,-1.00611 -1.05319,-2.94411 -1.13805,-3.03023 -0.078,-0.0792 -1.75749,-0.28496 -3.06441,-0.3755 l -0.8996,-0.0623 0.0641,0.25307 c 0.15036,0.5942 0.97651,2.56052 1.24368,2.96009 0.15987,0.2391 0.53442,0.624 0.83235,0.85534 0.53485,0.41533 2.26794,1.41514 2.45302,1.41514 0.0525,0 0.24373,-0.28261 0.42499,-0.62805 z"
       id="path2849" />
    <path
       style="fill:none;stroke:#000000;stroke-width:0.0899282"
       d="m 165.92752,185.70645 0.33607,-0.57673 -0.19892,-0.5951 c -0.38413,-1.14917 -1.12608,-3.11005 -1.19145,-3.14882 -0.0915,-0.0543 -1.99017,-0.28334 -2.96051,-0.35715 l -0.8014,-0.061 0.21505,0.60493 c 0.46383,1.30478 1.00257,2.41653 1.35966,2.80588 0.35909,0.39149 1.38176,1.08871 2.38474,1.62581 l 0.52069,0.27885 z"
       id="path2851" />
    <path
       style="fill:none;stroke:#000000;stroke-width:0.0899282"
       d="m 165.87837,185.59135 0.28644,-0.50658 -0.46178,-1.2774 c -0.82879,-2.29264 -0.84272,-2.32035 -1.20327,-2.39249 -0.55501,-0.11106 -3.12718,-0.35784 -3.18194,-0.30529 -0.0714,0.0686 0.46365,1.43084 0.91351,2.32548 0.27156,0.54008 0.49291,0.83678 0.85438,1.14527 0.47971,0.40938 2.24547,1.51756 2.41805,1.51756 0.0485,0 0.21708,-0.22796 0.37461,-0.50655 z"
       id="path2853" />
    <path
       style="fill:none;stroke:#000000;stroke-width:0.0899282"
       d="m 165.62863,185.80986 c 0.48051,-0.70743 0.48844,-0.59356 -0.16491,-2.36661 -0.32758,-0.88895 -0.66925,-1.68696 -0.75928,-1.77336 -0.15778,-0.15144 -1.0456,-0.29718 -2.74507,-0.45065 l -0.57116,-0.0516 0.23143,0.61575 c 0.4037,1.07402 0.92804,2.08102 1.27612,2.45078 0.29442,0.31274 1.84428,1.39208 2.40225,1.67292 0.16666,0.0839 0.2178,0.0688 0.33062,-0.0973 z"
       id="path2855" />
    <path
       style="fill:none;stroke:#000000;stroke-width:0.0899282"
       d="m 165.69004,185.53689 c 0.1051,-0.16319 0.19109,-0.37862 0.19109,-0.47875 0,-0.22304 -0.66354,-2.06287 -1.01307,-2.80894 -0.29231,-0.62396 -0.33442,-0.64319 -1.78676,-0.81523 -0.45439,-0.0538 -0.98108,-0.11714 -1.17042,-0.14069 -0.18933,-0.0236 -0.34423,-0.008 -0.34423,0.0353 0,0.14138 0.65096,1.6317 0.94084,2.15398 0.15632,0.28164 0.48963,0.6893 0.74068,0.90592 0.46962,0.4052 2.03297,1.44517 2.17249,1.44517 0.043,0 0.16428,-0.13352 0.26937,-0.29672 z"
       id="path2857" />
    <path
       style="fill:none;stroke:#000000;stroke-width:0.0899282"
       d="m 165.60579,185.4607 c 0.10054,-0.15831 0.183,-0.32933 0.18319,-0.38005 5.4e-4,-0.17337 -0.70815,-2.10919 -0.98833,-2.69931 -0.31902,-0.67188 -0.35867,-0.6912 -1.76524,-0.86039 -0.42916,-0.0516 -0.91499,-0.11518 -1.07962,-0.14125 l -0.29934,-0.0474 0.15098,0.37858 c 0.35584,0.89232 0.94367,1.99256 1.235,2.31152 0.30156,0.33017 1.16511,0.9744 1.98997,1.48457 l 0.39053,0.24154 z"
       id="path2859" />
    <path
       style="fill:none;stroke:#000000;stroke-width:0.0899282"
       d="m 165.56113,185.3348 c 0.15563,-0.22794 0.15175,-0.25823 -0.13814,-1.0792 -0.16405,-0.46457 -0.3061,-0.88431 -0.31567,-0.93276 -0.009,-0.0485 -0.16585,-0.39259 -0.34727,-0.76476 -0.38171,-0.78302 -0.38472,-0.78451 -1.97877,-0.98407 -1.1177,-0.13993 -1.08649,-0.25235 -0.34113,1.22835 0.39275,0.78025 0.59132,1.06431 0.98531,1.40955 0.44213,0.38744 1.82288,1.3574 1.93227,1.3574 0.0238,0 0.11534,-0.10553 0.2034,-0.23451 z"
       id="path2861" />
    <path
       style="fill:none;stroke:#000000;stroke-width:0.0899282"
       d="m 165.50373,185.23523 c 0.1068,-0.19154 -0.44681,-1.8832 -0.89001,-2.71961 -0.22925,-0.43262 -0.34886,-0.56165 -0.58877,-0.63516 -0.42314,-0.12966 -1.89789,-0.31414 -1.96863,-0.24624 -0.10105,0.097 0.85381,1.87279 1.21096,2.25217 0.18715,0.1988 0.29416,0.36147 0.23779,0.36147 -0.0564,0 -0.10249,0.0359 -0.10249,0.0798 0,0.0439 0.0722,0.0626 0.16064,0.0415 0.0971,-0.0232 0.45136,0.17186 0.89503,0.49262 0.40391,0.29203 0.78456,0.53101 0.8459,0.5311 0.0613,9e-5 0.15113,-0.0709 0.19956,-0.15772 z"
       id="path2863" />
    <path
       style="fill:none;stroke:#000000;stroke-width:0.0899282"
       d="m 165.38806,185.17509 c 0.0719,-0.17959 -0.4497,-1.76727 -0.82016,-2.49691 -0.15541,-0.30611 -0.36203,-0.59738 -0.45915,-0.64726 -0.22356,-0.11482 -1.81168,-0.36345 -1.88318,-0.29483 -0.0769,0.0738 0.57637,1.31009 1.05281,1.99253 0.22347,0.32009 0.50955,0.62713 0.63573,0.6823 0.12618,0.0552 0.44481,0.25175 0.70807,0.43686 0.67774,0.47651 0.70206,0.48691 0.76588,0.32731 z"
       id="path2865" />
    <path
       style="fill:none;stroke:#000000;stroke-width:0.0899282"
       d="m 165.23204,184.79229 c -0.13291,-0.56768 -0.63966,-1.8894 -0.87318,-2.27741 -0.23857,-0.39644 -0.4686,-0.50523 -1.27756,-0.60427 -0.25244,-0.0309 -0.53735,-0.0772 -0.63312,-0.10288 -0.13848,-0.0371 -0.0666,0.1482 0.35084,0.90521 0.28873,0.52354 0.6311,1.07316 0.76082,1.22138 0.19647,0.22449 1.58709,1.1945 1.71244,1.1945 0.0212,0 0.003,-0.15143 -0.0403,-0.33653 z"
       id="path2873" />
    <path
       style="fill:none;stroke:#000000;stroke-width:0.0899282"
       d="m 165.09893,184.67878 c -0.0806,-0.35336 -0.61342,-1.71348 -0.82552,-2.10713 -0.0818,-0.1517 -0.28014,-0.32776 -0.44087,-0.39125 -0.35146,-0.13882 -1.25612,-0.26551 -1.25612,-0.17591 0,0.035 0.19622,0.42241 0.43604,0.86085 0.47569,0.86966 0.74645,1.16428 1.59503,1.73553 l 0.55954,0.37668 z"
       id="path2875" />
    <path
       style="fill:none;stroke:#000000;stroke-width:0.0899282"
       d="m 164.96314,184.60859 c 0,-0.15003 -0.47301,-1.35723 -0.70483,-1.7988 -0.15488,-0.29505 -0.31277,-0.45996 -0.51645,-0.53945 -0.36295,-0.14165 -0.98185,-0.25277 -0.98185,-0.17629 0,0.0311 0.16965,0.36956 0.37701,0.75205 0.26023,0.48004 0.54583,0.84543 0.9221,1.17976 0.58409,0.51897 0.90402,0.7252 0.90402,0.58273 z"
       id="path2879" />
    <path
       style="fill:none;stroke:#000000;stroke-width:0.0899282"
       d="m 164.77955,184.36294 c 0,-0.13126 -0.46454,-1.22158 -0.66835,-1.56869 -0.16598,-0.28266 -0.29743,-0.38134 -0.6643,-0.49872 -0.25156,-0.0805 -0.47042,-0.13405 -0.48635,-0.11903 -0.0892,0.0841 0.62063,1.2009 1.02239,1.60857 0.46171,0.46852 0.79661,0.71147 0.79661,0.57787 z"
       id="path2887" />
    <path
       style="fill:none;stroke:#000000;stroke-width:0.0899282"
       d="m 164.43267,182.90084 c 0.21012,-0.15246 0.28665,-0.16512 0.48193,-0.0797 0.12768,0.0558 0.23214,0.067 0.23214,0.0247 0,-0.23288 -0.65463,-0.23813 -0.87259,-0.007 -0.23114,0.24512 -0.14194,0.28001 0.15852,0.062 z"
       id="path2889" />
    <path
       style="fill:none;stroke:#000000;stroke-width:0.0899282"
       d="m 164.5939,184.11157 c -0.001,-0.0462 -0.12413,-0.32183 -0.27333,-0.61254 -0.30957,-0.60318 -0.33075,-0.69997 -0.13769,-0.62888 0.0757,0.0279 0.13769,0.0166 0.13769,-0.0252 0,-0.0633 -0.14094,-0.1505 -0.36719,-0.22727 -0.0252,-0.009 -0.20528,-0.0837 -0.40006,-0.16693 -0.19479,-0.0832 -0.376,-0.13041 -0.4027,-0.10478 -0.0787,0.0755 0.6719,1.12473 1.07442,1.50195 0.20401,0.19117 0.36999,0.30981 0.36886,0.26363 z"
       id="path2977" />
    <path
       style="fill:none;stroke:#000000;stroke-width:0.0899282"
       d="m 164.19473,183.52105 c -0.0272,-0.0606 -0.0994,-0.2724 -0.16053,-0.47072 -0.0844,-0.27355 -0.1781,-0.38484 -0.3883,-0.46097 -0.1524,-0.0552 -0.29114,-0.0869 -0.30831,-0.0704 -0.0406,0.039 0.78226,1.11225 0.85275,1.11225 0.0295,0 0.0316,-0.0495 0.004,-0.11012 z"
       id="path2981" />
    <path
       style="fill:none;stroke:#000000;stroke-width:0.0899282"
       d="m 164.22877,183.00687 c 0,-0.0443 -0.0744,-0.0805 -0.16523,-0.0805 -0.0909,0 -0.21998,-0.0495 -0.28687,-0.11013 -0.098,-0.0887 -0.11378,-0.0854 -0.0813,0.0172 0.045,0.14171 0.53333,0.30047 0.53333,0.17337 z"
       id="path2985" />
    <path
       style="fill:none;stroke:#000000;stroke-width:0.0899282"
       d="m 163.95338,182.58343 c 0,-0.0433 -0.0654,-0.10274 -0.14521,-0.13214 -0.25081,-0.0924 -0.33216,-0.0585 -0.18919,0.0787 0.15252,0.14638 0.3344,0.17547 0.3344,0.0535 z"
       id="path2987" />
    <path
       style="fill:#ffffff;stroke:#000000;stroke-width:0.0899282"
       d="m 162.94361,181.41 c 0,-0.0451 -0.0583,-0.13787 -0.12951,-0.20623 -0.0712,-0.0684 -0.14508,-0.16916 -0.16413,-0.224 -0.0191,-0.0549 -0.0992,-0.0853 -0.17823,-0.0677 -0.10869,0.0243 -0.0688,0.0987 0.16413,0.30595 0.16926,0.15063 0.30774,0.237 0.30774,0.19193 z"
       id="path2993" />
    <path
       id="path3099"
       style="fill:#ffffff;stroke:#000000;stroke-width:0.265654"
       d="m 165.14698,184.24796 a 1.3310599,1.6738489 0 0 1 1.33099,1.67379 1.3310599,1.6738489 0 0 1 -1.33099,1.67381 1.3310599,1.6738489 0 0 1 -1.33151,-1.67381 1.3310599,1.6738489 0 0 1 1.33151,-1.67379 z" />
    <ellipse
       style="fill:#ffffff;stroke:#000000;stroke-width:0.265654"
       id="path3101"
       cx="-162.02565"
       cy="182.13351"
       rx="1.5146543"
       ry="0.96907043"
       transform="scale(-1,1)" />
    <path
       id="rect3215"
       style="fill:#0000ff;stroke:#000000;stroke-width:0.207436"
       d="m 176.14588,197.16416 v 39.1726 h -14.19566 v -39.1726 z" />
    <path
       id="path4981-5"
       style="fill:url(#linearGradient8929);fill-opacity:1;stroke:#f4e3d7;stroke-width:0.266072;stroke-dasharray:none;stroke-opacity:1"
       d="m 168.31288,225.25156 a 6.4258061,4.1405736 0 0 1 6.42611,4.14056 6.4258061,4.1405736 0 0 1 -6.42611,4.14054 6.4258061,4.1405736 0 0 1 -6.4256,-4.14054 6.4258061,4.1405736 0 0 1 6.4256,-4.14056 z" />
    <path
       id="path5293"
       style="fill:#000000;fill-opacity:1;stroke:#000000;stroke-width:0.277179;stroke-dasharray:none;stroke-opacity:1"
       d="m 173.52463,231.1894 -0.65889,0.74546 c 0.0112,-0.008 0.0232,-0.0161 0.0368,-0.0265 0.0575,-0.0438 0.14016,-0.1168 0.18168,-0.15955 0.0415,-0.0428 0.0415,-0.0575 0.0586,-0.0737 0.0173,-0.0162 0.0505,-0.031 0.11614,-0.0966 0.0657,-0.0656 0.16559,-0.1833 0.2156,-0.25559 0.0499,-0.0723 0.05,-0.10169 0.05,-0.13365 z m -0.65889,0.74546 c -0.0357,0.0244 -0.0582,0.0358 -0.0713,0.0483 -0.0173,0.0162 -0.0174,0.0312 -0.0506,0.0666 -0.0332,0.0354 -0.0995,0.0938 -0.18284,0.18954 -0.0833,0.0957 -0.1831,0.22826 -0.28229,0.35977 z" />
    <path
       id="path5301"
       style="fill:#000000;fill-opacity:1;stroke:#000000;stroke-width:0.266072;stroke-dasharray:none;stroke-opacity:1"
       d="m 163.63224,236.44858 0.0455,0.88086 z" />
    <path
       id="path5325"
       style="fill:#000000;fill-opacity:1;stroke:#000000;stroke-width:0.266072;stroke-dasharray:none;stroke-opacity:1"
       d="m 170.65473,235.87573 -0.79552,0.005 c 0.19922,-0.005 0.49566,-0.005 0.79552,-0.005 z m -0.79552,0.005 c -0.0465,9.9e-4 -0.0895,0.002 -0.12393,0.004 -0.18223,0.009 -0.18235,0.0233 -0.29871,0.0666 -0.11638,0.0433 -0.34561,0.1168 -0.48304,0.15299 -0.13742,0.0362 -0.18333,0.0369 -0.27541,0.0595 -0.092,0.0225 -0.23027,0.0664 -0.32943,0.0879 -0.0992,0.0215 -0.16036,0.0218 -0.19862,0.0305 -0.0382,0.009 -0.0531,0.0234 -0.0837,0.0295 -0.0307,0.006 -0.077,0.006 -0.11545,0.0143 -0.0385,0.008 -0.0691,0.0229 -0.12236,0.0295 -0.0533,0.007 -0.12987,0.006 -0.22192,0.0213 -0.092,0.0151 -0.19877,0.0448 -0.4433,0.0589 -0.24454,0.0143 -0.62701,0.0136 -0.91734,-0.008 -0.29033,-0.0222 -0.48918,-0.0662 -0.65728,-0.11029 -0.16812,-0.0441 -0.30593,-0.0882 -0.50528,-0.11743 -0.19935,-0.0292 -0.45959,-0.0438 -0.76533,-0.0879 -0.30573,-0.0442 -0.65753,-0.11761 -1.00737,-0.1906 z" />
    <path
       id="path5641"
       style="fill:#ff00ff;fill-opacity:1;stroke:#ff00ff;stroke-width:0.277179;stroke-dasharray:none;stroke-opacity:1"
       d="m 166.70217,239.45658 0.14086,6.75735 c 0.0816,-0.23707 0.16377,-0.476 0.2225,-0.65754 0.0587,-0.18154 0.0937,-0.3062 0.11154,-0.45632 0.0179,-0.15012 0.0183,-0.32639 0.03,-0.47715 0.0116,-0.15075 0.0346,-0.2751 0.0466,-0.3994 0.0119,-0.12431 0.0122,-0.24902 0.0122,-0.467 v -0.8303 c 0,-0.30101 -1.6e-4,-0.59168 -0.0173,-0.78865 -0.0172,-0.19695 -0.0521,-0.30081 -0.0816,-0.42023 -0.0296,-0.11946 -0.053,-0.25418 -0.065,-0.36334 -0.0121,-0.10915 -0.0121,-0.19216 -0.0408,-0.32165 -0.0288,-0.1295 -0.0878,-0.30632 -0.14086,-0.50358 -0.0531,-0.19728 -0.0998,-0.41488 -0.13512,-0.59656 -0.0353,-0.18169 -0.0588,-0.32741 -0.0828,-0.47563 z" />
    <path
       id="path5681"
       style="fill:#ff00ff;fill-opacity:1;stroke:#ff00ff;stroke-width:0.277179;stroke-dasharray:none;stroke-opacity:1"
       d="m 170.34597,233.68089 -0.79803,0.75104 c 0.0686,-0.0345 0.13423,-0.0684 0.18801,-0.0976 0.1523,-0.0829 0.223,-0.13461 0.2754,-0.19106 0.0524,-0.0565 0.0876,-0.11896 0.12303,-0.16619 0.0355,-0.0472 0.0709,-0.0783 0.10584,-0.12448 0.035,-0.0462 0.07,-0.10845 0.10584,-0.17175 z m -0.79803,0.75104 c -0.1258,0.0633 -0.26543,0.13044 -0.38693,0.1875 -0.18783,0.0882 -0.32871,0.15083 -0.40592,0.1931 -0.0772,0.0423 -0.0891,0.0627 -0.13568,0.10367 -0.0465,0.0409 -0.12843,0.10349 -0.18169,0.15599 -0.0533,0.0525 -0.0771,0.0939 -0.15868,0.1555 -0.0815,0.0616 -0.22209,0.14467 -0.43294,0.22764 -0.21084,0.083 -0.4929,0.16577 -0.68706,0.23324 -0.19415,0.0675 -0.29976,0.11965 -0.36336,0.14585 -0.0636,0.0262 -0.087,0.0261 -0.11787,0.0417 -0.0308,0.0155 -0.0665,0.0467 -0.11901,0.0828 -0.0525,0.0361 -0.12296,0.0776 -0.19318,0.11382 -0.0702,0.0363 -0.1407,0.0677 -0.28805,0.17684 -0.14734,0.10921 -0.37043,0.29605 -0.5117,0.44716 -0.14127,0.15113 -0.2001,0.2649 -0.2823,0.46751 -0.0822,0.20261 -0.18776,0.49351 -0.24032,0.66008 -0.0525,0.16658 -0.0523,0.20799 -0.0644,0.25408 -0.0121,0.0461 -0.0355,0.098 -0.0529,0.22307 -0.0174,0.12509 -0.0293,0.32255 -0.0408,0.51729 z" />
    <path
       id="path5693"
       style="fill:#ff00ff;fill-opacity:1;stroke:#ff00ff;stroke-width:0.266072;stroke-dasharray:none;stroke-opacity:1"
       d="m 173.4493,235.36399 v 5.1e-4 c 0.0501,-0.005 0.30983,0.43103 0.30983,0.43103 l -2.04493,-0.3736 h 0.90621 c 0.238,0 0.37834,-5e-4 0.45919,-0.005 0.0809,-0.004 0.10297,-0.0149 0.1626,-0.026 0.0597,-0.011 0.15693,-0.0215 0.2071,-0.027 z" />
    <path
       id="path6258"
       style="fill:#000080;fill-opacity:1;stroke:#000080;stroke-width:0.266072;stroke-dasharray:none;stroke-opacity:1"
       d="m 173.59694,214.93327 c 0.0421,0.0203 0.0857,0.0412 0.12818,0.0518 0.0424,0.0106 0.0856,0.0104 0.10856,0.0326 0.023,0.022 0.0229,0.0639 0.044,0.0935 0.0211,0.0296 0.0643,0.0501 0.11917,0.12352 0.0549,0.0735 0.11982,0.19821 0.152,0.47931 0.0322,0.28112 0.0327,0.71712 -0.0435,1.24684 -0.0481,0.33427 -0.12546,0.69852 -0.19543,1.01049 z m 0.31302,3.03808 0.85536,8.29938 c -0.17268,-0.24857 -0.34548,-0.49737 -0.44277,-0.65265 -0.0973,-0.15525 -0.11928,-0.21752 -0.16314,-0.27042 -0.0439,-0.0529 -0.10858,-0.0948 -0.18378,-0.17738 -0.0752,-0.0825 -0.16201,-0.20715 -0.2055,-0.28922 -0.0435,-0.082 -0.0435,-0.12334 -0.0657,-0.15603 -0.0222,-0.0328 -0.065,-0.0536 -0.18326,-0.18807 -0.11829,-0.1345 -0.31349,-0.38355 -0.42158,-0.54896 -0.10811,-0.16542 -0.12965,-0.24847 -0.16207,-0.33193 -0.0324,-0.0834 -0.0757,-0.16633 -0.11918,-0.38374 -0.0434,-0.21743 -0.0863,-0.57066 -0.10804,-0.83005 -0.0218,-0.25939 -0.0222,-0.4255 -0.0127,-0.51897 0.009,-0.0934 0.0311,-0.11428 0.0535,-0.15554 0.0224,-0.0412 0.0443,-0.10365 0.0556,-0.16621 0.0114,-0.0626 0.0114,-0.12453 0.054,-0.25923 0.0426,-0.1347 0.12941,-0.34224 0.23781,-0.67449 0.1084,-0.33228 0.23796,-0.78931 0.34585,-1.11113 0.1079,-0.32183 0.19434,-0.50869 0.23835,-0.62316 0.044,-0.11449 0.0444,-0.15595 0.11969,-0.48797 0.0278,-0.12251 0.0666,-0.29181 0.10752,-0.47423 z" />
    <path
       id="path6266"
       style="fill:#000080;fill-opacity:1;stroke:#000080;stroke-width:0.266072;stroke-dasharray:none;stroke-opacity:1"
       d="m 174.69497,208.86824 -2.6609,6.16711 c 0.3451,-0.99358 0.69093,-1.99043 0.9936,-2.74834 0.30268,-0.7579 0.56268,-1.27719 0.7791,-1.72362 0.21642,-0.44643 0.38934,-0.82009 0.50793,-1.04859 0.11859,-0.22854 0.18338,-0.31149 0.23781,-0.39445 0.0544,-0.0829 0.0976,-0.16592 0.14246,-0.25211 z" />
    <path
       id="path6274"
       style="fill:#000080;fill-opacity:1;stroke:#000080;stroke-width:0.266072;stroke-dasharray:none;stroke-opacity:1"
       d="m 175.3131,197.90366 c 0.0878,5.3e-4 0.17069,0.008 0.23886,0.0244 0.21814,0.0523 0.28255,0.19747 0.34691,0.34157 l -5.77678,3.36388 c 0.27828,-0.20543 0.55973,-0.41308 0.7219,-0.52761 0.16218,-0.11454 0.20561,-0.13533 0.23887,-0.16571 0.0332,-0.0304 0.0544,-0.072 0.097,-0.1042 0.0424,-0.0322 0.1077,-0.0529 0.19437,-0.1042 0.0867,-0.0512 0.19478,-0.13422 0.27065,-0.17688 0.0758,-0.0427 0.11895,-0.0428 0.25953,-0.14537 0.14057,-0.10259 0.37884,-0.31027 0.53017,-0.4351 0.15132,-0.12483 0.21602,-0.16641 0.26005,-0.2074 0.0441,-0.041 0.0658,-0.0824 0.0868,-0.10469 0.0211,-0.0223 0.0426,-0.0221 0.18327,-0.14537 0.14059,-0.12328 0.4001,-0.37285 0.54129,-0.51796 0.14118,-0.14512 0.1632,-0.18659 0.1843,-0.2089 0.0211,-0.0223 0.0424,-0.0219 0.17214,-0.12452 0.12974,-0.1026 0.36797,-0.31056 0.50898,-0.44528 0.14102,-0.13471 0.18419,-0.19684 0.38929,-0.25008 0.141,-0.0366 0.35909,-0.0678 0.55242,-0.0666 z" />
    <path
       id="path6278"
       style="fill:#000080;fill-opacity:1;stroke:#000080;stroke-width:0.266072;stroke-dasharray:none;stroke-opacity:1"
       d="m 175.48318,201.94429 -2.46652,5.91805 c 0.0431,-1.18089 0.0863,-2.36454 0.14988,-2.99792 0.0636,-0.63336 0.15013,-0.71633 0.24787,-0.8407 0.0977,-0.12436 0.20595,-0.29048 0.30296,-0.41527 0.097,-0.12481 0.18371,-0.20794 0.34637,-0.43612 0.16266,-0.22818 0.40049,-0.60176 0.57308,-0.83056 0.17257,-0.22878 0.28103,-0.31211 0.411,-0.35478 0.12995,-0.0427 0.28119,-0.0427 0.43536,-0.0427 z" />
    <path
       id="rect4681-1-8-7-6"
       style="fill:#0000ff;fill-opacity:1;stroke:#000000;stroke-width:0.31546;stroke-dasharray:none;stroke-opacity:1"
       inkscape:transform-center-x="-1.1741692"
       inkscape:transform-center-y="-1.2110526"
       d="m 171.03656,227.21479 1.04294,-23.61572 -8.56582,-0.70404 -1.04348,23.6157 z" />
    <path
       id="path6258-9"
       style="fill:#000080;fill-opacity:1;stroke:#000080;stroke-width:0.266072;stroke-dasharray:none;stroke-opacity:1"
       d="m 169.00862,205.7459 c 0.0421,0.0203 0.0857,0.0412 0.12817,0.0518 0.0424,0.0106 0.0856,0.0104 0.10857,0.0326 0.023,0.022 0.0229,0.0639 0.044,0.0935 0.0211,0.0296 0.0643,0.0501 0.11917,0.12352 0.0549,0.0735 0.11982,0.19821 0.152,0.47932 0.0322,0.28112 0.0327,0.71712 -0.0435,1.24684 -0.0481,0.33426 -0.12546,0.69851 -0.19543,1.01048 z m 0.31301,3.03806 0.85536,8.2994 c -0.17267,-0.24857 -0.34547,-0.49738 -0.44276,-0.65266 -0.0973,-0.15525 -0.11928,-0.21751 -0.16315,-0.27041 -0.0439,-0.0529 -0.10857,-0.0948 -0.18377,-0.17739 -0.0752,-0.0825 -0.16202,-0.20714 -0.2055,-0.28922 -0.0435,-0.082 -0.0435,-0.12333 -0.0657,-0.15603 -0.0222,-0.0328 -0.065,-0.0536 -0.18327,-0.18807 -0.11828,-0.1345 -0.31348,-0.38355 -0.42158,-0.54896 -0.1081,-0.16542 -0.12965,-0.24846 -0.16207,-0.33192 -0.0324,-0.0834 -0.0757,-0.16634 -0.11917,-0.38375 -0.0434,-0.21743 -0.0863,-0.57066 -0.10805,-0.83004 -0.0218,-0.2594 -0.0222,-0.42551 -0.0127,-0.51898 0.009,-0.0934 0.031,-0.11428 0.0535,-0.15554 0.0225,-0.0412 0.0443,-0.10364 0.0557,-0.16621 0.0114,-0.0626 0.0114,-0.12452 0.054,-0.25923 0.0426,-0.1347 0.12942,-0.34224 0.23781,-0.67449 0.10841,-0.33228 0.23796,-0.7893 0.34585,-1.11113 0.10791,-0.32182 0.19435,-0.50868 0.23836,-0.62317 0.044,-0.11448 0.0444,-0.15594 0.11968,-0.48796 0.0278,-0.12251 0.0666,-0.29181 0.10753,-0.47424 z" />
    <path
       style="fill:#000000;stroke:#000000;stroke-width:0.268275"
       d="m 161.79604,193.06907 c -0.30869,0 -0.61468,0 -0.98142,-0.06 -0.36674,-0.06 -0.79513,-0.17939 -1.34634,-0.23885 -0.55122,-0.0594 -1.22439,-0.0594 -1.59026,-0.0893 -0.36587,-0.0299 -0.42705,-0.0896 -0.48818,-0.14924"
       id="path12391"
       inkscape:path-effect="#path-effect12393"
       inkscape:original-d="m 161.79604,193.06907 c -0.30869,0.003 -0.61468,0.003 -0.91795,0 -0.43109,-0.11677 -0.85948,-0.23619 -1.28515,-0.35826 -0.67588,0.003 -1.34905,0.003 -2.01951,0 -0.0639,-0.0571 -0.12511,-0.11677 -0.18359,-0.17913" />
    <path
       id="path5693-4"
       style="fill:#ff00ff;fill-opacity:1;stroke:#ff00ff;stroke-width:0.266341;stroke-dasharray:none;stroke-opacity:1"
       d="m 170.76869,237.49146 -2.6e-4,4.4e-4 c 0.0468,0.0199 0.0478,0.51577 0.0478,0.51577 l -1.60794,-1.30085 0.79918,0.43556 c 0.20989,0.11442 0.33391,0.18143 0.40757,0.21646 0.0734,0.0355 0.0987,0.0368 0.15699,0.0561 0.0584,0.0193 0.14963,0.0571 0.19676,0.0765 z" />
    <path
       id="rect4554-4"
       style="fill:#800080;fill-opacity:1;stroke:#000000;stroke-width:0.527889;stroke-dasharray:none;stroke-opacity:1"
       d="m 177.20212,231.6411 22.06956,43.47891 -10.5596,4.75252 c -0.68229,-1.54005 -1.32819,-3.09474 -1.99256,-4.64202 -1.07488,-2.50451 -2.24399,-4.97087 -3.42904,-7.42953 -1.28803,-2.60181 -2.55778,-5.21166 -3.81597,-7.8265 -1.15688,-2.41074 -2.33837,-4.81111 -3.52858,-7.20731 -0.7803,-1.56917 -1.56674,-3.13517 -2.35592,-4.70041 -0.15156,-0.30053 -0.34313,-0.51046 -0.54831,-0.64537 l -0.71306,-1.40481 -2.08033,-4.09843 -2.48388,-4.89345 -0.46941,-0.92477 z" />
    <path
       id="path5293-5"
       style="fill:#000000;fill-opacity:1;stroke:#000000;stroke-width:0.266341;stroke-dasharray:none;stroke-opacity:1"
       d="m 172.86368,241.10139 0.89383,0.41045 c -0.013,-0.003 -0.0269,-0.006 -0.0431,-0.01 -0.0684,-0.0169 -0.17132,-0.0503 -0.22574,-0.0724 -0.0544,-0.0221 -0.0611,-0.0352 -0.0828,-0.0431 -0.0219,-0.008 -0.0567,-0.008 -0.14186,-0.0414 -0.0851,-0.0332 -0.22283,-0.0996 -0.29773,-0.14466 -0.0749,-0.0452 -0.0883,-0.0712 -0.10269,-0.0996 z m 0.89383,0.41045 c 0.0411,0.008 0.0652,0.01 0.0822,0.0156 0.0219,0.008 0.0288,0.0211 0.0728,0.0398 0.0441,0.0187 0.12658,0.0453 0.24023,0.0986 0.11357,0.0532 0.2579,0.13279 0.40115,0.2117 z" />
    <path
       id="path5297-4"
       style="fill:#000000;fill-opacity:1;stroke:#000000;stroke-width:0.266341;stroke-dasharray:none;stroke-opacity:1"
       d="m 170.07495,239.28398 c 0.0556,0.0401 0.11032,0.0797 0.20252,0.14208 0.0921,0.0626 0.22198,0.14828 0.29697,0.21149 0.0751,0.0632 0.0948,0.10195 0.16907,0.17986 0.0744,0.0779 0.20382,0.19585 0.33165,0.31279 z" />
    <path
       id="path5301-27"
       style="fill:#000000;fill-opacity:1;stroke:#000000;stroke-width:0.266341;stroke-dasharray:none;stroke-opacity:1"
       d="m 168.29191,237.30201 0.43855,0.76273 z" />
    <path
       id="path5325-16"
       style="fill:#000000;fill-opacity:1;stroke:#000000;stroke-width:0.266341;stroke-dasharray:none;stroke-opacity:1"
       d="m 174.48995,233.88811 -0.7291,0.33359 c 0.18089,-0.0868 0.45342,-0.20951 0.7291,-0.33359 z m -0.7291,0.33359 c -0.0423,0.0202 -0.0813,0.0389 -0.11212,0.0549 -0.16351,0.0834 -0.15716,0.0961 -0.24464,0.18269 -0.0875,0.0866 -0.26513,0.24663 -0.37516,0.3356 -0.11005,0.089 -0.15194,0.10859 -0.2264,0.16673 -0.0745,0.058 -0.18179,0.1542 -0.26328,0.2143 -0.0815,0.0601 -0.13762,0.0858 -0.16886,0.10924 -0.0311,0.0238 -0.0382,0.0427 -0.0636,0.0608 -0.0255,0.018 -0.0681,0.0372 -0.0998,0.0605 -0.0318,0.023 -0.0532,0.0489 -0.0992,0.0768 -0.0458,0.0282 -0.11671,0.0591 -0.19443,0.11073 -0.0778,0.0514 -0.16256,0.12198 -0.38103,0.23568 -0.21836,0.11386 -0.5703,0.27148 -0.84694,0.37245 -0.27691,0.10042 -0.47953,0.14366 -0.65394,0.1741 -0.1744,0.0304 -0.32097,0.0483 -0.51739,0.10488 -0.19643,0.0566 -0.44225,0.15131 -0.74318,0.23868 -0.30098,0.0874 -0.65746,0.16771 -1.01195,0.2477 z" />
    <path
       id="path5329-4"
       style="fill:#000000;fill-opacity:1;stroke:#000000;stroke-width:0.268546;stroke-dasharray:none;stroke-opacity:1"
       d="m 193.09885,264.61677 0.21491,1.14576 c -0.0749,-0.14749 -0.15065,-0.29725 -0.19555,-0.42059 -0.0449,-0.12334 -0.058,-0.22068 -0.0689,-0.27934 -0.0109,-0.0587 -0.0205,-0.0774 -0.0145,-0.0983 0.007,-0.0208 0.0315,-0.0437 0.0454,-0.0661 0.014,-0.0224 0.0139,-0.0458 0.0149,-0.0923 8.8e-4,-0.0464 0.002,-0.11616 0.004,-0.18928 z" />
    <path
       id="path5629-8"
       style="fill:#ff00ff;fill-opacity:1;stroke:#ff00ff;stroke-width:0.268546;stroke-dasharray:none;stroke-opacity:1"
       d="m 183.65558,250.9046 c 0.17027,0.18996 0.33937,0.3785 0.44761,0.52005 0.10823,0.14157 0.15586,0.23522 0.23191,0.38507 l 0.26624,0.52451 c 0.0855,0.16857 0.15227,0.29993 0.24804,0.45217 0.0957,0.15221 0.2208,0.32597 0.39031,0.61228 0.16962,0.28627 0.38372,0.68437 0.59686,1.08032 z" />
    <path
       id="path5637-5"
       style="fill:#ff00ff;fill-opacity:1;stroke:#ff00ff;stroke-width:0.266341;stroke-dasharray:none;stroke-opacity:1"
       d="m 186.94553,254.25917 0.57159,1.12609 c 0.15898,0.3132 0.27094,0.5343 0.34505,0.69345 0.0749,0.15883 0.11102,0.25567 0.13604,0.32935 0.0251,0.0738 0.0389,0.12426 0.0622,0.18141 0.0233,0.0573 0.0561,0.12182 0.074,0.17055 0.0177,0.0488 0.0219,0.0807 0.0384,0.124 0.0162,0.0433 0.0443,0.0986 0.062,0.15875 0.009,0.031 0.016,0.0626 0.0238,0.10119 z m 1.31351,2.88467 1.55979,3.42647 c -0.19862,-0.2479 -0.39854,-0.49749 -0.54383,-0.67545 -0.14531,-0.17795 -0.23566,-0.28414 -0.32081,-0.41516 -0.0851,-0.13103 -0.16455,-0.28772 -0.23001,-0.41669 -0.0655,-0.12897 -0.11708,-0.23049 -0.14488,-0.30819 -0.0278,-0.0776 -0.0316,-0.13244 -0.04,-0.17428 -0.009,-0.0418 -0.0221,-0.0697 -0.0266,-0.11265 -0.004,-0.043 0.002,-0.10206 -0.003,-0.15074 -0.005,-0.0488 -0.0239,-0.0861 -0.0332,-0.12685 -0.01,-0.0409 -0.009,-0.0865 -0.0164,-0.13945 -0.009,-0.0531 -0.0262,-0.11282 -0.0372,-0.16997 -0.0112,-0.0572 -0.0144,-0.11229 -0.0383,-0.22043 -0.0239,-0.10811 -0.0693,-0.26883 -0.096,-0.38117 -0.0131,-0.0551 -0.0213,-0.0985 -0.0288,-0.13553 z" />
    <path
       id="path5641-6"
       style="fill:#ff00ff;fill-opacity:1;stroke:#ff00ff;stroke-width:0.266341;stroke-dasharray:none;stroke-opacity:1"
       d="m 182.36583,245.83808 2.92482,6.05086 c -0.17595,-0.17928 -0.35311,-0.36003 -0.48465,-0.49876 -0.13153,-0.13874 -0.21728,-0.23605 -0.30003,-0.36248 -0.0828,-0.12639 -0.16259,-0.28267 -0.2403,-0.41206 -0.0777,-0.12937 -0.15323,-0.23095 -0.21941,-0.33669 -0.0661,-0.10579 -0.12245,-0.21639 -0.22064,-0.40984 l -0.37405,-0.7369 c -0.13559,-0.26714 -0.2664,-0.52519 -0.34066,-0.7065 -0.0743,-0.18133 -0.0914,-0.28682 -0.12015,-0.40407 -0.0288,-0.1173 -0.0697,-0.24579 -0.10865,-0.34724 -0.039,-0.10145 -0.0763,-0.17513 -0.11033,-0.30103 -0.034,-0.12591 -0.0637,-0.30531 -0.10757,-0.50062 -0.044,-0.1953 -0.10237,-0.40624 -0.15432,-0.58094 -0.052,-0.1747 -0.0977,-0.31302 -0.14418,-0.45368 z" />
    <path
       id="path5649-0"
       style="fill:#ff00ff;fill-opacity:1;stroke:#ff00ff;stroke-width:0.268546;stroke-dasharray:none;stroke-opacity:1"
       d="m 195.67642,270.72694 2.15107,3.52252 c -0.0815,-0.0598 -0.16389,-0.11993 -0.31849,-0.23741 -0.15465,-0.11745 -0.38151,-0.29195 -0.55285,-0.44225 -0.17134,-0.15032 -0.28738,-0.27704 -0.36686,-0.348 -0.0796,-0.0709 -0.12156,-0.0849 -0.14844,-0.10386 -0.0268,-0.019 -0.0401,-0.0456 -0.0881,-0.0899 -0.0481,-0.0444 -0.1309,-0.10443 -0.23923,-0.26631 -0.10844,-0.16186 -0.24245,-0.42703 -0.31868,-0.66088 -0.0762,-0.23384 -0.0935,-0.43794 -0.0949,-0.57573 -0.001,-0.13779 0.0138,-0.2092 0.019,-0.25243 0.005,-0.0433 -0.001,-0.057 -0.005,-0.0794 -0.003,-0.0226 -0.003,-0.0554 0.004,-0.0914 0.008,-0.036 0.0216,-0.075 0.0168,-0.13768 -0.004,-0.0627 -0.0311,-0.14868 -0.0583,-0.23735 z" />
    <path
       id="path5653-2"
       style="fill:#ff00ff;fill-opacity:1;stroke:#ff00ff;stroke-width:0.266341;stroke-dasharray:none;stroke-opacity:1"
       d="m 187.56772,256.07884 1.98377,3.90821 c -0.30581,-0.22924 -0.61271,-0.45926 -0.78625,-0.59682 -0.17353,-0.13757 -0.21372,-0.18343 -0.25825,-0.22006 -0.0445,-0.0367 -0.0927,-0.0626 -0.20214,-0.26026 -0.10956,-0.19762 -0.28077,-0.56913 -0.38072,-0.86796 -0.10041,-0.2987 -0.1289,-0.52578 -0.17127,-0.76282 -0.0425,-0.237 -0.0986,-0.48364 -0.12314,-0.63264 -0.0245,-0.14901 -0.0163,-0.20079 -0.0207,-0.27879 -0.004,-0.078 -0.0227,-0.18188 -0.0414,-0.28883 z" />
    <path
       id="path5657-4"
       style="fill:#ff00ff;fill-opacity:1;stroke:#ff00ff;stroke-width:0.266341;stroke-dasharray:none;stroke-opacity:1"
       d="m 187.21563,255.18136 2.66595,4.94576 c -0.0993,0.0121 -0.19702,0.0238 -0.29906,-0.01 -0.10205,-0.0332 -0.21102,-0.11245 -0.31373,-0.17848 -0.1028,-0.066 -0.19864,-0.11857 -0.27796,-0.15522 -0.0792,-0.0367 -0.14175,-0.057 -0.18914,-0.0827 -0.0474,-0.0259 -0.0812,-0.0584 -0.1194,-0.082 -0.0383,-0.0236 -0.0795,-0.0373 -0.10606,-0.0558 -0.0266,-0.0185 -0.04,-0.0445 -0.0602,-0.0682 -0.0202,-0.0237 -0.0477,-0.0438 -0.0722,-0.0572 -0.0244,-0.0136 -0.0452,-0.0201 -0.0647,-0.0417 -0.0192,-0.0218 -0.0391,-0.0609 -0.0603,-0.0848 -0.0214,-0.0239 -0.0414,-0.0309 -0.13996,-0.2251 -0.0986,-0.1942 -0.2763,-0.57832 -0.36809,-0.80884 -0.0918,-0.23051 -0.0968,-0.30847 -0.11201,-0.37394 -0.0152,-0.0655 -0.0416,-0.11732 -0.0643,-0.19493 -0.0227,-0.0777 -0.0405,-0.18156 -0.0625,-0.2599 -0.022,-0.0785 -0.0485,-0.13048 -0.0616,-0.1884 -0.013,-0.0579 -0.0115,-0.12293 -0.0346,-0.28855 -0.0231,-0.16564 -0.0718,-0.43166 -0.11923,-0.74633 -0.0475,-0.31465 -0.094,-0.67768 -0.14062,-1.04418 z" />
    <path
       id="path5661-23"
       style="fill:#ff00ff;fill-opacity:1;stroke:#ff00ff;stroke-width:0.268546;stroke-dasharray:none;stroke-opacity:1"
       d="m 192.44669,267.9709 c 0.0115,-0.003 0.039,0.0149 0.0834,0.0487 0.10139,0.0771 0.28704,0.23787 0.42766,0.36175 0.14066,0.12384 0.23645,0.21105 0.30462,0.29488 0.0682,0.0839 0.10834,0.16333 0.16956,0.24924 0.0612,0.086 0.14317,0.17877 0.19073,0.23916 0.0477,0.0603 0.0611,0.0872 0.084,0.0996 0.023,0.0124 0.0579,0.0126 0.10671,0.0737 0.0488,0.0611 0.10948,0.18033 0.15334,0.2492 0.0442,0.0688 0.0711,0.0892 0.17907,0.28551 0.1078,0.19639 0.29606,0.5673 0.3746,0.79228 0.0783,0.22514 0.0487,0.30373 -0.009,0.34375 -0.0567,0.04 -0.1406,0.0448 -0.1817,0.0474 -0.0411,0.003 -0.0411,0.003 -0.0609,-0.0199 -0.0196,-0.0227 -0.0605,-0.0694 -0.0911,-0.11219 -0.0309,-0.0426 -0.0511,-0.0825 -0.10573,-0.13996 -0.0547,-0.0574 -0.14399,-0.13114 -0.26311,-0.28034 -0.11913,-0.14919 -0.26798,-0.37494 -0.39977,-0.60015 -0.13181,-0.22523 -0.24654,-0.45036 -0.34067,-0.63578 l -0.27553,-0.54285 c -0.10758,-0.21191 -0.24876,-0.49021 -0.31435,-0.63297 -0.0363,-0.0806 -0.0481,-0.11742 -0.0332,-0.1208 z" />
    <path
       id="path5665-7"
       style="fill:#ff00ff;fill-opacity:1;stroke:#ff00ff;stroke-width:0.266341;stroke-dasharray:none;stroke-opacity:1"
       d="m 186.97775,254.62195 c 0.007,-0.002 0.0127,-0.004 0.0203,-0.005 0.0798,-0.0136 0.2592,0.0332 0.4311,0.13283 0.17188,0.0996 0.33497,0.25067 0.46932,0.43089 0.1344,0.18016 0.24026,0.3885 0.28818,0.50297 0.0478,0.11455 0.0404,0.13375 0.044,0.17249 0.003,0.0388 0.0156,0.0973 0.0132,0.12866 -0.002,0.0314 -0.0166,0.0377 -0.0305,0.0614 -0.0139,0.0237 -0.0289,0.0624 -0.10063,0.12565 -0.0719,0.0633 -0.19901,0.15256 -0.29079,0.20957 -0.0918,0.0571 -0.14853,0.0819 -0.17802,0.0888 -0.0295,0.007 -0.036,-0.006 -0.0606,-0.0204 -0.0245,-0.0144 -0.0658,-0.028 -0.10562,-0.0727 -0.0398,-0.0446 -0.0797,-0.12286 -0.12302,-0.19173 -0.043,-0.069 -0.0905,-0.12755 -0.11478,-0.15774 -0.0245,-0.0301 -0.0244,-0.0299 -0.0332,-0.0643 -0.01,-0.0342 -0.0281,-0.10601 -0.0538,-0.17463 -0.0256,-0.0688 -0.0586,-0.13376 -0.0938,-0.26968 -0.035,-0.136 -0.0714,-0.34393 -0.0867,-0.45734 -0.0153,-0.11341 -0.009,-0.1323 -0.0129,-0.16203 -0.005,-0.0299 -0.0248,-0.0693 -0.0295,-0.0926 -0.005,-0.0232 0.01,-0.0296 0.009,-0.0676 -6.9e-4,-0.0344 -0.0168,-0.0961 0.0397,-0.11756 z" />
    <path
       id="path5673-7"
       style="fill:#ff00ff;fill-opacity:1;stroke:#ff00ff;stroke-width:0.266341;stroke-dasharray:none;stroke-opacity:1"
       d="m 190.78856,261.81111 2.84476,4.48137 c -0.57016,-0.032 -1.13939,-0.0643 -1.45346,-0.10596 -0.31408,-0.0417 -0.37549,-0.0939 -0.45111,-0.14044 -0.0757,-0.0466 -0.16472,-0.0862 -0.33874,-0.32677 -0.17398,-0.24061 -0.43339,-0.68394 -0.56901,-0.96661 -0.13541,-0.28274 -0.14632,-0.40592 -0.15988,-0.55187 -0.0136,-0.14592 -0.0306,-0.31466 -0.0273,-0.46028 0.003,-0.1456 0.0279,-0.26836 0.0375,-0.35262 0.01,-0.0843 0.004,-0.12979 0.008,-0.17175 0.004,-0.042 0.0186,-0.0807 0.0207,-0.11344 0.002,-0.0329 -0.011,-0.059 -0.0109,-0.10709 3.1e-4,-0.048 0.0161,-0.11912 0.0263,-0.23566 0.0109,-0.11654 0.0144,-0.27853 0.0255,-0.44358 0.0111,-0.16509 0.0293,-0.3335 0.0481,-0.50526 z" />
    <path
       id="path5681-4"
       style="fill:#ff00ff;fill-opacity:1;stroke:#ff00ff;stroke-width:0.266341;stroke-dasharray:none;stroke-opacity:1"
       d="m 176.67804,242.10101 1.01418,0.36239 c -0.0737,-0.005 -0.14448,-0.01 -0.20317,-0.015 -0.16633,-0.0155 -0.2495,-0.0345 -0.31931,-0.0646 -0.0699,-0.0302 -0.12774,-0.0722 -0.17906,-0.10058 -0.0512,-0.0283 -0.0952,-0.0425 -0.14569,-0.0701 -0.0504,-0.0276 -0.10812,-0.0696 -0.16698,-0.1121 z m 1.01418,0.36239 c 0.13504,0.008 0.28354,0.0145 0.41216,0.0189 0.19879,0.007 0.34633,0.009 0.43076,0.0166 0.0845,0.008 0.10367,0.0216 0.16161,0.0403 0.0579,0.0185 0.15538,0.0429 0.22414,0.0692 0.0688,0.0263 0.10758,0.0539 0.20444,0.0775 0.0968,0.0236 0.25326,0.0438 0.4692,0.0371 0.21594,-0.007 0.49211,-0.0407 0.68693,-0.0549 0.19483,-0.0142 0.30778,-0.008 0.37344,-0.009 0.0657,-9.9e-4 0.0854,-0.01 0.1186,-0.008 0.0331,0.002 0.0774,0.0161 0.13808,0.0281 0.0608,0.012 0.13908,0.0219 0.21487,0.0274 0.0758,0.006 0.14965,0.007 0.32362,0.0471 0.17397,0.0408 0.44708,0.12154 0.63479,0.20181 0.18773,0.0803 0.28879,0.15883 0.44968,0.30731 0.16091,0.14848 0.38135,0.36643 0.50089,0.49422 0.11952,0.12783 0.13798,0.16467 0.16902,0.20095 0.0309,0.0363 0.0741,0.0735 0.14525,0.17784 0.071,0.1044 0.17008,0.2751 0.2676,0.44352 z" />
    <path
       id="path5689-1"
       style="fill:#ff00ff;fill-opacity:1;stroke:#ff00ff;stroke-width:0.266341;stroke-dasharray:none;stroke-opacity:1"
       d="m 174.10347,235.08641 2.95226,6.1061 c -0.17662,-0.15663 -0.35434,-0.31452 -0.49781,-0.4646 -0.14344,-0.15009 -0.25296,-0.29335 -0.36147,-0.47055 -0.10845,-0.1772 -0.21557,-0.38911 -0.28595,-0.51616 -0.0702,-0.12709 -0.10367,-0.1685 -0.17656,-0.29947 -0.0724,-0.13119 -0.18548,-0.35172 -0.30004,-0.57743 -0.11457,-0.2257 -0.23137,-0.45651 -0.32124,-0.69307 -0.0899,-0.23659 -0.15235,-0.4796 -0.19507,-0.62468 -0.0427,-0.14506 -0.0664,-0.1912 -0.0892,-0.27121 -0.0228,-0.0801 -0.0443,-0.19508 -0.0824,-0.3308 -0.0381,-0.13572 -0.0928,-0.2917 -0.13593,-0.43631 -0.0431,-0.14461 -0.0742,-0.27781 -0.10117,-0.36777 -0.0268,-0.0899 -0.0504,-0.13626 -0.11727,-0.30401 -0.067,-0.16774 -0.17711,-0.45747 -0.28852,-0.74991 z" />
    <path
       id="path5693-44"
       style="fill:#ff00ff;fill-opacity:1;stroke:#ff00ff;stroke-width:0.266341;stroke-dasharray:none;stroke-opacity:1"
       d="m 176.82863,232.27779 2.2e-4,4.5e-4 c 0.0439,-0.0252 0.47897,0.25423 0.47897,0.25423 l -2.04824,0.51466 0.83311,-0.37496 c 0.21881,-0.0985 0.34761,-0.15698 0.41991,-0.19443 0.0726,-0.037 0.0879,-0.0559 0.13778,-0.0904 0.0499,-0.0344 0.13457,-0.084 0.17822,-0.10963 z" />
    <path
       id="rect4554-0"
       style="fill:#800080;fill-opacity:1;stroke:#000000;stroke-width:0.527889;stroke-dasharray:none;stroke-opacity:1"
       d="m 171.53763,237.42204 -25.63701,41.70749 -10.12938,-5.52073 c 0.96426,-1.40006 1.96187,-2.7801 2.94256,-4.17031 1.58769,-2.24986 3.08873,-4.55141 4.57401,-6.86099 1.55258,-2.47044 3.12251,-4.93122 4.70336,-7.38586 1.45919,-2.26062 2.89542,-4.5345 4.32304,-6.81281 0.9344,-1.49265 1.86256,-2.98828 2.7885,-4.48561 0.17776,-0.28752 0.25351,-0.55496 0.25586,-0.79059 l 0.82833,-1.34757 2.41661,-3.93144 2.88538,-4.69409 0.54529,-0.88709 z" />
    <path
       id="path5293-3"
       style="fill:#000000;fill-opacity:1;stroke:#000000;stroke-width:0.266341;stroke-dasharray:none;stroke-opacity:1"
       d="m 160.79655,239.39451 0.14517,0.92638 c -0.005,-0.0117 -0.0109,-0.024 -0.0161,-0.0388 -0.0238,-0.0628 -0.0528,-0.16151 -0.064,-0.21628 -0.0113,-0.0549 -0.004,-0.0674 -0.01,-0.0886 -0.005,-0.0214 -0.0249,-0.0487 -0.0439,-0.13365 -0.019,-0.0849 -0.0386,-0.22936 -0.0415,-0.31305 -0.003,-0.0837 0.0125,-0.10873 0.0292,-0.13595 z m 0.14517,0.92638 c 0.0162,0.0366 0.0284,0.0562 0.0327,0.0727 0.005,0.0215 -0.002,0.0342 0.007,0.0792 0.009,0.045 0.0317,0.12392 0.0493,0.24232 0.0176,0.1183 0.0293,0.27541 0.0412,0.43128 z" />
    <path
       id="path5297-2"
       style="fill:#000000;fill-opacity:1;stroke:#000000;stroke-width:0.266341;stroke-dasharray:none;stroke-opacity:1"
       d="m 160.81405,236.20102 c -0.004,0.0658 -0.009,0.13066 -0.0108,0.23763 -0.003,0.1069 -0.004,0.25622 -0.0177,0.3502 -0.0128,0.094 -0.0359,0.13116 -0.0621,0.23296 -0.0262,0.10181 -0.0566,0.269 -0.0867,0.43437 z" />
    <path
       id="path5301-2"
       style="fill:#000000;fill-opacity:1;stroke:#000000;stroke-width:0.266341;stroke-dasharray:none;stroke-opacity:1"
       d="m 161.54381,233.69605 -0.42069,0.77157 z" />
    <path
       id="path5325-1"
       style="fill:#000000;fill-opacity:1;stroke:#000000;stroke-width:0.266341;stroke-dasharray:none;stroke-opacity:1"
       d="m 168.0365,236.58381 -0.70416,-0.37811 c 0.17829,0.0916 0.43971,0.23399 0.70416,0.37811 z m -0.70416,-0.37811 c -0.0416,-0.0215 -0.08,-0.0413 -0.1114,-0.0562 -0.16541,-0.08 -0.17298,-0.0679 -0.29826,-0.087 -0.12531,-0.0189 -0.36588,-0.0667 -0.50602,-0.10199 -0.14013,-0.0353 -0.18098,-0.0568 -0.274,-0.0817 -0.0929,-0.0251 -0.23781,-0.0542 -0.33649,-0.0836 -0.0987,-0.0294 -0.15284,-0.0585 -0.19114,-0.0694 -0.0383,-0.0112 -0.0589,-0.006 -0.0892,-0.0149 -0.0302,-0.009 -0.071,-0.0319 -0.1093,-0.0434 -0.0381,-0.0122 -0.073,-0.0141 -0.12332,-0.0337 -0.0507,-0.0197 -0.11768,-0.0573 -0.20685,-0.0885 -0.0891,-0.0314 -0.19873,-0.0574 -0.42176,-0.16294 -0.22313,-0.1054 -0.56007,-0.28979 -0.8048,-0.44773 -0.24442,-0.15842 -0.39676,-0.29146 -0.52194,-0.40978 -0.12519,-0.11834 -0.22365,-0.22211 -0.38416,-0.34279 -0.16053,-0.12068 -0.3824,-0.25818 -0.62895,-0.44267 -0.24649,-0.18456 -0.51833,-0.41613 -0.78866,-0.64642 z" />
    <path
       id="path5329-1"
       style="fill:#000000;fill-opacity:1;stroke:#000000;stroke-width:0.268546;stroke-dasharray:none;stroke-opacity:1"
       d="m 151.61847,268.40036 -0.88269,0.81418 c 0.0868,-0.1415 0.17539,-0.28497 0.25813,-0.38952 0.0827,-0.10455 0.16065,-0.16968 0.20592,-0.21131 0.0454,-0.0415 0.0563,-0.0597 0.0779,-0.0668 0.0216,-0.008 0.0561,-7e-4 0.0836,-0.002 0.0276,-0.002 0.048,-0.015 0.0891,-0.0406 0.0411,-0.0256 0.10313,-0.0638 0.16802,-0.10395 z" />
    <path
       id="path5629-1"
       style="fill:#ff00ff;fill-opacity:1;stroke:#ff00ff;stroke-width:0.268546;stroke-dasharray:none;stroke-opacity:1"
       d="m 158.30122,253.31744 c -0.0704,0.2396 -0.13999,0.47749 -0.20293,0.64154 -0.063,0.16404 -0.11806,0.25398 -0.20646,0.39771 l -0.30927,0.50314 c -0.0993,0.1617 -0.17684,0.28773 -0.25616,0.44813 -0.0792,0.16041 -0.16096,0.35569 -0.31611,0.64913 -0.15507,0.29349 -0.383,0.68472 -0.60961,1.07399 z" />
    <path
       id="path5637-0"
       style="fill:#ff00ff;fill-opacity:1;stroke:#ff00ff;stroke-width:0.266341;stroke-dasharray:none;stroke-opacity:1"
       d="m 157.21974,257.76861 -0.66401,1.08023 c -0.18468,0.30045 -0.31519,0.51232 -0.41281,0.6598 -0.0969,0.14787 -0.16133,0.23068 -0.21178,0.29175 -0.0505,0.0612 -0.0868,0.10038 -0.12385,0.15081 -0.037,0.0504 -0.0751,0.11235 -0.10757,0.15388 -0.0327,0.0414 -0.0583,0.0627 -0.087,0.0999 -0.0288,0.037 -0.0616,0.0901 -0.104,0.13791 -0.0221,0.0243 -0.0457,0.0478 -0.0752,0.0757 z m -1.78608,2.65004 -2.12175,3.14742 c 0.10508,-0.29435 0.21086,-0.59067 0.28476,-0.80409 0.0738,-0.21342 0.11584,-0.34361 0.18261,-0.48378 0.0668,-0.14017 0.1592,-0.2904 0.23524,-0.41411 0.076,-0.1237 0.13587,-0.22114 0.18827,-0.28664 0.0522,-0.0655 0.0981,-0.0994 0.13014,-0.12949 0.0319,-0.0301 0.0486,-0.0566 0.0837,-0.0843 0.0351,-0.0278 0.0904,-0.0563 0.13008,-0.0879 0.0397,-0.0317 0.062,-0.0672 0.0923,-0.0975 0.0306,-0.0303 0.071,-0.0553 0.11294,-0.0915 0.0421,-0.0362 0.0841,-0.0841 0.12794,-0.1249 0.0439,-0.041 0.0903,-0.0747 0.17156,-0.15427 0.0811,-0.0798 0.19651,-0.20561 0.27981,-0.2899 0.0408,-0.0413 0.0743,-0.0722 0.10259,-0.0989 z" />
    <path
       id="path5641-5"
       style="fill:#ff00ff;fill-opacity:1;stroke:#ff00ff;stroke-width:0.266341;stroke-dasharray:none;stroke-opacity:1"
       d="m 162.01275,249.45348 -3.65061,5.69045 c 0.0577,-0.23798 0.11604,-0.47775 0.16327,-0.65832 0.0472,-0.18058 0.0841,-0.30217 0.14818,-0.43787 0.064,-0.13574 0.1559,-0.28601 0.22538,-0.41947 0.0696,-0.13345 0.11583,-0.24952 0.17115,-0.36066 0.0554,-0.11111 0.12042,-0.21739 0.23452,-0.40295 l 0.43451,-0.70688 c 0.15751,-0.25625 0.30978,-0.50364 0.42672,-0.66378 0.11701,-0.16008 0.1997,-0.23303 0.28625,-0.3216 0.0866,-0.0886 0.17603,-0.19293 0.24291,-0.28055 0.067,-0.0876 0.11038,-0.15826 0.20151,-0.25576 0.0912,-0.0975 0.23161,-0.2219 0.37795,-0.36635 0.14635,-0.14444 0.29819,-0.30901 0.42195,-0.44806 0.12372,-0.13905 0.21915,-0.25266 0.31616,-0.36826 z" />
    <path
       id="path5649-8"
       style="fill:#ff00ff;fill-opacity:1;stroke:#ff00ff;stroke-width:0.268546;stroke-dasharray:none;stroke-opacity:1"
       d="m 147.71973,273.8545 -1.87194,3.66112 c 0.006,-0.0972 0.0125,-0.19508 0.0282,-0.38158 0.016,-0.18647 0.0404,-0.46134 0.0757,-0.67935 0.0346,-0.21807 0.0804,-0.37978 0.0978,-0.48161 0.0169,-0.10187 0.007,-0.14237 0.008,-0.17399 0.002,-0.0316 0.0177,-0.0569 0.029,-0.11924 0.012,-0.0624 0.018,-0.16065 0.0981,-0.33632 0.0806,-0.17566 0.23729,-0.42959 0.39917,-0.62091 0.16186,-0.19131 0.33099,-0.31998 0.45096,-0.39889 0.11996,-0.079 0.1911,-0.10749 0.23196,-0.12783 0.0408,-0.0204 0.0492,-0.0332 0.0669,-0.0488 0.0179,-0.0153 0.0467,-0.0337 0.0822,-0.0486 0.0355,-0.0148 0.0778,-0.0255 0.13015,-0.0646 0.0523,-0.039 0.11271,-0.10817 0.17504,-0.17938 z" />
    <path
       id="path5653-1"
       style="fill:#ff00ff;fill-opacity:1;stroke:#ff00ff;stroke-width:0.266341;stroke-dasharray:none;stroke-opacity:1"
       d="m 155.97648,259.27991 -2.30443,3.74898 c 0.0281,-0.36711 0.0563,-0.73552 0.0788,-0.94806 0.0225,-0.21256 0.0401,-0.26965 0.0471,-0.32494 0.008,-0.0553 0.002,-0.10741 0.11393,-0.30409 0.11132,-0.19675 0.34014,-0.53964 0.54559,-0.7861 0.20508,-0.24667 0.38796,-0.39713 0.57176,-0.56394 0.18374,-0.16682 0.36815,-0.34979 0.48486,-0.45304 0.11672,-0.10324 0.16677,-0.12604 0.23263,-0.17352 0.0659,-0.0475 0.1466,-0.12033 0.22973,-0.19532 z" />
    <path
       id="path5657-7"
       style="fill:#ff00ff;fill-opacity:1;stroke:#ff00ff;stroke-width:0.266341;stroke-dasharray:none;stroke-opacity:1"
       d="m 156.56414,258.49941 -2.82839,4.86509 c -0.0668,-0.0703 -0.13217,-0.13963 -0.16067,-0.23772 -0.0286,-0.0981 -0.0206,-0.22749 -0.0207,-0.34457 -1.5e-4,-0.11711 -0.009,-0.22133 -0.0209,-0.30367 -0.0126,-0.0823 -0.0302,-0.14229 -0.0343,-0.1937 -0.004,-0.0514 0.005,-0.096 0.004,-0.13909 -9e-4,-0.0431 -0.0122,-0.0828 -0.0111,-0.11396 7.6e-4,-0.0312 0.0165,-0.0562 0.0257,-0.0854 0.01,-0.0291 0.0109,-0.0618 0.01,-0.0884 -0.002,-0.0267 -0.009,-0.0465 -1.9e-4,-0.0739 0.009,-0.0272 0.0314,-0.0647 0.0402,-0.0948 0.01,-0.0301 0.004,-0.0496 0.11821,-0.2359 0.11453,-0.18633 0.35074,-0.54136 0.50091,-0.74287 0.15017,-0.20151 0.21563,-0.2495 0.26444,-0.29827 0.0487,-0.0489 0.0794,-0.0986 0.13454,-0.16 0.0553,-0.0615 0.13621,-0.13404 0.19242,-0.19544 0.0563,-0.0615 0.0868,-0.1114 0.13037,-0.1542 0.0433,-0.0428 0.10128,-0.0784 0.2333,-0.18991 0.13205,-0.11157 0.33778,-0.29954 0.5867,-0.51419 0.24888,-0.21469 0.54076,-0.45585 0.83564,-0.69907 z" />
    <path
       id="path5661-2"
       style="fill:#ff00ff;fill-opacity:1;stroke:#ff00ff;stroke-width:0.268546;stroke-dasharray:none;stroke-opacity:1"
       d="m 148.31071,269.78816 c 0.01,0.007 0.01,0.0387 0.004,0.0923 -0.0109,0.12239 -0.0458,0.35745 -0.0757,0.53661 -0.0288,0.17928 -0.0515,0.30293 -0.0864,0.40326 -0.035,0.10033 -0.082,0.17645 -0.1226,0.27254 -0.0407,0.0961 -0.0759,0.21223 -0.10182,0.28328 -0.0259,0.0711 -0.042,0.0968 -0.04,0.12154 0.002,0.0248 0.0216,0.052 -0.004,0.12451 -0.0258,0.0725 -0.0962,0.18692 -0.13174,0.25992 -0.0352,0.0732 -0.0381,0.10561 -0.14907,0.30041 -0.11126,0.19469 -0.32992,0.55049 -0.48272,0.73859 -0.15315,0.18791 -0.23865,0.20942 -0.30573,0.188 -0.0671,-0.0214 -0.11873,-0.0839 -0.1442,-0.11435 -0.0254,-0.0306 -0.0256,-0.0305 -0.0169,-0.0585 0.009,-0.028 0.0266,-0.0863 0.0469,-0.13415 0.02,-0.048 0.0434,-0.0864 0.0628,-0.16124 0.02,-0.075 0.0339,-0.18596 0.097,-0.36282 0.0635,-0.17682 0.17721,-0.41999 0.30014,-0.64961 0.1229,-0.22965 0.25541,-0.44594 0.36473,-0.62381 l 0.32008,-0.52073 c 0.12496,-0.20328 0.28909,-0.47019 0.37715,-0.6018 0.0502,-0.0738 0.0759,-0.10365 0.0871,-0.094 z" />
    <path
       id="path5665-2"
       style="fill:#ff00ff;fill-opacity:1;stroke:#ff00ff;stroke-width:0.266341;stroke-dasharray:none;stroke-opacity:1"
       d="m 156.92001,257.99857 c 0.005,0.004 0.0108,0.008 0.0155,0.013 0.057,0.0544 0.11725,0.2202 0.1271,0.41002 0.01,0.1898 -0.0305,0.40188 -0.1125,0.60806 -0.082,0.20619 -0.20477,0.40613 -0.27802,0.50803 -0.0734,0.10178 -0.0944,0.10697 -0.12634,0.13155 -0.0319,0.0246 -0.0763,0.0671 -0.1053,0.083 -0.0289,0.0158 -0.0423,0.009 -0.071,0.011 -0.0287,0.003 -0.071,0.0128 -0.167,-0.007 -0.0961,-0.0196 -0.24611,-0.0685 -0.34789,-0.10759 -0.10183,-0.0392 -0.15567,-0.0693 -0.17842,-0.0881 -0.0227,-0.0192 -0.0152,-0.0314 -0.0163,-0.0586 -8e-4,-0.0272 -0.0125,-0.067 0.004,-0.12313 0.0165,-0.0562 0.0626,-0.13134 0.0985,-0.20388 0.0361,-0.0725 0.0607,-0.14242 0.0734,-0.17831 0.0129,-0.036 0.0129,-0.0358 0.0376,-0.0622 0.0248,-0.0266 0.077,-0.0817 0.12256,-0.14052 0.0457,-0.0587 0.084,-0.12111 0.18333,-0.22522 0.0994,-0.10404 0.26106,-0.24978 0.35176,-0.32576 0.0908,-0.076 0.11152,-0.081 0.13472,-0.10157 0.0235,-0.0206 0.0468,-0.0584 0.0644,-0.0752 0.0176,-0.0169 0.0314,-0.009 0.0643,-0.0314 0.0297,-0.0201 0.0747,-0.0674 0.12541,-0.0356 z" />
    <path
       id="path5673-4"
       style="fill:#ff00ff;fill-opacity:1;stroke:#ff00ff;stroke-width:0.266341;stroke-dasharray:none;stroke-opacity:1"
       d="m 152.77228,265.02044 -2.32042,4.74174 c -0.29403,-0.4611 -0.58725,-0.92165 -0.72812,-1.18924 -0.14088,-0.26759 -0.12978,-0.34481 -0.13173,-0.42986 -0.002,-0.0851 -0.0176,-0.17666 0.095,-0.44779 0.11265,-0.27108 0.35457,-0.72306 0.52571,-0.98811 0.17129,-0.26492 0.27308,-0.34297 0.3933,-0.43594 0.12024,-0.093 0.2585,-0.20149 0.38797,-0.28119 0.12945,-0.0797 0.2509,-0.12994 0.33021,-0.17001 0.0792,-0.0401 0.11582,-0.0704 0.1547,-0.0913 0.0389,-0.0208 0.0811,-0.0311 0.11116,-0.048 0.0301,-0.0169 0.0455,-0.0419 0.0878,-0.0689 0.0422,-0.0269 0.11348,-0.0548 0.22139,-0.11265 0.10801,-0.0578 0.25221,-0.14615 0.40314,-0.23078 0.15095,-0.0846 0.30883,-0.16555 0.46987,-0.24809 z" />
    <path
       id="path5681-0"
       style="fill:#ff00ff;fill-opacity:1;stroke:#ff00ff;stroke-width:0.266341;stroke-dasharray:none;stroke-opacity:1"
       d="m 162.07505,242.92302 0.25525,0.99274 c -0.0377,-0.0598 -0.0733,-0.11765 -0.10171,-0.1663 -0.0804,-0.13801 -0.11072,-0.21335 -0.12374,-0.28462 -0.013,-0.0713 -0.009,-0.14002 -0.0129,-0.19594 -0.004,-0.0559 -0.0166,-0.098 -0.0207,-0.15283 -0.004,-0.0549 -1.1e-4,-0.12332 0.004,-0.19307 z m 0.25525,0.99274 c 0.0692,0.10958 0.14739,0.22857 0.21623,0.33094 0.10649,0.15823 0.18812,0.27396 0.22872,0.34413 0.0406,0.0701 0.0396,0.0929 0.056,0.14833 0.0165,0.0554 0.0502,0.14496 0.0659,0.21325 0.0159,0.0684 0.0135,0.11405 0.0477,0.20265 0.0341,0.0885 0.10475,0.22148 0.23259,0.38549 0.12786,0.164 0.31367,0.35936 0.43609,0.50277 0.12242,0.14343 0.18091,0.23459 0.21888,0.28505 0.0379,0.0505 0.057,0.0607 0.0739,0.0877 0.0169,0.0268 0.0295,0.0692 0.0534,0.12316 0.0238,0.0539 0.0593,0.12049 0.0974,0.18242 0.0381,0.062 0.0788,0.11993 0.14149,0.27809 0.0625,0.15821 0.14601,0.41607 0.18168,0.60725 0.0356,0.19123 0.0239,0.31412 -0.0152,0.523 -0.0393,0.20892 -0.10573,0.5033 -0.15025,0.66838 -0.0445,0.16506 -0.0663,0.20023 -0.0806,0.24482 -0.014,0.0446 -0.023,0.0991 -0.0738,0.21331 -0.0512,0.11419 -0.14502,0.28754 -0.23754,0.45847 z" />
    <path
       id="path5689-4"
       style="fill:#ff00ff;fill-opacity:1;stroke:#ff00ff;stroke-width:0.266341;stroke-dasharray:none;stroke-opacity:1"
       d="m 166.76806,236.96036 -3.68352,5.74298 c 0.0377,-0.22568 0.0755,-0.45299 0.12596,-0.64925 0.0505,-0.19623 0.11419,-0.36224 0.2082,-0.54665 0.094,-0.18439 0.21924,-0.38729 0.29082,-0.51375 0.0716,-0.12642 0.0891,-0.17575 0.16272,-0.30635 0.074,-0.13033 0.20347,-0.34279 0.33655,-0.55929 0.13308,-0.2165 0.26938,-0.43763 0.42592,-0.64111 0.15657,-0.20346 0.33425,-0.38926 0.43727,-0.5044 0.10302,-0.11513 0.13006,-0.15958 0.18731,-0.22247 0.0572,-0.0628 0.14595,-0.14457 0.24337,-0.25084 0.0974,-0.10629 0.20318,-0.23693 0.30558,-0.35209 0.10247,-0.11515 0.20154,-0.21459 0.26516,-0.28632 0.0637,-0.0717 0.091,-0.11604 0.20019,-0.26285 0.10916,-0.14676 0.30086,-0.39601 0.49421,-0.64776 z" />
    <path
       id="path4653-5"
       style="fill:#000000;fill-opacity:1;stroke:#000000;stroke-width:0.414447;stroke-dasharray:none;stroke-opacity:1"
       d="m 199.69398,276.81418 a 3.2832171,8.7075235 87.602871 0 1 -8.16309,3.76965 3.2832171,8.7075235 87.602871 0 1 -9.20735,-2.75163 3.2832171,8.7075235 87.602871 0 1 8.16298,-3.77016 3.2832171,8.7075235 87.602871 0 1 9.20746,2.75214 z" />
    <path
       id="path4653-8"
       style="fill:#000000;fill-opacity:1;stroke:#000000;stroke-width:0.414447;stroke-dasharray:none;stroke-opacity:1"
       d="m 147.76575,276.92459 a 3.2832171,8.7075235 87.602871 0 1 -8.16307,3.76965 3.2832171,8.7075235 87.602871 0 1 -9.20736,-2.75164 3.2832171,8.7075235 87.602871 0 1 8.163,-3.77016 3.2832171,8.7075235 87.602871 0 1 9.20743,2.75215 z" />
  </g>
</svg>
