<?xml version="1.0" encoding="UTF-8" standalone="no"?>
<!-- Created with Inkscape (http://www.inkscape.org/) -->

<svg
   width="210mm"
   height="297mm"
   viewBox="0 0 210 297"
   version="1.1"
   id="svg9261"
   inkscape:version="1.2.2 (732a01da63, 2022-12-09)"
   sodipodi:docname="Ackrum_forward.svg"
   xmlns:inkscape="http://www.inkscape.org/namespaces/inkscape"
   xmlns:sodipodi="http://sodipodi.sourceforge.net/DTD/sodipodi-0.dtd"
   xmlns:xlink="http://www.w3.org/1999/xlink"
   xmlns="http://www.w3.org/2000/svg"
   xmlns:svg="http://www.w3.org/2000/svg">
  <sodipodi:namedview
     id="namedview9263"
     pagecolor="#505050"
     bordercolor="#eeeeee"
     borderopacity="1"
     inkscape:showpageshadow="0"
     inkscape:pageopacity="0"
     inkscape:pagecheckerboard="0"
     inkscape:deskcolor="#505050"
     inkscape:document-units="mm"
     showgrid="false"
     inkscape:zoom="1.4770342"
     inkscape:cx="373.04484"
     inkscape:cy="890.97461"
     inkscape:window-width="1920"
     inkscape:window-height="1009"
     inkscape:window-x="-8"
     inkscape:window-y="-8"
     inkscape:window-maximized="1"
     inkscape:current-layer="layer1" />
  <defs
     id="defs9258">
    <inkscape:path-effect
       effect="bspline"
       id="path-effect12397"
       is_visible="true"
       lpeversion="1"
       weight="33.333333"
       steps="2"
       helper_size="0"
       apply_no_weight="true"
       apply_with_weight="true"
       only_selected="false" />
    <inkscape:path-effect
       effect="bspline"
       id="path-effect12393"
       is_visible="true"
       lpeversion="1"
       weight="33.333333"
       steps="2"
       helper_size="0"
       apply_no_weight="true"
       apply_with_weight="true"
       only_selected="false" />
    <inkscape:path-effect
       effect="bspline"
       id="path-effect2721"
       is_visible="true"
       lpeversion="1"
       weight="33.333333"
       steps="2"
       helper_size="0"
       apply_no_weight="true"
       apply_with_weight="true"
       only_selected="false" />
    <inkscape:path-effect
       effect="bspline"
       id="path-effect4219"
       is_visible="true"
       lpeversion="1"
       weight="33.333333"
       steps="2"
       helper_size="0"
       apply_no_weight="true"
       apply_with_weight="true"
       only_selected="false" />
    <inkscape:path-effect
       effect="bspline"
       id="path-effect4223"
       is_visible="true"
       lpeversion="1"
       weight="33.333333"
       steps="2"
       helper_size="0"
       apply_no_weight="true"
       apply_with_weight="true"
       only_selected="false" />
    <inkscape:path-effect
       effect="bspline"
       id="path-effect2721-3"
       is_visible="true"
       lpeversion="1"
       weight="33.333333"
       steps="2"
       helper_size="0"
       apply_no_weight="true"
       apply_with_weight="true"
       only_selected="false" />
    <inkscape:path-effect
       effect="bspline"
       id="path-effect4219-5"
       is_visible="true"
       lpeversion="1"
       weight="33.333333"
       steps="2"
       helper_size="0"
       apply_no_weight="true"
       apply_with_weight="true"
       only_selected="false" />
    <inkscape:path-effect
       effect="bspline"
       id="path-effect4223-6"
       is_visible="true"
       lpeversion="1"
       weight="33.333333"
       steps="2"
       helper_size="0"
       apply_no_weight="true"
       apply_with_weight="true"
       only_selected="false" />
    <inkscape:path-effect
       effect="bspline"
       id="path-effect2721-8"
       is_visible="true"
       lpeversion="1"
       weight="33.333333"
       steps="2"
       helper_size="0"
       apply_no_weight="true"
       apply_with_weight="true"
       only_selected="false" />
    <linearGradient
       inkscape:collect="always"
       id="linearGradient8824">
      <stop
         style="stop-color:#f4e3d7;stop-opacity:1;"
         offset="0"
         id="stop8820" />
      <stop
         style="stop-color:#e9c6af;stop-opacity:1"
         offset="1"
         id="stop8822" />
    </linearGradient>
    <inkscape:path-effect
       effect="bspline"
       id="path-effect4219-9"
       is_visible="true"
       lpeversion="1"
       weight="33.333333"
       steps="2"
       helper_size="0"
       apply_no_weight="true"
       apply_with_weight="true"
       only_selected="false" />
    <inkscape:path-effect
       effect="bspline"
       id="path-effect4223-0"
       is_visible="true"
       lpeversion="1"
       weight="33.333333"
       steps="2"
       helper_size="0"
       apply_no_weight="true"
       apply_with_weight="true"
       only_selected="false" />
    <linearGradient
       inkscape:collect="always"
       xlink:href="#linearGradient8824"
       id="linearGradient8929"
       x1="139.00603"
       y1="137.75211"
       x2="139.90169"
       y2="140.61821"
       gradientUnits="userSpaceOnUse"
       gradientTransform="matrix(1.0000143,0,0,0.9836276,-39.141733,104.6993)" />
  </defs>
  <g
     inkscape:label="Layer 1"
     inkscape:groupmode="layer"
     id="layer1">
    <path
       id="path4653"
       style="fill:#000000;fill-opacity:1;stroke:#000000;stroke-width:0.408973;stroke-dasharray:none;stroke-opacity:1"
       d="m 90.922284,292.63147 a 8.3389257,3.3383762 2.6005321 0 0 7.816633,3.83342 8.3389257,3.3383762 2.6005321 0 0 8.816593,-2.79818 8.3389257,3.3383762 2.6005321 0 0 -7.816553,-3.83394 8.3389257,3.3383762 2.6005321 0 0 -8.816673,2.7987 z" />
    <path
       id="rect456"
       style="fill:#f4e3d7;stroke-width:0.184865"
       d="m 100.98093,185.93856 c 0.0885,0.19806 0.23076,0.36873 0.43318,0.46561 0.20421,0.0977 0.41061,0.17735 0.6135,0.28617 0.22866,0.13093 0.45976,0.24588 0.69531,0.31769 0.0203,0.008 0.0407,0.0169 0.061,0.0249 0.0476,0.0672 0.10194,0.13089 0.16337,0.1896 0.30231,0.28891 0.60292,0.59321 0.87459,0.98713 0.2539,0.34868 0.51072,0.70112 0.7266,1.14215 0.19491,0.43263 0.39739,0.86845 0.54014,1.37751 0.14015,0.51112 0.28572,1.01327 0.3583,1.58336 0.0983,0.64678 0.17448,1.30618 0.21261,1.97832 0.0331,0.76878 0.009,1.53834 -0.006,2.30821 -0.0222,0.9224 -0.0525,1.84396 -0.098,2.76314 -0.0233,0.66741 -0.0549,1.33514 -0.14671,1.98187 -0.0806,0.58964 -0.15535,1.18063 -0.19954,1.78618 -0.0448,0.4723 -0.0812,0.95217 -0.18543,1.39174 -0.12569,0.53981 -0.2667,1.07547 -0.46063,1.53253 -0.21112,0.44633 -0.45417,0.82954 -0.70608,1.18181 -0.24584,0.32423 -0.48666,0.6668 -0.69044,1.09387 -0.2297,0.36983 -0.45401,0.75067 -0.68736,1.11166 -0.17988,0.26592 -0.374,0.50555 -0.58964,0.63893 h -2.5e-4 c -0.42147,0.2607 -0.57102,0.80953 -0.50885,1.2301 H 87.439285 c -0.0568,-0.21043 -0.15631,-0.42451 -0.30623,-0.6181 -0.16141,-0.2084 -0.33029,-0.3935 -0.48475,-0.62216 -0.19491,-0.27263 -0.38364,-0.56113 -0.58041,-0.82854 -0.24053,-0.31163 -0.47645,-0.63585 -0.7112,-0.96425 -0.29561,-0.38026 -0.55058,-0.85573 -0.79508,-1.35463 -0.23914,-0.4929 -0.41094,-1.08068 -0.56553,-1.68604 -0.15539,-0.58443 -0.29107,-1.18279 -0.4096,-1.7994 -0.0864,-0.47004 -0.14151,-0.95776 -0.19698,-1.44459 -0.001,-0.19402 -0.004,-0.38802 -0.005,-0.58201 -0.0192,-1.00596 0.0135,-2.00888 0.0516,-3.01119 0.0598,-1.35078 0.17296,-2.68652 0.29008,-4.02119 0.0826,-1.03675 0.22033,-2.04877 0.37266,-3.05237 0.12642,-0.79993 0.2998,-1.56409 0.47551,-2.32498 0.0365,-0.0498 0.0735,-0.10692 0.1108,-0.17231 0.17788,-0.31209 0.36693,-0.59728 0.55039,-0.89614 0.15772,-0.25621 0.31765,-0.51841 0.5009,-0.70044 0.17919,-0.18948 0.37177,-0.32466 0.56348,-0.45494 0.22059,-0.12961 0.44052,-0.25956 0.66633,-0.34869 0.22553,-0.089 0.37997,-0.27323 0.46986,-0.49052 z m -17.909015,6.11845 c -0.014,0.10492 -0.0287,0.20941 -0.0421,0.31464 0.002,-0.0417 0.004,-0.0833 0.005,-0.12504 0.012,-0.0634 0.0247,-0.12637 0.0369,-0.1896 z m 23.242185,13.15744 v 0.24551 c -0.0204,-0.005 -0.0415,-0.007 -0.0633,-0.007 -0.002,2e-5 -0.005,4.3e-4 -0.007,5.1e-4 0.0238,-0.0794 0.0468,-0.15966 0.0708,-0.2389 z m -24.182175,0.9612 c 0.0149,0.31337 0.0308,0.62654 0.0518,0.93833 -0.0174,-0.0345 -0.0343,-0.0699 -0.0518,-0.1042 z" />
    <path
       style="fill:none;stroke:#000000;stroke-width:0.26241"
       d="m 92.342059,191.43867 12.897651,-0.3524"
       id="path2494" />
    <path
       id="path2526"
       style="fill:none;stroke:#000000;stroke-width:0.26241"
       d="m 96.283184,190.38129 c -0.119708,0.94197 -0.23933,1.88206 -0.418584,2.58625 -0.179256,0.7042 -0.418286,1.17377 -0.537442,1.52695 -0.119159,0.35318 -0.119094,0.58807 -0.178804,0.76296 -0.05971,0.1749 -0.179037,0.29241 -0.238748,0.52864 -0.05971,0.23623 -0.05991,0.58851 -0.119891,0.8814 -0.05998,0.29288 -0.179357,0.52809 -0.177769,0.64503 0.0016,0.11695 0.121377,0.11707 0.239781,0.41224 0.118405,0.29516 0.237737,0.88219 0.297144,1.29312 0.0594,0.41093 0.05937,0.64578 0.120408,0.76195 0.06103,0.11616 0.180257,0.1163 0.419101,0.2938 0.238844,0.1775 0.597467,0.53002 1.791131,0.35225 1.193663,-0.17776 3.223579,-0.88267 4.416849,-2.1735 1.19327,-1.29084 1.55186,-3.1701 1.73119,-4.34447 0.17932,-1.17438 0.17931,-1.6445 0.17931,-1.93816 0,-0.17465 2.7e-4,-0.28617 0.0382,-0.3487 z m 7.561916,1.23976 1.03614,0.16977 c -0.3551,-0.11642 -0.7133,-0.23358 -0.89402,-0.2328 -0.0732,3.1e-4 -0.11621,0.0204 -0.14212,0.063 z" />
    <path
       style="fill:none;stroke:#000000;stroke-width:0.26241"
       d="m 103.89621,191.79106 c 0.089,-0.23353 0.1786,-0.46847 0.2687,-0.70479"
       id="path2719"
       inkscape:path-effect="#path-effect2721-8"
       inkscape:original-d="m 103.89621,191.79106 c 0.0922,-0.23232 0.18178,-0.46726 0.2687,-0.70479" />
    <path
       id="path2813"
       style="fill:none;stroke:#000000;stroke-width:0.0888301"
       d="m 103.54021,191.32216 c -0.57945,0.004 -1.91004,0.0331 -3.43808,0.0763 -2.83189,0.08 -3.721054,0.13135 -3.775538,0.21807 -0.0392,0.0624 -0.09812,0.33523 -0.131259,0.6064 -0.04992,0.4085 -0.566213,2.14591 -0.958096,3.22417 -0.05283,0.14537 -0.145118,0.52222 -0.205158,0.83718 -0.06004,0.31495 -0.13639,0.65522 -0.1695,0.75636 -0.03582,0.1094 0.0099,0.34156 0.113173,0.57285 0.152775,0.34212 0.220168,0.63483 0.414968,1.81007 0.05038,0.30394 0.580771,0.71591 1.070752,0.83159 0.376306,0.0888 0.372507,0.0892 1.12036,-0.0442 1.389788,-0.24794 2.900718,-0.94452 3.827728,-1.76432 1.22533,-1.08362 1.91748,-2.93196 2.1782,-5.81856 0.0576,-0.6379 0.14739,-1.17257 0.20309,-1.20671 0.055,-0.0337 0.0811,-0.0758 0.0579,-0.094 -0.006,-0.005 -0.11536,-0.006 -0.30852,-0.005 z" />
    <path
       id="path2815"
       style="fill:none;stroke:#000000;stroke-width:0.0888301"
       d="m 103.68284,191.41112 -2.89392,0.0681 c -3.568223,0.0839 -4.285194,0.13482 -4.377058,0.31159 -0.03777,0.0727 -0.153482,0.49462 -0.257353,0.93731 -0.103869,0.44269 -0.370954,1.37159 -0.593255,2.06422 -0.560025,1.74492 -0.655914,2.33849 -0.465094,2.87853 0.08152,0.2307 0.194281,0.67674 0.250117,0.99169 0.05584,0.31496 0.143004,0.68149 0.193791,0.81431 0.0954,0.24949 0.51748,0.55548 0.94569,0.6857 0.456127,0.1387 1.711929,-0.11981 2.829844,-0.58302 2.577548,-1.06802 3.636678,-2.70755 4.093348,-6.33499 0.0976,-0.77533 0.19937,-1.50493 0.22583,-1.62149 z" />
    <path
       id="path2817"
       style="fill:none;stroke:#000000;stroke-width:0.0888301"
       d="m 103.55158,191.5265 -1.03664,0.002 c -1.43982,0.002 -5.526761,0.16352 -5.790948,0.22874 -0.170606,0.0421 -0.24482,0.15106 -0.343137,0.50627 -0.06894,0.24909 -0.31647,1.10714 -0.549844,1.90665 -0.233376,0.7995 -0.503208,1.77679 -0.599972,2.17198 l -0.176221,0.71874 0.282159,1.16656 c 0.155035,0.64146 0.321812,1.23917 0.370525,1.3287 0.04871,0.0895 0.238472,0.24084 0.421686,0.33599 0.199064,0.1034 0.515606,0.17455 0.786524,0.17689 1.188219,0.0102 3.252458,-0.83809 4.267508,-1.75365 1.23642,-1.11523 1.74651,-2.37103 2.16114,-5.31685 z" />
    <path
       id="path2819"
       style="fill:none;stroke:#000000;stroke-width:0.0888301"
       d="m 103.40379,191.5875 -2.35132,0.063 c -2.614726,0.0701 -4.334817,0.16838 -4.419948,0.25212 -0.06379,0.0627 -0.688671,2.17047 -1.166354,3.93478 l -0.320398,1.18333 0.242883,1.01915 c 0.337809,1.41719 0.41033,1.56427 0.868693,1.76889 0.211217,0.0943 0.528541,0.17229 0.705394,0.17333 0.483401,0.003 1.600973,-0.30294 2.349244,-0.643 1.966056,-0.89349 2.983836,-2.08976 3.504236,-4.12082 0.20871,-0.81458 0.58757,-3.02902 0.58757,-3.4341 z" />
    <path
       id="path2821"
       style="fill:none;stroke:#000000;stroke-width:0.0888301"
       d="m 102.44052,191.70339 c -1.15291,2.6e-4 -4.991814,0.16125 -5.41732,0.22721 -0.390922,0.0606 -0.33814,-0.0737 -1.2418,3.14437 l -0.542613,1.93257 0.226865,0.95256 c 0.323037,1.35753 0.422211,1.55591 0.881094,1.76077 0.211218,0.0943 0.488401,0.17229 0.615994,0.17333 0.490587,0.004 1.687928,-0.36686 2.58024,-0.79956 0.76587,-0.3714 1.05252,-0.57088 1.61595,-1.12437 0.79193,-0.77798 1.15255,-1.39485 1.47848,-2.52881 0.21167,-0.73642 0.67646,-3.18813 0.67646,-3.56779 0,-0.15732 -0.0689,-0.17046 -0.87335,-0.17028 z" />
    <path
       id="path2823"
       style="fill:none;stroke:#000000;stroke-width:0.0888301"
       d="m 102.35939,191.79082 c -1.65495,-9e-5 -5.178142,0.19279 -5.396651,0.29533 -0.262928,0.12337 -0.306341,0.24172 -1.049045,2.87394 l -0.583436,2.06778 0.23358,0.91648 c 0.337375,1.32432 0.421194,1.48719 0.872309,1.68858 0.211218,0.0943 0.465835,0.17229 0.565349,0.17333 0.388136,0.004 1.562654,-0.37834 2.416426,-0.78685 1.412368,-0.6758 2.422938,-1.70829 2.915628,-2.97866 0.18867,-0.48648 0.71087,-2.83175 0.84337,-3.78737 l 0.0646,-0.46256 z" />
    <path
       id="path2825"
       style="fill:none;stroke:#000000;stroke-width:0.0888301"
       d="m 102.51235,191.88181 c -0.30095,1.1e-4 -0.73933,0.0101 -1.37048,0.029 -2.549925,0.0765 -4.107027,0.20281 -4.243727,0.34361 -0.129172,0.13305 -0.403667,0.99105 -1.014424,3.16877 l -0.463028,1.64995 0.238232,0.86106 c 0.354377,1.28142 0.425673,1.41323 0.867144,1.61031 0.507468,0.22655 0.583103,0.22164 1.537397,-0.0996 2.342556,-0.78864 3.712776,-1.99939 4.273186,-3.7772 0.17281,-0.5482 0.79606,-3.4343 0.79738,-3.69232 2.7e-4,-0.0655 -0.12009,-0.0937 -0.62168,-0.0935 z" />
    <path
       id="path2827"
       style="fill:none;stroke:#000000;stroke-width:0.0888301"
       d="m 102.47773,191.9733 c -1.04654,0.008 -3.26364,0.0914 -4.254585,0.17486 -0.558517,0.047 -1.085321,0.12239 -1.170489,0.16723 -0.162898,0.0857 -0.514069,1.12153 -1.174621,3.46562 l -0.366908,1.30329 0.236681,0.81023 c 0.348105,1.19016 0.433095,1.35154 0.819085,1.55185 0.445927,0.23143 0.446591,0.23125 1.404585,-0.0844 2.413032,-0.79501 3.813692,-2.10004 4.348642,-4.05118 0.15717,-0.57328 0.72503,-3.171 0.72503,-3.31668 0,-0.0173 -0.21857,-0.0234 -0.56742,-0.0209 z" />
    <path
       id="path2829"
       style="fill:none;stroke:#000000;stroke-width:0.0888301"
       d="m 102.96608,192.02871 -1.77408,0.0615 c -1.812554,0.0625 -3.713895,0.19565 -3.986378,0.27956 -0.200051,0.0616 -0.426057,0.67087 -1.071268,2.88361 l -0.534342,1.83193 0.28164,0.89868 c 0.332216,1.06022 0.453457,1.26875 0.833553,1.43138 0.37058,0.15855 0.288937,0.16855 1.195293,-0.14436 1.716371,-0.59255 2.924312,-1.42231 3.625672,-2.48967 0.46339,-0.7052 0.63623,-1.19888 1.01029,-2.8831 0.17668,-0.79551 0.34358,-1.54176 0.37053,-1.65808 z" />
    <path
       id="path2831"
       style="fill:none;stroke:#000000;stroke-width:0.0888301"
       d="m 102.85239,192.11766 -1.58287,0.0595 c -2.767909,0.10431 -3.985624,0.21953 -4.117124,0.38936 -0.131211,0.16946 -0.64201,1.70912 -1.131214,3.40919 l -0.329701,1.14521 0.340553,0.9673 c 0.291989,0.8291 0.383982,0.99527 0.644931,1.16707 0.167385,0.1102 0.336044,0.20027 0.374661,0.20027 0.03862,0 0.405178,-0.12138 0.814946,-0.26991 1.290886,-0.46789 2.111646,-0.94691 2.864988,-1.67181 1.03391,-0.99488 1.24792,-1.50222 1.94513,-4.61235 z" />
    <path
       id="path2833"
       style="fill:none;stroke:#000000;stroke-width:0.0888301"
       d="m 102.18214,192.23152 c -0.88211,9e-5 -3.806789,0.17727 -4.369828,0.26483 -0.291822,0.0454 -0.563488,0.13328 -0.604107,0.19519 -0.103965,0.15844 -0.809036,2.30082 -1.144133,3.47679 l -0.280606,0.9856 0.322982,0.86463 c 0.232186,0.62147 0.402061,0.93242 0.604624,1.10658 0.154982,0.13325 0.291067,0.24246 0.302312,0.24246 0.01125,0 0.314819,-0.10376 0.674903,-0.23027 1.945938,-0.68368 3.366423,-1.77251 3.958993,-3.03508 0.26534,-0.56535 0.81297,-2.50443 0.99995,-3.54033 l 0.06,-0.3304 z" />
    <path
       id="path2835"
       style="fill:none;stroke:#000000;stroke-width:0.0888301"
       d="m 102.16147,192.33216 c -1.17493,-0.005 -4.343117,0.20136 -4.713999,0.34006 -0.146124,0.0546 -0.291811,0.39888 -0.694026,1.64233 -0.279882,0.86527 -0.590973,1.85542 -0.69144,2.20045 l -0.182935,0.62724 0.227894,0.59472 c 0.290911,0.76021 0.464617,1.09713 0.694541,1.34446 0.10135,0.10903 0.192905,0.19824 0.203092,0.19824 0.09664,0 1.332397,-0.50176 1.767876,-0.71773 1.249517,-0.61967 2.262967,-1.50416 2.699107,-2.35598 0.28992,-0.56626 1.12551,-3.41056 1.12604,-3.83363 4e-5,-0.027 -0.16501,-0.039 -0.43615,-0.0402 z" />
    <path
       id="path2837"
       style="fill:none;stroke:#000000;stroke-width:0.0888301"
       d="m 102.12943,192.4262 c -1.02402,-0.006 -3.817043,0.16283 -4.473184,0.29634 -0.292049,0.0594 -0.326629,0.1393 -1.102272,2.55728 l -0.586022,1.82735 0.181388,0.47679 c 0.217221,0.57106 0.399349,0.93652 0.657851,1.32057 0.105771,0.15715 0.195636,0.28592 0.199472,0.28618 0.05324,0.005 1.287209,-0.52364 1.692945,-0.72485 1.18367,-0.587 2.235782,-1.48271 2.626232,-2.23551 0.27386,-0.52802 1.1808,-3.42052 1.18186,-3.76908 7e-5,-0.0227 -0.14196,-0.0336 -0.37827,-0.0351 z" />
    <path
       id="path2839"
       style="fill:none;stroke:#000000;stroke-width:0.0888301"
       d="m 102.10979,192.49787 c -0.18051,-5.2e-4 -0.46665,0.0125 -0.91314,0.0346 -1.497101,0.074 -3.20567,0.21172 -3.486659,0.28109 -0.252926,0.0624 -0.339139,0.26636 -1.074885,2.54 l -0.568449,1.75619 0.23513,0.57845 c 0.129251,0.31809 0.350869,0.76356 0.492484,0.99017 l 0.257355,0.41224 0.491449,-0.214 c 0.796404,-0.34644 1.577762,-0.7469 2.009208,-1.03033 0.620887,-0.40788 1.425047,-1.21097 1.653157,-1.65046 0.20077,-0.38683 0.82631,-2.20283 1.03147,-2.99493 0.0565,-0.21805 0.12471,-0.47158 0.15194,-0.5632 0.0297,-0.0998 0.0218,-0.13885 -0.27906,-0.13978 z" />
    <path
       id="path2841"
       style="fill:none;stroke:#000000;stroke-width:0.0888301"
       d="m 102.32167,192.56039 -1.13845,0.0605 c -1.346356,0.0712 -3.11991,0.21374 -3.390029,0.27245 -0.237255,0.0516 -0.34241,0.29747 -1.067133,2.49628 l -0.561732,1.70485 0.260455,0.60234 c 0.14334,0.33132 0.345505,0.74382 0.449073,0.91648 0.103564,0.17265 0.227524,0.31362 0.27544,0.31362 0.04792,0 0.61352,-0.26282 1.256789,-0.58455 1.266819,-0.63361 2.198287,-1.38027 2.632437,-2.10895 0.21972,-0.36878 0.77121,-1.89286 1.10744,-3.06151 z" />
    <path
       id="path2843"
       style="fill:none;stroke:#000000;stroke-width:0.0888301"
       d="m 101.86587,192.67222 c -0.48945,1.5e-4 -3.867614,0.2623 -4.028752,0.31261 -0.186476,0.0582 -0.320733,0.37968 -1.021143,2.44951 l -0.56173,1.66063 0.266137,0.58455 c 0.146568,0.32132 0.3473,0.71266 0.445975,0.86971 l 0.179321,0.28566 0.912101,-0.45035 c 1.693215,-0.83562 2.592951,-1.57968 3.018981,-2.49679 0.25659,-0.55235 0.91464,-2.43532 1.02373,-2.92936 0.0614,-0.27816 0.0551,-0.28626 -0.23462,-0.28617 z" />
    <path
       id="path2845"
       style="fill:none;stroke:#000000;stroke-width:0.0888301"
       d="m 101.91652,192.76727 c -0.30008,-0.008 -1.11046,0.0465 -2.794708,0.18198 l -1.281594,0.10318 -0.143146,0.27245 c -0.191834,0.36457 -1.279528,3.57252 -1.279528,3.77365 0,0.0873 0.16156,0.47501 0.359156,0.86157 0.197599,0.38656 0.404929,0.70248 0.460961,0.70248 0.144536,0 1.542344,-0.75479 2.17716,-1.17571 0.749839,-0.49719 1.255899,-1.03817 1.562719,-1.67181 0.22971,-0.47439 1.08264,-2.854 1.08264,-3.02034 0,-0.0156 -0.0436,-0.0249 -0.14366,-0.0275 z" />
    <path
       id="path2847"
       style="fill:none;stroke:#000000;stroke-width:0.0888301"
       d="m 101.76665,192.84809 c -0.77794,-0.001 -3.799493,0.29555 -3.88509,0.38123 -0.102011,0.10211 -0.682784,1.68207 -1.155502,3.14437 l -0.242367,0.74974 0.37156,0.72637 0.371042,0.72637 0.468712,-0.23128 c 0.987077,-0.48669 1.985827,-1.1339 2.442775,-1.58337 0.55195,-0.5429 0.84077,-1.10224 1.41803,-2.74585 0.40194,-1.14442 0.40612,-1.16734 0.21084,-1.16758 z" />
    <path
       style="fill:none;stroke:#000000;stroke-width:0.0888301"
       d="m 96.904154,197.77044 -0.32156,-0.62807 0.23962,-0.75949 c 0.317433,-1.00613 1.027598,-2.94418 1.110401,-3.0303 0.07611,-0.0792 1.714789,-0.28496 2.989955,-0.37551 l 0.87774,-0.0623 -0.0625,0.25308 c -0.1467,0.59421 -0.95278,2.56058 -1.21346,2.96015 -0.15599,0.2391 -0.52144,0.62402 -0.812127,0.85536 -0.521858,0.41534 -2.212842,1.41518 -2.393418,1.41518 -0.05121,0 -0.237811,-0.28263 -0.414669,-0.62807 z"
       id="path2849" />
    <path
       style="fill:none;stroke:#000000;stroke-width:0.0888301"
       d="m 96.999056,197.74276 -0.327901,-0.57674 0.194087,-0.59512 c 0.374792,-1.14919 1.098725,-3.11012 1.162501,-3.14889 0.08933,-0.0543 1.941821,-0.28335 2.888577,-0.35715 l 0.78193,-0.061 -0.20982,0.60494 c -0.45256,1.30481 -0.97821,2.4166 -1.32663,2.80594 -0.350354,0.3915 -1.348183,1.08874 -2.326793,1.62586 l -0.508044,0.27885 z"
       id="path2851" />
    <path
       style="fill:none;stroke:#000000;stroke-width:0.0888301"
       d="m 97.04701,197.62765 -0.279475,-0.50658 0.450562,-1.27744 c 0.80865,-2.29268 0.82225,-2.3204 1.174032,-2.39254 0.541527,-0.11106 3.051201,-0.35785 3.104631,-0.3053 0.0697,0.0686 -0.45238,1.43087 -0.89131,2.32554 -0.26497,0.54009 -0.48094,0.8368 -0.833629,1.14529 -0.468047,0.40939 -2.190903,1.5176 -2.3593,1.5176 -0.04732,0 -0.211802,-0.22796 -0.365511,-0.50657 z"
       id="path2853" />
    <path
       style="fill:none;stroke:#000000;stroke-width:0.0888301"
       d="m 97.290682,197.84617 c -0.468828,-0.70744 -0.476569,-0.59357 0.160914,-2.36666 0.319614,-0.88897 0.652985,-1.687 0.740828,-1.77341 0.153952,-0.15143 1.0202,-0.29718 2.678376,-0.45065 l 0.55728,-0.0516 -0.22581,0.61576 c -0.39389,1.07405 -0.90549,2.08107 -1.245111,2.45083 -0.287265,0.31275 -1.799478,1.39212 -2.343882,1.67297 -0.162615,0.0839 -0.212511,0.0688 -0.322595,-0.0973 z"
       id="path2855" />
    <path
       style="fill:none;stroke:#000000;stroke-width:0.0888301"
       d="m 97.230769,197.5732 c -0.102543,-0.1632 -0.186442,-0.37864 -0.186442,-0.47877 0,-0.22304 0.647421,-2.06291 0.988443,-2.809 0.285212,-0.62398 0.326305,-0.6432 1.743354,-0.81525 0.443356,-0.0538 0.957246,-0.11714 1.141986,-0.14069 0.18473,-0.0236 0.33587,-0.008 0.33587,0.0353 0,0.1414 -0.63515,1.63175 -0.91799,2.15404 -0.15252,0.28164 -0.47773,0.68932 -0.72268,0.90594 -0.458204,0.40521 -1.983577,1.4452 -2.11971,1.4452 -0.04202,0 -0.16029,-0.13352 -0.262831,-0.29672 z"
       id="path2857" />
    <path
       style="fill:none;stroke:#000000;stroke-width:0.0888301"
       d="m 97.312976,197.497 c -0.09812,-0.15831 -0.178562,-0.32933 -0.178745,-0.38005 -5.29e-4,-0.17337 0.690943,-2.10924 0.964328,-2.69937 0.311268,-0.6719 0.349945,-0.69122 1.722348,-0.86042 0.418723,-0.0516 0.892753,-0.11518 1.053383,-0.14125 l 0.29207,-0.0474 -0.14731,0.37859 c -0.3472,0.89234 -0.92075,1.9926 -1.204993,2.31157 -0.294237,0.33018 -1.136804,0.97443 -1.941622,1.4846 l -0.381046,0.24155 z"
       id="path2859" />
    <path
       style="fill:none;stroke:#000000;stroke-width:0.0888301"
       d="m 97.35654,197.3711 c -0.151841,-0.22795 -0.148058,-0.25824 0.134792,-1.07922 0.16006,-0.46458 0.298658,-0.88434 0.308001,-0.93279 0.0093,-0.0485 0.161816,-0.3926 0.338833,-0.76477 0.37244,-0.78304 0.375367,-0.78453 1.930694,-0.9841 1.09054,-0.13993 1.06009,-0.25235 0.33284,1.22838 -0.38321,0.78027 -0.576956,1.06434 -0.961363,1.40959 -0.431389,0.38745 -1.7786,1.35743 -1.885334,1.35743 -0.02323,0 -0.112537,-0.10554 -0.198463,-0.23452 z"
       id="path2861" />
    <path
       style="fill:none;stroke:#000000;stroke-width:0.0888301"
       d="m 97.412558,197.27153 c -0.104215,-0.19154 0.435947,-1.88324 0.868389,-2.71967 0.223679,-0.43263 0.340372,-0.56166 0.574453,-0.63518 0.412867,-0.12966 1.85178,-0.31414 1.9208,-0.24625 0.0986,0.097 -0.833056,1.87283 -1.181533,2.25223 -0.182605,0.19881 -0.287011,0.36147 -0.232017,0.36147 0.05499,0 0.09999,0.0359 0.09999,0.0798 0,0.0439 -0.07053,0.0626 -0.156741,0.0415 -0.0947,-0.0232 -0.440387,0.17186 -0.873278,0.49264 -0.394097,0.29202 -0.7655,0.53102 -0.825345,0.53111 -0.05984,9e-5 -0.147465,-0.0709 -0.194715,-0.15773 z"
       id="path2863" />
    <path
       style="fill:none;stroke:#000000;stroke-width:0.0888301"
       d="m 97.525415,197.21139 c -0.07006,-0.17959 0.438771,-1.76731 0.800226,-2.49697 0.151642,-0.30612 0.353242,-0.59739 0.448001,-0.64727 0.218135,-0.11483 1.767658,-0.36347 1.837428,-0.29484 0.075,0.0738 -0.56237,1.31012 -1.027236,1.99258 -0.218042,0.32009 -0.497169,0.62714 -0.620283,0.68231 -0.123114,0.0552 -0.434005,0.25176 -0.690872,0.43687 -0.661265,0.47652 -0.684997,0.48692 -0.747264,0.32732 z"
       id="path2865" />
    <path
       style="fill:none;stroke:#000000;stroke-width:0.0888301"
       d="m 97.677648,196.82858 c 0.129677,-0.56769 0.624116,-1.88944 0.851952,-2.27746 0.232787,-0.39645 0.457223,-0.50525 1.246523,-0.60429 0.246307,-0.0309 0.524297,-0.0772 0.617737,-0.10288 0.13512,-0.0371 0.065,0.14821 -0.34231,0.90523 -0.281719,0.52355 -0.615771,1.07319 -0.742339,1.22141 -0.191698,0.22449 -1.54853,1.19453 -1.670841,1.19453 -0.02069,0 -0.003,-0.15144 0.03928,-0.33654 z"
       id="path2873" />
    <path
       style="fill:none;stroke:#000000;stroke-width:0.0888301"
       d="m 97.807518,196.71506 c 0.07859,-0.35336 0.598512,-1.71351 0.805469,-2.10717 0.07976,-0.1517 0.273327,-0.32777 0.430156,-0.39126 0.34292,-0.13882 1.225597,-0.26552 1.225597,-0.17592 0,0.035 -0.19145,0.42243 -0.425441,0.86088 -0.464133,0.86968 -0.728318,1.1643 -1.556288,1.73557 l -0.545941,0.37668 z"
       id="path2875" />
    <path
       style="fill:none;stroke:#000000;stroke-width:0.0888301"
       d="m 97.94,196.64488 c 0,-0.15004 0.461524,-1.35726 0.687709,-1.79885 0.151124,-0.29505 0.30517,-0.45997 0.503904,-0.53946 0.354134,-0.14165 0.957997,-0.25278 0.957997,-0.17629 0,0.0311 -0.16553,0.36957 -0.367844,0.75206 -0.253911,0.48005 -0.532571,0.84546 -0.899702,1.17979 -0.569899,0.51898 -0.882064,0.72522 -0.882064,0.58275 z"
       id="path2879" />
    <path
       style="fill:none;stroke:#000000;stroke-width:0.0888301"
       d="m 98.119133,196.39922 c 0,-0.13126 0.453259,-1.22161 0.652123,-1.56873 0.161937,-0.28266 0.290196,-0.38135 0.648161,-0.49873 0.245451,-0.0805 0.458987,-0.13405 0.47453,-0.11903 0.08704,0.0841 -0.605553,1.20092 -0.997554,1.60861 -0.450494,0.46853 -0.777259,0.71148 -0.77726,0.57788 z"
       id="path2887" />
    <path
       style="fill:none;stroke:#000000;stroke-width:0.0888301"
       d="m 98.457598,194.93709 c -0.20502,-0.15247 -0.27969,-0.16513 -0.470227,-0.0797 -0.124578,0.0558 -0.226506,0.067 -0.226506,0.0247 0,-0.23288 0.638726,-0.23813 0.851384,-0.007 0.225534,0.24513 0.138509,0.28002 -0.154651,0.062 z"
       id="path2889" />
    <path
       style="fill:none;stroke:#000000;stroke-width:0.0888301"
       d="m 98.300275,196.14784 c 0.0011,-0.0462 0.121114,-0.32183 0.266693,-0.61255 0.302042,-0.6032 0.322719,-0.69999 0.134349,-0.62889 -0.07389,0.0279 -0.134349,0.0166 -0.134349,-0.0252 0,-0.0633 0.137511,-0.1505 0.358267,-0.22727 0.02463,-0.009 0.200284,-0.0837 0.390342,-0.16694 0.190056,-0.0832 0.366869,-0.13041 0.392918,-0.10478 0.07676,0.0755 -0.655581,1.12476 -1.048324,1.50198 -0.199049,0.19118 -0.361002,0.30982 -0.359896,0.26364 z"
       id="path2977" />
    <path
       style="fill:none;stroke:#000000;stroke-width:0.0888301"
       d="m 98.689749,195.55731 c 0.02648,-0.0606 0.09696,-0.2724 0.156637,-0.47073 0.0823,-0.27355 0.173765,-0.38485 0.378856,-0.46099 0.148703,-0.0552 0.284069,-0.0869 0.300817,-0.0704 0.03962,0.039 -0.763244,1.11227 -0.832021,1.11227 -0.02884,0 -0.03077,-0.0495 -0.0043,-0.11012 z"
       id="path2981" />
    <path
       style="fill:none;stroke:#000000;stroke-width:0.0888301"
       d="m 98.656536,195.04312 c 0,-0.0443 0.07255,-0.0805 0.161221,-0.0805 0.08867,0 0.214622,-0.0495 0.279896,-0.11012 0.09562,-0.0887 0.111018,-0.0854 0.07925,0.0172 -0.04387,0.14171 -0.520369,0.30048 -0.520369,0.17338 z"
       id="path2985" />
    <path
       style="fill:none;stroke:#000000;stroke-width:0.0888301"
       d="m 98.925235,194.61967 c 0,-0.0433 0.06376,-0.10274 0.141678,-0.13215 0.244719,-0.0924 0.324101,-0.0585 0.184603,0.0787 -0.148823,0.14638 -0.326281,0.17547 -0.326281,0.0535 z"
       id="path2987" />
    <path
       style="fill:#ffffff;stroke:#000000;stroke-width:0.0888301"
       d="m 99.910472,193.44621 c 0,-0.0451 0.05686,-0.13787 0.126358,-0.20623 0.0695,-0.0684 0.14156,-0.16916 0.16015,-0.22401 0.0186,-0.0549 0.0968,-0.0853 0.1739,-0.0677 0.10604,0.0243 0.0671,0.0987 -0.16015,0.30596 -0.16514,0.15063 -0.300258,0.237 -0.300258,0.19193 z"
       id="path2993" />
    <path
       id="path3099"
       style="fill:#ffffff;stroke:#000000;stroke-width:0.26241"
       d="m 97.760635,196.28423 a 1.2987219,1.6738874 0 0 0 -1.298648,1.67384 1.2987219,1.6738874 0 0 0 1.298648,1.67384 1.2987219,1.6738874 0 0 0 1.299163,-1.67384 1.2987219,1.6738874 0 0 0 -1.299163,-1.67384 z" />
    <ellipse
       style="fill:#ffffff;stroke:#000000;stroke-width:0.26241"
       id="path3101"
       cx="100.80614"
       cy="194.16975"
       rx="1.4778558"
       ry="0.96909273" />
    <path
       id="rect3215"
       style="fill:#0000ff;stroke:#000000;stroke-width:0.204903"
       d="m 87.02895,209.20073 v 39.17351 h 13.85078 v -39.17351 z" />
    <path
       id="rect4554"
       style="fill:#800080;fill-opacity:1;stroke:#000000;stroke-width:0.520917;stroke-dasharray:none;stroke-opacity:1"
       d="m 89.05813,246.97149 v 49.00528 h 11.20707 c -0.0859,-1.69475 -0.20965,-3.38789 -0.314195,-5.08186 -0.169671,-2.74175 -0.241217,-5.48741 -0.295589,-8.23258 -0.02821,-2.91904 -0.07569,-5.8379 -0.135392,-8.75657 -0.05772,-2.68957 -0.08959,-5.3798 -0.112138,-8.06979 -0.01401,-1.76193 -0.02124,-3.52349 -0.02584,-5.28547 -8.51e-4,-0.33833 0.07258,-0.61004 0.190686,-0.81855 v -1.58337 -4.61935 -5.51543 -1.04231 z" />
    <path
       id="path4981-5"
       style="fill:url(#linearGradient8929);fill-opacity:1;stroke:#f4e3d7;stroke-width:0.262823;stroke-dasharray:none;stroke-opacity:1"
       d="m 94.671658,237.28878 a 6.2696914,4.1406689 0 0 0 -6.26999,4.14065 6.2696914,4.1406689 0 0 0 6.26999,4.14064 6.2696914,4.1406689 0 0 0 6.269482,-4.14064 6.2696914,4.1406689 0 0 0 -6.269482,-4.14065 z" />
    <path
       id="path5293"
       style="fill:#000000;fill-opacity:1;stroke:#000000;stroke-width:0.262823;stroke-dasharray:none;stroke-opacity:1"
       d="m 96.954952,253.85983 -0.59222,0.74569 c 0.0098,-0.008 0.02094,-0.0161 0.03307,-0.0265 0.05172,-0.0438 0.125979,-0.11684 0.1633,-0.1596 0.03732,-0.0428 0.03725,-0.0575 0.05271,-0.0737 0.01546,-0.0162 0.04536,-0.031 0.104388,-0.0966 0.05903,-0.0656 0.148848,-0.18336 0.19379,-0.25567 0.04494,-0.0723 0.04496,-0.10172 0.04496,-0.13369 z m -0.59222,0.74569 c -0.03205,0.0244 -0.05225,0.0358 -0.06408,0.0483 -0.01546,0.0162 -0.01562,0.0312 -0.04548,0.0666 -0.02985,0.0354 -0.08948,0.0938 -0.164334,0.1896 -0.07485,0.0957 -0.164575,0.22833 -0.253734,0.35988 z" />
    <path
       id="path5297"
       style="fill:#000000;fill-opacity:1;stroke:#000000;stroke-width:0.262823;stroke-dasharray:none;stroke-opacity:1"
       d="m 98.567282,251.04079 c -0.0304,0.0598 -0.0604,0.11861 -0.11266,0.21398 -0.0522,0.0954 -0.12675,0.22771 -0.16382,0.31668 -0.0371,0.089 -0.0371,0.13264 -0.0672,0.23483 -0.0301,0.1022 -0.0902,0.26387 -0.14934,0.42394 z" />
    <path
       id="path5301"
       style="fill:#000000;fill-opacity:1;stroke:#000000;stroke-width:0.262823;stroke-dasharray:none;stroke-opacity:1"
       d="m 99.238572,248.48605 -0.0444,0.88089 z" />
    <path
       id="path5325"
       style="fill:#000000;fill-opacity:1;stroke:#000000;stroke-width:0.262823;stroke-dasharray:none;stroke-opacity:1"
       d="m 92.386691,247.91319 0.776191,0.005 c -0.194374,-0.005 -0.483603,-0.005 -0.776191,-0.005 z m 0.776191,0.005 c 0.04539,9.9e-4 0.08726,0.002 0.120924,0.004 0.177812,0.009 0.177914,0.0233 0.29146,0.0666 0.113545,0.0433 0.337209,0.1168 0.471295,0.15299 0.134087,0.0362 0.178885,0.0369 0.268721,0.0595 0.08984,0.0225 0.224672,0.0664 0.321433,0.0879 0.09676,0.0215 0.156463,0.0218 0.193788,0.0305 0.03733,0.009 0.05179,0.0234 0.08165,0.0295 0.02986,0.006 0.07507,0.006 0.112656,0.0143 0.03759,0.008 0.06739,0.0229 0.119374,0.0295 0.05199,0.007 0.126717,0.006 0.216527,0.0213 0.08981,0.0151 0.193946,0.0448 0.432538,0.0589 0.238594,0.0143 0.611775,0.0136 0.895049,-0.008 0.283274,-0.0222 0.477295,-0.0662 0.641315,-0.1103 0.16403,-0.0441 0.29849,-0.0882 0.493,-0.11742 0.19451,-0.0292 0.44843,-0.0438 0.74674,-0.0879 0.2983,-0.0442 0.64155,-0.11761 0.98289,-0.19061 z" />
    <path
       id="path5329"
       style="fill:#000000;fill-opacity:1;stroke:#000000;stroke-width:0.264999;stroke-dasharray:none;stroke-opacity:1"
       d="m 89.785119,283.79105 0.316776,1.13998 c 0,-0.16624 -1.98e-4,-0.33494 -0.0155,-0.46664 -0.01531,-0.1317 -0.04668,-0.2264 -0.06304,-0.28474 -0.01636,-0.0583 -0.01623,-0.0795 -0.03049,-0.0961 -0.01426,-0.0166 -0.0463,-0.0271 -0.06821,-0.0419 -0.02191,-0.0148 -0.03212,-0.0363 -0.05323,-0.0785 -0.0211,-0.0422 -0.05304,-0.10558 -0.0863,-0.17208 z" />
    <path
       id="path5629"
       style="fill:#ff00ff;fill-opacity:1;stroke:#ff00ff;stroke-width:0.264999;stroke-dasharray:none;stroke-opacity:1"
       d="m 91.93036,267.31065 c -0.06381,0.24461 -0.127219,0.48741 -0.158647,0.66198 -0.03143,0.17457 -0.03152,0.28018 -0.03152,0.44907 v 0.59118 c 0,0.18999 -2.2e-5,0.33806 -0.01602,0.51728 -0.016,0.17921 -0.04775,0.39026 -0.06873,0.72295 -0.02098,0.33269 -0.03136,0.78636 -0.04186,1.23765 z" />
    <path
       id="path5637"
       style="fill:#ff00ff;fill-opacity:1;stroke:#ff00ff;stroke-width:0.262823;stroke-dasharray:none;stroke-opacity:1"
       d="m 90.55911,271.747 v 1.26924 c 0,0.35301 2.31e-4,0.60209 0.0057,0.77872 0.0054,0.17662 0.01616,0.28041 0.02687,0.35835 0.01072,0.078 0.02087,0.13006 0.02584,0.19214 0.005,0.0621 0.005,0.13491 0.01085,0.18706 0.0058,0.0521 0.01644,0.0831 0.02119,0.12962 0.0047,0.0464 0.0049,0.10873 0.01602,0.17129 0.0057,0.032 0.01356,0.064 0.02377,0.10268 z m 0.130226,3.1891 0.155032,3.78788 c 0.06292,-0.30947 0.126155,-0.62102 0.173636,-0.8443 0.04748,-0.22327 0.07903,-0.358 0.09508,-0.51338 0.01606,-0.15538 0.01602,-0.33194 0.01602,-0.4773 0,-0.14536 5.5e-5,-0.25981 -0.0098,-0.34259 -0.0099,-0.0827 -0.03066,-0.13459 -0.04186,-0.17639 -0.01119,-0.0418 -0.01146,-0.0731 -0.02635,-0.11436 -0.01489,-0.0413 -0.04628,-0.0929 -0.06305,-0.13979 -0.01677,-0.0469 -0.0171,-0.0888 -0.02687,-0.13012 -0.0098,-0.0413 -0.03065,-0.0827 -0.04703,-0.1347 -0.01638,-0.052 -0.02694,-0.1143 -0.04238,-0.1713 -0.01544,-0.0571 -0.03682,-0.10897 -0.06356,-0.21806 -0.02674,-0.10909 -0.05809,-0.27522 -0.08423,-0.38937 -0.01281,-0.0559 -0.02482,-0.0991 -0.03462,-0.13622 z" />
    <path
       id="path5641"
       style="fill:#ff00ff;fill-opacity:1;stroke:#ff00ff;stroke-width:0.262823;stroke-dasharray:none;stroke-opacity:1"
       d="m 90.822803,262.12954 0.126609,6.75942 c 0.07337,-0.23714 0.14719,-0.47614 0.199991,-0.65774 0.0528,-0.18161 0.08418,-0.3063 0.100255,-0.45646 0.01607,-0.15017 0.0165,-0.3265 0.02687,-0.4773 0.01038,-0.15079 0.03112,-0.27518 0.04186,-0.39952 0.01073,-0.12435 0.01085,-0.2491 0.01085,-0.46714 v -0.83056 c 0,-0.3011 -1.49e-4,-0.59187 -0.0155,-0.78889 -0.01536,-0.19702 -0.04675,-0.3009 -0.07338,-0.42036 -0.02663,-0.11949 -0.04761,-0.25426 -0.05839,-0.36344 -0.01078,-0.10919 -0.01077,-0.19223 -0.03669,-0.32176 -0.02592,-0.12953 -0.07893,-0.30641 -0.126609,-0.50373 -0.04767,-0.19733 -0.0897,-0.41501 -0.121441,-0.59675 -0.03174,-0.18174 -0.05288,-0.3275 -0.07441,-0.47577 z" />
    <path
       id="path5649"
       style="fill:#ff00ff;fill-opacity:1;stroke:#ff00ff;stroke-width:0.264999;stroke-dasharray:none;stroke-opacity:1"
       d="m 90.237747,290.46151 -0.313676,4.12016 c 0.04425,-0.0885 0.08895,-0.17771 0.171049,-0.34933 0.0821,-0.17163 0.201576,-0.42541 0.283704,-0.63407 0.08213,-0.20867 0.126773,-0.37285 0.164331,-0.47078 0.03756,-0.0979 0.06776,-0.12805 0.08268,-0.15658 0.01492,-0.0285 0.01457,-0.0584 0.03669,-0.11885 0.02212,-0.0605 0.06726,-0.14987 0.08992,-0.34313 0.02266,-0.19327 0.02224,-0.49191 -0.01447,-0.73794 -0.03671,-0.24603 -0.111311,-0.4404 -0.170532,-0.56741 -0.05922,-0.12701 -0.103624,-0.18627 -0.127124,-0.22376 -0.0235,-0.0375 -0.02382,-0.0528 -0.03049,-0.0749 -0.0067,-0.0221 -0.02155,-0.0521 -0.04341,-0.0822 -0.02185,-0.0301 -0.05147,-0.0598 -0.07493,-0.11937 -0.02346,-0.0595 -0.03832,-0.14927 -0.05374,-0.24184 z" />
    <path
       id="path5653"
       style="fill:#ff00ff;fill-opacity:1;stroke:#ff00ff;stroke-width:0.262823;stroke-dasharray:none;stroke-opacity:1"
       d="m 90.819563,273.67348 v 4.40496 c 0.163668,-0.33661 0.327945,-0.67438 0.417552,-0.87226 0.0896,-0.19787 0.104196,-0.25654 0.126609,-0.30854 0.02241,-0.052 0.05274,-0.0957 0.06046,-0.32226 0.0077,-0.22656 -0.0074,-0.63811 -0.05168,-0.95357 -0.0443,-0.31548 -0.119214,-0.53563 -0.186554,-0.7706 -0.06734,-0.23497 -0.12693,-0.48446 -0.171053,-0.63131 -0.04412,-0.14685 -0.07396,-0.19094 -0.104387,-0.26432 -0.03043,-0.0734 -0.0602,-0.17623 -0.09095,-0.2821 z" />
    <path
       id="path5657"
       style="fill:#ff00ff;fill-opacity:1;stroke:#ff00ff;stroke-width:0.262823;stroke-dasharray:none;stroke-opacity:1"
       d="m 90.730161,272.70465 -0.134361,5.63861 c 0.09114,-0.0299 0.180672,-0.0595 0.254252,-0.13216 0.07358,-0.0726 0.132986,-0.1903 0.192756,-0.29329 0.05977,-0.103 0.119632,-0.19082 0.172085,-0.2572 0.05245,-0.0664 0.09754,-0.11075 0.127126,-0.15402 0.02958,-0.0433 0.04451,-0.0871 0.06718,-0.12453 0.02267,-0.0375 0.05225,-0.067 0.06718,-0.095 0.01493,-0.028 0.01503,-0.0573 0.02222,-0.0874 0.0072,-0.0301 0.02202,-0.0598 0.03721,-0.0823 0.01519,-0.0225 0.03026,-0.0371 0.03772,-0.065 0.0075,-0.028 0.0075,-0.072 0.01499,-0.10268 0.0075,-0.0307 0.02217,-0.0454 0.02222,-0.26432 5.3e-5,-0.21891 -0.01489,-0.64471 -0.03669,-0.8941 -0.0218,-0.24939 -0.05161,-0.32302 -0.06718,-0.38936 -0.01557,-0.0664 -0.01549,-0.12482 -0.02997,-0.20536 -0.01448,-0.0806 -0.04457,-0.18331 -0.05994,-0.26431 -0.01538,-0.0811 -0.01532,-0.13975 -0.02946,-0.19824 -0.01413,-0.0585 -0.04402,-0.11752 -0.09664,-0.27906 -0.05261,-0.16155 -0.127341,-0.42566 -0.224279,-0.73399 -0.09694,-0.30833 -0.215936,-0.66059 -0.336417,-1.0161 z" />
    <path
       id="path5661"
       style="fill:#ff00ff;fill-opacity:1;stroke:#ff00ff;stroke-width:0.264999;stroke-dasharray:none;stroke-opacity:1"
       d="m 91.819441,286.59916 c -0.01118,0.002 -0.02709,0.0298 -0.05064,0.0791 -0.05384,0.11264 -0.143667,0.33678 -0.21084,0.5085 -0.06717,0.17171 -0.111721,0.29127 -0.133842,0.39635 -0.02212,0.10509 -0.02205,0.19459 -0.03721,0.29869 -0.01516,0.10411 -0.04525,0.22315 -0.05994,0.29818 -0.01469,0.075 -0.01454,0.10528 -0.02894,0.12609 -0.0144,0.0208 -0.04449,0.0354 -0.05994,0.11162 -0.01546,0.0762 -0.01553,0.21066 -0.02325,0.29197 -0.0077,0.0813 -0.02226,0.11119 -0.02946,0.3359 -0.0072,0.2247 -0.0074,0.64275 0.02377,0.8816 0.03119,0.23885 0.09108,0.2988 0.157613,0.31212 0.06654,0.0133 0.141135,-0.0169 0.177767,-0.0315 0.03663,-0.0147 0.03669,-0.0145 0.04393,-0.0434 0.0072,-0.0289 0.02176,-0.0887 0.02946,-0.14056 0.0077,-0.0518 0.0079,-0.0968 0.02997,-0.17208 0.02212,-0.0753 0.06692,-0.1798 0.104387,-0.36587 0.03746,-0.18607 0.06709,-0.45465 0.08217,-0.71572 0.01506,-0.26107 0.0155,-0.515 0.0155,-0.72399 v -0.61184 c 0,-0.23885 -6.3e-5,-0.5525 -0.0062,-0.71056 -0.0035,-0.0889 -0.0099,-0.12757 -0.02429,-0.12454 z" />
    <path
       id="path5665"
       style="fill:#ff00ff;fill-opacity:1;stroke:#ff00ff;stroke-width:0.262823;stroke-dasharray:none;stroke-opacity:1"
       d="m 90.69037,272.09316 c -0.006,3.7e-4 -0.01262,0.002 -0.01964,0.004 -0.07486,0.0205 -0.209352,0.13756 -0.314197,0.2999 -0.104845,0.16233 -0.179477,0.36831 -0.216527,0.58913 -0.03705,0.2208 -0.03721,0.45567 -0.02842,0.58048 0.0088,0.12482 0.02372,0.13942 0.03772,0.17639 0.014,0.037 0.0291,0.0957 0.04496,0.12351 0.01586,0.0278 0.03084,0.0277 0.05323,0.0437 0.02239,0.016 0.05235,0.0453 0.142112,0.0737 0.08976,0.0284 0.238847,0.0578 0.343137,0.0722 0.104291,0.0144 0.164223,0.0138 0.192756,0.008 0.02853,-0.006 0.02849,-0.0204 0.04341,-0.0437 0.01492,-0.0233 0.0445,-0.0529 0.05943,-0.1103 0.01492,-0.0574 0.01496,-0.14564 0.02222,-0.2267 0.0073,-0.081 0.0223,-0.15444 0.02997,-0.19214 0.0077,-0.0377 0.0077,-0.0375 5.17e-4,-0.0727 -0.0072,-0.0352 -0.0222,-0.10886 -0.02997,-0.18248 -0.0078,-0.0736 -0.0078,-0.14693 -0.03721,-0.28617 -0.02941,-0.13924 -0.08912,-0.34506 -0.125574,-0.45544 -0.03645,-0.11038 -0.05115,-0.12466 -0.05994,-0.15401 -0.0088,-0.0294 -0.0088,-0.0738 -0.01499,-0.0971 -0.0061,-0.0233 -0.02126,-0.0232 -0.03721,-0.0584 -0.01445,-0.0319 -0.02764,-0.0951 -0.08578,-0.0915 z" />
    <path
       id="path5673"
       style="fill:#ff00ff;fill-opacity:1;stroke:#ff00ff;stroke-width:0.262823;stroke-dasharray:none;stroke-opacity:1"
       d="m 90.550701,280.26285 -0.492483,5.28636 c 0.478568,-0.26478 0.956184,-0.52946 1.209245,-0.69739 0.253064,-0.16794 0.28322,-0.24123 0.328151,-0.31515 0.04493,-0.074 0.104503,-0.14709 0.149347,-0.43969 0.04484,-0.2926 0.07449,-0.80647 0.0677,-1.12182 -0.0068,-0.31534 -0.0516,-0.43286 -0.103872,-0.57236 -0.05227,-0.13947 -0.111603,-0.30133 -0.178286,-0.43358 -0.06668,-0.13222 -0.14175,-0.23471 -0.187071,-0.30802 -0.04532,-0.0733 -0.06005,-0.11756 -0.08165,-0.15453 -0.0216,-0.037 -0.05145,-0.0663 -0.0677,-0.0955 -0.01625,-0.0294 -0.01643,-0.0587 -0.03772,-0.10268 -0.02129,-0.0439 -0.06606,-0.10268 -0.126091,-0.20535 -0.06003,-0.10268 -0.134565,-0.24962 -0.216528,-0.39648 -0.08196,-0.14686 -0.171603,-0.29386 -0.263037,-0.44375 z" />
    <path
       id="path5681"
       style="fill:#ff00ff;fill-opacity:1;stroke:#ff00ff;stroke-width:0.262823;stroke-dasharray:none;stroke-opacity:1"
       d="m 94.097918,256.35208 -0.71728,0.75127 c 0.0617,-0.0345 0.12065,-0.0684 0.16898,-0.0976 0.1369,-0.0829 0.20044,-0.13465 0.24754,-0.19113 0.0471,-0.0565 0.0787,-0.11898 0.11059,-0.16622 0.0319,-0.0472 0.0637,-0.0783 0.0951,-0.12453 0.0314,-0.0462 0.0629,-0.10848 0.0951,-0.1718 z m -0.71728,0.75127 c -0.11307,0.0633 -0.23857,0.13048 -0.34778,0.18756 -0.168828,0.0882 -0.29545,0.15087 -0.364847,0.19316 -0.0694,0.0423 -0.0801,0.0627 -0.121958,0.10369 -0.04185,0.0409 -0.115427,0.10353 -0.1633,0.15605 -0.04787,0.0525 -0.0693,0.0939 -0.142629,0.15554 -0.07332,0.0616 -0.199616,0.14472 -0.389129,0.22772 -0.189513,0.083 -0.443031,0.16581 -0.617542,0.23331 -0.174512,0.0675 -0.269429,0.11969 -0.3266,0.14589 -0.05717,0.0262 -0.07823,0.0261 -0.105938,0.0417 -0.02771,0.0155 -0.05978,0.0467 -0.106972,0.0828 -0.04719,0.0361 -0.110522,0.0776 -0.173635,0.11386 -0.06311,0.0363 -0.126468,0.0677 -0.258903,0.17689 -0.132435,0.10924 -0.332951,0.29614 -0.459927,0.4473 -0.126976,0.15118 -0.179858,0.26497 -0.253734,0.46765 -0.07388,0.20267 -0.168774,0.49366 -0.216011,0.66028 -0.04724,0.16663 -0.04705,0.20806 -0.05788,0.25416 -0.01083,0.0461 -0.03192,0.098 -0.04754,0.22314 -0.01562,0.12513 -0.02626,0.32264 -0.03669,0.51745 z" />
    <path
       id="path5689"
       style="fill:#ff00ff;fill-opacity:1;stroke:#ff00ff;stroke-width:0.262823;stroke-dasharray:none;stroke-opacity:1"
       d="m 93.246082,248.85304 0.127127,6.82144 c 0.0839,-0.21663 0.168205,-0.43489 0.226346,-0.63183 0.05814,-0.19693 0.08992,-0.3736 0.105937,-0.58099 0.01602,-0.20738 0.0156,-0.44602 0.02067,-0.59166 0.0051,-0.14564 0.0157,-0.19743 0.02119,-0.34768 0.0055,-0.15025 0.0057,-0.3993 0.0057,-0.65368 0,-0.25438 -2.96e-4,-0.51439 -0.02635,-0.76856 -0.02607,-0.25417 -0.07871,-0.50294 -0.105422,-0.65368 -0.02671,-0.15073 -0.02645,-0.20284 -0.04186,-0.28566 -0.01541,-0.0828 -0.04726,-0.19725 -0.0739,-0.33751 -0.02663,-0.14027 -0.04768,-0.30599 -0.0739,-0.45646 -0.02622,-0.15047 -0.05771,-0.28554 -0.0739,-0.37919 -0.01619,-0.0936 -0.01635,-0.14578 -0.03204,-0.32736 -0.01569,-0.18154 -0.04763,-0.49286 -0.07958,-0.80718 z" />
    <path
       id="path5693"
       style="fill:#ff00ff;fill-opacity:1;stroke:#ff00ff;stroke-width:0.262823;stroke-dasharray:none;stroke-opacity:1"
       d="m 89.660023,247.40144 v 5.1e-4 c -0.04895,-0.005 -0.302311,0.43104 -0.302311,0.43104 l 1.995256,-0.3736 h -0.884197 c -0.232221,0 -0.369145,-5e-4 -0.448041,-0.005 -0.07889,-0.004 -0.100461,-0.0149 -0.158649,-0.026 -0.05819,-0.011 -0.153109,-0.0215 -0.202058,-0.027 z" />
    <path
       id="path6258"
       style="fill:#000080;fill-opacity:1;stroke:#000080;stroke-width:0.262823;stroke-dasharray:none;stroke-opacity:1"
       d="m 89.515965,226.97026 c -0.0411,0.0203 -0.0836,0.0412 -0.12506,0.0518 -0.0414,0.0106 -0.0835,0.0104 -0.10593,0.0326 -0.0224,0.022 -0.0223,0.0639 -0.0429,0.0935 -0.0206,0.0296 -0.0627,0.0501 -0.11627,0.12352 -0.0536,0.0735 -0.11691,0.19821 -0.14831,0.47933 -0.0314,0.28112 -0.0319,0.71713 0.0424,1.24686 0.0469,0.33428 0.12241,0.69853 0.19068,1.01051 z m -0.30541,3.03814 -0.83458,8.29958 c 0.16848,-0.24858 0.33708,-0.49739 0.43201,-0.65267 0.0949,-0.15526 0.11638,-0.21752 0.15918,-0.27042 0.0428,-0.0529 0.10594,-0.0948 0.17931,-0.17739 0.0734,-0.0825 0.15808,-0.20715 0.20051,-0.28923 0.0424,-0.082 0.0424,-0.12334 0.0641,-0.15604 0.0217,-0.0328 0.0634,-0.0536 0.17881,-0.18807 0.11541,-0.1345 0.30587,-0.38356 0.41134,-0.54897 0.10548,-0.16542 0.1265,-0.24847 0.15813,-0.33193 0.0316,-0.0834 0.0739,-0.16634 0.11628,-0.38376 0.0423,-0.21743 0.0842,-0.57067 0.10542,-0.83006 0.0213,-0.2594 0.0217,-0.42552 0.0124,-0.51899 -0.009,-0.0934 -0.0303,-0.11428 -0.0522,-0.15554 -0.0219,-0.0412 -0.0432,-0.10365 -0.0543,-0.16621 -0.0111,-0.0626 -0.0111,-0.12453 -0.0527,-0.25924 -0.0416,-0.1347 -0.12627,-0.34225 -0.23203,-0.67451 -0.10577,-0.33228 -0.23218,-0.78932 -0.33745,-1.11115 -0.10528,-0.32184 -0.18962,-0.5087 -0.23256,-0.62318 -0.0429,-0.11449 -0.0433,-0.15595 -0.11678,-0.48798 -0.0271,-0.12251 -0.065,-0.29181 -0.10491,-0.47424 z" />
    <path
       id="path6266"
       style="fill:#000080;fill-opacity:1;stroke:#000080;stroke-width:0.262823;stroke-dasharray:none;stroke-opacity:1"
       d="m 88.444611,220.90508 2.59625,6.16726 c -0.33671,-0.99361 -0.67414,-1.99048 -0.96946,-2.74841 -0.29532,-0.75792 -0.54901,-1.27721 -0.76017,-1.72366 -0.21116,-0.44644 -0.37988,-0.8201 -0.49559,-1.04862 -0.11571,-0.22854 -0.17893,-0.31149 -0.23203,-0.39445 -0.0531,-0.0829 -0.0952,-0.16593 -0.139,-0.25212 z" />
    <path
       id="path6274"
       style="fill:#000080;fill-opacity:1;stroke:#000080;stroke-width:0.262823;stroke-dasharray:none;stroke-opacity:1"
       d="m 87.841506,209.94025 c -0.0857,5.3e-4 -0.16655,0.008 -0.23306,0.0244 -0.21284,0.0523 -0.27569,0.19748 -0.33848,0.34158 l 5.63643,3.36395 c -0.27152,-0.20543 -0.54613,-0.41308 -0.70436,-0.52762 -0.15824,-0.11454 -0.20062,-0.13533 -0.23307,-0.1657 -0.0324,-0.0304 -0.0531,-0.072 -0.0946,-0.10421 -0.0414,-0.0322 -0.10508,-0.0529 -0.18965,-0.1042 -0.0846,-0.0512 -0.19004,-0.13422 -0.26407,-0.17689 -0.074,-0.0427 -0.11606,-0.0428 -0.25322,-0.14538 -0.13716,-0.10258 -0.36964,-0.31027 -0.51729,-0.43511 -0.14765,-0.12483 -0.21078,-0.1664 -0.25374,-0.20739 -0.043,-0.041 -0.0642,-0.0824 -0.0847,-0.1047 -0.0206,-0.0223 -0.0416,-0.0221 -0.17881,-0.14537 -0.13718,-0.12329 -0.39038,-0.37286 -0.52814,-0.51797 -0.13775,-0.14512 -0.15924,-0.1866 -0.17983,-0.20891 -0.0206,-0.0223 -0.0414,-0.0219 -0.16795,-0.12453 -0.12659,-0.10259 -0.35903,-0.31056 -0.49662,-0.44528 -0.13759,-0.13472 -0.17971,-0.19684 -0.37983,-0.25009 -0.13758,-0.0366 -0.35037,-0.0678 -0.539,-0.0666 z" />
    <path
       id="path6278"
       style="fill:#000080;fill-opacity:1;stroke:#000080;stroke-width:0.262823;stroke-dasharray:none;stroke-opacity:1"
       d="m 87.675554,213.98098 2.4066,5.91818 c -0.0421,-1.18092 -0.0842,-2.3646 -0.14624,-2.99798 -0.0621,-0.63338 -0.14649,-0.71636 -0.24185,-0.84073 -0.0953,-0.12437 -0.20095,-0.29048 -0.2956,-0.41528 -0.0946,-0.12481 -0.17925,-0.20794 -0.33796,-0.43613 -0.15871,-0.22819 -0.39076,-0.60177 -0.55915,-0.83057 -0.16838,-0.2288 -0.27421,-0.31212 -0.40102,-0.35479 -0.12679,-0.0427 -0.27436,-0.0427 -0.42478,-0.0427 z" />
    <path
       id="rect4681-1-8-7-6"
       style="fill:#0000ff;fill-opacity:1;stroke:#000000;stroke-width:0.311608;stroke-dasharray:none;stroke-opacity:1"
       inkscape:transform-center-x="1.1456426"
       inkscape:transform-center-y="-1.2110857"
       d="m 92.014142,239.25205 -1.0176,-23.61625 8.357713,-0.70407 1.018125,23.61625 z" />
    <path
       id="path6258-9"
       style="fill:#000080;fill-opacity:1;stroke:#000080;stroke-width:0.262823;stroke-dasharray:none;stroke-opacity:1"
       d="m 93.992812,217.78267 c -0.0411,0.0203 -0.0836,0.0412 -0.12506,0.0518 -0.0414,0.0106 -0.0835,0.0104 -0.10593,0.0326 -0.0224,0.022 -0.0223,0.0639 -0.0429,0.0935 -0.0206,0.0296 -0.0627,0.0501 -0.11627,0.12352 -0.0536,0.0735 -0.11691,0.19821 -0.14831,0.47933 -0.0314,0.28112 -0.0319,0.71713 0.0424,1.24686 0.0469,0.33428 0.12241,0.69853 0.19068,1.01051 z m -0.30541,3.03814 -0.83458,8.29958 c 0.16848,-0.24858 0.33708,-0.49739 0.43201,-0.65267 0.0949,-0.15526 0.11638,-0.21752 0.15918,-0.27042 0.0428,-0.0529 0.10594,-0.0948 0.17931,-0.17739 0.0734,-0.0825 0.15808,-0.20715 0.20051,-0.28923 0.0424,-0.082 0.0424,-0.12334 0.0641,-0.15604 0.0217,-0.0328 0.0634,-0.0536 0.17881,-0.18807 0.11541,-0.1345 0.30587,-0.38356 0.41134,-0.54897 0.10548,-0.16542 0.1265,-0.24847 0.15813,-0.33193 0.0316,-0.0834 0.0739,-0.16634 0.11628,-0.38376 0.0423,-0.21743 0.0842,-0.57067 0.10542,-0.83006 0.0213,-0.2594 0.0217,-0.42552 0.0124,-0.51899 -0.009,-0.0934 -0.0303,-0.11428 -0.0522,-0.15554 -0.0219,-0.0412 -0.0432,-0.10365 -0.0543,-0.16621 -0.0111,-0.0626 -0.0111,-0.12453 -0.0527,-0.25924 -0.0416,-0.1347 -0.12627,-0.34225 -0.23203,-0.67451 -0.10577,-0.33228 -0.23218,-0.78932 -0.33745,-1.11115 -0.10528,-0.32184 -0.18962,-0.5087 -0.23256,-0.62318 -0.0429,-0.11449 -0.0433,-0.15595 -0.11678,-0.48798 -0.0271,-0.12251 -0.065,-0.29181 -0.10491,-0.47424 z" />
    <path
       style="fill:#000000;stroke:#000000;stroke-width:0.264999"
       d="m 101.03016,205.10555 c 0.30119,0 0.59975,0 0.95756,-0.06 0.35781,-0.06 0.77579,-0.17939 1.31363,-0.23885 0.53784,-0.0595 1.19466,-0.0595 1.5516,-0.0893 0.35693,-0.0299 0.41665,-0.0896 0.47636,-0.14928"
       id="path12391"
       inkscape:path-effect="#path-effect12393"
       inkscape:original-d="m 101.03016,205.10555 c 0.30119,0.003 0.59975,0.003 0.89565,0 0.42062,-0.11678 0.8386,-0.2362 1.25392,-0.35827 0.65946,0.003 1.31628,0.003 1.97045,0 0.0623,-0.0571 0.12207,-0.11677 0.17913,-0.17913" />
  </g>
</svg>
