<?xml version="1.0" encoding="UTF-8" standalone="no"?>
<!-- Created with Inkscape (http://www.inkscape.org/) -->

<svg
   width="210mm"
   height="297mm"
   viewBox="0 0 210 297"
   version="1.1"
   id="svg12895"
   inkscape:version="1.2.2 (732a01da63, 2022-12-09)"
   sodipodi:docname="Ackrum_Forward_Walking.svg"
   xmlns:inkscape="http://www.inkscape.org/namespaces/inkscape"
   xmlns:sodipodi="http://sodipodi.sourceforge.net/DTD/sodipodi-0.dtd"
   xmlns:xlink="http://www.w3.org/1999/xlink"
   xmlns="http://www.w3.org/2000/svg"
   xmlns:svg="http://www.w3.org/2000/svg">
  <sodipodi:namedview
     id="namedview12897"
     pagecolor="#505050"
     bordercolor="#eeeeee"
     borderopacity="1"
     inkscape:showpageshadow="0"
     inkscape:pageopacity="0"
     inkscape:pagecheckerboard="0"
     inkscape:deskcolor="#505050"
     inkscape:document-units="mm"
     showgrid="false"
     inkscape:zoom="1.0444209"
     inkscape:cx="547.67191"
     inkscape:cy="713.31394"
     inkscape:window-width="1920"
     inkscape:window-height="1009"
     inkscape:window-x="-8"
     inkscape:window-y="-8"
     inkscape:window-maximized="1"
     inkscape:current-layer="layer1" />
  <defs
     id="defs12892">
    <inkscape:path-effect
       effect="bspline"
       id="path-effect2721-8"
       is_visible="true"
       lpeversion="1"
       weight="33.333333"
       steps="2"
       helper_size="0"
       apply_no_weight="true"
       apply_with_weight="true"
       only_selected="false" />
    <linearGradient
       inkscape:collect="always"
       xlink:href="#linearGradient8824"
       id="linearGradient8929"
       x1="139.00603"
       y1="137.75211"
       x2="139.90169"
       y2="140.61821"
       gradientUnits="userSpaceOnUse"
       gradientTransform="matrix(0.96204151,0,0,0.9675389,8.4889941,87.881987)" />
    <linearGradient
       inkscape:collect="always"
       id="linearGradient8824">
      <stop
         style="stop-color:#f4e3d7;stop-opacity:1;"
         offset="0"
         id="stop8820" />
      <stop
         style="stop-color:#e9c6af;stop-opacity:1"
         offset="1"
         id="stop8822" />
    </linearGradient>
    <inkscape:path-effect
       effect="bspline"
       id="path-effect12393"
       is_visible="true"
       lpeversion="1"
       weight="33.333333"
       steps="2"
       helper_size="0"
       apply_no_weight="true"
       apply_with_weight="true"
       only_selected="false" />
  </defs>
  <g
     inkscape:label="Layer 1"
     inkscape:groupmode="layer"
     id="layer1">
    <path
       id="path5693-4"
       style="fill:#ff00ff;fill-opacity:1;stroke:#ff00ff;stroke-width:0.255668;stroke-dasharray:none;stroke-opacity:1"
       d="m 135.03608,230.78992 2.4e-4,4.4e-4 c -0.0431,0.0199 -0.044,0.51592 -0.044,0.51592 l 1.48123,-1.30122 -0.7362,0.43568 c -0.19335,0.11446 -0.3076,0.18148 -0.37545,0.21652 -0.0676,0.0355 -0.0909,0.0368 -0.14462,0.0561 -0.0538,0.0193 -0.13784,0.0571 -0.18126,0.0765 z" />
    <path
       id="rect4554"
       style="fill:#800080;fill-opacity:1;stroke:#000000;stroke-width:0.506735;stroke-dasharray:none;stroke-opacity:1"
       d="m 129.10961,224.9379 -20.33046,43.49123 9.72749,4.75387 c 0.62853,-1.54049 1.22353,-3.09562 1.83555,-4.64334 0.99018,-2.50522 2.06716,-4.97228 3.15883,-7.43163 1.18653,-2.60255 2.35622,-5.21314 3.51526,-7.82872 1.06572,-2.41142 2.15411,-4.81247 3.25053,-7.20935 0.71881,-1.56962 1.44328,-3.13606 2.17027,-4.70174 0.13962,-0.30062 0.31609,-0.51061 0.5051,-0.64556 l 0.65687,-1.4052 1.9164,-4.09959 2.28815,-4.89484 0.43242,-0.92503 z" />
    <path
       id="path5293"
       style="fill:#000000;fill-opacity:1;stroke:#000000;stroke-width:0.255668;stroke-dasharray:none;stroke-opacity:1"
       d="m 133.10617,234.40087 -0.82339,0.41057 c 0.012,-0.003 0.0248,-0.006 0.0397,-0.01 0.063,-0.0169 0.15782,-0.0503 0.20795,-0.0724 0.0501,-0.0221 0.0563,-0.0352 0.0763,-0.0431 0.0202,-0.008 0.0522,-0.008 0.13068,-0.0414 0.0784,-0.0332 0.20527,-0.0996 0.27427,-0.1447 0.069,-0.0452 0.0813,-0.0712 0.0946,-0.0996 z m -0.82339,0.41057 c -0.0379,0.008 -0.0601,0.01 -0.0757,0.0156 -0.0202,0.008 -0.0265,0.0211 -0.0671,0.0398 -0.0406,0.0187 -0.1166,0.0453 -0.2213,0.0986 -0.10462,0.0532 -0.23757,0.13283 -0.36953,0.21176 z" />
    <path
       id="path5297"
       style="fill:#000000;fill-opacity:1;stroke:#000000;stroke-width:0.255668;stroke-dasharray:none;stroke-opacity:1"
       d="m 135.67515,232.58295 c -0.0512,0.0401 -0.10163,0.0797 -0.18656,0.14212 -0.0848,0.0626 -0.20449,0.14832 -0.27357,0.21155 -0.0692,0.0632 -0.0873,0.10198 -0.15575,0.17991 -0.0685,0.0779 -0.18776,0.19591 -0.30551,0.31288 z" />
    <path
       id="path5301"
       style="fill:#000000;fill-opacity:1;stroke:#000000;stroke-width:0.255668;stroke-dasharray:none;stroke-opacity:1"
       d="m 137.31768,230.60042 -0.40399,0.76294 z" />
    <path
       id="path5325"
       style="fill:#000000;fill-opacity:1;stroke:#000000;stroke-width:0.255668;stroke-dasharray:none;stroke-opacity:1"
       d="m 131.60806,227.18555 0.67164,0.33369 c -0.16663,-0.0868 -0.41769,-0.20957 -0.67164,-0.33369 z m 0.67164,0.33369 c 0.039,0.0202 0.0749,0.0389 0.10329,0.0549 0.15062,0.0834 0.14477,0.0961 0.22536,0.18274 0.0806,0.0866 0.24424,0.2467 0.3456,0.3357 0.10137,0.089 0.13996,0.10862 0.20856,0.16678 0.0686,0.058 0.16746,0.15424 0.24253,0.21436 0.0751,0.0601 0.12677,0.0858 0.15555,0.10927 0.0287,0.0238 0.0352,0.0427 0.0586,0.0608 0.0235,0.018 0.0627,0.0372 0.0919,0.0605 0.0293,0.023 0.049,0.0489 0.0914,0.0768 0.0422,0.0282 0.10751,0.0591 0.17911,0.11076 0.0717,0.0514 0.14975,0.12202 0.351,0.23575 0.20116,0.11389 0.52536,0.27156 0.7802,0.37256 0.25509,0.10045 0.44175,0.1437 0.60241,0.17415 0.16066,0.0304 0.29568,0.0483 0.47662,0.10491 0.18095,0.0566 0.4074,0.15135 0.68462,0.23874 0.27726,0.0874 0.60565,0.16776 0.93221,0.24777 z" />
    <path
       id="path5329"
       style="fill:#000000;fill-opacity:1;stroke:#000000;stroke-width:0.257785;stroke-dasharray:none;stroke-opacity:1"
       d="m 114.46556,257.92292 -0.19798,1.14608 c 0.069,-0.14753 0.13878,-0.29733 0.18014,-0.42071 0.0414,-0.12337 0.0534,-0.22074 0.0635,-0.27942 0.01,-0.0587 0.0189,-0.0774 0.0134,-0.0983 -0.006,-0.0208 -0.029,-0.0437 -0.0418,-0.0661 -0.0129,-0.0224 -0.0128,-0.0458 -0.0137,-0.0923 -8.1e-4,-0.0464 -0.002,-0.11619 -0.004,-0.18933 z" />
    <path
       id="path5629"
       style="fill:#ff00ff;fill-opacity:1;stroke:#ff00ff;stroke-width:0.257785;stroke-dasharray:none;stroke-opacity:1"
       d="m 123.16469,244.20686 c -0.15686,0.19002 -0.31263,0.37861 -0.41234,0.5202 -0.0997,0.14161 -0.14358,0.23529 -0.21364,0.38518 l -0.24526,0.52466 c -0.0788,0.16861 -0.14027,0.30001 -0.22849,0.45229 -0.0882,0.15226 -0.2034,0.32607 -0.35955,0.61246 -0.15626,0.28635 -0.35349,0.68456 -0.54983,1.08062 z" />
    <path
       id="path5637"
       style="fill:#ff00ff;fill-opacity:1;stroke:#ff00ff;stroke-width:0.255668;stroke-dasharray:none;stroke-opacity:1"
       d="m 120.13399,247.56238 -0.52655,1.12641 c -0.14645,0.31329 -0.24959,0.53445 -0.31786,0.69365 -0.069,0.15887 -0.10227,0.25574 -0.12532,0.32944 -0.0231,0.0738 -0.0358,0.1243 -0.0573,0.18146 -0.0215,0.0573 -0.0517,0.12186 -0.0682,0.1706 -0.0163,0.0488 -0.0202,0.0807 -0.0354,0.12403 -0.0149,0.0433 -0.0408,0.0986 -0.0571,0.1588 -0.008,0.031 -0.0147,0.0626 -0.0219,0.10122 z m -1.21001,2.88549 -1.43687,3.42744 c 0.18297,-0.24797 0.36713,-0.49763 0.50097,-0.67564 0.13386,-0.178 0.21709,-0.28422 0.29553,-0.41528 0.0784,-0.13107 0.15159,-0.2878 0.21189,-0.41681 0.0603,-0.129 0.10785,-0.23055 0.13346,-0.30828 0.0256,-0.0776 0.0291,-0.13247 0.0368,-0.17432 0.008,-0.0418 0.0204,-0.0697 0.0245,-0.11269 0.004,-0.043 -0.002,-0.10209 0.003,-0.15078 0.005,-0.0488 0.022,-0.0861 0.0306,-0.12689 0.009,-0.0409 0.008,-0.0865 0.0151,-0.13948 0.008,-0.0531 0.0241,-0.11286 0.0343,-0.17002 0.0103,-0.0572 0.0133,-0.11232 0.0353,-0.2205 0.022,-0.10814 0.0638,-0.2689 0.0884,-0.38127 0.0121,-0.0551 0.0196,-0.0985 0.0265,-0.13557 z" />
    <path
       id="path5641"
       style="fill:#ff00ff;fill-opacity:1;stroke:#ff00ff;stroke-width:0.255668;stroke-dasharray:none;stroke-opacity:1"
       d="m 124.3528,239.13891 -2.69434,6.05257 c 0.16209,-0.17933 0.32529,-0.36013 0.44646,-0.4989 0.12117,-0.13878 0.20016,-0.23612 0.27639,-0.36258 0.0763,-0.12643 0.14978,-0.28275 0.22136,-0.41218 0.0716,-0.12941 0.14116,-0.23102 0.20212,-0.33679 0.0609,-0.10582 0.1128,-0.21645 0.20326,-0.40995 l 0.34457,-0.73711 c 0.12491,-0.26722 0.24541,-0.52534 0.31382,-0.7067 0.0684,-0.18138 0.0842,-0.2869 0.11068,-0.40419 0.0265,-0.11733 0.0642,-0.24585 0.10009,-0.34733 0.0359,-0.10148 0.0703,-0.17518 0.10163,-0.30112 0.0313,-0.12594 0.0587,-0.3054 0.0991,-0.50076 0.0405,-0.19536 0.0943,-0.40636 0.14216,-0.58111 0.0479,-0.17474 0.09,-0.3131 0.13281,-0.4538 z" />
    <path
       id="path5649"
       style="fill:#ff00ff;fill-opacity:1;stroke:#ff00ff;stroke-width:0.257785;stroke-dasharray:none;stroke-opacity:1"
       d="m 112.0911,264.03482 -1.98156,3.52351 c 0.0751,-0.0598 0.15097,-0.11996 0.29339,-0.23747 0.14246,-0.11749 0.35145,-0.29204 0.50929,-0.44238 0.15783,-0.15036 0.26473,-0.27712 0.33795,-0.3481 0.0733,-0.0709 0.11198,-0.0849 0.13674,-0.10389 0.0247,-0.019 0.0369,-0.0456 0.0812,-0.0899 0.0443,-0.0444 0.12059,-0.10446 0.22038,-0.26639 0.0999,-0.1619 0.22335,-0.42715 0.29357,-0.66106 0.0702,-0.23391 0.0861,-0.43807 0.0874,-0.5759 9.6e-4,-0.13783 -0.0127,-0.20926 -0.0175,-0.2525 -0.005,-0.0433 9.6e-4,-0.057 0.005,-0.0794 0.003,-0.0226 0.003,-0.0554 -0.004,-0.0914 -0.007,-0.036 -0.0199,-0.075 -0.0155,-0.13772 0.004,-0.0627 0.0287,-0.14872 0.0537,-0.23741 z" />
    <path
       id="path5653"
       style="fill:#ff00ff;fill-opacity:1;stroke:#ff00ff;stroke-width:0.255668;stroke-dasharray:none;stroke-opacity:1"
       d="m 119.56083,249.38257 -1.82745,3.90931 c 0.28171,-0.2293 0.56443,-0.45939 0.72429,-0.59699 0.15986,-0.1376 0.19688,-0.18348 0.2379,-0.22012 0.041,-0.0367 0.0854,-0.0626 0.18621,-0.26033 0.10093,-0.19768 0.25865,-0.56929 0.35072,-0.86821 0.0925,-0.29878 0.11875,-0.52593 0.15778,-0.76303 0.0391,-0.23707 0.0908,-0.48378 0.11343,-0.63282 0.0226,-0.14905 0.015,-0.20085 0.0191,-0.27887 0.004,-0.078 0.0209,-0.18193 0.0381,-0.28891 z" />
    <path
       id="path5657"
       style="fill:#ff00ff;fill-opacity:1;stroke:#ff00ff;stroke-width:0.255668;stroke-dasharray:none;stroke-opacity:1"
       d="m 119.88517,248.48483 -2.45587,4.94716 c 0.0915,0.0121 0.1815,0.0238 0.2755,-0.01 0.094,-0.0332 0.19439,-0.11248 0.289,-0.17853 0.0947,-0.066 0.18299,-0.1186 0.25606,-0.15526 0.073,-0.0367 0.13058,-0.057 0.17424,-0.0827 0.0437,-0.0259 0.0748,-0.0584 0.10999,-0.082 0.0353,-0.0236 0.0732,-0.0373 0.0977,-0.0558 0.0245,-0.0185 0.0368,-0.0445 0.0555,-0.0682 0.0186,-0.0237 0.0439,-0.0438 0.0665,-0.0572 0.0225,-0.0136 0.0416,-0.0201 0.0596,-0.0417 0.0177,-0.0218 0.036,-0.0609 0.0556,-0.0848 0.0197,-0.0239 0.0381,-0.0309 0.12893,-0.22516 0.0908,-0.19426 0.25453,-0.57849 0.33908,-0.80907 0.0846,-0.23058 0.0892,-0.30856 0.10319,-0.37405 0.014,-0.0655 0.0383,-0.11735 0.0592,-0.19498 0.0209,-0.0777 0.0373,-0.18161 0.0576,-0.25998 0.0203,-0.0785 0.0447,-0.13051 0.0567,-0.18845 0.012,-0.0579 0.0106,-0.12296 0.0319,-0.28863 0.0213,-0.16569 0.0661,-0.43178 0.10983,-0.74654 0.0438,-0.31474 0.0866,-0.67787 0.12954,-1.04448 z" />
    <path
       id="path5661"
       style="fill:#ff00ff;fill-opacity:1;stroke:#ff00ff;stroke-width:0.257785;stroke-dasharray:none;stroke-opacity:1"
       d="m 115.06633,261.278 c -0.0106,-0.003 -0.0359,0.0149 -0.0768,0.0487 -0.0934,0.0771 -0.26442,0.23794 -0.39396,0.36185 -0.12957,0.12388 -0.21781,0.21111 -0.28061,0.29497 -0.0628,0.0839 -0.0998,0.16337 -0.1562,0.24931 -0.0564,0.086 -0.13189,0.17882 -0.1757,0.23922 -0.0439,0.0603 -0.0563,0.0872 -0.0774,0.0996 -0.0212,0.0124 -0.0533,0.0126 -0.0983,0.0737 -0.045,0.0611 -0.10085,0.18038 -0.14126,0.24927 -0.0407,0.0688 -0.0655,0.0892 -0.16496,0.28559 -0.0993,0.19645 -0.27273,0.56746 -0.34508,0.79251 -0.0721,0.2252 -0.0449,0.30381 0.008,0.34385 0.0522,0.04 0.12952,0.0448 0.16738,0.0474 0.0379,0.003 0.0379,0.003 0.0561,-0.0199 0.0181,-0.0227 0.0557,-0.0694 0.0839,-0.11222 0.0285,-0.0426 0.0471,-0.0825 0.0974,-0.14 0.0504,-0.0574 0.13265,-0.13118 0.24238,-0.28042 0.10974,-0.14923 0.24686,-0.37504 0.36827,-0.60032 0.12142,-0.22529 0.22711,-0.45048 0.31382,-0.63596 l 0.25382,-0.543 c 0.0991,-0.21197 0.22916,-0.49035 0.28958,-0.63315 0.0334,-0.0806 0.0443,-0.11745 0.0306,-0.12083 z" />
    <path
       id="path5665"
       style="fill:#ff00ff;fill-opacity:1;stroke:#ff00ff;stroke-width:0.255668;stroke-dasharray:none;stroke-opacity:1"
       d="m 120.10431,247.92526 c -0.006,-0.002 -0.0117,-0.004 -0.0187,-0.005 -0.0735,-0.0136 -0.23878,0.0332 -0.39713,0.13287 -0.15834,0.0996 -0.30858,0.25074 -0.43234,0.43101 -0.12381,0.18021 -0.22133,0.38861 -0.26547,0.50311 -0.044,0.11459 -0.0372,0.13379 -0.0405,0.17254 -0.003,0.0388 -0.0144,0.0973 -0.0122,0.1287 0.002,0.0314 0.0153,0.0377 0.0281,0.0614 0.0128,0.0237 0.0266,0.0624 0.0927,0.12568 0.0662,0.0633 0.18333,0.15261 0.26788,0.20963 0.0846,0.0571 0.13683,0.0819 0.16399,0.0888 0.0272,0.007 0.0332,-0.006 0.0558,-0.0204 0.0226,-0.0144 0.0606,-0.028 0.0973,-0.0727 0.0367,-0.0446 0.0734,-0.12289 0.11332,-0.19178 0.0396,-0.069 0.0834,-0.12759 0.10574,-0.15779 0.0226,-0.0301 0.0225,-0.0299 0.0306,-0.0643 0.009,-0.0342 0.0259,-0.10604 0.0496,-0.17468 0.0236,-0.0688 0.054,-0.13379 0.0864,-0.26975 0.0322,-0.13604 0.0658,-0.34403 0.0799,-0.45747 0.0141,-0.11344 0.008,-0.13234 0.0119,-0.16208 0.005,-0.0299 0.0228,-0.0693 0.0272,-0.0926 0.005,-0.0232 -0.009,-0.0296 -0.008,-0.0676 6.4e-4,-0.0344 0.0155,-0.0961 -0.0366,-0.1176 z" />
    <path
       id="path5673"
       style="fill:#ff00ff;fill-opacity:1;stroke:#ff00ff;stroke-width:0.255668;stroke-dasharray:none;stroke-opacity:1"
       d="m 116.59379,255.11646 -2.62059,4.48264 c 0.52523,-0.032 1.04961,-0.0643 1.33893,-0.10599 0.28933,-0.0417 0.3459,-0.0939 0.41556,-0.14048 0.0697,-0.0466 0.15174,-0.0862 0.31205,-0.32686 0.16027,-0.24068 0.39924,-0.68414 0.52417,-0.96689 0.12474,-0.28282 0.13479,-0.40603 0.14728,-0.55202 0.0125,-0.14596 0.0282,-0.31475 0.0251,-0.46041 -0.003,-0.14564 -0.0257,-0.26844 -0.0345,-0.35272 -0.009,-0.0843 -0.004,-0.12983 -0.007,-0.1718 -0.004,-0.042 -0.0171,-0.0807 -0.0191,-0.11347 -0.002,-0.0329 0.0101,-0.059 0.01,-0.10712 -2.8e-4,-0.048 -0.0148,-0.11916 -0.0242,-0.23573 -0.01,-0.11657 -0.0133,-0.27861 -0.0235,-0.44371 -0.0102,-0.16513 -0.027,-0.33359 -0.0443,-0.5054 z" />
    <path
       id="path5681"
       style="fill:#ff00ff;fill-opacity:1;stroke:#ff00ff;stroke-width:0.255668;stroke-dasharray:none;stroke-opacity:1"
       d="m 129.59239,235.40078 -0.93426,0.36249 c 0.0679,-0.005 0.13309,-0.01 0.18716,-0.015 0.15322,-0.0155 0.22984,-0.0345 0.29415,-0.0646 0.0644,-0.0302 0.11767,-0.0722 0.16495,-0.10061 0.0472,-0.0283 0.0877,-0.0425 0.13421,-0.0701 0.0464,-0.0276 0.0996,-0.0696 0.15382,-0.11213 z m -0.93426,0.36249 c -0.1244,0.008 -0.2612,0.0145 -0.37968,0.0189 -0.18313,0.007 -0.31904,0.009 -0.39682,0.0166 -0.0778,0.008 -0.0955,0.0216 -0.14887,0.0403 -0.0533,0.0185 -0.14314,0.0429 -0.20648,0.0692 -0.0634,0.0263 -0.0991,0.0539 -0.18833,0.0775 -0.0892,0.0236 -0.2333,0.0438 -0.43223,0.0371 -0.19892,-0.007 -0.45333,-0.0407 -0.6328,-0.0549 -0.17947,-0.0142 -0.28352,-0.008 -0.34401,-0.009 -0.0605,-9.9e-4 -0.0787,-0.01 -0.10925,-0.008 -0.0305,0.002 -0.0713,0.0161 -0.1272,0.0281 -0.056,0.012 -0.12812,0.0219 -0.19794,0.0274 -0.0698,0.006 -0.13786,0.007 -0.29812,0.0471 -0.16026,0.0408 -0.41185,0.12158 -0.58477,0.20187 -0.17293,0.0803 -0.26603,0.15887 -0.41424,0.3074 -0.14823,0.14852 -0.3513,0.36653 -0.46142,0.49436 -0.1101,0.12786 -0.12711,0.16471 -0.1557,0.201 -0.0285,0.0363 -0.0683,0.0735 -0.13381,0.17789 -0.0654,0.10443 -0.15667,0.27518 -0.24651,0.44365 z" />
    <path
       id="path5689"
       style="fill:#ff00ff;fill-opacity:1;stroke:#ff00ff;stroke-width:0.255668;stroke-dasharray:none;stroke-opacity:1"
       d="m 131.96408,228.38419 -2.71962,6.10783 c 0.1627,-0.15667 0.32642,-0.31461 0.45858,-0.46473 0.13214,-0.15013 0.23303,-0.29343 0.33299,-0.47068 0.0999,-0.17725 0.19858,-0.38922 0.26342,-0.51631 0.0647,-0.12713 0.0955,-0.16855 0.16264,-0.29956 0.0667,-0.13122 0.17087,-0.35182 0.2764,-0.57759 0.10554,-0.22576 0.21314,-0.45664 0.29593,-0.69327 0.0828,-0.23665 0.14034,-0.47973 0.17969,-0.62485 0.0393,-0.1451 0.0612,-0.19126 0.0822,-0.27129 0.021,-0.0801 0.0408,-0.19513 0.0759,-0.33089 0.0351,-0.13576 0.0855,-0.29179 0.12522,-0.43644 0.0397,-0.14465 0.0684,-0.27789 0.0932,-0.36787 0.0247,-0.0899 0.0464,-0.1363 0.10803,-0.3041 0.0617,-0.16778 0.16315,-0.4576 0.26578,-0.75012 z" />
    <path
       id="path5693"
       style="fill:#ff00ff;fill-opacity:1;stroke:#ff00ff;stroke-width:0.255668;stroke-dasharray:none;stroke-opacity:1"
       d="m 129.45367,225.57478 -2.1e-4,4.5e-4 c -0.0404,-0.0252 -0.44122,0.2543 -0.44122,0.2543 l 1.88683,0.5148 -0.76746,-0.37506 c -0.20156,-0.0985 -0.32021,-0.15703 -0.38682,-0.19449 -0.0669,-0.037 -0.081,-0.0559 -0.12692,-0.0904 -0.046,-0.0344 -0.12397,-0.084 -0.16418,-0.10966 z" />
    <path
       id="rect4554-0"
       style="fill:#800080;fill-opacity:1;stroke:#000000;stroke-width:0.506735;stroke-dasharray:none;stroke-opacity:1"
       d="m 134.32773,230.72048 23.61679,41.71931 9.33117,-5.5223 c -0.88827,-1.40045 -1.80727,-2.78089 -2.71068,-4.17149 -1.46258,-2.2505 -2.84534,-4.5527 -4.21358,-6.86293 -1.43023,-2.47114 -2.87645,-4.93262 -4.33273,-7.38795 -1.3442,-2.26126 -2.66725,-4.53579 -3.98238,-6.81474 -0.86076,-1.49308 -1.71578,-2.98913 -2.56876,-4.48688 -0.16375,-0.28761 -0.23353,-0.55512 -0.2357,-0.79082 l -0.76305,-1.34795 -2.22618,-3.93255 -2.65801,-4.69542 -0.50232,-0.88734 z" />
    <path
       id="path5293-3"
       style="fill:#000000;fill-opacity:1;stroke:#000000;stroke-width:0.255668;stroke-dasharray:none;stroke-opacity:1"
       d="m 144.2224,232.69351 -0.13373,0.92664 c 0.005,-0.0117 0.01,-0.024 0.0148,-0.0388 0.0219,-0.0628 0.0486,-0.16155 0.059,-0.21634 0.0104,-0.0549 0.004,-0.0674 0.009,-0.0886 0.005,-0.0214 0.0229,-0.0487 0.0404,-0.13369 0.0175,-0.0849 0.0356,-0.22943 0.0382,-0.31314 0.003,-0.0837 -0.0115,-0.10876 -0.0269,-0.13599 z m -0.13373,0.92664 c -0.0149,0.0366 -0.0262,0.0562 -0.0301,0.0727 -0.005,0.0215 0.002,0.0342 -0.006,0.0792 -0.008,0.045 -0.0292,0.12395 -0.0454,0.24239 -0.0162,0.11833 -0.027,0.27548 -0.0379,0.4314 z" />
    <path
       id="path5297-2"
       style="fill:#000000;fill-opacity:1;stroke:#000000;stroke-width:0.255668;stroke-dasharray:none;stroke-opacity:1"
       d="m 144.20628,229.49912 c 0.004,0.0658 0.008,0.13069 0.01,0.23769 0.003,0.10693 0.004,0.2563 0.0163,0.3503 0.0118,0.094 0.0331,0.1312 0.0572,0.23303 0.0241,0.10184 0.0521,0.26908 0.0799,0.43449 z" />
    <path
       id="path5301-2"
       style="fill:#000000;fill-opacity:1;stroke:#000000;stroke-width:0.255668;stroke-dasharray:none;stroke-opacity:1"
       d="m 143.53403,226.99344 0.38754,0.77179 z" />
    <path
       id="path5325-1"
       style="fill:#000000;fill-opacity:1;stroke:#000000;stroke-width:0.255668;stroke-dasharray:none;stroke-opacity:1"
       d="m 137.55297,229.88201 0.64867,-0.37821 c -0.16424,0.0916 -0.40506,0.23405 -0.64867,0.37821 z m 0.64867,-0.37821 c 0.0383,-0.0215 0.0737,-0.0413 0.10262,-0.0562 0.15238,-0.08 0.15935,-0.0679 0.27476,-0.087 0.11543,-0.0189 0.33705,-0.0667 0.46614,-0.10202 0.12909,-0.0353 0.16672,-0.0568 0.25241,-0.0817 0.0856,-0.0251 0.21907,-0.0542 0.30998,-0.0836 0.0909,-0.0294 0.14079,-0.0585 0.17607,-0.0694 0.0353,-0.0112 0.0543,-0.006 0.0822,-0.0149 0.0278,-0.009 0.0654,-0.0319 0.10069,-0.0434 0.0351,-0.0122 0.0672,-0.0141 0.1136,-0.0337 0.0467,-0.0197 0.10841,-0.0573 0.19055,-0.0885 0.0821,-0.0314 0.18307,-0.0574 0.38853,-0.16299 0.20554,-0.10543 0.51593,-0.28987 0.74138,-0.44785 0.22516,-0.15847 0.36549,-0.29154 0.48081,-0.4099 0.11532,-0.11837 0.20602,-0.22217 0.35389,-0.34289 0.14788,-0.12071 0.35226,-0.25825 0.57938,-0.44279 0.22707,-0.18461 0.47749,-0.41625 0.72652,-0.6466 z" />
    <path
       id="path5329-1"
       style="fill:#000000;fill-opacity:1;stroke:#000000;stroke-width:0.257785;stroke-dasharray:none;stroke-opacity:1"
       d="m 152.67724,261.70758 0.81313,0.81441 c -0.08,-0.14154 -0.16157,-0.28505 -0.23779,-0.38963 -0.0762,-0.10458 -0.14799,-0.16973 -0.18969,-0.21137 -0.0418,-0.0415 -0.0519,-0.0597 -0.0718,-0.0668 -0.0199,-0.008 -0.0517,-7e-4 -0.077,-0.002 -0.0254,-0.002 -0.0442,-0.015 -0.0821,-0.0406 -0.0379,-0.0256 -0.095,-0.0638 -0.15478,-0.10398 z" />
    <path
       id="path5629-1"
       style="fill:#ff00ff;fill-opacity:1;stroke:#ff00ff;stroke-width:0.257785;stroke-dasharray:none;stroke-opacity:1"
       d="m 146.5211,246.62038 c 0.0648,0.23967 0.12896,0.47763 0.18694,0.64173 0.058,0.16408 0.10875,0.25405 0.19019,0.39782 l 0.2849,0.50328 c 0.0915,0.16175 0.1629,0.28781 0.23597,0.44826 0.073,0.16045 0.14828,0.35579 0.2912,0.64931 0.14285,0.29358 0.35282,0.68492 0.56157,1.0743 z" />
    <path
       id="path5637-0"
       style="fill:#ff00ff;fill-opacity:1;stroke:#ff00ff;stroke-width:0.255668;stroke-dasharray:none;stroke-opacity:1"
       d="m 147.51736,251.07282 0.61168,1.08053 c 0.17013,0.30054 0.29035,0.51247 0.38028,0.65999 0.0893,0.14791 0.14862,0.23074 0.19509,0.29183 0.0465,0.0612 0.08,0.10041 0.11409,0.15085 0.0341,0.0504 0.0692,0.11239 0.0991,0.15393 0.0301,0.0414 0.0537,0.0627 0.0801,0.0999 0.0265,0.037 0.0567,0.0901 0.0958,0.13794 0.0204,0.0243 0.0421,0.0478 0.0693,0.0757 z m 1.64533,2.65079 1.95455,3.14831 c -0.0968,-0.29444 -0.19424,-0.59084 -0.26232,-0.80432 -0.068,-0.21348 -0.10671,-0.34371 -0.16822,-0.48392 -0.0615,-0.14021 -0.14665,-0.29048 -0.2167,-0.41422 -0.07,-0.12374 -0.12516,-0.22121 -0.17343,-0.28673 -0.0481,-0.0655 -0.0904,-0.0994 -0.11989,-0.12952 -0.0294,-0.0301 -0.0448,-0.0566 -0.0771,-0.0843 -0.0323,-0.0278 -0.0833,-0.0563 -0.11983,-0.0879 -0.0366,-0.0317 -0.0571,-0.0672 -0.085,-0.0975 -0.0282,-0.0303 -0.0654,-0.0553 -0.10404,-0.0915 -0.0388,-0.0362 -0.0775,-0.0841 -0.11786,-0.12494 -0.0404,-0.041 -0.0832,-0.0747 -0.15804,-0.15431 -0.0747,-0.0798 -0.18102,-0.20567 -0.25776,-0.28999 -0.0376,-0.0413 -0.0684,-0.0722 -0.0945,-0.0989 z" />
    <path
       id="path5641-5"
       style="fill:#ff00ff;fill-opacity:1;stroke:#ff00ff;stroke-width:0.255668;stroke-dasharray:none;stroke-opacity:1"
       d="m 143.10204,242.75533 3.36294,5.69206 c -0.0532,-0.23805 -0.1069,-0.47788 -0.15041,-0.6585 -0.0435,-0.18064 -0.0775,-0.30226 -0.1365,-0.438 -0.059,-0.13578 -0.14361,-0.28609 -0.20762,-0.41959 -0.0641,-0.13349 -0.1067,-0.24959 -0.15766,-0.36076 -0.051,-0.11114 -0.11093,-0.21745 -0.21604,-0.40306 l -0.40027,-0.70708 c -0.1451,-0.25633 -0.28537,-0.50379 -0.3931,-0.66397 -0.10779,-0.16013 -0.18396,-0.2331 -0.26369,-0.32169 -0.0798,-0.0886 -0.16216,-0.19299 -0.22377,-0.28063 -0.0617,-0.0876 -0.10168,-0.15831 -0.18563,-0.25583 -0.084,-0.0975 -0.21336,-0.22197 -0.34817,-0.36646 -0.13481,-0.14448 -0.27469,-0.3091 -0.3887,-0.44819 -0.11397,-0.13908 -0.20188,-0.25273 -0.29124,-0.36836 z" />
    <path
       id="path5649-8"
       style="fill:#ff00ff;fill-opacity:1;stroke:#ff00ff;stroke-width:0.257785;stroke-dasharray:none;stroke-opacity:1"
       d="m 156.26875,267.16326 1.72443,3.66216 c -0.006,-0.0972 -0.0115,-0.19514 -0.026,-0.38169 -0.0147,-0.18652 -0.0372,-0.46147 -0.0697,-0.67954 -0.0319,-0.21813 -0.0741,-0.37989 -0.0901,-0.48175 -0.0156,-0.1019 -0.006,-0.14241 -0.007,-0.17404 -0.002,-0.0316 -0.0163,-0.0569 -0.0267,-0.11927 -0.0111,-0.0624 -0.0166,-0.1607 -0.0904,-0.33642 -0.0743,-0.17571 -0.21859,-0.42971 -0.36771,-0.62108 -0.14911,-0.19137 -0.30491,-0.32007 -0.41543,-0.39901 -0.1105,-0.079 -0.17604,-0.10752 -0.21368,-0.12786 -0.0376,-0.0204 -0.0453,-0.0332 -0.0616,-0.0488 -0.0165,-0.0153 -0.043,-0.0337 -0.0757,-0.0486 -0.0327,-0.0148 -0.0717,-0.0255 -0.11989,-0.0646 -0.0482,-0.039 -0.10383,-0.1082 -0.16125,-0.17943 z" />
    <path
       id="path5653-1"
       style="fill:#ff00ff;fill-opacity:1;stroke:#ff00ff;stroke-width:0.255668;stroke-dasharray:none;stroke-opacity:1"
       d="m 148.66264,252.58454 2.12284,3.75005 c -0.0259,-0.36722 -0.0519,-0.73573 -0.0726,-0.94833 -0.0207,-0.21262 -0.0369,-0.26973 -0.0434,-0.32504 -0.007,-0.0553 -0.002,-0.10744 -0.10495,-0.30417 -0.10255,-0.19681 -0.31334,-0.53979 -0.5026,-0.78632 -0.18892,-0.24674 -0.35738,-0.39725 -0.5267,-0.5641 -0.16926,-0.16687 -0.33914,-0.34989 -0.44665,-0.45317 -0.10753,-0.10327 -0.15363,-0.12608 -0.2143,-0.17357 -0.0607,-0.0475 -0.13505,-0.12037 -0.21163,-0.19538 z" />
    <path
       id="path5657-7"
       style="fill:#ff00ff;fill-opacity:1;stroke:#ff00ff;stroke-width:0.255668;stroke-dasharray:none;stroke-opacity:1"
       d="m 148.12129,251.80382 2.60551,4.86647 c 0.0615,-0.0703 0.12176,-0.13967 0.14801,-0.23779 0.0263,-0.0981 0.019,-0.22755 0.0191,-0.34466 1.4e-4,-0.11715 0.008,-0.2214 0.0193,-0.30376 0.0116,-0.0823 0.0278,-0.14233 0.0316,-0.19376 0.004,-0.0514 -0.005,-0.096 -0.004,-0.13912 8.3e-4,-0.0431 0.0112,-0.0828 0.0102,-0.114 -7e-4,-0.0312 -0.0152,-0.0562 -0.0237,-0.0854 -0.009,-0.0291 -0.01,-0.0618 -0.009,-0.0884 0.002,-0.0267 0.008,-0.0465 1.8e-4,-0.0739 -0.008,-0.0272 -0.0289,-0.0647 -0.037,-0.0948 -0.009,-0.0301 -0.004,-0.0496 -0.1089,-0.23597 -0.1055,-0.18638 -0.3231,-0.54151 -0.46144,-0.74308 -0.13833,-0.20157 -0.19863,-0.24957 -0.2436,-0.29836 -0.0449,-0.0489 -0.0731,-0.0986 -0.12394,-0.16004 -0.0509,-0.0615 -0.12547,-0.13408 -0.17725,-0.1955 -0.0519,-0.0615 -0.08,-0.11143 -0.1201,-0.15424 -0.0399,-0.0428 -0.0933,-0.0784 -0.21492,-0.18996 -0.12164,-0.11161 -0.31116,-0.29963 -0.54046,-0.51434 -0.22927,-0.21475 -0.49815,-0.45598 -0.76979,-0.69927 z" />
    <path
       id="path5661-2"
       style="fill:#ff00ff;fill-opacity:1;stroke:#ff00ff;stroke-width:0.257785;stroke-dasharray:none;stroke-opacity:1"
       d="m 155.72434,263.09577 c -0.009,0.007 -0.009,0.0387 -0.004,0.0923 0.01,0.12242 0.0422,0.35755 0.0697,0.53676 0.0265,0.17933 0.0474,0.30301 0.0796,0.40337 0.0322,0.10036 0.0755,0.1765 0.11294,0.27262 0.0375,0.0961 0.0699,0.21229 0.0938,0.28336 0.0239,0.0711 0.0387,0.0968 0.0368,0.12157 -0.002,0.0248 -0.0199,0.052 0.004,0.12455 0.0238,0.0725 0.0886,0.18697 0.12136,0.25999 0.0324,0.0732 0.0351,0.10564 0.13732,0.3005 0.10249,0.19474 0.30392,0.55064 0.44468,0.7388 0.14108,0.18796 0.21985,0.20948 0.28164,0.18805 0.0618,-0.0214 0.10937,-0.0839 0.13284,-0.11438 0.0234,-0.0306 0.0236,-0.0305 0.0156,-0.0585 -0.008,-0.028 -0.0245,-0.0863 -0.0432,-0.13419 -0.0184,-0.048 -0.04,-0.0864 -0.0579,-0.16128 -0.0184,-0.075 -0.0312,-0.18601 -0.0894,-0.36292 -0.0585,-0.17687 -0.16325,-0.42011 -0.27649,-0.6498 -0.11322,-0.22971 -0.23528,-0.44607 -0.33599,-0.62399 l -0.29486,-0.52087 c -0.11511,-0.20334 -0.26631,-0.47033 -0.34743,-0.60197 -0.0462,-0.0738 -0.0699,-0.10368 -0.0802,-0.094 z" />
    <path
       id="path5665-2"
       style="fill:#ff00ff;fill-opacity:1;stroke:#ff00ff;stroke-width:0.255668;stroke-dasharray:none;stroke-opacity:1"
       d="m 147.79347,251.30284 c -0.005,0.004 -0.01,0.008 -0.0143,0.013 -0.0525,0.0544 -0.10801,0.22027 -0.11708,0.41014 -0.009,0.18985 0.0281,0.40199 0.10363,0.60823 0.0755,0.20625 0.18863,0.40625 0.25611,0.50818 0.0676,0.10181 0.087,0.107 0.11639,0.13158 0.0294,0.0246 0.0703,0.0671 0.097,0.083 0.0266,0.0158 0.039,0.009 0.0654,0.011 0.0264,0.003 0.0654,0.0128 0.15384,-0.007 0.0885,-0.0196 0.22672,-0.0685 0.32048,-0.10762 0.0938,-0.0392 0.1434,-0.0693 0.16436,-0.0881 0.0209,-0.0192 0.014,-0.0314 0.015,-0.0586 7.4e-4,-0.0272 0.0115,-0.067 -0.004,-0.12317 -0.0152,-0.0562 -0.0577,-0.13138 -0.0907,-0.20394 -0.0333,-0.0725 -0.0559,-0.14246 -0.0676,-0.17836 -0.0119,-0.036 -0.0119,-0.0358 -0.0346,-0.0622 -0.0228,-0.0266 -0.0709,-0.0817 -0.1129,-0.14056 -0.0421,-0.0587 -0.0774,-0.12115 -0.16889,-0.22529 -0.0916,-0.10407 -0.24048,-0.24985 -0.32404,-0.32585 -0.0836,-0.076 -0.10273,-0.081 -0.1241,-0.1016 -0.0216,-0.0206 -0.0431,-0.0584 -0.0593,-0.0752 -0.0162,-0.0169 -0.0289,-0.009 -0.0592,-0.0314 -0.0274,-0.0201 -0.0688,-0.0674 -0.11553,-0.0356 z" />
    <path
       id="path5673-4"
       style="fill:#ff00ff;fill-opacity:1;stroke:#ff00ff;stroke-width:0.255668;stroke-dasharray:none;stroke-opacity:1"
       d="m 151.61435,258.3267 2.13757,4.74308 c 0.27086,-0.46123 0.54097,-0.92191 0.67074,-1.18957 0.12978,-0.26767 0.11956,-0.34491 0.12135,-0.42999 0.002,-0.0851 0.0162,-0.17671 -0.0875,-0.44791 -0.10377,-0.27116 -0.32663,-0.72327 -0.48428,-0.98839 -0.15779,-0.265 -0.25156,-0.34307 -0.36231,-0.43607 -0.11076,-0.093 -0.23813,-0.20154 -0.3574,-0.28127 -0.11925,-0.0797 -0.23113,-0.12997 -0.30419,-0.17005 -0.073,-0.0401 -0.10669,-0.0704 -0.14251,-0.0913 -0.0358,-0.0208 -0.0747,-0.0311 -0.1024,-0.048 -0.0277,-0.0169 -0.0419,-0.0419 -0.0809,-0.0689 -0.0389,-0.0269 -0.10453,-0.0548 -0.20394,-0.11268 -0.0995,-0.0578 -0.23234,-0.1462 -0.37137,-0.23085 -0.13906,-0.0846 -0.2845,-0.1656 -0.43285,-0.24816 z" />
    <path
       id="path5681-0"
       style="fill:#ff00ff;fill-opacity:1;stroke:#ff00ff;stroke-width:0.255668;stroke-dasharray:none;stroke-opacity:1"
       d="m 143.04465,236.22302 -0.23514,0.99302 c 0.0347,-0.0598 0.0675,-0.11768 0.0937,-0.16635 0.0741,-0.13804 0.10199,-0.21341 0.11399,-0.2847 0.012,-0.0713 0.008,-0.14006 0.0119,-0.19599 0.004,-0.0559 0.0153,-0.098 0.0191,-0.15287 0.004,-0.0549 1e-4,-0.12336 -0.004,-0.19313 z m -0.23514,0.99302 c -0.0637,0.10961 -0.13577,0.22864 -0.19919,0.33104 -0.0981,0.15827 -0.17329,0.27403 -0.21069,0.34422 -0.0374,0.0701 -0.0365,0.0929 -0.0516,0.14837 -0.0152,0.0554 -0.0462,0.14501 -0.0607,0.21332 -0.0146,0.0684 -0.0124,0.11408 -0.0439,0.2027 -0.0314,0.0885 -0.0965,0.22155 -0.21426,0.3856 -0.11779,0.16405 -0.28896,0.35946 -0.40173,0.50291 -0.11277,0.14347 -0.16665,0.23466 -0.20163,0.28514 -0.0349,0.0505 -0.0525,0.0607 -0.0681,0.0877 -0.0156,0.0268 -0.0272,0.0692 -0.0492,0.12319 -0.0219,0.0539 -0.0546,0.12053 -0.0897,0.18248 -0.0351,0.062 -0.0726,0.11996 -0.13034,0.27817 -0.0576,0.15825 -0.1345,0.41618 -0.16736,0.60742 -0.0328,0.19128 -0.022,0.31421 0.014,0.52315 0.0362,0.20897 0.0974,0.50344 0.13841,0.66856 0.041,0.16511 0.0611,0.20029 0.0743,0.24489 0.0129,0.0446 0.0212,0.0991 0.068,0.21337 0.0472,0.11423 0.13359,0.28763 0.21882,0.4586 z" />
    <path
       id="path5689-4"
       style="fill:#ff00ff;fill-opacity:1;stroke:#ff00ff;stroke-width:0.255668;stroke-dasharray:none;stroke-opacity:1"
       d="m 138.72145,230.25867 3.39326,5.74461 c -0.0347,-0.22575 -0.0696,-0.45312 -0.11604,-0.64944 -0.0465,-0.19628 -0.10519,-0.36234 -0.19179,-0.5468 -0.0866,-0.18444 -0.20196,-0.3874 -0.2679,-0.5139 -0.066,-0.12645 -0.0821,-0.1758 -0.1499,-0.30643 -0.0682,-0.13037 -0.18744,-0.34289 -0.31003,-0.55945 -0.12259,-0.21656 -0.24815,-0.43776 -0.39236,-0.64129 -0.14423,-0.20352 -0.30791,-0.38937 -0.40281,-0.50455 -0.0949,-0.11516 -0.11981,-0.15962 -0.17255,-0.22253 -0.0527,-0.0628 -0.13445,-0.14461 -0.22419,-0.25091 -0.0897,-0.10632 -0.18717,-0.237 -0.2815,-0.35219 -0.0944,-0.11518 -0.18566,-0.21465 -0.24427,-0.2864 -0.0587,-0.0717 -0.0838,-0.11607 -0.18441,-0.26292 -0.10056,-0.14681 -0.27715,-0.39613 -0.45527,-0.64795 z" />
    <path
       id="path4653"
       style="fill:#000000;fill-opacity:1;stroke:#000000;stroke-width:0.397839;stroke-dasharray:none;stroke-opacity:1"
       d="m 108.39013,270.12378 a 8.0226564,3.2836171 2.6821065 0 0 7.51983,3.77072 8.0226564,3.2836171 2.6821065 0 0 8.4818,-2.75241 8.0226564,3.2836171 2.6821065 0 0 -7.51973,-3.77123 8.0226564,3.2836171 2.6821065 0 0 -8.4819,2.75292 z" />
    <path
       id="path4653-8"
       style="fill:#000000;fill-opacity:1;stroke:#000000;stroke-width:0.397839;stroke-dasharray:none;stroke-opacity:1"
       d="m 156.22636,270.23422 a 8.0226564,3.2836171 2.6821065 0 0 7.51981,3.77072 8.0226564,3.2836171 2.6821065 0 0 8.48181,-2.75242 8.0226564,3.2836171 2.6821065 0 0 -7.51974,-3.77123 8.0226564,3.2836171 2.6821065 0 0 -8.48188,2.75293 z" />
    <path
       id="rect456"
       style="fill:#f4e3d7;stroke-width:0.179832"
       d="m 143.29088,167.79246 c 0.0851,0.19482 0.222,0.3627 0.41674,0.45799 0.19645,0.0961 0.39501,0.17445 0.5902,0.28149 0.21998,0.12879 0.4423,0.24186 0.66891,0.31249 0.0195,0.008 0.0391,0.0166 0.0587,0.0245 0.0458,0.0661 0.0981,0.12875 0.15717,0.1865 0.29083,0.28418 0.58002,0.5835 0.84138,0.97098 0.24426,0.34298 0.49132,0.68965 0.69901,1.12347 0.18751,0.42555 0.3823,0.85424 0.51963,1.35498 0.13482,0.50276 0.27487,0.99669 0.34469,1.55746 0.0946,0.6362 0.16786,1.28481 0.20454,1.94596 0.0318,0.75621 0.009,1.51318 -0.006,2.27046 -0.0214,0.90731 -0.0505,1.8138 -0.0943,2.71794 -0.0224,0.65649 -0.0528,1.3133 -0.14114,1.94945 -0.0775,0.58 -0.14945,1.16132 -0.19197,1.75697 -0.0431,0.46457 -0.0781,0.93659 -0.17838,1.36898 -0.12092,0.53098 -0.25658,1.05787 -0.44314,1.50746 -0.20311,0.43903 -0.43693,0.81597 -0.67927,1.16248 -0.23651,0.31892 -0.46818,0.65589 -0.66422,1.07598 -0.22098,0.36378 -0.43677,0.73839 -0.66126,1.09347 -0.17305,0.26157 -0.3598,0.49728 -0.56725,0.62848 h -2.4e-4 c -0.40547,0.25644 -0.54934,0.79629 -0.48953,1.20998 h -13.41194 c -0.0546,-0.20699 -0.15037,-0.41756 -0.2946,-0.60799 -0.15528,-0.20499 -0.31775,-0.38706 -0.46634,-0.61198 -0.18751,-0.26817 -0.36908,-0.55195 -0.55837,-0.81499 -0.2314,-0.30653 -0.45836,-0.62545 -0.6842,-0.94848 -0.28438,-0.37404 -0.52967,-0.84173 -0.76489,-1.33247 -0.23006,-0.48484 -0.39533,-1.063 -0.54405,-1.65846 -0.14949,-0.57487 -0.28002,-1.16345 -0.39405,-1.76997 -0.0831,-0.46235 -0.13614,-0.9421 -0.1895,-1.42096 -9.6e-4,-0.19085 -0.004,-0.38168 -0.005,-0.57249 -0.0185,-0.98951 0.013,-1.97602 0.0496,-2.96194 0.0575,-1.32869 0.16639,-2.64258 0.27907,-3.95542 0.0795,-1.01979 0.21196,-2.01526 0.35851,-3.00244 0.12162,-0.78685 0.28841,-1.53851 0.45745,-2.28695 0.0351,-0.049 0.0707,-0.10517 0.10659,-0.16949 0.17113,-0.30699 0.353,-0.58752 0.52949,-0.88149 0.15173,-0.25202 0.30559,-0.50993 0.48188,-0.68898 0.17239,-0.18638 0.35766,-0.31935 0.54209,-0.4475 0.21221,-0.12749 0.42379,-0.25531 0.64102,-0.34299 0.21697,-0.0875 0.36555,-0.26876 0.45202,-0.48249 z m -17.22897,6.01837 c -0.0135,0.1032 -0.0276,0.20599 -0.0405,0.30949 0.002,-0.041 0.004,-0.0819 0.005,-0.12299 0.0115,-0.0624 0.0238,-0.1243 0.0355,-0.1865 z m 22.35963,12.94223 v 0.2415 c -0.0196,-0.005 -0.0399,-0.007 -0.0609,-0.007 -0.002,2e-5 -0.005,4.2e-4 -0.007,5e-4 0.0229,-0.0781 0.045,-0.15705 0.0681,-0.23499 z m -23.26393,0.94548 c 0.0143,0.30824 0.0296,0.61629 0.0498,0.92298 -0.0167,-0.0339 -0.033,-0.0688 -0.0498,-0.10249 z" />
    <path
       style="fill:none;stroke:#000000;stroke-width:0.255266"
       d="m 134.98005,173.2026 12.4079,-0.34663"
       id="path2494" />
    <path
       id="path2526"
       style="fill:none;stroke:#000000;stroke-width:0.255266"
       d="m 138.77152,172.16252 c -0.11517,0.92656 -0.23024,1.85128 -0.40269,2.54395 -0.17245,0.69268 -0.4024,1.15457 -0.51703,1.50197 -0.11463,0.34741 -0.11458,0.57845 -0.17202,0.75048 -0.0574,0.17204 -0.17223,0.28763 -0.22968,0.52 -0.0574,0.23236 -0.0576,0.57888 -0.11534,0.86698 -0.0577,0.28809 -0.17254,0.51945 -0.17101,0.63448 0.002,0.11504 0.11676,0.11515 0.23067,0.4055 0.11391,0.29033 0.22871,0.86776 0.28586,1.27197 0.0571,0.4042 0.0571,0.63521 0.11584,0.74948 0.0587,0.11426 0.17341,0.1144 0.40318,0.289 0.22978,0.17459 0.57479,0.52135 1.72312,0.34649 1.14834,-0.17486 3.10117,-0.86824 4.24913,-2.13795 1.14796,-1.26973 1.49294,-3.11825 1.66546,-4.27341 0.17251,-1.15517 0.1725,-1.61761 0.1725,-1.90646 0,-0.1718 2.6e-4,-0.28149 0.0367,-0.343 z m 7.27478,1.21948 0.99679,0.16699 c -0.34161,-0.11451 -0.68621,-0.22975 -0.86007,-0.22899 -0.0704,3.1e-4 -0.1118,0.0201 -0.13672,0.062 z" />
    <path
       style="fill:none;stroke:#000000;stroke-width:0.255266"
       d="m 146.09546,173.54923 c 0.0856,-0.22966 0.17181,-0.46077 0.2585,-0.69326"
       id="path2719"
       inkscape:path-effect="#path-effect2721-8"
       inkscape:original-d="m 146.09546,173.54923 c 0.0887,-0.22852 0.17488,-0.45962 0.2585,-0.69326" />
    <path
       id="path2813"
       style="fill:none;stroke:#000000;stroke-width:0.0864118"
       d="m 145.75298,173.088 c -0.55744,0.004 -1.83751,0.0326 -3.30753,0.0751 -2.72435,0.0787 -3.57976,0.1292 -3.63217,0.21451 -0.0377,0.0614 -0.0944,0.32974 -0.12628,0.59648 -0.048,0.40182 -0.54471,2.11081 -0.9217,3.17143 -0.0508,0.14299 -0.13961,0.51368 -0.19737,0.82349 -0.0577,0.3098 -0.13122,0.6445 -0.16307,0.74399 -0.0344,0.10761 0.01,0.33597 0.10887,0.56348 0.14698,0.33652 0.21181,0.62444 0.39922,1.78046 0.0485,0.29897 0.55871,0.7042 1.03009,0.81799 0.36202,0.0874 0.35836,0.0877 1.07782,-0.0435 1.33701,-0.24388 2.79057,-0.92907 3.68238,-1.73546 1.1788,-1.0659 1.84467,-2.884 2.09549,-5.72339 0.0554,-0.62747 0.14179,-1.15339 0.19538,-1.18697 0.0529,-0.0331 0.078,-0.0746 0.0557,-0.0925 -0.006,-0.005 -0.11098,-0.006 -0.29681,-0.005 z" />
    <path
       id="path2815"
       style="fill:none;stroke:#000000;stroke-width:0.0864118"
       d="m 145.8902,173.17551 -2.78403,0.067 c -3.43273,0.0825 -4.12249,0.13262 -4.21086,0.30649 -0.0364,0.0715 -0.14765,0.48653 -0.24758,0.92198 -0.0999,0.43545 -0.35687,1.34916 -0.57073,2.03046 -0.53875,1.71638 -0.631,2.30024 -0.44743,2.83145 0.0784,0.22692 0.18691,0.66567 0.24063,0.97547 0.0537,0.30981 0.13756,0.67034 0.18643,0.80099 0.0918,0.24541 0.49783,0.54639 0.90978,0.67448 0.4388,0.13643 1.64692,-0.11785 2.72238,-0.57348 2.47968,-1.05055 3.49859,-2.66327 3.93792,-6.23137 0.0939,-0.76265 0.1918,-1.48032 0.21725,-1.59497 z" />
    <path
       id="path2817"
       style="fill:none;stroke:#000000;stroke-width:0.0864118"
       d="m 145.76392,173.289 -0.99728,0.002 c -1.38514,0.002 -5.31689,0.16084 -5.57105,0.22499 -0.16413,0.0414 -0.23552,0.14859 -0.33011,0.49799 -0.0663,0.24502 -0.30445,1.08903 -0.52896,1.87547 -0.22452,0.78642 -0.4841,1.74773 -0.57719,2.13645 l -0.16953,0.70699 0.27145,1.14747 c 0.14914,0.63097 0.30959,1.21891 0.35645,1.30697 0.0469,0.088 0.22941,0.2369 0.40568,0.3305 0.1915,0.1017 0.49602,0.17169 0.75665,0.17399 1.1431,0.01 3.12896,-0.82438 4.10546,-1.72496 1.18947,-1.09699 1.68019,-2.33225 2.07908,-5.22989 z" />
    <path
       id="path2819"
       style="fill:none;stroke:#000000;stroke-width:0.0864118"
       d="m 145.62174,173.349 -2.26203,0.062 c -2.51544,0.069 -4.17022,0.16563 -4.25212,0.248 -0.0614,0.0617 -0.66252,2.13496 -1.12206,3.87042 l -0.30823,1.16397 0.23366,1.00248 c 0.32498,1.39401 0.39474,1.53869 0.8357,1.73996 0.2032,0.0928 0.50848,0.16947 0.67861,0.17049 0.46505,0.003 1.54018,-0.29798 2.26004,-0.63248 1.8914,-0.87887 2.87054,-2.05558 3.37117,-4.05342 0.20079,-0.80125 0.56526,-2.97947 0.56526,-3.37793 z" />
    <path
       id="path2821"
       style="fill:none;stroke:#000000;stroke-width:0.0864118"
       d="m 144.69505,173.46299 c -1.10913,2.6e-4 -4.80226,0.15862 -5.21161,0.2235 -0.37608,0.0596 -0.3253,-0.0725 -1.19465,3.09294 l -0.522,1.90096 0.21824,0.93698 c 0.31078,1.33532 0.40618,1.53046 0.84764,1.73197 0.20319,0.0927 0.46986,0.16947 0.5926,0.17049 0.47197,0.004 1.62384,-0.36086 2.48227,-0.78648 0.73679,-0.36533 1.01255,-0.56154 1.55459,-1.10598 0.76185,-0.76525 1.10878,-1.37203 1.42233,-2.48745 0.20364,-0.72437 0.65078,-3.13598 0.65078,-3.50943 0,-0.15475 -0.0663,-0.16767 -0.84019,-0.1675 z" />
    <path
       id="path2823"
       style="fill:none;stroke:#000000;stroke-width:0.0864118"
       d="m 144.617,173.54899 c -1.59211,-8e-5 -4.98151,0.18964 -5.19173,0.2905 -0.25294,0.12136 -0.2947,0.23777 -1.00921,2.82694 l -0.56128,2.03396 0.22471,0.90148 c 0.32456,1.30266 0.4052,1.46287 0.83919,1.66097 0.20319,0.0927 0.44814,0.16947 0.54387,0.17049 0.3734,0.004 1.50333,-0.37215 2.32468,-0.77398 1.35873,-0.66475 2.33093,-1.68035 2.80491,-2.92994 0.18151,-0.47852 0.68388,-2.78543 0.81135,-3.72542 l 0.0621,-0.455 z" />
    <path
       id="path2825"
       style="fill:none;stroke:#000000;stroke-width:0.0864118"
       d="m 144.76415,173.6385 c -0.28952,1e-4 -0.71125,0.01 -1.31844,0.0285 -2.4531,0.0752 -3.95107,0.19949 -4.08258,0.33799 -0.12427,0.13088 -0.38833,0.97484 -0.9759,3.11694 l -0.44545,1.62296 0.22918,0.84698 c 0.34093,1.26046 0.40951,1.39012 0.83423,1.58397 0.48819,0.22285 0.56095,0.21802 1.47901,-0.098 2.25361,-0.77574 3.57179,-1.96669 4.11092,-3.71542 0.16625,-0.53923 0.76584,-3.37812 0.76711,-3.63192 2.6e-4,-0.0644 -0.11553,-0.0922 -0.59808,-0.092 z" />
    <path
       id="path2827"
       style="fill:none;stroke:#000000;stroke-width:0.0864118"
       d="m 144.73085,173.72849 c -1.0068,0.008 -3.13971,0.0899 -4.09304,0.172 -0.5373,0.0462 -1.0441,0.12039 -1.12604,0.16449 -0.1567,0.0843 -0.49454,1.10319 -1.13002,3.40894 l -0.35296,1.28197 0.22769,0.79698 c 0.33488,1.17069 0.41664,1.32943 0.78798,1.52647 0.42899,0.22764 0.42963,0.22746 1.35125,-0.083 2.3214,-0.78201 3.66888,-2.06569 4.18351,-3.98492 0.1512,-0.5639 0.6975,-3.11913 0.6975,-3.26243 0,-0.017 -0.21027,-0.023 -0.54587,-0.0206 z" />
    <path
       id="path2829"
       style="fill:none;stroke:#000000;stroke-width:0.0864118"
       d="m 145.20065,173.78299 -1.70671,0.0605 c -1.74373,0.0615 -3.57287,0.19245 -3.83501,0.27499 -0.19245,0.0606 -0.40988,0.65989 -1.03059,2.83644 l -0.51405,1.80197 0.27095,0.88398 c 0.3196,1.04287 0.43624,1.24799 0.80189,1.40796 0.35651,0.15596 0.27797,0.1658 1.14992,-0.14199 1.65119,-0.58286 2.81326,-1.39905 3.48799,-2.44895 0.44579,-0.69367 0.61207,-1.17927 0.97193,-2.83595 0.16997,-0.78249 0.33053,-1.51654 0.35646,-1.63095 z" />
    <path
       id="path2831"
       style="fill:none;stroke:#000000;stroke-width:0.0864118"
       d="m 145.09128,173.87049 -1.52276,0.0585 c -2.66281,0.1026 -3.83429,0.21593 -3.9608,0.38299 -0.12622,0.16669 -0.61763,1.68116 -1.08825,3.35342 l -0.31718,1.12648 0.32762,0.95148 c 0.2809,0.81554 0.3694,0.97899 0.62044,1.14798 0.16103,0.1084 0.32329,0.197 0.36043,0.197 0.0371,0 0.38979,-0.1194 0.784,-0.2655 1.24188,-0.46024 2.03147,-0.93142 2.7562,-1.64446 0.99465,-0.97861 1.20054,-1.47765 1.87127,-4.53691 z" />
    <path
       id="path2833"
       style="fill:none;stroke:#000000;stroke-width:0.0864118"
       d="m 144.44648,173.98249 c -0.84861,9e-5 -3.66224,0.17437 -4.2039,0.26049 -0.28073,0.0447 -0.54209,0.1311 -0.58117,0.192 -0.10001,0.15585 -0.77831,2.26319 -1.10068,3.41992 l -0.26996,0.96948 0.31073,0.85049 c 0.22336,0.61131 0.38679,0.91717 0.58166,1.08848 0.1491,0.13107 0.28002,0.2385 0.29083,0.2385 0.0108,0 0.30287,-0.10207 0.64928,-0.22651 1.87204,-0.6725 3.23859,-1.74352 3.80866,-2.98544 0.25527,-0.5561 0.7821,-2.46346 0.96198,-3.48242 l 0.0577,-0.32499 z" />
    <path
       id="path2835"
       style="fill:none;stroke:#000000;stroke-width:0.0864118"
       d="m 144.4266,174.08148 c -1.13032,-0.005 -4.17821,0.19807 -4.535,0.3345 -0.14057,0.0537 -0.28073,0.39235 -0.66768,1.61547 -0.26925,0.85111 -0.56853,1.82507 -0.66518,2.16445 l -0.17599,0.61698 0.21924,0.585 c 0.27986,0.74777 0.44698,1.07918 0.66817,1.32247 0.0975,0.10724 0.18558,0.19499 0.19538,0.19499 0.0929,0 1.2818,-0.49355 1.70074,-0.70599 1.20208,-0.60953 2.17704,-1.47955 2.59662,-2.31744 0.27891,-0.557 1.08278,-3.35478 1.08329,-3.77093 3e-5,-0.0266 -0.15875,-0.0384 -0.41959,-0.0395 z" />
    <path
       id="path2837"
       style="fill:none;stroke:#000000;stroke-width:0.0864118"
       d="m 144.39577,174.17398 c -0.98513,-0.006 -3.67209,0.16017 -4.30333,0.2915 -0.28095,0.0584 -0.31422,0.13702 -1.06041,2.51545 l -0.56377,1.79746 0.1745,0.46899 c 0.20897,0.56172 0.38419,0.9212 0.63287,1.29897 0.10175,0.15458 0.18821,0.28124 0.1919,0.2815 0.0512,0.005 1.23833,-0.51508 1.62866,-0.713 1.13872,-0.57739 2.15088,-1.45845 2.52651,-2.19894 0.26346,-0.51938 1.13596,-3.36457 1.13698,-3.70743 7e-5,-0.0223 -0.13657,-0.0331 -0.36391,-0.0345 z" />
    <path
       id="path2839"
       style="fill:none;stroke:#000000;stroke-width:0.0864118"
       d="m 144.37688,174.24448 c -0.17366,-5.1e-4 -0.44893,0.0123 -0.87847,0.034 -1.44025,0.0728 -3.08394,0.20826 -3.35426,0.2765 -0.24333,0.0614 -0.32626,0.262 -1.03407,2.49845 l -0.54686,1.72747 0.2262,0.56898 c 0.12434,0.31289 0.33754,0.75108 0.47378,0.97398 l 0.24758,0.4055 0.47279,-0.2105 c 0.76617,-0.34078 1.51786,-0.73469 1.93291,-1.01348 0.59732,-0.40121 1.37094,-1.19116 1.59039,-1.62347 0.19315,-0.3805 0.79493,-2.16679 0.9923,-2.94594 0.0544,-0.21448 0.11998,-0.46387 0.14617,-0.55399 0.0286,-0.0982 0.021,-0.13658 -0.26846,-0.13749 z" />
    <path
       id="path2841"
       style="fill:none;stroke:#000000;stroke-width:0.0864118"
       d="m 144.58071,174.30598 -1.09522,0.0595 c -1.29523,0.07 -3.00144,0.21024 -3.2613,0.26799 -0.22825,0.0508 -0.32941,0.29261 -1.02661,2.45545 l -0.54041,1.67697 0.25057,0.59248 c 0.1379,0.3259 0.33238,0.73166 0.43202,0.90149 0.0996,0.16983 0.21889,0.30849 0.26498,0.30849 0.0461,0 0.59022,-0.25852 1.20907,-0.57499 1.21871,-0.62324 2.11481,-1.35769 2.53248,-2.07445 0.21137,-0.36275 0.74192,-1.8619 1.06539,-3.01143 z" />
    <path
       id="path2843"
       style="fill:none;stroke:#000000;stroke-width:0.0864118"
       d="m 144.14222,174.41598 c -0.47086,1.5e-4 -3.72076,0.25801 -3.87577,0.3075 -0.1794,0.0572 -0.30856,0.37346 -0.98237,2.40944 l -0.5404,1.63347 0.25603,0.57499 c 0.14101,0.31606 0.33411,0.701 0.42905,0.85548 l 0.17251,0.28099 0.87746,-0.44299 c 1.62892,-0.82195 2.49449,-1.55384 2.90435,-2.45595 0.24684,-0.54331 0.8799,-2.39548 0.98485,-2.88144 0.0591,-0.27361 0.053,-0.28158 -0.22571,-0.28149 z" />
    <path
       id="path2845"
       style="fill:none;stroke:#000000;stroke-width:0.0864118"
       d="m 144.19095,174.50947 c -0.28869,-0.008 -1.0683,0.0457 -2.68859,0.17901 l -1.23293,0.10149 -0.13771,0.26799 c -0.18455,0.35861 -1.23094,3.51409 -1.23094,3.71193 0,0.0859 0.15542,0.46724 0.34552,0.84748 0.1901,0.38023 0.38955,0.69099 0.44346,0.69099 0.13905,0 1.48377,-0.74245 2.09448,-1.15648 0.72137,-0.48906 1.20821,-1.02119 1.50338,-1.64447 0.22099,-0.46663 1.04153,-2.80732 1.04153,-2.97094 0,-0.0153 -0.0419,-0.0245 -0.1382,-0.0271 z" />
    <path
       id="path2847"
       style="fill:none;stroke:#000000;stroke-width:0.0864118"
       d="m 144.04677,174.58897 c -0.7484,-9.8e-4 -3.65522,0.29072 -3.73757,0.375 -0.0981,0.10044 -0.65686,1.65455 -1.11162,3.09294 l -0.23317,0.73747 0.35746,0.71449 0.35695,0.71449 0.45091,-0.2275 c 0.9496,-0.47873 1.91042,-1.11535 2.35002,-1.55747 0.53099,-0.53402 0.80885,-1.08421 1.36419,-2.70094 0.38667,-1.1257 0.39069,-1.14824 0.20283,-1.14848 z" />
    <path
       style="fill:none;stroke:#000000;stroke-width:0.0864118"
       d="m 139.36891,179.43081 -0.30935,-0.6178 0.23052,-0.74707 c 0.30539,-0.98967 0.98858,-2.89602 1.06824,-2.98073 0.0732,-0.0779 1.64967,-0.2803 2.87642,-0.36937 l 0.84441,-0.0613 -0.0601,0.24894 c -0.14113,0.58449 -0.9166,2.5187 -1.16738,2.91173 -0.15006,0.23519 -0.50164,0.61382 -0.78129,0.84137 -0.50204,0.40855 -2.12881,1.39204 -2.30254,1.39204 -0.0493,0 -0.22878,-0.27801 -0.39892,-0.6178 z"
       id="path2849" />
    <path
       style="fill:none;stroke:#000000;stroke-width:0.0864118"
       d="m 139.46021,179.40358 -0.31545,-0.5673 0.18672,-0.58539 c 0.36056,-1.13039 1.05701,-3.05925 1.11835,-3.09739 0.0859,-0.0534 1.86809,-0.27871 2.7789,-0.3513 l 0.75224,-0.06 -0.20186,0.59505 c -0.43537,1.28347 -0.94106,2.37707 -1.27625,2.76004 -0.33705,0.3851 -1.29699,1.07094 -2.23844,1.59927 l -0.48876,0.27429 z"
       id="path2851" />
    <path
       style="fill:none;stroke:#000000;stroke-width:0.0864118"
       d="m 139.50634,179.29035 -0.26886,-0.49829 0.43346,-1.25654 c 0.77794,-2.25518 0.79103,-2.28245 1.12945,-2.35341 0.52095,-0.10924 2.93534,-0.352 2.98674,-0.30031 0.0671,0.0675 -0.4352,1.40747 -0.85747,2.2875 -0.25491,0.53126 -0.46268,0.82312 -0.80197,1.12656 -0.45028,0.4027 -2.10771,1.49278 -2.26971,1.49278 -0.0455,0 -0.20376,-0.22423 -0.35164,-0.49829 z"
       id="path2853" />
    <path
       style="fill:none;stroke:#000000;stroke-width:0.0864118"
       d="m 139.74076,179.5053 c -0.45103,-0.69587 -0.45847,-0.58386 0.1548,-2.32795 0.30748,-0.87443 0.6282,-1.65941 0.7127,-1.7444 0.14811,-0.14896 0.98146,-0.29232 2.57668,-0.44328 l 0.53612,-0.0508 -0.21724,0.60569 c -0.37893,1.05648 -0.87111,2.04703 -1.19783,2.41074 -0.27636,0.30764 -1.73115,1.36935 -2.25488,1.64561 -0.15644,0.0825 -0.20444,0.0677 -0.31035,-0.0957 z"
       id="path2855" />
    <path
       style="fill:none;stroke:#000000;stroke-width:0.0864118"
       d="m 139.68313,179.2368 c -0.0987,-0.16054 -0.17936,-0.37245 -0.17936,-0.47094 0,-0.2194 0.62283,-2.02917 0.9509,-2.76306 0.27438,-0.61377 0.31391,-0.63268 1.67715,-0.80191 0.42653,-0.0529 0.92091,-0.11523 1.09863,-0.13839 0.17772,-0.0232 0.32312,-0.008 0.32312,0.0347 0,0.13909 -0.61104,1.60506 -0.88314,2.11881 -0.14672,0.27703 -0.45959,0.67804 -0.69523,0.89112 -0.44081,0.39858 -1.90826,1.42156 -2.03922,1.42156 -0.0404,0 -0.15421,-0.13133 -0.25285,-0.29187 z"
       id="path2857" />
    <path
       style="fill:none;stroke:#000000;stroke-width:0.0864118"
       d="m 139.76221,179.16184 c -0.0944,-0.15572 -0.17178,-0.32394 -0.17196,-0.37383 -5.1e-4,-0.17054 0.66471,-2.07474 0.92771,-2.65522 0.29946,-0.66091 0.33666,-0.67991 1.65695,-0.84635 0.40282,-0.0507 0.85885,-0.11329 1.01338,-0.13894 l 0.28098,-0.0466 -0.14171,0.3724 c -0.33402,0.87774 -0.88579,1.96 -1.15924,2.27376 -0.28306,0.32478 -1.09364,0.95849 -1.8679,1.46031 l -0.36657,0.2376 z"
       id="path2859" />
    <path
       style="fill:none;stroke:#000000;stroke-width:0.0864118"
       d="m 139.80412,179.038 c -0.14607,-0.22422 -0.14244,-0.25402 0.12967,-1.06157 0.15398,-0.45698 0.28732,-0.86987 0.29631,-0.91753 0.009,-0.0477 0.15567,-0.38618 0.32597,-0.75226 0.35829,-0.77023 0.36111,-0.7717 1.85738,-0.968 1.04913,-0.13765 1.01983,-0.24823 0.3202,1.20828 -0.36866,0.76751 -0.55505,1.04693 -0.92486,1.38654 -0.415,0.38111 -1.71106,1.33523 -1.81375,1.33523 -0.0223,0 -0.10826,-0.10382 -0.19092,-0.23069 z"
       id="path2861" />
    <path
       style="fill:none;stroke:#000000;stroke-width:0.0864118"
       d="m 139.85801,178.94006 c -0.10026,-0.18841 0.41939,-1.85244 0.83542,-2.67519 0.21518,-0.42555 0.32744,-0.55247 0.55264,-0.62479 0.39719,-0.12754 1.78146,-0.309 1.84786,-0.24222 0.0949,0.0954 -0.80143,1.8422 -1.13667,2.21539 -0.17567,0.19556 -0.27612,0.35556 -0.22321,0.35556 0.0529,0 0.0962,0.0353 0.0962,0.0785 0,0.0432 -0.0678,0.0616 -0.15079,0.0408 -0.0911,-0.0228 -0.42367,0.16904 -0.84012,0.48458 -0.37914,0.28724 -0.73643,0.52233 -0.794,0.52242 -0.0576,9e-5 -0.14187,-0.0697 -0.18733,-0.15515 z"
       id="path2863" />
    <path
       style="fill:none;stroke:#000000;stroke-width:0.0864118"
       d="m 139.96658,178.8809 c -0.0674,-0.17665 0.42211,-1.7384 0.76984,-2.45613 0.14588,-0.30111 0.33983,-0.58761 0.43099,-0.63668 0.20986,-0.11295 1.70054,-0.35752 1.76766,-0.29002 0.0721,0.0726 -0.54102,1.2887 -0.98823,1.95999 -0.20976,0.31486 -0.4783,0.61689 -0.59673,0.67115 -0.11844,0.0543 -0.41753,0.24764 -0.66464,0.42973 -0.63616,0.46872 -0.65899,0.47895 -0.71889,0.32196 z"
       id="path2865" />
    <path
       style="fill:none;stroke:#000000;stroke-width:0.0864118"
       d="m 140.11304,178.50435 c 0.12474,-0.5584 0.60041,-1.85853 0.8196,-2.2402 0.22395,-0.38997 0.43986,-0.49699 1.19918,-0.59441 0.23696,-0.0304 0.5044,-0.0759 0.59429,-0.1012 0.12999,-0.0365 0.0625,0.14579 -0.32931,0.89043 -0.27103,0.51498 -0.59239,1.05563 -0.71416,1.20143 -0.18442,0.22082 -1.48973,1.17499 -1.60739,1.17499 -0.0199,0 -0.003,-0.14896 0.0378,-0.33104 z"
       id="path2873" />
    <path
       style="fill:none;stroke:#000000;stroke-width:0.0864118"
       d="m 140.23798,178.39269 c 0.0756,-0.34758 0.57578,-1.68548 0.77488,-2.0727 0.0768,-0.14922 0.26294,-0.32241 0.41382,-0.38486 0.3299,-0.13655 1.17906,-0.26118 1.17906,-0.17305 0,0.0344 -0.18418,0.41553 -0.40929,0.8468 -0.44651,0.85546 -0.70066,1.14526 -1.49719,1.70719 l -0.52521,0.37051 z"
       id="path2875" />
    <path
       style="fill:none;stroke:#000000;stroke-width:0.0864118"
       d="m 140.36543,178.32366 c 0,-0.14759 0.44399,-1.33506 0.66159,-1.76943 0.14538,-0.29022 0.29358,-0.45244 0.48477,-0.53063 0.34069,-0.13934 0.92162,-0.24865 0.92162,-0.17341 0,0.0306 -0.15924,0.36352 -0.35388,0.73976 -0.24427,0.4722 -0.51235,0.83163 -0.86554,1.16049 -0.54826,0.51049 -0.84856,0.71336 -0.84856,0.57322 z"
       id="path2879" />
    <path
       style="fill:none;stroke:#000000;stroke-width:0.0864118"
       d="m 140.53775,178.08202 c 0,-0.12912 0.43605,-1.20163 0.62736,-1.54307 0.15579,-0.27804 0.27918,-0.37512 0.62356,-0.49058 0.23613,-0.0792 0.44155,-0.13185 0.45651,-0.11708 0.0837,0.0827 -0.58257,1.18128 -0.95968,1.5823 -0.43338,0.46087 -0.74775,0.69984 -0.74775,0.56843 z"
       id="path2887" />
    <path
       style="fill:none;stroke:#000000;stroke-width:0.0864118"
       d="m 140.86337,176.6438 c -0.19723,-0.14997 -0.26907,-0.16243 -0.45237,-0.0784 -0.11985,0.0549 -0.21791,0.0659 -0.21791,0.0243 0,-0.22907 0.61447,-0.23423 0.81906,-0.007 0.21696,0.24112 0.13325,0.27544 -0.14878,0.061 z"
       id="path2889" />
    <path
       style="fill:none;stroke:#000000;stroke-width:0.0864118"
       d="m 140.71202,177.83475 c 9.6e-4,-0.0455 0.11652,-0.31657 0.25657,-0.60253 0.29057,-0.59334 0.31046,-0.68854 0.12925,-0.61861 -0.0711,0.0275 -0.12925,0.0163 -0.12925,-0.0248 0,-0.0623 0.13229,-0.14804 0.34465,-0.22356 0.0237,-0.009 0.19269,-0.0823 0.37553,-0.16421 0.18284,-0.0818 0.35293,-0.12827 0.37799,-0.10306 0.0739,0.0743 -0.63068,1.10636 -1.00851,1.47741 -0.19149,0.18805 -0.34729,0.30475 -0.34623,0.25933 z"
       id="path2977" />
    <path
       style="fill:none;stroke:#000000;stroke-width:0.0864118"
       d="m 141.08671,177.25388 c 0.0255,-0.0596 0.0933,-0.26795 0.15068,-0.46303 0.0792,-0.26908 0.16717,-0.37856 0.36447,-0.45345 0.14306,-0.0543 0.27329,-0.0855 0.2894,-0.0693 0.0381,0.0384 -0.73427,1.09408 -0.80043,1.09408 -0.0277,0 -0.0296,-0.0487 -0.004,-0.10832 z"
       id="path2981" />
    <path
       style="fill:none;stroke:#000000;stroke-width:0.0864118"
       d="m 141.05476,176.7481 c 0,-0.0436 0.0697,-0.0792 0.1551,-0.0792 0.0853,0 0.20647,-0.0487 0.26926,-0.10832 0.092,-0.0872 0.1068,-0.084 0.0762,0.0169 -0.0422,0.13939 -0.50061,0.29556 -0.50061,0.17054 z"
       id="path2985" />
    <path
       style="fill:none;stroke:#000000;stroke-width:0.0864118"
       d="m 141.31324,176.33157 c 0,-0.0426 0.0614,-0.10105 0.1363,-0.12998 0.23543,-0.0909 0.3118,-0.0576 0.17759,0.0774 -0.14316,0.14398 -0.31389,0.1726 -0.31389,0.0526 z"
       id="path2987" />
    <path
       style="fill:#ffffff;stroke:#000000;stroke-width:0.0864118"
       d="m 142.26107,175.17731 c 0,-0.0444 0.0547,-0.13562 0.12156,-0.20286 0.0669,-0.0673 0.13619,-0.16639 0.15407,-0.22034 0.0179,-0.054 0.0931,-0.0839 0.1673,-0.0666 0.10201,0.0239 0.0645,0.0971 -0.15407,0.30096 -0.15887,0.14816 -0.28886,0.23312 -0.28886,0.18879 z"
       id="path2993" />
    <path
       id="path3099"
       style="fill:#ffffff;stroke:#000000;stroke-width:0.255266"
       d="m 140.19287,177.96891 a 1.2494065,1.6465085 0 0 0 -1.24933,1.64646 1.2494065,1.6465085 0 0 0 1.24933,1.64646 1.2494065,1.6465085 0 0 0 1.24983,-1.64646 1.2494065,1.6465085 0 0 0 -1.24983,-1.64646 z" />
    <ellipse
       style="fill:#ffffff;stroke:#000000;stroke-width:0.255266"
       id="path3101"
       cx="143.12274"
       cy="175.88901"
       rx="1.4217383"
       ry="0.95324177" />
    <path
       id="rect3215"
       style="fill:#0000ff;stroke:#000000;stroke-width:0.199325"
       d="m 129.86869,190.67414 v 38.53277 h 13.32484 v -38.53277 z" />
    <path
       id="path4981-5"
       style="fill:url(#linearGradient8929);fill-opacity:1;stroke:#f4e3d7;stroke-width:0.255668;stroke-dasharray:none;stroke-opacity:1"
       d="m 137.22119,218.30277 a 6.0316171,4.0729421 0 0 0 -6.0319,4.07292 6.0316171,4.0729421 0 0 0 6.0319,4.07291 6.0316171,4.0729421 0 0 0 6.03142,-4.07291 6.0316171,4.0729421 0 0 0 -6.03142,-4.07292 z" />
    <path
       id="path6258"
       style="fill:#000080;fill-opacity:1;stroke:#000080;stroke-width:0.255668;stroke-dasharray:none;stroke-opacity:1"
       d="m 132.26127,208.15302 c -0.0395,0.02 -0.0804,0.0405 -0.12032,0.051 -0.0398,0.0104 -0.0803,0.0102 -0.1019,0.0321 -0.0215,0.0216 -0.0215,0.0629 -0.0413,0.092 -0.0198,0.0291 -0.0603,0.0493 -0.11186,0.1215 -0.0516,0.0723 -0.11247,0.19497 -0.14268,0.47149 -0.0302,0.27652 -0.0307,0.7054 0.0408,1.22647 0.0451,0.32881 0.11776,0.6871 0.18344,0.99398 z m -0.29382,2.98845 -0.80289,8.16383 c 0.16209,-0.24452 0.32428,-0.48926 0.41561,-0.642 0.0913,-0.15272 0.11196,-0.21396 0.15313,-0.26599 0.0412,-0.052 0.10192,-0.0933 0.17251,-0.17449 0.0706,-0.0812 0.15207,-0.20376 0.19289,-0.2845 0.0408,-0.0807 0.0408,-0.12132 0.0617,-0.15349 0.0209,-0.0323 0.061,-0.0527 0.17202,-0.18499 0.11103,-0.1323 0.29425,-0.37729 0.39572,-0.53999 0.10147,-0.16272 0.1217,-0.24441 0.15212,-0.32651 0.0304,-0.082 0.0711,-0.16361 0.11187,-0.37748 0.0407,-0.21387 0.081,-0.56133 0.10142,-0.81648 0.0205,-0.25516 0.0209,-0.41856 0.0119,-0.5105 -0.009,-0.0919 -0.0291,-0.11241 -0.0502,-0.153 -0.0211,-0.0405 -0.0416,-0.10195 -0.0522,-0.16349 -0.0107,-0.0616 -0.0107,-0.12249 -0.0507,-0.255 -0.04,-0.1325 -0.12148,-0.33665 -0.22322,-0.66348 -0.10175,-0.32684 -0.22336,-0.77641 -0.32464,-1.09297 -0.10128,-0.31658 -0.18242,-0.50038 -0.22372,-0.61299 -0.0413,-0.11262 -0.0417,-0.1534 -0.11235,-0.48 -0.0261,-0.1205 -0.0625,-0.28703 -0.10093,-0.46648 z" />
    <path
       id="path6266"
       style="fill:#000080;fill-opacity:1;stroke:#000080;stroke-width:0.255668;stroke-dasharray:none;stroke-opacity:1"
       d="m 131.2306,202.18705 2.49766,6.06638 c -0.32392,-0.97736 -0.64854,-1.95792 -0.93265,-2.70345 -0.2841,-0.74553 -0.52816,-1.25632 -0.7313,-1.69547 -0.20314,-0.43914 -0.36546,-0.80669 -0.47677,-1.03147 -0.11132,-0.2248 -0.17214,-0.30639 -0.22322,-0.388 -0.0511,-0.0815 -0.0916,-0.16321 -0.13372,-0.24799 z" />
    <path
       id="path6274"
       style="fill:#000080;fill-opacity:1;stroke:#000080;stroke-width:0.255668;stroke-dasharray:none;stroke-opacity:1"
       d="m 130.65039,191.40156 c -0.0824,5.3e-4 -0.16023,0.008 -0.2242,0.024 -0.20477,0.0515 -0.26522,0.19425 -0.32564,0.336 l 5.4224,3.30893 c -0.2612,-0.20207 -0.52539,-0.40633 -0.6776,-0.51899 -0.15224,-0.11267 -0.19301,-0.13312 -0.22422,-0.16299 -0.0312,-0.0299 -0.0511,-0.0708 -0.091,-0.10251 -0.0398,-0.0317 -0.10108,-0.052 -0.18245,-0.1025 -0.0814,-0.0504 -0.18281,-0.13202 -0.25404,-0.17399 -0.0712,-0.042 -0.11165,-0.0421 -0.2436,-0.143 -0.13196,-0.10091 -0.35561,-0.3052 -0.49765,-0.428 -0.14205,-0.12279 -0.20278,-0.16368 -0.24411,-0.204 -0.0414,-0.0403 -0.0618,-0.0811 -0.0815,-0.10298 -0.0198,-0.0219 -0.04,-0.0217 -0.17202,-0.143 -0.13197,-0.12127 -0.37556,-0.36676 -0.50809,-0.50949 -0.13252,-0.14275 -0.15319,-0.18355 -0.173,-0.2055 -0.0198,-0.0219 -0.0398,-0.0215 -0.16157,-0.12249 -0.12178,-0.10091 -0.3454,-0.30548 -0.47776,-0.438 -0.13237,-0.13251 -0.17289,-0.19362 -0.36541,-0.246 -0.13236,-0.036 -0.33707,-0.0667 -0.51853,-0.0655 z" />
    <path
       id="path6278"
       style="fill:#000080;fill-opacity:1;stroke:#000080;stroke-width:0.255668;stroke-dasharray:none;stroke-opacity:1"
       d="m 130.49074,195.3762 2.31522,5.82138 c -0.0405,-1.1616 -0.081,-2.32592 -0.14069,-2.94894 -0.0597,-0.62302 -0.14093,-0.70465 -0.23267,-0.82698 -0.0917,-0.12234 -0.19332,-0.28573 -0.28437,-0.40849 -0.091,-0.12277 -0.17245,-0.20454 -0.32513,-0.429 -0.15268,-0.22445 -0.37592,-0.59192 -0.53792,-0.81698 -0.16198,-0.22506 -0.2638,-0.30701 -0.38579,-0.34899 -0.12198,-0.042 -0.26394,-0.042 -0.40865,-0.042 z" />
    <path
       id="rect4681-1-8-7-6"
       style="fill:#0000ff;fill-opacity:1;stroke:#000000;stroke-width:0.303125;stroke-dasharray:none;stroke-opacity:1"
       inkscape:transform-center-x="1.1021435"
       inkscape:transform-center-y="-1.1912747"
       d="m 134.66458,220.23393 -0.97896,-23.22998 8.04035,-0.69255 0.97947,23.22997 z" />
    <path
       id="path6258-9"
       style="fill:#000080;fill-opacity:1;stroke:#000080;stroke-width:0.255668;stroke-dasharray:none;stroke-opacity:1"
       d="m 136.56812,199.11571 c -0.0395,0.02 -0.0804,0.0405 -0.12031,0.051 -0.0398,0.0104 -0.0803,0.0102 -0.10191,0.0321 -0.0215,0.0216 -0.0214,0.0628 -0.0413,0.092 -0.0198,0.0291 -0.0603,0.0493 -0.11186,0.1215 -0.0516,0.0723 -0.11247,0.19497 -0.14267,0.47149 -0.0302,0.27652 -0.0307,0.7054 0.0408,1.22646 0.0451,0.32882 0.11776,0.68711 0.18344,0.99399 z m -0.29381,2.98845 -0.80289,8.16382 c 0.16208,-0.24451 0.32428,-0.48925 0.4156,-0.64199 0.0913,-0.15272 0.11196,-0.21396 0.15314,-0.266 0.0412,-0.052 0.10192,-0.0933 0.1725,-0.17449 0.0706,-0.0811 0.15208,-0.20376 0.1929,-0.2845 0.0408,-0.0807 0.0408,-0.12132 0.0617,-0.15348 0.0209,-0.0323 0.061,-0.0527 0.17202,-0.185 0.11103,-0.1323 0.29426,-0.37728 0.39572,-0.53999 0.10148,-0.16271 0.1217,-0.2444 0.15213,-0.3265 0.0304,-0.082 0.0711,-0.16362 0.11186,-0.37748 0.0407,-0.21388 0.081,-0.56134 0.10142,-0.81648 0.0205,-0.25516 0.0209,-0.41856 0.0119,-0.51051 -0.009,-0.0919 -0.0291,-0.11241 -0.0502,-0.15299 -0.0211,-0.0405 -0.0416,-0.10196 -0.0522,-0.16349 -0.0107,-0.0616 -0.0107,-0.1225 -0.0507,-0.255 -0.04,-0.1325 -0.12147,-0.33665 -0.22322,-0.66348 -0.10175,-0.32685 -0.22336,-0.77641 -0.32463,-1.09298 -0.10128,-0.31657 -0.18242,-0.50038 -0.22373,-0.61298 -0.0413,-0.11262 -0.0417,-0.1534 -0.11235,-0.48 -0.0261,-0.12051 -0.0625,-0.28704 -0.10092,-0.46648 z" />
    <path
       style="fill:#000000;stroke:#000000;stroke-width:0.257785"
       d="m 143.33825,186.64594 c 0.28975,0 0.57697,0 0.92118,-0.059 0.3442,-0.059 0.74631,-0.17645 1.26374,-0.23495 0.51744,-0.0585 1.14932,-0.0585 1.49267,-0.0878 0.34336,-0.0293 0.40081,-0.0881 0.45831,-0.14687"
       id="path12391"
       inkscape:path-effect="#path-effect12393"
       inkscape:original-d="m 143.33825,186.64594 c 0.28975,0.003 0.57697,0.003 0.86164,0 0.40464,-0.11487 0.80675,-0.23233 1.2063,-0.35241 0.63442,0.003 1.2663,0.003 1.89563,0 0.0599,-0.0562 0.11743,-0.11486 0.17233,-0.1762" />
  </g>
</svg>
