<?xml version="1.0" encoding="UTF-8" standalone="no"?>
<!-- Created with Inkscape (http://www.inkscape.org/) -->

<svg
   width="210mm"
   height="297mm"
   viewBox="0 0 210 297"
   version="1.1"
   id="svg12577"
   inkscape:version="1.2.2 (732a01da63, 2022-12-09)"
   sodipodi:docname="Ackrum_Backward.svg"
   xmlns:inkscape="http://www.inkscape.org/namespaces/inkscape"
   xmlns:sodipodi="http://sodipodi.sourceforge.net/DTD/sodipodi-0.dtd"
   xmlns:xlink="http://www.w3.org/1999/xlink"
   xmlns="http://www.w3.org/2000/svg"
   xmlns:svg="http://www.w3.org/2000/svg">
  <sodipodi:namedview
     id="namedview12579"
     pagecolor="#505050"
     bordercolor="#eeeeee"
     borderopacity="1"
     inkscape:showpageshadow="0"
     inkscape:pageopacity="0"
     inkscape:pagecheckerboard="0"
     inkscape:deskcolor="#505050"
     inkscape:document-units="mm"
     showgrid="false"
     inkscape:zoom="1.4770342"
     inkscape:cx="401.4802"
     inkscape:cy="802.9604"
     inkscape:window-width="1920"
     inkscape:window-height="1009"
     inkscape:window-x="-8"
     inkscape:window-y="-8"
     inkscape:window-maximized="1"
     inkscape:current-layer="layer1" />
  <defs
     id="defs12574">
    <inkscape:path-effect
       effect="bspline"
       id="path-effect2721-8"
       is_visible="true"
       lpeversion="1"
       weight="33.333333"
       steps="2"
       helper_size="0"
       apply_no_weight="true"
       apply_with_weight="true"
       only_selected="false" />
    <linearGradient
       inkscape:collect="always"
       xlink:href="#linearGradient8824"
       id="linearGradient8929"
       x1="139.00603"
       y1="137.75211"
       x2="139.90169"
       y2="140.61821"
       gradientUnits="userSpaceOnUse"
       gradientTransform="matrix(-1.0249146,0,0,0.98360496,229.34431,74.753237)" />
    <linearGradient
       inkscape:collect="always"
       id="linearGradient8824">
      <stop
         style="stop-color:#f4e3d7;stop-opacity:1;"
         offset="0"
         id="stop8820" />
      <stop
         style="stop-color:#e9c6af;stop-opacity:1"
         offset="1"
         id="stop8822" />
    </linearGradient>
    <inkscape:path-effect
       effect="bspline"
       id="path-effect12393"
       is_visible="true"
       lpeversion="1"
       weight="33.333333"
       steps="2"
       helper_size="0"
       apply_no_weight="true"
       apply_with_weight="true"
       only_selected="false" />
  </defs>
  <g
     inkscape:label="Layer 1"
     inkscape:groupmode="layer"
     id="layer1">
    <path
       id="path4653"
       style="fill:#000000;fill-opacity:1;stroke:#000000;stroke-width:0.414029;stroke-dasharray:none;stroke-opacity:1"
       d="m 96.041719,262.68109 a 3.338463,8.5461451 87.485651 0 1 -8.011264,3.83333 3.338463,8.5461451 87.485651 0 1 -9.036133,-2.79812 3.338463,8.5461451 87.485651 0 1 8.011192,-3.83385 3.338463,8.5461451 87.485651 0 1 9.036205,2.79864 z" />
    <path
       id="rect456"
       style="fill:#f4e3d7;stroke-width:0.18715"
       d="m 85.732609,155.99063 c -0.0907,0.19805 -0.236506,0.36872 -0.443967,0.4656 -0.209294,0.0977 -0.420834,0.17734 -0.628776,0.28617 -0.234353,0.13092 -0.471208,0.24587 -0.712623,0.31767 -0.02081,0.008 -0.04171,0.0169 -0.06252,0.0249 -0.04879,0.0672 -0.104478,0.13089 -0.167437,0.18959 -0.309838,0.28891 -0.617933,0.5932 -0.896368,0.98711 -0.260221,0.34867 -0.523437,0.70111 -0.744692,1.14213 -0.199763,0.43262 -0.407284,0.86843 -0.553589,1.37747 -0.14364,0.51111 -0.292835,1.01325 -0.367222,1.58333 -0.100747,0.64676 -0.178824,1.30615 -0.217904,1.97827 -0.03392,0.76877 -0.0092,1.5383 0.0062,2.30815 0.02275,0.92238 0.05381,1.84392 0.10044,2.76308 0.02388,0.6674 0.05627,1.33511 0.150363,1.98182 0.08261,0.58963 0.159218,1.18061 0.204508,1.78614 0.04591,0.4723 0.08322,0.95216 0.190048,1.39172 0.128819,0.53979 0.273341,1.07544 0.4721,1.53249 0.216377,0.44632 0.465478,0.82952 0.723661,1.18178 0.251961,0.32423 0.498777,0.66679 0.707632,1.09385 0.235419,0.36982 0.465315,0.75065 0.704475,1.11163 0.184359,0.26592 0.383312,0.50554 0.604322,0.63892 h 2.56e-4 c 0.431965,0.26069 0.585239,0.8095 0.521521,1.23007 H 99.61146 c 0.05821,-0.21042 0.160202,-0.42451 0.313855,-0.61809 0.165425,-0.20839 0.338515,-0.39349 0.496825,-0.62215 0.19976,-0.27262 0.39319,-0.56111 0.59486,-0.82852 0.24652,-0.31162 0.48831,-0.63583 0.72891,-0.96423 0.30297,-0.38024 0.56428,-0.8557 0.81487,-1.3546 0.2451,-0.49288 0.42118,-1.08065 0.57961,-1.68599 0.15927,-0.58441 0.29832,-1.18277 0.4198,-1.79936 0.0885,-0.47003 0.14504,-0.95774 0.20189,-1.44455 8.1e-4,-0.19402 0.004,-0.38802 0.005,-0.582 0.0197,-1.00594 -0.0139,-2.00884 -0.0529,-3.01112 -0.0613,-1.35075 -0.17728,-2.68646 -0.29731,-4.02111 -0.0847,-1.03672 -0.22582,-2.04872 -0.38194,-3.0523 -0.12957,-0.7999 -0.30727,-1.56405 -0.48735,-2.32492 -0.0374,-0.0498 -0.0754,-0.10692 -0.11356,-0.1723 -0.18231,-0.31209 -0.37606,-0.59727 -0.56409,-0.89613 -0.16165,-0.2562 -0.32557,-0.51839 -0.51338,-0.70042 -0.18365,-0.18947 -0.38102,-0.32465 -0.57751,-0.45492 -0.22608,-0.12961 -0.45149,-0.25956 -0.68292,-0.34869 -0.231145,-0.089 -0.389431,-0.27322 -0.481559,-0.49051 z m 18.354951,6.11832 c 0.0144,0.10491 0.0294,0.2094 0.0432,0.31462 -0.002,-0.0417 -0.004,-0.0833 -0.005,-0.12504 -0.0123,-0.0634 -0.0253,-0.12636 -0.0378,-0.18958 z m -23.820916,13.15713 v 0.2455 c 0.0209,-0.005 0.04253,-0.007 0.06487,-0.007 0.002,2e-5 0.0051,4.3e-4 0.0071,5.1e-4 -0.02439,-0.0794 -0.04797,-0.15965 -0.07256,-0.23889 z m 24.784316,0.96118 c -0.0153,0.31336 -0.0316,0.62652 -0.053,0.9383 0.0178,-0.0345 0.0351,-0.0699 0.053,-0.1042 z" />
    <path
       style="fill:none;stroke:#000000;stroke-width:0.265654"
       d="M 94.586586,161.49062 81.367785,161.13823"
       id="path2494" />
    <path
       id="path2526"
       style="fill:none;stroke:#000000;stroke-width:0.265654"
       d="m 90.547332,160.43326 c 0.122691,0.94194 0.245289,1.88202 0.429003,2.58619 0.183723,0.70418 0.428705,1.17375 0.550832,1.52692 0.122117,0.35317 0.122055,0.58805 0.183252,0.76294 0.06119,0.17489 0.183498,0.2924 0.244695,0.52863 0.06119,0.23622 0.06139,0.58849 0.122875,0.88138 0.0615,0.29287 0.183827,0.52808 0.182197,0.64501 -0.002,0.11694 -0.124402,0.11706 -0.245751,0.41223 -0.121358,0.29516 -0.243659,0.88217 -0.304549,1.29309 -0.06088,0.41092 -0.06088,0.64577 -0.123408,0.76193 -0.06252,0.11616 -0.184738,0.1163 -0.429536,0.2938 -0.244787,0.1775 -0.612336,0.53 -1.835728,0.35224 -1.223383,-0.17775 -3.303847,-0.88265 -4.52683,-2.17346 -1.222982,-1.2908 -1.590501,-3.17002 -1.774296,-4.34436 -0.183785,-1.17435 -0.183774,-1.64446 -0.183774,-1.93811 0,-0.17465 -2.78e-4,-0.28617 -0.03915,-0.34869 z m -7.750211,1.23974 -1.061939,0.16976 c 0.363941,-0.11642 0.731061,-0.23358 0.916281,-0.2328 0.07502,3.1e-4 0.119103,0.0204 0.145658,0.063 z" />
    <path
       style="fill:none;stroke:#000000;stroke-width:0.265654"
       d="m 82.744739,161.843 c -0.09127,-0.23358 -0.183077,-0.46852 -0.275391,-0.70477"
       id="path2719"
       inkscape:path-effect="#path-effect2721-8"
       inkscape:original-d="m 82.744739,161.843 c -0.0945,-0.23232 -0.186307,-0.46726 -0.275391,-0.70477" />
    <path
       id="path2813"
       style="fill:none;stroke:#000000;stroke-width:0.0899282"
       d="m 83.109603,161.3741 c 0.593878,0.004 1.9576,0.0331 3.523688,0.0763 2.902403,0.08 3.813714,0.13135 3.86955,0.21806 0.04018,0.0624 0.100543,0.33522 0.134529,0.60639 0.05114,0.40848 0.580308,2.14585 0.981956,3.2241 0.05412,0.14536 0.148723,0.5222 0.210258,0.83716 0.0615,0.31493 0.139787,0.6552 0.173721,0.75633 0.03669,0.10941 -0.01025,0.34155 -0.115988,0.57284 -0.156574,0.34211 -0.225652,0.63481 -0.425303,1.81004 -0.05166,0.30393 -0.59523,0.71588 -1.097412,0.83156 -0.385669,0.0888 -0.381785,0.0892 -1.148256,-0.0442 -1.424396,-0.24793 -2.972948,-0.9445 -3.92304,-1.76428 -1.255841,-1.08359 -1.965225,-2.93189 -2.232437,-5.81843 -0.05903,-0.63788 -0.15106,-1.17254 -0.208147,-1.20668 -0.05637,-0.0337 -0.08312,-0.0758 -0.05934,-0.094 0.0062,-0.005 0.118232,-0.006 0.316202,-0.005 z" />
    <path
       id="path2815"
       style="fill:none;stroke:#000000;stroke-width:0.0899282"
       d="m 82.963421,161.46306 2.965979,0.0681 c 3.657078,0.0839 4.391901,0.13481 4.486048,0.31158 0.03874,0.0727 0.157302,0.4946 0.263758,0.93728 0.106457,0.44269 0.380197,1.37157 0.608033,2.06418 0.573964,1.74488 0.672242,2.33843 0.47667,2.87846 -0.08353,0.23069 -0.199118,0.67672 -0.256338,0.99167 -0.05719,0.31495 -0.146571,0.68147 -0.198616,0.81429 -0.09777,0.24949 -0.530364,0.55547 -0.969237,0.68569 -0.467487,0.13869 -1.754557,-0.11982 -2.900313,-0.58301 -2.64173,-1.068 -3.727233,-2.70749 -4.195274,-6.33485 -0.10003,-0.77531 -0.204334,-1.50489 -0.231453,-1.62144 z" />
    <path
       id="path2817"
       style="fill:none;stroke:#000000;stroke-width:0.0899282"
       d="m 83.097949,161.57845 1.062453,0.002 c 1.475671,0.002 5.664376,0.16351 5.935144,0.22872 0.174858,0.0421 0.250916,0.15106 0.351685,0.50627 0.07062,0.24908 0.324349,1.10711 0.56353,1.9066 0.239191,0.79949 0.51574,1.77675 0.61491,2.17193 l 0.180618,0.71873 -0.289186,1.16653 c -0.158901,0.64144 -0.329834,1.23915 -0.379756,1.32866 -0.04991,0.0895 -0.244408,0.24084 -0.432181,0.33599 -0.204026,0.10339 -0.528448,0.17455 -0.806114,0.17689 -1.217806,0.0102 -3.333446,-0.83807 -4.373771,-1.75361 -1.267206,-1.1152 -1.789998,-2.37098 -2.214952,-5.31673 z" />
    <path
       id="path2819"
       style="fill:none;stroke:#000000;stroke-width:0.0899282"
       d="m 83.24942,161.63944 2.409867,0.063 c 2.679837,0.0701 4.442757,0.16838 4.530007,0.25211 0.06539,0.0627 0.705818,2.17042 1.195402,3.9347 l 0.328368,1.1833 -0.248928,1.01912 c -0.346222,1.41716 -0.420547,1.56423 -0.89032,1.76886 -0.21648,0.0943 -0.541701,0.17228 -0.722965,0.17332 -0.495436,0.003 -1.640834,-0.30293 -2.407736,-0.64299 -2.015015,-0.89347 -3.058137,-2.08971 -3.591495,-4.12072 -0.213907,-0.81456 -0.6022,-3.02895 -0.6022,-3.43402 z" />
    <path
       id="path2821"
       style="fill:none;stroke:#000000;stroke-width:0.0899282"
       d="m 84.236675,161.75533 c 1.181617,2.6e-4 5.116116,0.16125 5.55221,0.2272 0.400665,0.0606 0.346561,-0.0737 1.272722,3.1443 l 0.556131,1.93253 -0.232519,0.95253 c -0.331084,1.3575 -0.432723,1.55588 -0.903029,1.76074 -0.21648,0.0943 -0.500561,0.17228 -0.631339,0.17332 -0.502795,0.004 -1.729949,-0.36685 -2.644488,-0.79954 -0.78494,-0.37139 -1.078728,-0.57087 -1.656186,-1.12434 -0.811649,-0.77796 -1.181249,-1.39482 -1.515295,-2.52876 -0.21694,-0.7364 -0.693303,-3.18805 -0.693303,-3.5677 0,-0.15732 0.07062,-0.17046 0.895096,-0.17028 z" />
    <path
       id="path2823"
       style="fill:none;stroke:#000000;stroke-width:0.0899282"
       d="m 84.319825,161.84276 c 1.696158,-9e-5 5.307086,0.19278 5.531026,0.29532 0.269477,0.12337 0.313978,0.24171 1.075172,2.87387 l 0.597967,2.06773 -0.239396,0.91646 c -0.345781,1.32429 -0.431688,1.48716 -0.89403,1.68855 -0.21648,0.0943 -0.47744,0.17229 -0.579428,0.17333 -0.397804,0.004 -1.60157,-0.37834 -2.476598,-0.78684 -1.447539,-0.67579 -2.483272,-1.70825 -2.98823,-2.97859 -0.193367,-0.48647 -0.72857,-2.83169 -0.864369,-3.78728 l -0.06621,-0.46255 z" />
    <path
       id="path2825"
       style="fill:none;stroke:#000000;stroke-width:0.0899282"
       d="m 84.163056,161.93375 c 0.308444,1.1e-4 0.75774,0.0101 1.404605,0.029 2.613423,0.0765 4.209295,0.2028 4.349399,0.3436 0.132386,0.13304 0.413721,0.99102 1.039678,3.16869 l 0.47456,1.64991 -0.244162,0.86105 c -0.363204,1.28138 -0.436269,1.41319 -0.888731,1.61027 -0.520107,0.22655 -0.59763,0.22164 -1.575682,-0.0996 -2.400889,-0.78862 -3.805227,-1.99934 -4.379591,-3.77711 -0.177114,-0.54819 -0.815882,-3.43422 -0.817235,-3.69224 -2.77e-4,-0.0655 0.12308,-0.0937 0.637159,-0.0935 z" />
    <path
       id="path2827"
       style="fill:none;stroke:#000000;stroke-width:0.0899282"
       d="m 84.198539,162.02523 c 1.072598,0.008 3.344903,0.0914 4.360528,0.17485 0.572427,0.047 1.112345,0.1224 1.199636,0.16724 0.166955,0.0857 0.52687,1.1215 1.203867,3.46553 l 0.376046,1.30326 -0.242573,0.81022 c -0.356778,1.19013 -0.443884,1.35151 -0.839485,1.55181 -0.457034,0.23143 -0.45771,0.23125 -1.439554,-0.0844 -2.473125,-0.79499 -3.908661,-2.09999 -4.456931,-4.05108 -0.161083,-0.57327 -0.743083,-3.17093 -0.743083,-3.31661 0,-0.0173 0.224012,-0.0234 0.581549,-0.0209 z" />
    <path
       id="path2829"
       style="fill:none;stroke:#000000;stroke-width:0.0899282"
       d="m 83.698029,162.08064 1.818254,0.0615 c 1.857692,0.0625 3.806376,0.19564 4.085641,0.27955 0.205031,0.0616 0.436668,0.67086 1.097944,2.88355 l 0.547645,1.83188 -0.288652,0.89867 c -0.340482,1.06019 -0.464752,1.26871 -0.854306,1.43134 -0.379808,0.15855 -0.296135,0.16855 -1.225053,-0.14436 -1.759118,-0.59253 -2.997135,-1.42227 -3.715959,-2.48961 -0.474928,-0.70518 -0.652072,-1.19885 -1.035446,-2.88303 -0.181079,-0.79549 -0.352135,-1.54172 -0.379756,-1.65805 z" />
    <path
       id="path2831"
       style="fill:none;stroke:#000000;stroke-width:0.0899282"
       d="m 83.814549,162.16959 1.622284,0.0595 c 2.83683,0.1043 4.084872,0.21953 4.219646,0.38935 0.134477,0.16946 0.657996,1.70908 1.159377,3.40911 l 0.33791,1.14518 -0.34903,0.96728 c -0.299261,0.82908 -0.393541,0.99525 -0.660989,1.16704 -0.171558,0.1102 -0.344417,0.20027 -0.383989,0.20027 -0.03956,0 -0.415269,-0.12137 -0.835242,-0.2699 -1.323023,-0.46788 -2.16422,-0.94689 -2.936328,-1.67178 -1.059654,-0.99485 -1.278993,-1.50218 -1.993564,-4.61224 z" />
    <path
       id="path2833"
       style="fill:none;stroke:#000000;stroke-width:0.0899282"
       d="m 84.501489,162.28345 c 0.904074,9e-5 3.901578,0.17726 4.478638,0.26482 0.299087,0.0454 0.577521,0.13327 0.619152,0.19519 0.106549,0.15843 0.829175,2.30076 1.172619,3.4767 l 0.287597,0.98559 -0.331022,0.86461 c -0.237972,0.62144 -0.412081,0.93239 -0.619685,1.10654 -0.15884,0.13325 -0.298318,0.24246 -0.309838,0.24246 -0.01148,0 -0.322659,-0.10376 -0.691704,-0.23026 -1.994395,-0.68366 -3.450254,-1.77247 -4.057579,-3.03501 -0.271947,-0.56534 -0.833214,-2.50438 -1.024849,-3.54025 l -0.06149,-0.33039 z" />
    <path
       id="path2835"
       style="fill:none;stroke:#000000;stroke-width:0.0899282"
       d="m 84.522673,162.38408 c 1.204186,-0.005 4.451263,0.20136 4.831379,0.34005 0.149768,0.0546 0.299075,0.39887 0.711311,1.6423 0.286849,0.86525 0.605685,1.85537 0.708656,2.2004 l 0.187485,0.62723 -0.233564,0.5947 c -0.298154,0.7602 -0.476189,1.0971 -0.711834,1.34443 -0.103874,0.10903 -0.197714,0.19824 -0.208147,0.19824 -0.099,0 -1.365577,-0.50176 -1.8119,-0.71772 -1.280632,-0.61966 -2.319318,-1.50412 -2.766318,-2.35593 -0.297138,-0.56624 -1.153534,-3.41047 -1.154078,-3.83354 -4.1e-5,-0.027 0.169119,-0.039 0.44701,-0.0402 z" />
    <path
       id="path2837"
       style="fill:none;stroke:#000000;stroke-width:0.0899282"
       d="m 84.555511,162.47812 c 1.049518,-0.006 3.912094,0.16283 4.584572,0.29633 0.299322,0.0594 0.334763,0.1393 1.129717,2.55723 l 0.600611,1.82731 -0.185906,0.47678 c -0.222629,0.57104 -0.409294,0.93649 -0.67423,1.32053 -0.108405,0.15715 -0.200502,0.28592 -0.204438,0.28618 -0.05452,0.005 -1.319261,-0.52363 -1.735094,-0.72484 -1.213142,-0.58698 -2.291461,-1.48267 -2.691632,-2.23545 -0.280679,-0.52801 -1.210203,-3.42045 -1.211289,-3.769 -7.1e-5,-0.0227 0.145495,-0.0336 0.387689,-0.0351 z" />
    <path
       id="path2839"
       style="fill:none;stroke:#000000;stroke-width:0.0899282"
       d="m 84.57564,162.54979 c 0.185004,-5.2e-4 0.478269,0.0125 0.935877,0.0346 1.534378,0.074 3.285491,0.21172 3.573478,0.28108 0.259228,0.0624 0.347584,0.26636 1.101654,2.53995 l 0.582605,1.75615 -0.240985,0.57843 c -0.132468,0.31808 -0.359607,0.76355 -0.504753,0.99015 l -0.263758,0.41223 -0.503687,-0.214 c -0.816241,-0.34643 -1.617046,-0.74688 -2.059239,-1.0303 -0.63635,-0.40787 -1.460534,-1.21095 -1.694324,-1.65042 -0.205769,-0.38683 -0.846885,-2.20278 -1.057154,-2.99487 -0.0579,-0.21804 -0.127814,-0.47157 -0.155722,-0.56318 -0.03044,-0.0998 -0.02234,-0.13885 0.286008,-0.13978 z" />
    <path
       id="path2841"
       style="fill:none;stroke:#000000;stroke-width:0.0899282"
       d="m 84.358485,162.61231 1.166796,0.0605 c 1.379885,0.0712 3.197596,0.21374 3.474442,0.27244 0.243168,0.0516 0.350936,0.29747 1.093712,2.49622 l 0.575717,1.70482 -0.266946,0.60232 c -0.146909,0.33132 -0.354102,0.7438 -0.460251,0.91646 -0.106139,0.17264 -0.233185,0.31361 -0.282299,0.31361 -0.04909,0 -0.628796,-0.26281 -1.288084,-0.58454 -1.298364,-0.63359 -2.253027,-1.38023 -2.697987,-2.10889 -0.225191,-0.36878 -0.790413,-1.89282 -1.135015,-3.06144 z" />
    <path
       id="path2843"
       style="fill:none;stroke:#000000;stroke-width:0.0899282"
       d="m 84.825634,162.72413 c 0.501637,1.5e-4 3.963923,0.2623 4.129075,0.31261 0.191114,0.0582 0.328716,0.37968 1.046567,2.44945 l 0.575717,1.6606 -0.272767,0.58454 c -0.15022,0.3213 -0.355948,0.71263 -0.457075,0.86969 l -0.183785,0.28564 -0.934821,-0.45034 c -1.735371,-0.83559 -2.657514,-1.57963 -3.094153,-2.49672 -0.262979,-0.55235 -0.937414,-2.43527 -1.04922,-2.9293 -0.06293,-0.27816 -0.05648,-0.28626 0.240462,-0.28617 z" />
    <path
       id="path2845"
       style="fill:none;stroke:#000000;stroke-width:0.0899282"
       d="m 84.773723,162.81918 c 0.307552,-0.008 1.13811,0.0465 2.864297,0.18198 l 1.313512,0.10318 0.146704,0.27244 c 0.196617,0.36456 1.311391,3.57243 1.311391,3.77357 0,0.0873 -0.165583,0.47499 -0.368104,0.86154 -0.20252,0.38655 -0.415012,0.70247 -0.472437,0.70247 -0.148129,0 -1.580744,-0.75478 -2.231372,-1.17568 -0.76851,-0.49719 -1.287171,-1.03815 -1.601631,-1.67178 -0.23543,-0.47438 -1.109598,-2.85393 -1.109598,-3.02026 0,-0.0156 0.04469,-0.0249 0.147238,-0.0275 z" />
    <path
       id="path2847"
       style="fill:none;stroke:#000000;stroke-width:0.0899282"
       d="m 84.927324,162.9 c 0.797311,-0.001 3.894108,0.29555 3.981828,0.38123 0.104561,0.1021 0.699792,1.68202 1.184283,3.14429 l 0.248394,0.74972 -0.380812,0.72636 -0.380278,0.72635 -0.480381,-0.23128 c -1.011659,-0.48668 -2.035277,-1.13387 -2.503605,-1.58332 -0.565694,-0.5429 -0.861705,-1.10222 -1.453339,-2.74579 -0.411948,-1.1444 -0.416232,-1.16732 -0.21609,-1.16756 z" />
    <path
       style="fill:none;stroke:#000000;stroke-width:0.0899282"
       d="m 89.9109,167.82224 0.329567,-0.62805 -0.245587,-0.75948 c -0.325334,-1.00611 -1.053187,-2.94411 -1.138049,-3.03023 -0.078,-0.0792 -1.757488,-0.28496 -3.064409,-0.3755 l -0.899596,-0.0623 0.06405,0.25307 c 0.150353,0.5942 0.976504,2.56052 1.243675,2.96009 0.159875,0.2391 0.534424,0.624 0.832352,0.85534 0.534854,0.41533 2.267939,1.41514 2.453016,1.41514 0.05248,0 0.243731,-0.28261 0.424995,-0.62805 z"
       id="path2849" />
    <path
       style="fill:none;stroke:#000000;stroke-width:0.0899282"
       d="m 89.813637,167.79456 0.336065,-0.57673 -0.198923,-0.5951 c -0.384123,-1.14917 -1.126078,-3.11005 -1.191446,-3.14882 -0.09152,-0.0543 -1.990171,-0.28334 -2.960506,-0.35715 l -0.8014,-0.061 0.215045,0.60493 c 0.463829,1.30478 1.002567,2.41653 1.359663,2.80588 0.359084,0.39149 1.381759,1.08871 2.384737,1.62581 l 0.52069,0.27885 z"
       id="path2851" />
    <path
       style="fill:none;stroke:#000000;stroke-width:0.0899282"
       d="m 89.764483,167.67946 0.286439,-0.50658 -0.461779,-1.2774 c -0.828786,-2.29264 -0.842724,-2.32035 -1.203274,-2.39249 -0.555003,-0.11106 -3.127174,-0.35784 -3.181935,-0.30529 -0.07144,0.0686 0.463645,1.43084 0.913504,2.32548 0.271568,0.54008 0.492915,0.83678 0.854387,1.14527 0.479705,0.40938 2.245464,1.51756 2.418046,1.51756 0.04848,0 0.217085,-0.22796 0.374612,-0.50655 z"
       id="path2853" />
    <path
       style="fill:none;stroke:#000000;stroke-width:0.0899282"
       d="m 89.514746,167.89797 c 0.480504,-0.70743 0.488436,-0.59356 -0.164917,-2.36661 -0.327579,-0.88895 -0.66925,-1.68696 -0.759277,-1.77336 -0.157783,-0.15144 -1.045602,-0.29718 -2.745071,-0.45065 l -0.571157,-0.0516 0.231433,0.61575 c 0.403698,1.07402 0.928037,2.08102 1.276113,2.45078 0.294423,0.31274 1.844288,1.39208 2.402253,1.67292 0.166659,0.0839 0.217801,0.0688 0.330623,-0.0973 z"
       id="path2855" />
    <path
       style="fill:none;stroke:#000000;stroke-width:0.0899282"
       d="m 89.576148,167.625 c 0.105103,-0.16319 0.191092,-0.37862 0.191092,-0.47875 0,-0.22304 -0.663541,-2.06287 -1.013062,-2.80894 -0.292312,-0.62396 -0.334425,-0.64319 -1.78676,-0.81523 -0.454399,-0.0538 -0.981085,-0.11714 -1.170425,-0.14069 -0.18933,-0.0236 -0.344234,-0.008 -0.344234,0.0353 0,0.14138 0.650966,1.6317 0.940849,2.15398 0.156317,0.28164 0.489625,0.6893 0.740674,0.90592 0.46962,0.4052 2.032971,1.44517 2.172491,1.44517 0.04304,0 0.164281,-0.13352 0.269375,-0.29672 z"
       id="path2857" />
    <path
       style="fill:none;stroke:#000000;stroke-width:0.0899282"
       d="m 89.4919,167.54881 c 0.100543,-0.15831 0.183007,-0.32933 0.183191,-0.38005 5.43e-4,-0.17337 -0.708144,-2.10919 -0.988331,-2.69931 -0.319021,-0.67188 -0.358664,-0.6912 -1.765237,-0.86039 -0.429156,-0.0516 -0.91499,-0.11518 -1.079619,-0.14125 l -0.299342,-0.0474 0.150977,0.37858 c 0.355846,0.89232 0.943677,1.99256 1.235005,2.31152 0.301556,0.33017 1.165106,0.9744 1.989966,1.48457 l 0.390538,0.24154 z"
       id="path2859" />
    <path
       style="fill:none;stroke:#000000;stroke-width:0.0899282"
       d="m 89.447246,167.42291 c 0.155631,-0.22794 0.151746,-0.25823 -0.138147,-1.0792 -0.164045,-0.46457 -0.306096,-0.88431 -0.315668,-0.93276 -0.0092,-0.0485 -0.16585,-0.39259 -0.347267,-0.76476 -0.381715,-0.78302 -0.384718,-0.78451 -1.978775,-0.98407 -1.117694,-0.13993 -1.086486,-0.25235 -0.341128,1.22835 0.392753,0.78025 0.591327,1.06431 0.985308,1.40955 0.442132,0.38744 1.822888,1.3574 1.932275,1.3574 0.02378,0 0.115342,-0.10553 0.203402,-0.23451 z"
       id="path2861" />
    <path
       style="fill:none;stroke:#000000;stroke-width:0.0899282"
       d="m 89.389841,167.32334 c 0.106805,-0.19154 -0.446805,-1.8832 -0.890013,-2.71961 -0.229249,-0.43262 -0.348855,-0.56165 -0.588764,-0.63516 -0.42314,-0.12966 -1.897889,-0.31414 -1.968627,-0.24624 -0.101056,0.097 0.853802,1.87279 1.210959,2.25217 0.187147,0.1988 0.294158,0.36147 0.237787,0.36147 -0.05637,0 -0.102489,0.0359 -0.102489,0.0798 0,0.0439 0.07225,0.0626 0.160643,0.0415 0.09706,-0.0232 0.451355,0.17186 0.895024,0.49262 0.403913,0.29203 0.784561,0.53101 0.845901,0.5311 0.06129,9e-5 0.151132,-0.0709 0.199558,-0.15772 z"
       id="path2863" />
    <path
       style="fill:none;stroke:#000000;stroke-width:0.0899282"
       d="m 89.274171,167.2632 c 0.07185,-0.17959 -0.449696,-1.76727 -0.820156,-2.49691 -0.155415,-0.30611 -0.362036,-0.59738 -0.459155,-0.64726 -0.223561,-0.11482 -1.811675,-0.36345 -1.883182,-0.29483 -0.07687,0.0738 0.576373,1.31009 1.052818,1.99253 0.223469,0.32009 0.509549,0.62713 0.635726,0.6823 0.126185,0.0552 0.444816,0.25175 0.708072,0.43686 0.677735,0.47651 0.702056,0.48691 0.765877,0.32731 z"
       id="path2865" />
    <path
       style="fill:none;stroke:#000000;stroke-width:0.0899282"
       d="m 89.118151,166.8804 c -0.13291,-0.56768 -0.639661,-1.8894 -0.873175,-2.27741 -0.238576,-0.39644 -0.468604,-0.50523 -1.277558,-0.60427 -0.252443,-0.0309 -0.537354,-0.0772 -0.633122,-0.10288 -0.138484,-0.0371 -0.06662,0.1482 0.350834,0.90521 0.288735,0.52354 0.631103,1.07316 0.760825,1.22138 0.196473,0.22449 1.587088,1.1945 1.712443,1.1945 0.02121,0 0.0031,-0.15143 -0.04028,-0.33653 z"
       id="path2873" />
    <path
       style="fill:none;stroke:#000000;stroke-width:0.0899282"
       d="m 88.985047,166.76689 c -0.08056,-0.35336 -0.613424,-1.71348 -0.825527,-2.10713 -0.08179,-0.1517 -0.280136,-0.32776 -0.44087,-0.39125 -0.35146,-0.13882 -1.256118,-0.26551 -1.256118,-0.17591 0,0.035 0.196217,0.42241 0.436044,0.86085 0.475686,0.86966 0.746444,1.16428 1.595031,1.73553 l 0.559534,0.37668 z"
       id="path2875" />
    <path
       style="fill:none;stroke:#000000;stroke-width:0.0899282"
       d="m 88.849258,166.6967 c 0,-0.15003 -0.473012,-1.35723 -0.704834,-1.7988 -0.154883,-0.29505 -0.312769,-0.45996 -0.516447,-0.53945 -0.362949,-0.14165 -0.981854,-0.25277 -0.981854,-0.17629 0,0.0311 0.169651,0.36956 0.377009,0.75205 0.260232,0.48004 0.545831,0.84543 0.922102,1.17976 0.58409,0.51897 0.904024,0.7252 0.904024,0.58273 z"
       id="path2879" />
    <path
       style="fill:none;stroke:#000000;stroke-width:0.0899282"
       d="m 88.665667,166.45105 c 0,-0.13126 -0.464546,-1.22158 -0.668357,-1.56869 -0.165973,-0.28266 -0.297427,-0.38134 -0.6643,-0.49872 -0.251561,-0.0805 -0.470418,-0.13405 -0.486345,-0.11903 -0.08917,0.0841 0.620628,1.2009 1.022388,1.60857 0.461708,0.46852 0.796614,0.71147 0.796614,0.57787 z"
       id="path2887" />
    <path
       style="fill:none;stroke:#000000;stroke-width:0.0899282"
       d="m 88.318779,164.98895 c 0.210125,-0.15246 0.286655,-0.16512 0.481929,-0.0797 0.127682,0.0558 0.23215,0.067 0.23215,0.0247 0,-0.23288 -0.654634,-0.23813 -0.87259,-0.007 -0.231145,0.24512 -0.141948,0.28001 0.158511,0.062 z"
       id="path2889" />
    <path
       style="fill:none;stroke:#000000;stroke-width:0.0899282"
       d="m 88.480017,166.19968 c -0.0011,-0.0462 -0.124136,-0.32183 -0.27333,-0.61254 -0.309571,-0.60318 -0.330756,-0.69997 -0.137696,-0.62888 0.07574,0.0279 0.137696,0.0166 0.137696,-0.0252 0,-0.0633 -0.140945,-0.1505 -0.367192,-0.22727 -0.02521,-0.009 -0.205277,-0.0837 -0.400059,-0.16693 -0.194792,-0.0832 -0.376005,-0.13041 -0.402704,-0.10478 -0.07871,0.0755 0.671904,1.12473 1.074423,1.50195 0.204006,0.19117 0.369989,0.30981 0.368862,0.26363 z"
       id="path2977" />
    <path
       style="fill:none;stroke:#000000;stroke-width:0.0899282"
       d="m 88.080839,165.60916 c -0.02716,-0.0606 -0.09941,-0.2724 -0.16053,-0.47072 -0.08435,-0.27355 -0.178097,-0.38484 -0.388294,-0.46097 -0.152403,-0.0552 -0.291143,-0.0869 -0.30831,-0.0704 -0.04058,0.039 0.782254,1.11225 0.852747,1.11225 0.02952,0 0.03156,-0.0495 0.0041,-0.11012 z"
       id="path2981" />
    <path
       style="fill:none;stroke:#000000;stroke-width:0.0899282"
       d="m 88.114886,165.09498 c 0,-0.0443 -0.07441,-0.0805 -0.165234,-0.0805 -0.09091,0 -0.219975,-0.0495 -0.28687,-0.11013 -0.09798,-0.0887 -0.113784,-0.0854 -0.08127,0.0172 0.04499,0.14171 0.533327,0.30047 0.533327,0.17337 z"
       id="path2985" />
    <path
       style="fill:none;stroke:#000000;stroke-width:0.0899282"
       d="m 87.839495,164.67154 c 0,-0.0433 -0.06539,-0.10274 -0.145208,-0.13214 -0.250813,-0.0924 -0.332169,-0.0585 -0.189196,0.0787 0.152526,0.14638 0.334404,0.17547 0.334404,0.0535 z"
       id="path2987" />
    <path
       style="fill:#ffffff;stroke:#000000;stroke-width:0.0899282"
       d="m 86.829723,163.49811 c 0,-0.0451 -0.05832,-0.13787 -0.129507,-0.20623 -0.07123,-0.0684 -0.145084,-0.16916 -0.164137,-0.224 -0.01906,-0.0549 -0.09921,-0.0853 -0.17823,-0.0677 -0.108681,0.0243 -0.06877,0.0987 0.164138,0.30595 0.169252,0.15063 0.307736,0.237 0.307736,0.19193 z"
       id="path2993" />
    <path
       id="path3099"
       style="fill:#ffffff;stroke:#000000;stroke-width:0.265654"
       d="m 89.033094,166.33607 a 1.3310599,1.6738489 0 0 1 1.330986,1.67379 1.3310599,1.6738489 0 0 1 -1.330986,1.67381 1.3310599,1.6738489 0 0 1 -1.331509,-1.67381 1.3310599,1.6738489 0 0 1 1.331509,-1.67379 z" />
    <ellipse
       style="fill:#ffffff;stroke:#000000;stroke-width:0.265654"
       id="path3101"
       cx="-85.911758"
       cy="164.22163"
       rx="1.5146543"
       ry="0.96907043"
       transform="scale(-1,1)" />
    <path
       id="rect3215"
       style="fill:#0000ff;stroke:#000000;stroke-width:0.207436"
       d="m 100.03199,179.25227 v 39.1726 H 85.836329 v -39.1726 z" />
    <path
       id="rect4554"
       style="fill:#800080;fill-opacity:1;stroke:#000000;stroke-width:0.527357;stroke-dasharray:none;stroke-opacity:1"
       d="m 97.952286,217.02215 v 49.00416 H 86.46616 c 0.08804,-1.69471 0.21487,-3.38781 0.322024,-5.08175 0.173895,-2.74168 0.247226,-5.48728 0.30295,-8.23239 0.0289,-2.91897 0.07758,-5.83776 0.138761,-8.75637 0.05914,-2.6895 0.09183,-5.37967 0.114933,-8.06959 0.01435,-1.7619 0.02172,-3.52342 0.02644,-5.28535 8.93e-4,-0.33832 -0.0744,-0.61003 -0.195438,-0.81853 v -1.58334 -4.61924 -5.51531 -1.04229 z" />
    <path
       id="path4981-5"
       style="fill:url(#linearGradient8929);fill-opacity:1;stroke:#f4e3d7;stroke-width:0.266072;stroke-dasharray:none;stroke-opacity:1"
       d="m 92.198989,207.33967 a 6.4258061,4.1405736 0 0 1 6.426112,4.14056 6.4258061,4.1405736 0 0 1 -6.426112,4.14054 6.4258061,4.1405736 0 0 1 -6.425599,-4.14054 6.4258061,4.1405736 0 0 1 6.425599,-4.14056 z" />
    <path
       id="path5293"
       style="fill:#000000;fill-opacity:1;stroke:#000000;stroke-width:0.266072;stroke-dasharray:none;stroke-opacity:1"
       d="m 89.858835,223.91034 0.606967,0.74567 c -0.01025,-0.008 -0.02142,-0.0161 -0.03392,-0.0265 -0.05299,-0.0438 -0.129117,-0.11683 -0.167366,-0.15959 -0.03822,-0.0428 -0.03822,-0.0575 -0.05401,-0.0737 -0.01588,-0.0162 -0.04653,-0.031 -0.106989,-0.0966 -0.06047,-0.0656 -0.152546,-0.18335 -0.198616,-0.25567 -0.04602,-0.0723 -0.04612,-0.10171 -0.04612,-0.13368 z m 0.606967,0.74567 c 0.0329,0.0244 0.0536,0.0358 0.06569,0.0483 0.01588,0.0162 0.01599,0.0312 0.04664,0.0666 0.03065,0.0354 0.09173,0.0938 0.168432,0.18959 0.07666,0.0957 0.168668,0.22833 0.260048,0.35988 z" />
    <path
       id="path5297"
       style="fill:#000000;fill-opacity:1;stroke:#000000;stroke-width:0.266072;stroke-dasharray:none;stroke-opacity:1"
       d="m 88.206358,221.09136 c 0.03116,0.0598 0.0619,0.11861 0.115466,0.21398 0.0535,0.0954 0.129906,0.2277 0.167899,0.31667 0.03802,0.089 0.03802,0.13264 0.06887,0.23482 0.03085,0.1022 0.09245,0.26387 0.153058,0.42394 z" />
    <path
       id="path5301"
       style="fill:#000000;fill-opacity:1;stroke:#000000;stroke-width:0.266072;stroke-dasharray:none;stroke-opacity:1"
       d="m 87.518353,218.53669 0.04551,0.88086 z" />
    <path
       id="path5325"
       style="fill:#000000;fill-opacity:1;stroke:#000000;stroke-width:0.266072;stroke-dasharray:none;stroke-opacity:1"
       d="m 94.540844,217.96384 -0.795516,0.005 c 0.199219,-0.005 0.495651,-0.005 0.795516,-0.005 z m -0.795516,0.005 c -0.04653,9.9e-4 -0.08947,0.002 -0.123931,0.004 -0.182238,0.009 -0.182351,0.0233 -0.298718,0.0666 -0.116378,0.0433 -0.345606,0.1168 -0.483035,0.15299 -0.137419,0.0362 -0.183335,0.0369 -0.275412,0.0595 -0.09204,0.0225 -0.230264,0.0664 -0.329433,0.0879 -0.09921,0.0215 -0.160356,0.0218 -0.198615,0.0305 -0.03823,0.009 -0.05309,0.0234 -0.08373,0.0295 -0.03065,0.006 -0.07697,0.006 -0.115455,0.0143 -0.03854,0.008 -0.06908,0.0229 -0.122353,0.0295 -0.0533,0.007 -0.129876,0.006 -0.221922,0.0213 -0.09204,0.0151 -0.198769,0.0448 -0.443299,0.0589 -0.244542,0.0143 -0.627014,0.0136 -0.917338,-0.008 -0.290333,-0.0222 -0.489184,-0.0662 -0.657288,-0.11029 -0.168115,-0.0441 -0.305923,-0.0882 -0.505276,-0.11743 -0.199353,-0.0292 -0.459595,-0.0438 -0.765333,-0.0879 -0.305728,-0.0442 -0.657525,-0.11761 -1.007364,-0.1906 z" />
    <path
       id="path5329"
       style="fill:#000000;fill-opacity:1;stroke:#000000;stroke-width:0.268275;stroke-dasharray:none;stroke-opacity:1"
       d="m 97.207204,253.84088 -0.324668,1.13994 c 0,-0.16623 2.05e-4,-0.33493 0.01588,-0.46663 0.01568,-0.13169 0.04786,-0.22639 0.06456,-0.28472 0.01681,-0.0583 0.0166,-0.0795 0.03126,-0.0961 0.01466,-0.0166 0.04745,-0.0271 0.06989,-0.0419 0.02245,-0.0148 0.0329,-0.0363 0.05452,-0.0785 0.02163,-0.0422 0.05432,-0.10558 0.08845,-0.17207 z" />
    <path
       id="path5629"
       style="fill:#ff00ff;fill-opacity:1;stroke:#ff00ff;stroke-width:0.268275;stroke-dasharray:none;stroke-opacity:1"
       d="m 95.008537,237.36085 c 0.06539,0.2446 0.130388,0.4874 0.162601,0.66196 0.03218,0.17457 0.03229,0.28018 0.03229,0.44906 v 0.59117 c 0,0.18998 2.1e-5,0.33805 0.0164,0.51727 0.0164,0.17921 0.04889,0.39025 0.07041,0.72293 0.02152,0.33269 0.03218,0.78634 0.04295,1.23763 z" />
    <path
       id="path5637"
       style="fill:#ff00ff;fill-opacity:1;stroke:#ff00ff;stroke-width:0.266072;stroke-dasharray:none;stroke-opacity:1"
       d="m 96.413931,241.7971 v 1.26921 c 0,0.353 -2.36e-4,0.60207 -0.0062,0.7787 -0.0051,0.17662 -0.01661,0.2804 -0.02757,0.35835 -0.01097,0.078 -0.02142,0.13005 -0.02645,0.19213 -0.0051,0.0621 -0.0051,0.1349 -0.01106,0.18705 -0.0062,0.0521 -0.01681,0.0831 -0.02172,0.12962 -0.0051,0.0464 -0.0051,0.10872 -0.01639,0.17129 -0.0062,0.032 -0.01394,0.064 -0.02439,0.10268 z m -0.133462,3.18903 -0.158891,3.78779 c -0.06447,-0.30946 -0.129301,-0.62101 -0.177963,-0.84429 -0.04868,-0.22326 -0.08097,-0.35799 -0.09747,-0.51336 -0.0165,-0.15537 -0.0164,-0.33193 -0.0164,-0.47729 0,-0.14536 -6.2e-5,-0.2598 0.01025,-0.34258 0.01025,-0.0827 0.03147,-0.13459 0.04295,-0.17639 0.01148,-0.0418 0.01179,-0.0731 0.02705,-0.11436 0.01527,-0.0413 0.04745,-0.0929 0.06457,-0.13978 0.01722,-0.0469 0.01753,-0.0888 0.02757,-0.13012 0.01025,-0.0413 0.03147,-0.0827 0.04817,-0.13469 0.01681,-0.052 0.02757,-0.11431 0.04346,-0.1713 0.01579,-0.0571 0.03771,-0.10897 0.06518,-0.21805 0.02736,-0.1091 0.05955,-0.27522 0.0863,-0.38936 0.01312,-0.0559 0.02541,-0.0991 0.03547,-0.13622 z" />
    <path
       id="path5641"
       style="fill:#ff00ff;fill-opacity:1;stroke:#ff00ff;stroke-width:0.266072;stroke-dasharray:none;stroke-opacity:1"
       d="m 96.143675,232.17986 -0.129762,6.75926 c -0.07522,-0.23713 -0.150855,-0.47613 -0.20497,-0.65772 -0.05412,-0.1816 -0.0863,-0.30629 -0.102746,-0.45645 -0.0165,-0.15017 -0.01691,-0.32649 -0.02757,-0.47729 -0.01066,-0.15079 -0.03187,-0.27518 -0.04295,-0.39951 -0.01097,-0.12435 -0.01117,-0.24909 -0.01117,-0.46713 v -0.83054 c 0,-0.30109 1.44e-4,-0.59185 0.01588,-0.78887 0.01579,-0.19701 0.04797,-0.3009 0.07523,-0.42035 0.02726,-0.11949 0.04879,-0.25425 0.05985,-0.36344 0.01107,-0.10918 0.01107,-0.19222 0.03762,-0.32175 0.02654,-0.12953 0.08086,-0.3064 0.129752,-0.50372 0.04889,-0.19733 0.09193,-0.415 0.124474,-0.59673 0.03249,-0.18174 0.05421,-0.3275 0.07625,-0.47576 z" />
    <path
       id="path5649"
       style="fill:#ff00ff;fill-opacity:1;stroke:#ff00ff;stroke-width:0.268275;stroke-dasharray:none;stroke-opacity:1"
       d="m 96.743303,260.51117 0.321481,4.12007 c -0.0454,-0.0885 -0.09122,-0.1777 -0.17531,-0.34932 -0.08414,-0.17162 -0.206588,-0.4254 -0.290764,-0.63406 -0.08414,-0.20866 -0.129927,-0.37284 -0.168422,-0.47077 -0.03853,-0.0979 -0.06949,-0.12804 -0.08476,-0.15657 -0.01527,-0.0285 -0.01497,-0.0584 -0.03762,-0.11884 -0.02265,-0.0605 -0.06898,-0.14987 -0.09214,-0.34313 -0.02327,-0.19326 -0.02275,-0.4919 0.01486,-0.73793 0.03762,-0.24602 0.114082,-0.44039 0.174776,-0.56739 0.06067,-0.12701 0.106201,-0.18626 0.130285,-0.22375 0.02408,-0.0375 0.02439,-0.0528 0.03126,-0.0749 0.0071,-0.0221 0.02203,-0.0521 0.04448,-0.0822 0.02245,-0.0301 0.05279,-0.0598 0.07677,-0.11937 0.02408,-0.0595 0.03925,-0.14927 0.05504,-0.24184 z" />
    <path
       id="path5653"
       style="fill:#ff00ff;fill-opacity:1;stroke:#ff00ff;stroke-width:0.266072;stroke-dasharray:none;stroke-opacity:1"
       d="m 96.146996,243.72354 v 4.40486 c -0.167745,-0.33661 -0.336106,-0.67437 -0.427947,-0.87224 -0.09183,-0.19788 -0.106795,-0.25655 -0.129763,-0.30854 -0.02296,-0.052 -0.05401,-0.0957 -0.06201,-0.32225 -0.0082,-0.22656 0.0071,-0.6381 0.05299,-0.95355 0.0454,-0.31548 0.122178,-0.53562 0.191194,-0.77058 0.06898,-0.23497 0.130091,-0.48445 0.17532,-0.6313 0.0452,-0.14684 0.07584,-0.19093 0.106979,-0.26432 0.03116,-0.0734 0.0617,-0.17622 0.09316,-0.28208 z" />
    <path
       id="path5657"
       style="fill:#ff00ff;fill-opacity:1;stroke:#ff00ff;stroke-width:0.266072;stroke-dasharray:none;stroke-opacity:1"
       d="m 96.238622,242.75473 0.137705,5.63848 c -0.09337,-0.0299 -0.185168,-0.0595 -0.26058,-0.13216 -0.07543,-0.0726 -0.136291,-0.1903 -0.19755,-0.29329 -0.06129,-0.10299 -0.122619,-0.19081 -0.176375,-0.25719 -0.0537,-0.0664 -0.09993,-0.11074 -0.130285,-0.15401 -0.03034,-0.0433 -0.04561,-0.0871 -0.06887,-0.12453 -0.02326,-0.0375 -0.0536,-0.067 -0.06887,-0.095 -0.01527,-0.028 -0.01537,-0.0573 -0.02276,-0.0874 -0.0071,-0.0301 -0.02255,-0.0598 -0.03813,-0.0823 -0.01558,-0.0225 -0.03105,-0.0371 -0.03864,-0.065 -0.0082,-0.028 -0.0082,-0.072 -0.01537,-0.10268 -0.0082,-0.0307 -0.02275,-0.0454 -0.02275,-0.2643 -6.2e-5,-0.21891 0.01527,-0.6447 0.03762,-0.89409 0.02234,-0.24938 0.05288,-0.32301 0.06887,-0.38935 0.01599,-0.0664 0.01588,-0.12481 0.03075,-0.20535 0.01486,-0.0806 0.04571,-0.18331 0.06139,-0.2643 0.01579,-0.0811 0.01568,-0.13975 0.03023,-0.19824 0.01445,-0.0585 0.0451,-0.11752 0.09901,-0.27905 0.05391,-0.16156 0.130521,-0.42565 0.229865,-0.73397 0.09931,-0.30833 0.221316,-0.66058 0.344796,-1.01608 z" />
    <path
       id="path5661"
       style="fill:#ff00ff;fill-opacity:1;stroke:#ff00ff;stroke-width:0.268275;stroke-dasharray:none;stroke-opacity:1"
       d="m 95.122219,256.64891 c 0.01148,0.002 0.02778,0.0298 0.05186,0.0791 0.05514,0.11264 0.147247,0.33678 0.21609,0.5085 0.06887,0.1717 0.114502,0.29126 0.137182,0.39633 0.02265,0.10509 0.02254,0.19459 0.03813,0.29869 0.01557,0.1041 0.04643,0.22315 0.06139,0.29817 0.01506,0.075 0.01486,0.10527 0.02962,0.12609 0.01476,0.0208 0.04561,0.0354 0.06139,0.11161 0.01588,0.0762 0.01588,0.21066 0.02388,0.29197 0.0082,0.0813 0.02286,0.11118 0.03023,0.33589 0.0071,0.2247 0.0071,0.64273 -0.02439,0.88158 -0.03198,0.23884 -0.09337,0.29879 -0.161545,0.31212 -0.06816,0.0133 -0.144644,-0.0169 -0.182186,-0.0315 -0.03751,-0.0147 -0.03762,-0.0145 -0.04499,-0.0434 -0.0071,-0.0289 -0.02234,-0.0887 -0.03023,-0.14056 -0.0082,-0.0518 -0.0082,-0.0968 -0.03074,-0.17207 -0.02265,-0.0753 -0.06856,-0.17979 -0.10699,-0.36586 -0.03844,-0.18607 -0.06877,-0.45464 -0.08425,-0.71571 -0.01548,-0.26106 -0.01588,-0.51498 -0.01588,-0.72397 v -0.61182 c 0,-0.23885 6.1e-5,-0.55249 0.0062,-0.71055 0.0041,-0.0889 0.01025,-0.12757 0.02491,-0.12453 z" />
    <path
       id="path5665"
       style="fill:#ff00ff;fill-opacity:1;stroke:#ff00ff;stroke-width:0.266072;stroke-dasharray:none;stroke-opacity:1"
       d="m 96.279403,242.14325 c 0.0062,3.7e-4 0.01291,0.002 0.02008,0.004 0.07677,0.0205 0.214574,0.13756 0.322024,0.29989 0.107461,0.16233 0.183949,0.36831 0.221921,0.58911 0.03792,0.2208 0.03813,0.45567 0.02911,0.58047 -0.0092,0.12482 -0.02429,0.13942 -0.03864,0.17639 -0.01435,0.037 -0.02983,0.0957 -0.04612,0.12351 -0.0163,0.0278 -0.03157,0.0277 -0.05452,0.0437 -0.02296,0.016 -0.0536,0.0453 -0.145648,0.0737 -0.09204,0.0284 -0.244798,0.0578 -0.351684,0.0722 -0.106888,0.0144 -0.16831,0.0138 -0.19756,0.008 -0.02921,-0.006 -0.02921,-0.0204 -0.04448,-0.0437 -0.01527,-0.0233 -0.04561,-0.0529 -0.06088,-0.1103 -0.01527,-0.0574 -0.01537,-0.14563 -0.02275,-0.2267 -0.0071,-0.081 -0.02285,-0.15443 -0.03074,-0.19213 -0.0082,-0.0377 -0.0082,-0.0375 -5.23e-4,-0.0727 0.0071,-0.0352 0.02275,-0.10886 0.03074,-0.18247 0.0082,-0.0736 0.0082,-0.14693 0.03813,-0.28617 0.03013,-0.13924 0.09132,-0.34505 0.128696,-0.45543 0.03741,-0.11038 0.05248,-0.12465 0.06139,-0.15401 0.0092,-0.0294 0.0092,-0.0738 0.01537,-0.0971 0.0062,-0.0233 0.02183,-0.0232 0.03813,-0.0584 0.01476,-0.0319 0.02829,-0.0951 0.08794,-0.0915 z" />
    <path
       id="path5673"
       style="fill:#ff00ff;fill-opacity:1;stroke:#ff00ff;stroke-width:0.266072;stroke-dasharray:none;stroke-opacity:1"
       d="m 96.42255,250.31275 0.504753,5.28624 c -0.490486,-0.26478 -0.979999,-0.52945 -1.23936,-0.69738 -0.259361,-0.16793 -0.290272,-0.24122 -0.33632,-0.31514 -0.04602,-0.074 -0.107103,-0.14708 -0.15307,-0.43968 -0.04591,-0.29259 -0.07635,-0.80645 -0.06938,-1.12179 0.0071,-0.31534 0.05288,-0.43285 0.106456,-0.57235 0.05361,-0.13946 0.114389,-0.30132 0.18273,-0.43357 0.06836,-0.13222 0.145279,-0.2347 0.191728,-0.30801 0.04642,-0.0733 0.06159,-0.11756 0.08373,-0.15453 0.02214,-0.037 0.05268,-0.0663 0.06938,-0.0955 0.01661,-0.0294 0.01681,-0.0587 0.03864,-0.10268 0.02183,-0.0439 0.06774,-0.10267 0.12923,-0.20534 0.0615,-0.10267 0.137921,-0.24961 0.221921,-0.39647 0.08404,-0.14685 0.175874,-0.29385 0.26959,-0.44374 z" />
    <path
       id="path5681"
       style="fill:#ff00ff;fill-opacity:1;stroke:#ff00ff;stroke-width:0.266072;stroke-dasharray:none;stroke-opacity:1"
       d="m 92.787015,226.40253 0.73514,0.75126 c -0.06323,-0.0345 -0.123654,-0.0684 -0.173187,-0.0976 -0.140309,-0.0829 -0.205431,-0.13465 -0.253704,-0.19112 -0.04828,-0.0565 -0.08066,-0.11899 -0.113344,-0.16623 -0.03269,-0.0472 -0.06529,-0.0783 -0.09747,-0.12452 -0.03218,-0.0462 -0.06447,-0.10848 -0.09747,-0.1718 z m 0.73514,0.75126 c 0.115886,0.0633 0.244511,0.13047 0.35644,0.18755 0.173024,0.0882 0.302807,0.15087 0.373925,0.19315 0.07113,0.0423 0.08209,0.0627 0.124996,0.1037 0.04284,0.0409 0.118304,0.10352 0.167366,0.15604 0.04909,0.0525 0.07103,0.0939 0.146182,0.15554 0.07513,0.0616 0.204591,0.14471 0.398819,0.22771 0.194229,0.083 0.454062,0.16581 0.632917,0.2333 0.178855,0.0675 0.276139,0.11969 0.334732,0.14589 0.05863,0.0262 0.08015,0.0261 0.108578,0.0417 0.02839,0.0155 0.06129,0.0467 0.109634,0.0828 0.04837,0.0361 0.113272,0.0776 0.177964,0.11385 0.06467,0.0363 0.129608,0.0677 0.265346,0.17689 0.135727,0.10924 0.341241,0.29613 0.471382,0.44729 0.130132,0.15117 0.184328,0.26497 0.260048,0.46764 0.07574,0.20267 0.172973,0.49365 0.221389,0.66027 0.04837,0.16662 0.04817,0.20805 0.05934,0.25415 0.01107,0.0461 0.03269,0.098 0.04868,0.22313 0.01599,0.12513 0.02696,0.32264 0.03762,0.51744 z" />
    <path
       id="path5689"
       style="fill:#ff00ff;fill-opacity:1;stroke:#ff00ff;stroke-width:0.266072;stroke-dasharray:none;stroke-opacity:1"
       d="m 93.660056,218.90366 -0.130296,6.82129 c -0.08599,-0.21662 -0.172388,-0.43488 -0.231975,-0.63182 -0.05954,-0.19692 -0.09214,-0.37359 -0.108579,-0.58097 -0.01639,-0.20738 -0.01599,-0.44601 -0.02121,-0.59165 -0.0051,-0.14564 -0.01609,-0.19742 -0.02173,-0.34767 -0.0051,-0.15025 -0.0062,-0.3993 -0.0062,-0.65367 0,-0.25437 3.07e-4,-0.51438 0.02696,-0.76854 0.02675,-0.25416 0.08066,-0.50293 0.108046,-0.65366 0.02736,-0.15073 0.02716,-0.20284 0.04295,-0.28566 0.01579,-0.0828 0.04848,-0.19724 0.07574,-0.3375 0.02726,-0.14027 0.04889,-0.30598 0.07574,-0.45645 0.02685,-0.15047 0.05914,-0.28553 0.07574,-0.37918 0.0166,-0.0936 0.0167,-0.14577 0.0328,-0.32735 0.01609,-0.18154 0.04879,-0.49285 0.08158,-0.80717 z" />
    <path
       id="path5693"
       style="fill:#ff00ff;fill-opacity:1;stroke:#ff00ff;stroke-width:0.266072;stroke-dasharray:none;stroke-opacity:1"
       d="m 97.335409,217.4521 v 5.1e-4 c 0.05012,-0.005 0.309837,0.43103 0.309837,0.43103 l -2.044932,-0.3736 h 0.906207 c 0.238002,0 0.378342,-5e-4 0.459196,-0.005 0.08086,-0.004 0.102971,-0.0149 0.1626,-0.026 0.05965,-0.011 0.156922,-0.0215 0.207092,-0.027 z" />
    <path
       id="path6258"
       style="fill:#000080;fill-opacity:1;stroke:#000080;stroke-width:0.266072;stroke-dasharray:none;stroke-opacity:1"
       d="m 97.483055,197.02138 c 0.04213,0.0203 0.08568,0.0412 0.128174,0.0518 0.04244,0.0106 0.08558,0.0104 0.108568,0.0326 0.02296,0.022 0.02285,0.0639 0.04397,0.0935 0.02112,0.0296 0.06426,0.0501 0.119166,0.12352 0.05494,0.0735 0.119821,0.19821 0.152002,0.47931 0.03218,0.28112 0.03269,0.71712 -0.04346,1.24684 -0.04807,0.33427 -0.125459,0.69852 -0.195428,1.01049 z m 0.313015,3.03808 0.855361,8.29938 c -0.172675,-0.24857 -0.345473,-0.49737 -0.442767,-0.65265 -0.09726,-0.15525 -0.119278,-0.21752 -0.163144,-0.27042 -0.04386,-0.0529 -0.108578,-0.0948 -0.183774,-0.17738 -0.07523,-0.0825 -0.162016,-0.20715 -0.205503,-0.28922 -0.04346,-0.082 -0.04346,-0.12334 -0.0657,-0.15603 -0.02224,-0.0328 -0.06498,-0.0536 -0.183262,-0.18807 -0.118283,-0.1345 -0.313486,-0.38355 -0.421582,-0.54896 -0.108106,-0.16542 -0.12965,-0.24847 -0.162067,-0.33193 -0.03238,-0.0834 -0.07574,-0.16633 -0.119176,-0.38374 -0.04335,-0.21743 -0.0863,-0.57066 -0.108044,-0.83005 -0.02183,-0.25939 -0.02224,-0.4255 -0.01271,-0.51897 0.0092,-0.0934 0.03105,-0.11428 0.0535,-0.15554 0.02245,-0.0412 0.04428,-0.10365 0.05565,-0.16621 0.01137,-0.0626 0.01137,-0.12453 0.05401,-0.25923 0.04264,-0.1347 0.129415,-0.34224 0.237808,-0.67449 0.108404,-0.33228 0.237961,-0.78931 0.345853,-1.11113 0.107901,-0.32183 0.194341,-0.50869 0.23835,-0.62316 0.04397,-0.11449 0.04438,-0.15595 0.119688,-0.48797 0.02778,-0.12251 0.06662,-0.29181 0.107522,-0.47423 z" />
    <path
       id="path6266"
       style="fill:#000080;fill-opacity:1;stroke:#000080;stroke-width:0.266072;stroke-dasharray:none;stroke-opacity:1"
       d="m 98.581082,190.95635 -2.660896,6.16711 c 0.345093,-0.99358 0.690925,-1.99043 0.993599,-2.74834 0.302674,-0.7579 0.562681,-1.27719 0.779098,-1.72362 0.216418,-0.44643 0.389339,-0.82009 0.50793,-1.04859 0.118592,-0.22854 0.183385,-0.31149 0.237808,-0.39445 0.05442,-0.0829 0.09757,-0.16592 0.142461,-0.25211 z" />
    <path
       id="path6274"
       style="fill:#000080;fill-opacity:1;stroke:#000080;stroke-width:0.266072;stroke-dasharray:none;stroke-opacity:1"
       d="m 99.19921,179.99177 c 0.08783,5.3e-4 0.170697,0.008 0.238862,0.0244 0.21814,0.0523 0.282555,0.19747 0.346909,0.34157 l -5.776777,3.36388 c 0.278281,-0.20543 0.559729,-0.41308 0.721898,-0.52761 0.16218,-0.11454 0.205616,-0.13533 0.238874,-0.16571 0.03321,-0.0304 0.05442,-0.072 0.09696,-0.1042 0.04243,-0.0322 0.107697,-0.0529 0.194372,-0.1042 0.08671,-0.0512 0.194772,-0.13422 0.270646,-0.17688 0.07584,-0.0427 0.11895,-0.0428 0.259525,-0.14537 0.140575,-0.10259 0.378844,-0.31027 0.53017,-0.4351 0.151327,-0.12483 0.216029,-0.16641 0.260058,-0.2074 0.04407,-0.041 0.0658,-0.0824 0.08681,-0.10469 0.02111,-0.0223 0.04264,-0.0221 0.183262,-0.14537 0.140596,-0.12328 0.4001,-0.37285 0.541291,-0.51796 0.14118,-0.14512 0.163205,-0.18659 0.184307,-0.2089 0.02112,-0.0223 0.04243,-0.0219 0.172132,-0.12452 0.129743,-0.1026 0.36797,-0.31056 0.508986,-0.44528 0.141016,-0.13471 0.184185,-0.19684 0.389288,-0.25008 0.141005,-0.0366 0.359094,-0.0678 0.552421,-0.0666 z" />
    <path
       id="path6278"
       style="fill:#000080;fill-opacity:1;stroke:#000080;stroke-width:0.266072;stroke-dasharray:none;stroke-opacity:1"
       d="m 99.369292,184.0324 -2.466524,5.91805 c 0.04315,-1.18089 0.0863,-2.36454 0.149881,-2.99792 0.06365,-0.63336 0.150138,-0.71633 0.247872,-0.8407 0.09767,-0.12436 0.205954,-0.29048 0.30296,-0.41527 0.09695,-0.12481 0.183713,-0.20794 0.346375,-0.43612 0.162662,-0.22818 0.40049,-0.60176 0.573073,-0.83056 0.172573,-0.22878 0.281038,-0.31211 0.411006,-0.35478 0.129946,-0.0427 0.281191,-0.0427 0.435357,-0.0427 z" />
    <path
       id="rect4681-1-8-7-6"
       style="fill:#0000ff;fill-opacity:1;stroke:#000000;stroke-width:0.31546;stroke-dasharray:none;stroke-opacity:1"
       inkscape:transform-center-x="-1.1741692"
       inkscape:transform-center-y="-1.2110526"
       d="m 94.922671,209.3029 1.042938,-23.61572 -8.565816,-0.70404 -1.043481,23.6157 z" />
    <path
       id="path6258-9"
       style="fill:#000080;fill-opacity:1;stroke:#000080;stroke-width:0.266072;stroke-dasharray:none;stroke-opacity:1"
       d="m 92.894733,187.83401 c 0.04213,0.0203 0.08568,0.0412 0.128173,0.0518 0.04243,0.0106 0.08558,0.0104 0.108568,0.0326 0.02296,0.022 0.02285,0.0639 0.04397,0.0935 0.02112,0.0296 0.06426,0.0501 0.119165,0.12352 0.05494,0.0735 0.119822,0.19821 0.152003,0.47932 0.03218,0.28112 0.03269,0.71712 -0.04346,1.24684 -0.04807,0.33426 -0.125459,0.69851 -0.195429,1.01048 z m 0.313014,3.03806 0.855361,8.2994 c -0.172675,-0.24857 -0.345473,-0.49738 -0.442767,-0.65266 -0.09726,-0.15525 -0.119278,-0.21751 -0.163144,-0.27041 -0.04386,-0.0529 -0.108578,-0.0948 -0.183774,-0.17739 -0.07522,-0.0825 -0.162017,-0.20714 -0.205503,-0.28922 -0.04346,-0.082 -0.04346,-0.12333 -0.0657,-0.15603 -0.02224,-0.0328 -0.06498,-0.0536 -0.183262,-0.18807 -0.118284,-0.1345 -0.313486,-0.38355 -0.421582,-0.54896 -0.108107,-0.16542 -0.12965,-0.24846 -0.162068,-0.33192 -0.03238,-0.0834 -0.07574,-0.16634 -0.119175,-0.38375 -0.04335,-0.21743 -0.0863,-0.57066 -0.108045,-0.83004 -0.02183,-0.2594 -0.02224,-0.42551 -0.01271,-0.51898 0.0092,-0.0934 0.03105,-0.11428 0.0535,-0.15554 0.02245,-0.0412 0.04427,-0.10364 0.05565,-0.16621 0.01137,-0.0626 0.01137,-0.12452 0.05401,-0.25923 0.04264,-0.1347 0.129414,-0.34224 0.237808,-0.67449 0.108403,-0.33228 0.237961,-0.7893 0.345852,-1.11113 0.107902,-0.32182 0.194342,-0.50868 0.238351,-0.62317 0.04397,-0.11448 0.04438,-0.15594 0.119688,-0.48796 0.02778,-0.12251 0.06662,-0.29181 0.107522,-0.47424 z" />
    <path
       style="fill:#000000;stroke:#000000;stroke-width:0.268275"
       d="m 85.682153,175.15718 c -0.30869,0 -0.614684,0 -0.981424,-0.06 -0.36674,-0.06 -0.795127,-0.17938 -1.346339,-0.23884 -0.551212,-0.0594 -1.224387,-0.0594 -1.590242,-0.0893 -0.365855,-0.0299 -0.427064,-0.0896 -0.488194,-0.14925"
       id="path12391"
       inkscape:path-effect="#path-effect12393"
       inkscape:original-d="m 85.682153,175.15718 c -0.30869,0.003 -0.614684,0.003 -0.917952,0 -0.431093,-0.11677 -0.85948,-0.23619 -1.285143,-0.35826 -0.67588,0.003 -1.349055,0.003 -2.019514,0 -0.06385,-0.0571 -0.125109,-0.11677 -0.18359,-0.17913" />
  </g>
</svg>
