<?xml version="1.0" encoding="UTF-8" standalone="no"?>
<!-- Created with Inkscape (http://www.inkscape.org/) -->

<svg
   width="210mm"
   height="297mm"
   viewBox="0 0 210 297"
   version="1.1"
   id="svg15221"
   inkscape:version="1.2.2 (732a01da63, 2022-12-09)"
   sodipodi:docname="backward_crowbar.svg"
   xmlns:inkscape="http://www.inkscape.org/namespaces/inkscape"
   xmlns:sodipodi="http://sodipodi.sourceforge.net/DTD/sodipodi-0.dtd"
   xmlns:xlink="http://www.w3.org/1999/xlink"
   xmlns="http://www.w3.org/2000/svg"
   xmlns:svg="http://www.w3.org/2000/svg">
  <sodipodi:namedview
     id="namedview15223"
     pagecolor="#505050"
     bordercolor="#eeeeee"
     borderopacity="1"
     inkscape:showpageshadow="0"
     inkscape:pageopacity="0"
     inkscape:pagecheckerboard="0"
     inkscape:deskcolor="#505050"
     inkscape:document-units="mm"
     showgrid="false"
     inkscape:zoom="1.4770342"
     inkscape:cx="650.62812"
     inkscape:cy="878.111"
     inkscape:window-width="1920"
     inkscape:window-height="1009"
     inkscape:window-x="-8"
     inkscape:window-y="-8"
     inkscape:window-maximized="1"
     inkscape:current-layer="layer1" />
  <defs
     id="defs15218">
    <inkscape:path-effect
       effect="bspline"
       id="path-effect2721-8"
       is_visible="true"
       lpeversion="1"
       weight="33.333333"
       steps="2"
       helper_size="0"
       apply_no_weight="true"
       apply_with_weight="true"
       only_selected="false" />
    <linearGradient
       inkscape:collect="always"
       xlink:href="#linearGradient8824"
       id="linearGradient8929"
       x1="139.00603"
       y1="137.75211"
       x2="139.90169"
       y2="140.61821"
       gradientUnits="userSpaceOnUse"
       gradientTransform="matrix(-1.1464714,0,0,0.98352445,298.46681,96.976735)" />
    <linearGradient
       inkscape:collect="always"
       id="linearGradient8824">
      <stop
         style="stop-color:#f4e3d7;stop-opacity:1;"
         offset="0"
         id="stop8820" />
      <stop
         style="stop-color:#e9c6af;stop-opacity:1"
         offset="1"
         id="stop8822" />
    </linearGradient>
    <inkscape:path-effect
       effect="bspline"
       id="path-effect12393"
       is_visible="true"
       lpeversion="1"
       weight="33.333333"
       steps="2"
       helper_size="0"
       apply_no_weight="true"
       apply_with_weight="true"
       only_selected="false" />
  </defs>
  <g
     inkscape:label="Layer 1"
     inkscape:groupmode="layer"
     id="layer1">
    <path
       id="path4653"
       style="fill:#000000;fill-opacity:1;stroke:#000000;stroke-width:0.437875;stroke-dasharray:none;stroke-opacity:1"
       d="m 170.701,284.88919 a 3.3388128,9.5579506 87.83059 0 1 -8.96143,3.83302 3.3388128,9.5579506 87.83059 0 1 -10.10782,-2.7979 3.3388128,9.5579506 87.83059 0 1 8.96132,-3.83353 3.3388128,9.5579506 87.83059 0 1 10.10793,2.79841 z" />
    <path
       id="rect456"
       style="fill:#f4e3d7;stroke-width:0.19793"
       d="m 159.1692,178.20747 c -0.10145,0.19804 -0.26455,0.36869 -0.49661,0.46556 -0.23412,0.0977 -0.47075,0.17733 -0.70335,0.28615 -0.26216,0.13091 -0.5271,0.24584 -0.79714,0.31764 -0.0233,0.008 -0.0466,0.0169 -0.07,0.0249 -0.0546,0.0672 -0.11687,0.13088 -0.18729,0.18959 -0.34659,0.28888 -0.69123,0.59314 -1.00269,0.98702 -0.29108,0.34864 -0.58551,0.70104 -0.83301,1.14203 -0.22346,0.43259 -0.45559,0.86836 -0.61925,1.37737 -0.16067,0.51106 -0.32756,1.01316 -0.41077,1.58319 -0.1127,0.64671 -0.20003,1.30605 -0.24375,1.97811 -0.0379,0.7687 -0.0104,1.53819 0.007,2.30798 0.0255,0.9223 0.0602,1.84375 0.11235,2.76284 0.0267,0.66735 0.0629,1.335 0.16819,1.98166 0.0924,0.58959 0.1781,1.18051 0.22877,1.786 0.0514,0.47225 0.0931,0.95206 0.21258,1.39159 0.1441,0.53976 0.30576,1.07536 0.52809,1.53237 0.24204,0.44629 0.52069,0.82946 0.80949,1.18168 0.28185,0.3242 0.55793,0.66673 0.79156,1.09376 0.26335,0.36979 0.5205,0.75059 0.78803,1.11154 0.20623,0.2659 0.42877,0.50551 0.676,0.63887 h 2.8e-4 c 0.4832,0.26067 0.65465,0.80944 0.58338,1.22997 h 15.98309 c 0.0651,-0.21041 0.1792,-0.42447 0.35108,-0.61803 0.18505,-0.20838 0.37867,-0.39346 0.55574,-0.6221 0.22346,-0.2726 0.43983,-0.56108 0.66542,-0.82845 0.27576,-0.3116 0.54623,-0.63579 0.81536,-0.96416 0.33891,-0.38022 0.63122,-0.85563 0.91153,-1.35448 0.27415,-0.49285 0.47111,-1.08057 0.64835,-1.68587 0.17815,-0.58436 0.3337,-1.18266 0.46959,-1.79921 0.099,-0.46999 0.16223,-0.95765 0.22582,-1.44443 9.7e-4,-0.19401 0.005,-0.38798 0.006,-0.58195 0.0221,-1.00585 -0.0155,-2.00867 -0.0591,-3.01088 -0.0685,-1.35063 -0.19828,-2.68624 -0.33256,-4.02076 -0.0947,-1.03665 -0.2526,-2.04856 -0.42723,-3.05205 -0.14494,-0.79985 -0.34371,-1.56393 -0.54516,-2.32474 -0.0418,-0.0498 -0.0843,-0.10691 -0.12702,-0.17229 -0.20394,-0.31206 -0.42067,-0.59722 -0.63101,-0.89605 -0.18082,-0.25618 -0.36417,-0.51836 -0.57425,-0.70037 -0.20544,-0.18946 -0.42622,-0.32462 -0.646,-0.45489 -0.2529,-0.1296 -0.50504,-0.25953 -0.76392,-0.34865 -0.25856,-0.089 -0.43562,-0.2732 -0.53868,-0.49047 z m 20.53189,6.11781 c 0.0161,0.10491 0.0329,0.20938 0.0483,0.3146 -0.002,-0.0417 -0.005,-0.0833 -0.006,-0.12502 -0.0137,-0.0634 -0.0284,-0.12636 -0.0423,-0.18958 z m -26.64613,13.15606 v 0.24548 c 0.0234,-0.005 0.0476,-0.007 0.0726,-0.007 0.002,2e-5 0.006,4.3e-4 0.008,5.1e-4 -0.0273,-0.0794 -0.0537,-0.15965 -0.0812,-0.23888 z m 27.72379,0.9611 c -0.0171,0.31333 -0.0353,0.62647 -0.0594,0.93823 0.0199,-0.0345 0.0393,-0.0699 0.0594,-0.10419 z" />
    <path
       style="fill:none;stroke:#000000;stroke-width:0.280955"
       d="m 169.07328,183.707 -14.78657,-0.35236"
       id="path2494" />
    <path
       id="path2526"
       style="fill:none;stroke:#000000;stroke-width:0.280955"
       d="m 164.55497,182.64973 c 0.13724,0.94188 0.27438,1.88187 0.47988,2.58598 0.20551,0.70413 0.47955,1.17365 0.61615,1.52679 0.13661,0.35315 0.13654,0.58802 0.20499,0.76288 0.0684,0.17488 0.20526,0.29238 0.27372,0.52858 0.0684,0.23621 0.0687,0.58846 0.13745,0.88132 0.0688,0.29284 0.20562,0.52803 0.20381,0.64495 -0.002,0.11695 -0.13916,0.11707 -0.27491,0.4122 -0.13574,0.29513 -0.27255,0.8821 -0.34066,1.29299 -0.0681,0.41089 -0.0681,0.64571 -0.13804,0.76187 -0.07,0.11614 -0.20665,0.11628 -0.48049,0.29377 -0.27381,0.17748 -0.68497,0.52996 -2.05344,0.35221 -1.36848,-0.17774 -3.69569,-0.88258 -5.06372,-2.17327 -1.36803,-1.29071 -1.77914,-3.16976 -1.98474,-4.34402 -0.20558,-1.17426 -0.20556,-1.64432 -0.20556,-1.93796 0,-0.17462 -3.1e-4,-0.28613 -0.0438,-0.34866 z m -8.66941,1.23963 -1.18789,0.16976 c 0.40711,-0.11641 0.81777,-0.23356 1.02496,-0.23278 0.0839,3.1e-4 0.13323,0.0204 0.16293,0.063 z" />
    <path
       style="fill:none;stroke:#000000;stroke-width:0.280955"
       d="m 155.82696,184.05936 c -0.10221,-0.23382 -0.20489,-0.46874 -0.30804,-0.70472"
       id="path2719"
       inkscape:path-effect="#path-effect2721-8"
       inkscape:original-d="m 155.82696,184.05936 c -0.10569,-0.2323 -0.2084,-0.46721 -0.30804,-0.70472" />
    <path
       id="path2813"
       style="fill:none;stroke:#000000;stroke-width:0.0951077"
       d="m 156.23511,183.59051 c 0.66431,0.004 2.18977,0.0331 3.9416,0.0763 3.24663,0.08 4.26603,0.13133 4.32849,0.21804 0.0449,0.0624 0.11247,0.3352 0.15048,0.60634 0.0572,0.40846 0.64914,2.14569 1.09841,3.22383 0.0605,0.14536 0.16637,0.52217 0.23521,0.8371 0.0688,0.31492 0.15636,0.65514 0.19431,0.75628 0.041,0.10938 -0.0114,0.34152 -0.12974,0.57278 -0.17516,0.34209 -0.25241,0.63477 -0.47574,1.80989 -0.0578,0.30391 -0.66583,0.71583 -1.22756,0.8315 -0.43143,0.0888 -0.42707,0.0892 -1.28445,-0.0442 -1.59333,-0.24791 -3.32555,-0.94441 -4.38832,-1.76414 -1.40479,-1.08349 -2.1983,-2.93164 -2.49721,-5.81794 -0.066,-0.63784 -0.16898,-1.17245 -0.23284,-1.20658 -0.063,-0.0337 -0.093,-0.0758 -0.0664,-0.094 0.007,-0.005 0.13226,-0.006 0.3537,-0.005 z" />
    <path
       id="path2815"
       style="fill:none;stroke:#000000;stroke-width:0.0951077"
       d="m 156.07158,183.67946 3.31776,0.0681 c 4.0908,0.0839 4.91278,0.1348 5.0181,0.31156 0.0434,0.0727 0.17596,0.49456 0.29504,0.9372 0.11908,0.44266 0.42528,1.37145 0.68014,2.06401 0.64205,1.74473 0.75198,2.33825 0.53321,2.87823 -0.0935,0.23068 -0.22273,0.67667 -0.28675,0.99159 -0.064,0.31492 -0.16394,0.68142 -0.22218,0.81422 -0.10937,0.24947 -0.59326,0.55543 -1.08419,0.68563 -0.52291,0.13868 -1.96265,-0.1198 -3.24428,-0.58296 -2.95504,-1.0679 -4.16929,-2.70727 -4.69284,-6.33432 -0.1119,-0.77525 -0.22857,-1.50478 -0.2589,-1.62133 z" />
    <path
       id="path2817"
       style="fill:none;stroke:#000000;stroke-width:0.0951077"
       d="m 156.22207,183.79482 1.18846,0.002 c 1.65069,0.002 6.33619,0.16351 6.63906,0.22872 0.1956,0.0421 0.28068,0.15104 0.3934,0.50622 0.079,0.24906 0.36282,1.10702 0.63037,1.90644 0.26755,0.79942 0.5769,1.77661 0.68783,2.17176 l 0.20204,0.71867 -0.32349,1.16643 c -0.17774,0.64139 -0.36894,1.23904 -0.42479,1.32856 -0.0558,0.0895 -0.27339,0.24082 -0.48344,0.33595 -0.22822,0.10339 -0.59111,0.17454 -0.90171,0.17688 -1.36225,0.0102 -3.7288,-0.83801 -4.89251,-1.75347 -1.4175,-1.11511 -2.0023,-2.37078 -2.47765,-5.31629 z" />
    <path
       id="path2819"
       style="fill:none;stroke:#000000;stroke-width:0.0951077"
       d="m 156.3915,183.85581 2.69569,0.063 c 2.99767,0.0701 4.96967,0.16835 5.06727,0.25208 0.0732,0.0627 0.78953,2.17025 1.33717,3.93438 l 0.36732,1.1832 -0.27845,1.01904 c -0.38728,1.41704 -0.47042,1.5641 -0.99591,1.76871 -0.24215,0.0943 -0.60596,0.17226 -0.80872,0.1733 -0.55419,0.003 -1.83543,-0.3029 -2.69329,-0.64292 -2.254,-0.89341 -3.42084,-2.08955 -4.01746,-4.12039 -0.23927,-0.8145 -0.67362,-3.02871 -0.67362,-3.43374 z" />
    <path
       id="path2821"
       style="fill:none;stroke:#000000;stroke-width:0.0951077"
       d="m 157.49585,183.9717 c 1.32176,2.6e-4 5.7229,0.16123 6.21072,0.22718 0.44817,0.0606 0.38766,-0.0737 1.42366,3.14405 l 0.62208,1.93236 -0.26008,0.95246 c -0.37035,1.35739 -0.48405,1.55574 -1.01013,1.76059 -0.24215,0.0943 -0.55994,0.17226 -0.70623,0.1733 -0.56243,0.004 -1.93513,-0.36682 -2.95812,-0.79947 -0.87804,-0.37136 -1.20667,-0.57082 -1.85261,-1.12425 -0.90792,-0.7779 -1.32135,-1.39471 -1.69501,-2.52855 -0.24268,-0.73634 -0.77554,-3.18779 -0.77554,-3.56741 0,-0.1573 0.079,-0.17044 1.00126,-0.17026 z" />
    <path
       id="path2823"
       style="fill:none;stroke:#000000;stroke-width:0.0951077"
       d="m 157.58886,184.05912 c 1.89733,-9e-5 5.93651,0.19276 6.18701,0.2953 0.30145,0.12335 0.35121,0.24169 1.2027,2.87363 l 0.66888,2.06757 -0.2678,0.91638 c -0.38678,1.32419 -0.48287,1.48703 -1.00005,1.6884 -0.24216,0.0943 -0.53406,0.17228 -0.64814,0.17332 -0.44499,0.004 -1.79153,-0.3783 -2.77034,-0.78677 -1.61921,-0.67573 -2.77778,-1.70812 -3.34263,-2.97835 -0.21631,-0.48643 -0.81498,-2.83145 -0.96689,-3.78697 l -0.074,-0.46251 z" />
    <path
       id="path2825"
       style="fill:none;stroke:#000000;stroke-width:0.0951077"
       d="m 157.4135,184.1501 c 0.34503,1.1e-4 0.84761,0.0101 1.5712,0.029 2.92338,0.0765 4.70852,0.20279 4.86524,0.34358 0.14808,0.13303 0.46279,0.99095 1.16298,3.16843 l 0.53085,1.64978 -0.27312,0.86097 c -0.40628,1.28128 -0.48802,1.41309 -0.99415,1.61014 -0.58178,0.22653 -0.6685,0.22162 -1.76254,-0.0996 -2.68564,-0.78855 -4.25655,-1.99917 -4.89903,-3.7768 -0.19812,-0.54814 -0.91264,-3.43394 -0.91415,-3.69194 -3.1e-4,-0.0655 0.13767,-0.0937 0.71272,-0.0935 z" />
    <path
       id="path2827"
       style="fill:none;stroke:#000000;stroke-width:0.0951077"
       d="m 157.45319,184.24157 c 1.19981,0.008 3.74162,0.0914 4.87769,0.17485 0.64032,0.047 1.24428,0.12237 1.34192,0.16721 0.18674,0.0857 0.58935,1.12141 1.34665,3.46525 l 0.42064,1.30316 -0.27134,0.81015 c -0.39909,1.19003 -0.49652,1.35139 -0.93904,1.55168 -0.51125,0.23141 -0.512,0.23123 -1.61031,-0.0844 -2.76643,-0.79492 -4.37222,-2.09982 -4.98552,-4.05075 -0.18019,-0.57322 -0.83121,-3.17067 -0.83121,-3.31634 0,-0.0173 0.25058,-0.0234 0.65052,-0.0209 z" />
    <path
       id="path2829"
       style="fill:none;stroke:#000000;stroke-width:0.0951077"
       d="m 156.89331,184.29699 2.03391,0.0615 c 2.07802,0.0625 4.25782,0.19562 4.57021,0.27952 0.22934,0.0616 0.48846,0.6708 1.22816,2.88331 l 0.61259,1.83174 -0.32288,0.89858 c -0.38087,1.06012 -0.51988,1.26862 -0.95563,1.43124 -0.42485,0.15853 -0.33125,0.16852 -1.37035,-0.14434 -1.96775,-0.5925 -3.3526,-1.42217 -4.15668,-2.48942 -0.53125,-0.70513 -0.72941,-1.19875 -1.15824,-2.8828 -0.20257,-0.79542 -0.3939,-1.5416 -0.4248,-1.6579 z" />
    <path
       id="path2831"
       style="fill:none;stroke:#000000;stroke-width:0.0951077"
       d="m 157.02366,184.38592 1.81469,0.0595 c 3.17328,0.10429 4.56935,0.2195 4.72011,0.38932 0.15042,0.16943 0.73603,1.70893 1.29688,3.40883 l 0.37798,1.14509 -0.39043,0.96719 c -0.33475,0.82902 -0.44021,0.99517 -0.73937,1.16695 -0.19191,0.11019 -0.38527,0.20025 -0.42954,0.20025 -0.0442,0 -0.46452,-0.12136 -0.9343,-0.26988 -1.47995,-0.46784 -2.42091,-0.94681 -3.28458,-1.67163 -1.18534,-0.99478 -1.43068,-1.50207 -2.23001,-4.61187 z" />
    <path
       id="path2833"
       style="fill:none;stroke:#000000;stroke-width:0.0951077"
       d="m 157.79208,184.49977 c 1.01129,9e-5 4.3643,0.17726 5.0098,0.2648 0.33456,0.0454 0.64602,0.13327 0.69259,0.19517 0.11919,0.15843 0.92751,2.30058 1.31169,3.47642 l 0.32171,0.9855 -0.37029,0.86454 c -0.26619,0.62141 -0.46095,0.93233 -0.69317,1.10647 -0.17768,0.13324 -0.3337,0.24243 -0.34659,0.24243 -0.013,0 -0.36092,-0.10374 -0.77375,-0.23025 -2.23093,-0.68361 -3.85945,-1.77231 -4.53881,-3.03476 -0.3042,-0.56528 -0.93203,-2.50416 -1.14639,-3.53995 l -0.0688,-0.33037 z" />
    <path
       id="path2835"
       style="fill:none;stroke:#000000;stroke-width:0.0951077"
       d="m 157.81577,184.6004 c 1.34701,-0.005 4.97919,0.20134 5.40439,0.34002 0.16753,0.0546 0.33454,0.39884 0.79567,1.64217 0.32087,0.86517 0.67752,1.85521 0.79271,2.20021 l 0.20971,0.62718 -0.26126,0.59466 c -0.33352,0.76013 -0.53266,1.097 -0.79626,1.34431 -0.11619,0.10902 -0.22116,0.19822 -0.23284,0.19822 -0.11075,0 -1.52752,-0.50171 -2.02678,-0.71765 -1.43253,-0.61961 -2.59439,-1.504 -3.09442,-2.35574 -0.33237,-0.5662 -1.29034,-3.41019 -1.29095,-3.83323 -4e-5,-0.027 0.18917,-0.039 0.50003,-0.0402 z" />
    <path
       id="path2837"
       style="fill:none;stroke:#000000;stroke-width:0.0951077"
       d="m 157.8525,184.69443 c 1.17399,-0.006 4.37607,0.16281 5.12831,0.2963 0.33483,0.0594 0.37445,0.1393 1.2637,2.55702 l 0.67185,1.82716 -0.20795,0.47674 c -0.24903,0.571 -0.45784,0.93642 -0.7542,1.32043 -0.12126,0.15713 -0.22428,0.28589 -0.22869,0.28615 -0.061,0.005 -1.47572,-0.52358 -1.94089,-0.72478 -1.35702,-0.58693 -2.56322,-1.48254 -3.01085,-2.23527 -0.31397,-0.52797 -1.35373,-3.42016 -1.35494,-3.76868 -9e-5,-0.0227 0.16274,-0.0336 0.43366,-0.0351 z" />
    <path
       id="path2839"
       style="fill:none;stroke:#000000;stroke-width:0.0951077"
       d="m 157.87502,184.76609 c 0.20695,-5.2e-4 0.53499,0.0125 1.04687,0.0346 1.71636,0.074 3.67515,0.21169 3.9973,0.28106 0.28998,0.0624 0.38881,0.26633 1.23232,2.53973 l 0.65169,1.75601 -0.26957,0.57838 c -0.14818,0.31806 -0.40224,0.76348 -0.56461,0.99007 l -0.29504,0.4122 -0.56342,-0.21397 c -0.91305,-0.34641 -1.80885,-0.74682 -2.30347,-1.03023 -0.71183,-0.40783 -1.63376,-1.21084 -1.89527,-1.65029 -0.23018,-0.38679 -0.94733,-2.20259 -1.18254,-2.99461 -0.0647,-0.21803 -0.14297,-0.47154 -0.17419,-0.56314 -0.0341,-0.0998 -0.025,-0.13884 0.31993,-0.13977 z" />
    <path
       id="path2841"
       style="fill:none;stroke:#000000;stroke-width:0.0951077"
       d="m 157.6321,184.82861 1.30519,0.0605 c 1.54354,0.0712 3.57683,0.21372 3.88651,0.27242 0.27201,0.0516 0.39257,0.29744 1.22342,2.49602 l 0.64401,1.70467 -0.29861,0.60227 c -0.16433,0.33129 -0.3961,0.74374 -0.51483,0.91639 -0.11874,0.17263 -0.26085,0.31359 -0.31578,0.31359 -0.0549,0 -0.70338,-0.26279 -1.44085,-0.58449 -1.45236,-0.63355 -2.52025,-1.38013 -3.01798,-2.10873 -0.25189,-0.36874 -0.88415,-1.89266 -1.26963,-3.06118 z" />
    <path
       id="path2843"
       style="fill:none;stroke:#000000;stroke-width:0.0951077"
       d="m 158.15466,184.94042 c 0.56114,1.5e-4 4.43405,0.26228 4.61878,0.31258 0.21379,0.0582 0.36772,0.37964 1.1707,2.44925 l 0.644,1.66046 -0.30511,0.58448 c -0.16804,0.32129 -0.39817,0.71259 -0.5113,0.86963 l -0.20558,0.28562 -1.04568,-0.4503 c -1.94119,-0.83553 -2.97271,-1.57951 -3.46113,-2.49652 -0.29417,-0.5523 -1.0486,-2.43507 -1.17366,-2.92906 -0.0704,-0.27813 -0.0632,-0.28623 0.26898,-0.28614 z" />
    <path
       id="path2845"
       style="fill:none;stroke:#000000;stroke-width:0.0951077"
       d="m 158.09659,185.03546 c 0.34403,-0.008 1.27309,0.0465 3.20401,0.18197 l 1.46929,0.10316 0.16412,0.27243 c 0.21992,0.36453 1.46692,3.57214 1.46692,3.77325 0,0.0873 -0.18523,0.47496 -0.41177,0.86148 -0.22653,0.38652 -0.46423,0.70241 -0.52846,0.70241 -0.16571,0 -1.76823,-0.75472 -2.49602,-1.17559 -0.85966,-0.49713 -1.43983,-1.03806 -1.79159,-1.67164 -0.26335,-0.47434 -1.2412,-2.8537 -1.2412,-3.02001 0,-0.0156 0.05,-0.0249 0.1647,-0.0275 z" />
    <path
       id="path2847"
       style="fill:none;stroke:#000000;stroke-width:0.0951077"
       d="m 158.26841,185.11628 c 0.89188,-10e-4 4.35594,0.29551 4.45408,0.38119 0.11695,0.1021 0.78279,1.68189 1.32473,3.14404 l 0.27787,0.74966 -0.42598,0.72629 -0.42538,0.7263 -0.53735,-0.23126 c -1.13165,-0.48664 -2.27666,-1.13378 -2.80054,-1.5832 -0.63278,-0.54284 -0.96391,-1.10213 -1.6257,-2.74556 -0.46081,-1.1443 -0.4656,-1.16722 -0.24173,-1.16746 z" />
    <path
       style="fill:none;stroke:#000000;stroke-width:0.0951077"
       d="m 163.84305,190.03811 0.36866,-0.628 -0.27472,-0.75942 c -0.36393,-1.00602 -1.17809,-2.94387 -1.27303,-3.02998 -0.0873,-0.0792 -1.96592,-0.28493 -3.42785,-0.37547 l -1.00629,-0.0623 0.0716,0.25306 c 0.16819,0.59414 1.09231,2.5603 1.39117,2.95983 0.17884,0.23908 0.59781,0.62396 0.93108,0.85528 0.59828,0.41529 2.53692,1.41502 2.74394,1.41502 0.0587,0 0.27264,-0.28259 0.4754,-0.628 z"
       id="path2849" />
    <path
       style="fill:none;stroke:#000000;stroke-width:0.0951077"
       d="m 163.73425,190.01044 0.37592,-0.57669 -0.22251,-0.59506 c -0.42968,-1.14907 -1.25965,-3.10979 -1.33276,-3.14856 -0.10237,-0.0543 -2.2262,-0.28332 -3.31162,-0.35711 l -0.89645,-0.061 0.24055,0.60488 c 0.51884,1.30467 1.12147,2.41634 1.52092,2.80564 0.40167,0.39146 1.54563,1.08863 2.66756,1.62569 l 0.58245,0.27882 z"
       id="path2851" />
    <path
       style="fill:none;stroke:#000000;stroke-width:0.0951077"
       d="m 163.67927,189.89533 0.32041,-0.50652 -0.51656,-1.2773 c -0.92708,-2.29244 -0.94268,-2.32017 -1.34597,-2.3923 -0.62083,-0.11105 -3.49807,-0.35781 -3.55932,-0.30527 -0.0799,0.0686 0.51863,1.43072 1.02184,2.3253 0.30378,0.54003 0.55138,0.83671 0.95572,1.14517 0.53661,0.40935 2.51177,1.51745 2.70483,1.51745 0.0542,0 0.24283,-0.22795 0.41905,-0.50653 z"
       id="path2853" />
    <path
       style="fill:none;stroke:#000000;stroke-width:0.0951077"
       d="m 163.39992,190.11383 c 0.53749,-0.70736 0.54636,-0.59351 -0.18448,-2.36641 -0.36644,-0.88888 -0.74863,-1.68683 -0.84933,-1.77322 -0.1765,-0.15141 -1.16962,-0.29716 -3.07065,-0.45061 l -0.63889,-0.0516 0.25888,0.61569 c 0.45157,1.07394 1.0381,2.08086 1.42746,2.45058 0.32935,0.31271 2.06302,1.39197 2.68715,1.67279 0.18644,0.0839 0.24364,0.0688 0.36986,-0.0973 z"
       id="path2855" />
    <path
       style="fill:none;stroke:#000000;stroke-width:0.0951077"
       d="m 163.46859,189.84089 c 0.11757,-0.16318 0.21376,-0.3786 0.21376,-0.47872 0,-0.22302 -0.74225,-2.0627 -1.13322,-2.80871 -0.32697,-0.62391 -0.37408,-0.64313 -1.99866,-0.81516 -0.5083,-0.0538 -1.09745,-0.11713 -1.30924,-0.14067 -0.21179,-0.0236 -0.38507,-0.008 -0.38507,0.0353 0,0.14138 0.72817,1.63158 1.05244,2.15382 0.17486,0.2816 0.54769,0.68924 0.82852,0.90584 0.52532,0.40517 2.27408,1.44505 2.43015,1.44505 0.0482,0 0.18377,-0.1335 0.30132,-0.29669 z"
       id="path2857" />
    <path
       style="fill:none;stroke:#000000;stroke-width:0.0951077"
       d="m 163.37436,189.7647 c 0.11247,-0.1583 0.20471,-0.3293 0.20491,-0.38001 6.1e-4,-0.17336 -0.79213,-2.10902 -1.10556,-2.69909 -0.35684,-0.67183 -0.40119,-0.69115 -1.97458,-0.86032 -0.48006,-0.0516 -1.02351,-0.11518 -1.20767,-0.14125 l -0.33485,-0.0474 0.16889,0.37855 c 0.39805,0.89224 1.0556,1.99239 1.38148,2.31133 0.33732,0.33014 1.30329,0.97433 2.22598,1.48444 l 0.43684,0.24153 z"
       id="path2859" />
    <path
       style="fill:none;stroke:#000000;stroke-width:0.0951077"
       d="m 163.3244,189.63882 c 0.17409,-0.22793 0.16975,-0.25822 -0.15452,-1.07911 -0.18351,-0.46454 -0.34241,-0.88426 -0.35311,-0.9327 -0.0104,-0.0485 -0.18553,-0.39256 -0.38846,-0.76469 -0.42698,-0.78296 -0.43034,-0.78445 -2.21346,-0.98399 -1.25025,-0.13992 -1.21535,-0.25233 -0.38159,1.22825 0.43934,0.78018 0.66147,1.06423 1.10216,1.40944 0.49457,0.38741 2.03908,1.35728 2.16146,1.35728 0.0266,0 0.12902,-0.10552 0.22752,-0.23448 z"
       id="path2861" />
    <path
       style="fill:none;stroke:#000000;stroke-width:0.0951077"
       d="m 163.26018,189.53925 c 0.11948,-0.19152 -0.49978,-1.88304 -0.99557,-2.71939 -0.25642,-0.43258 -0.39022,-0.56159 -0.65858,-0.63511 -0.47334,-0.12964 -2.12299,-0.3141 -2.20211,-0.24622 -0.11305,0.097 0.95507,1.87263 1.35457,2.252 0.20936,0.19878 0.32905,0.36143 0.266,0.36143 -0.0631,0 -0.11465,0.0359 -0.11465,0.0798 0,0.0439 0.0808,0.0626 0.1797,0.0415 0.10857,-0.0232 0.50489,0.17184 1.00117,0.49259 0.45182,0.29199 0.87762,0.53097 0.94623,0.53106 0.0686,9e-5 0.16906,-0.0709 0.22323,-0.15772 z"
       id="path2863" />
    <path
       style="fill:none;stroke:#000000;stroke-width:0.0951077"
       d="m 163.1308,189.47912 c 0.0804,-0.17957 -0.50303,-1.76713 -0.91743,-2.49671 -0.17384,-0.30609 -0.40497,-0.59733 -0.51361,-0.6472 -0.25008,-0.11482 -2.02654,-0.36343 -2.10653,-0.29481 -0.086,0.0738 0.64473,1.30999 1.17769,1.99237 0.24997,0.32005 0.56998,0.62707 0.71112,0.68224 0.14115,0.0552 0.49757,0.25173 0.79205,0.43682 0.75812,0.47648 0.78532,0.48688 0.85671,0.32729 z"
       id="path2865" />
    <path
       style="fill:none;stroke:#000000;stroke-width:0.0951077"
       d="m 162.95626,189.09635 c -0.14866,-0.56763 -0.71551,-1.88925 -0.97672,-2.27722 -0.26688,-0.39641 -0.52417,-0.5052 -1.42907,-0.60423 -0.28239,-0.0309 -0.60109,-0.0772 -0.70822,-0.10287 -0.1549,-0.0371 -0.0745,0.1482 0.39245,0.90514 0.32298,0.52349 0.70595,1.07307 0.85105,1.22128 0.21978,0.22446 1.77533,1.1944 1.91555,1.1944 0.0237,0 0.004,-0.15142 -0.0451,-0.3365 z"
       id="path2873" />
    <path
       style="fill:none;stroke:#000000;stroke-width:0.0951077"
       d="m 162.80738,188.98284 c -0.0901,-0.35332 -0.68616,-1.71333 -0.92344,-2.10695 -0.0915,-0.15168 -0.31335,-0.32774 -0.49315,-0.39122 -0.39314,-0.1388 -1.40509,-0.26549 -1.40509,-0.1759 0,0.035 0.21949,0.42239 0.48775,0.86079 0.53211,0.86958 0.83499,1.16418 1.78422,1.73539 l 0.62589,0.37664 z"
       id="path2875" />
    <path
       style="fill:none;stroke:#000000;stroke-width:0.0951077"
       d="m 162.6555,188.91267 c 0,-0.15003 -0.52912,-1.35712 -0.78844,-1.79866 -0.17325,-0.29502 -0.34986,-0.45992 -0.5777,-0.5394 -0.40599,-0.14164 -1.09829,-0.25276 -1.09829,-0.17628 0,0.0311 0.18977,0.36953 0.42172,0.75198 0.29109,0.48 0.61056,0.84537 1.03147,1.17967 0.65335,0.51892 1.01124,0.72514 1.01124,0.58269 z"
       id="path2879" />
    <path
       style="fill:none;stroke:#000000;stroke-width:0.0951077"
       d="m 162.45013,188.66703 c 0,-0.13124 -0.51964,-1.22148 -0.74763,-1.56856 -0.18565,-0.28263 -0.3327,-0.38131 -0.74309,-0.49868 -0.2814,-0.0805 -0.5262,-0.13404 -0.54403,-0.11902 -0.0998,0.0841 0.69425,1.20079 1.14366,1.60844 0.51646,0.46849 0.89109,0.71141 0.89109,0.57782 z"
       id="path2887" />
    <path
       style="fill:none;stroke:#000000;stroke-width:0.0951077"
       d="m 162.06209,187.20505 c 0.23505,-0.15245 0.32065,-0.1651 0.5391,-0.0797 0.14282,0.0558 0.25968,0.067 0.25968,0.0247 0,-0.23286 -0.73228,-0.23811 -0.97608,-0.007 -0.25856,0.24511 -0.15879,0.28 0.1773,0.062 z"
       id="path2889" />
    <path
       style="fill:none;stroke:#000000;stroke-width:0.0951077"
       d="m 162.24246,188.41568 c -9.7e-4,-0.0462 -0.13886,-0.3218 -0.30576,-0.61248 -0.34628,-0.60314 -0.36998,-0.69992 -0.15402,-0.62883 0.0847,0.0279 0.15402,0.0166 0.15402,-0.0252 0,-0.0633 -0.15765,-0.15048 -0.41073,-0.22725 -0.0282,-0.009 -0.22962,-0.0837 -0.44751,-0.16692 -0.21789,-0.0832 -0.42059,-0.13039 -0.45046,-0.10476 -0.0881,0.0755 0.75159,1.12464 1.20185,1.50182 0.2282,0.19116 0.41387,0.30978 0.41261,0.26361 z"
       id="path2977" />
    <path
       style="fill:none;stroke:#000000;stroke-width:0.0951077"
       d="m 161.79594,187.82521 c -0.0304,-0.0606 -0.1112,-0.27237 -0.17957,-0.47068 -0.0944,-0.27352 -0.19922,-0.3848 -0.43435,-0.46094 -0.17047,-0.0552 -0.32567,-0.0869 -0.34487,-0.0704 -0.0454,0.039 0.87503,1.11216 0.95387,1.11216 0.033,0 0.0353,-0.0495 0.005,-0.11011 z"
       id="path2981" />
    <path
       style="fill:none;stroke:#000000;stroke-width:0.0951077"
       d="m 161.83403,187.31107 c 0,-0.0443 -0.0831,-0.0805 -0.18485,-0.0805 -0.10169,0 -0.24605,-0.0495 -0.32088,-0.1101 -0.1096,-0.0887 -0.12728,-0.0854 -0.091,0.0172 0.0503,0.14169 0.59658,0.30045 0.59658,0.17336 z"
       id="path2985" />
    <path
       style="fill:none;stroke:#000000;stroke-width:0.0951077"
       d="m 161.52597,186.88767 c 0,-0.0433 -0.0732,-0.10273 -0.16243,-0.13214 -0.28056,-0.0924 -0.37157,-0.0585 -0.21163,0.0787 0.17062,0.14637 0.37406,0.17546 0.37406,0.0535 z"
       id="path2987" />
    <path
       style="fill:#ffffff;stroke:#000000;stroke-width:0.0951077"
       d="m 160.39644,185.71433 c 0,-0.0451 -0.0652,-0.13785 -0.14487,-0.2062 -0.0796,-0.0684 -0.16229,-0.16915 -0.18361,-0.22399 -0.0213,-0.0549 -0.11097,-0.0853 -0.19936,-0.0677 -0.12157,0.0243 -0.0769,0.0987 0.18361,0.30593 0.18932,0.15061 0.34423,0.23696 0.34423,0.1919 z"
       id="path2993" />
    <path
       id="path3099"
       style="fill:#ffffff;stroke:#000000;stroke-width:0.280955"
       d="m 162.86114,188.55206 a 1.4889262,1.6737118 0 0 1 1.48884,1.67366 1.4889262,1.6737118 0 0 1 -1.48884,1.67366 1.4889262,1.6737118 0 0 1 -1.48944,-1.67366 1.4889262,1.6737118 0 0 1 1.48944,-1.67366 z" />
    <ellipse
       style="fill:#ffffff;stroke:#000000;stroke-width:0.280955"
       id="path3101"
       cx="-159.36961"
       cy="186.43781"
       rx="1.6942953"
       ry="0.96899104"
       transform="scale(-1,1)" />
    <path
       id="rect3215"
       style="fill:#0000ff;stroke:#000000;stroke-width:0.219383"
       d="m 175.16452,201.4672 v 39.1694 h -15.8793 v -39.1694 z" />
    <path
       id="rect4554"
       style="fill:#800080;fill-opacity:1;stroke:#000000;stroke-width:0.55773;stroke-dasharray:none;stroke-opacity:1"
       d="m 172.83816,239.234 v 49.00013 h -12.84841 c 0.0985,-1.69457 0.24036,-3.38752 0.36023,-5.08132 0.19451,-2.74146 0.27653,-5.48683 0.33887,-8.23171 0.0323,-2.91874 0.0868,-5.8373 0.15523,-8.75565 0.0662,-2.6893 0.10271,-5.37925 0.12856,-8.06896 0.0161,-1.76173 0.0243,-3.52311 0.0296,-5.28491 9.7e-4,-0.33829 -0.0832,-0.60997 -0.21862,-0.81846 v -1.58321 -4.61886 -5.51485 -1.0422 z" />
    <path
       id="path4981-5"
       style="fill:url(#linearGradient8929);fill-opacity:1;stroke:#f4e3d7;stroke-width:0.281397;stroke-dasharray:none;stroke-opacity:1"
       d="m 145.05577,229.5523 a 7.1879192,4.1402345 0 0 1 7.18826,4.14022 7.1879192,4.1402345 0 0 1 -7.18826,4.1402 7.1879192,4.1402345 0 0 1 -7.18767,-4.1402 7.1879192,4.1402345 0 0 1 7.18767,-4.14022 z" />
    <path
       id="path5293"
       style="fill:#000000;fill-opacity:1;stroke:#000000;stroke-width:0.281397;stroke-dasharray:none;stroke-opacity:1"
       d="m 163.78481,246.12162 0.67895,0.74561 c -0.0114,-0.008 -0.024,-0.0161 -0.0379,-0.0265 -0.0593,-0.0438 -0.14444,-0.11683 -0.18722,-0.15959 -0.0428,-0.0428 -0.0428,-0.0575 -0.0604,-0.0737 -0.0178,-0.0162 -0.0521,-0.031 -0.11967,-0.0966 -0.0676,-0.0656 -0.17066,-0.18334 -0.22218,-0.25564 -0.0515,-0.0723 -0.0516,-0.10171 -0.0516,-0.13367 z m 0.67895,0.74561 c 0.0367,0.0244 0.06,0.0358 0.0734,0.0483 0.0178,0.0162 0.0179,0.0312 0.0522,0.0666 0.0342,0.0354 0.10261,0.0938 0.1884,0.18959 0.0857,0.0957 0.18867,0.2283 0.29089,0.35984 z" />
    <path
       id="path5297"
       style="fill:#000000;fill-opacity:1;stroke:#000000;stroke-width:0.281397;stroke-dasharray:none;stroke-opacity:1"
       d="m 161.93634,243.30287 c 0.0348,0.0598 0.0693,0.1186 0.12916,0.21396 0.0598,0.0954 0.14532,0.22769 0.18782,0.31665 0.0425,0.089 0.0425,0.13262 0.077,0.23481 0.0345,0.10218 0.10341,0.26383 0.17121,0.42389 z" />
    <path
       id="path5301"
       style="fill:#000000;fill-opacity:1;stroke:#000000;stroke-width:0.281397;stroke-dasharray:none;stroke-opacity:1"
       d="m 161.16674,240.7484 0.0509,0.8808 z" />
    <path
       id="path5325"
       style="fill:#000000;fill-opacity:1;stroke:#000000;stroke-width:0.281397;stroke-dasharray:none;stroke-opacity:1"
       d="m 169.02211,240.1756 -0.88986,0.005 c 0.22283,-0.005 0.55442,-0.005 0.88986,-0.005 z m -0.88986,0.005 c -0.0521,9.8e-4 -0.10009,0.002 -0.13863,0.004 -0.20387,0.009 -0.20398,0.0233 -0.33414,0.0666 -0.13019,0.0433 -0.38661,0.11679 -0.54033,0.15298 -0.15373,0.0362 -0.20508,0.0369 -0.30808,0.0595 -0.10295,0.0225 -0.25757,0.0664 -0.3685,0.0879 -0.11098,0.0215 -0.17939,0.0218 -0.22217,0.0305 -0.0428,0.009 -0.0594,0.0234 -0.0936,0.0295 -0.0343,0.006 -0.0861,0.006 -0.12916,0.0143 -0.0431,0.008 -0.0772,0.0229 -0.13686,0.0295 -0.0596,0.007 -0.14527,0.006 -0.24824,0.0213 -0.10294,0.0151 -0.22234,0.0448 -0.49589,0.0589 -0.27352,0.0143 -0.70136,0.0136 -1.02612,-0.008 -0.32477,-0.0222 -0.5472,-0.0662 -0.73525,-0.11029 -0.18804,-0.0441 -0.3422,-0.0882 -0.56519,-0.11741 -0.22301,-0.0292 -0.51411,-0.0438 -0.85611,-0.0879 -0.34198,-0.0442 -0.73551,-0.11759 -1.12684,-0.19059 z" />
    <path
       id="path5329"
       style="fill:#000000;fill-opacity:1;stroke:#000000;stroke-width:0.283727;stroke-dasharray:none;stroke-opacity:1"
       d="m 172.0047,276.04969 -0.36317,1.13986 c 0,-0.16622 2.3e-4,-0.3349 0.0178,-0.46659 0.0175,-0.13168 0.0535,-0.22637 0.0722,-0.2847 0.0188,-0.0583 0.0186,-0.0795 0.0349,-0.0961 0.0163,-0.0166 0.053,-0.0271 0.0782,-0.0419 0.0251,-0.0148 0.0368,-0.0363 0.061,-0.0785 0.0242,-0.0422 0.0608,-0.10557 0.0989,-0.17207 z" />
    <path
       id="path5629"
       style="fill:#ff00ff;fill-opacity:1;stroke:#ff00ff;stroke-width:0.283727;stroke-dasharray:none;stroke-opacity:1"
       d="m 169.54527,259.57102 c 0.0732,0.24459 0.14586,0.48736 0.18189,0.66191 0.036,0.17455 0.0361,0.28016 0.0361,0.44903 v 0.59112 c 0,0.18996 2e-5,0.33802 0.0184,0.51722 0.0184,0.1792 0.0547,0.39022 0.0788,0.72288 0.0241,0.33265 0.036,0.78627 0.048,1.23751 z" />
    <path
       id="path5637"
       style="fill:#ff00ff;fill-opacity:1;stroke:#ff00ff;stroke-width:0.281397;stroke-dasharray:none;stroke-opacity:1"
       d="m 171.11735,264.00691 v 1.2691 c 0,0.35298 -2.6e-4,0.60203 -0.007,0.77864 -0.006,0.17661 -0.0186,0.28038 -0.0309,0.35831 -0.0123,0.078 -0.024,0.13006 -0.0296,0.19213 -0.006,0.0621 -0.006,0.13489 -0.0125,0.18703 -0.007,0.0521 -0.0188,0.0831 -0.0243,0.12962 -0.006,0.0464 -0.006,0.10871 -0.0184,0.17126 -0.007,0.032 -0.0156,0.064 -0.0273,0.10267 z m -0.14929,3.18876 -0.17774,3.78748 c -0.0721,-0.30943 -0.14463,-0.62094 -0.19906,-0.8442 -0.0545,-0.22326 -0.0906,-0.35797 -0.10903,-0.51333 -0.0185,-0.15537 -0.0184,-0.3319 -0.0184,-0.47725 0,-0.14535 -7e-5,-0.25978 0.0114,-0.34256 0.0114,-0.0827 0.0352,-0.13457 0.048,-0.17637 0.0129,-0.0418 0.0132,-0.0731 0.0303,-0.11434 0.0171,-0.0413 0.053,-0.0929 0.0724,-0.13978 0.0193,-0.0469 0.0196,-0.0888 0.0309,-0.13011 0.0115,-0.0413 0.0352,-0.0827 0.0539,-0.13468 0.0188,-0.052 0.0309,-0.11429 0.0486,-0.17129 0.0176,-0.0571 0.0422,-0.10895 0.0729,-0.21803 0.0306,-0.10908 0.0666,-0.27519 0.0966,-0.38933 0.0147,-0.0559 0.0284,-0.0991 0.0397,-0.13621 z" />
    <path
       id="path5641"
       style="fill:#ff00ff;fill-opacity:1;stroke:#ff00ff;stroke-width:0.281397;stroke-dasharray:none;stroke-opacity:1"
       d="m 170.81504,254.39046 -0.14515,6.7587 c -0.0842,-0.2371 -0.16875,-0.47608 -0.22928,-0.65766 -0.0605,-0.1816 -0.0966,-0.30627 -0.11495,-0.45642 -0.0185,-0.15015 -0.0189,-0.32646 -0.0309,-0.47725 -0.0119,-0.15077 -0.0357,-0.27515 -0.048,-0.39947 -0.0123,-0.12434 -0.0124,-0.24908 -0.0124,-0.46709 v -0.83047 c 0,-0.30107 1.7e-4,-0.59182 0.0178,-0.78881 0.0176,-0.197 0.0537,-0.30087 0.0842,-0.42032 0.0305,-0.11948 0.0546,-0.25423 0.067,-0.3634 0.0124,-0.10918 0.0124,-0.19221 0.0421,-0.32173 0.0297,-0.12952 0.0905,-0.30638 0.14515,-0.50368 0.0547,-0.1973 0.10284,-0.41497 0.13922,-0.59668 0.0363,-0.18173 0.0607,-0.32747 0.0853,-0.47572 z" />
    <path
       id="path5649"
       style="fill:#ff00ff;fill-opacity:1;stroke:#ff00ff;stroke-width:0.283727;stroke-dasharray:none;stroke-opacity:1"
       d="m 171.48578,282.71945 0.35961,4.11973 c -0.0508,-0.0885 -0.10192,-0.17769 -0.1961,-0.34929 -0.0942,-0.17162 -0.23109,-0.42536 -0.32525,-0.63401 -0.0942,-0.20864 -0.14533,-0.37281 -0.18839,-0.47072 -0.0431,-0.0979 -0.0777,-0.12804 -0.0948,-0.15656 -0.0171,-0.0285 -0.0167,-0.0584 -0.0421,-0.11885 -0.0253,-0.0605 -0.0771,-0.14985 -0.10306,-0.34309 -0.026,-0.19325 -0.0254,-0.49186 0.0166,-0.73787 0.0421,-0.24599 0.12761,-0.44035 0.19551,-0.56734 0.0678,-0.127 0.11879,-0.18626 0.14573,-0.22374 0.0269,-0.0375 0.0273,-0.0528 0.0349,-0.0749 0.008,-0.0221 0.0247,-0.0521 0.0497,-0.0822 0.0251,-0.0301 0.059,-0.0598 0.0858,-0.11936 0.0269,-0.0595 0.0439,-0.14926 0.0615,-0.24182 z" />
    <path
       id="path5653"
       style="fill:#ff00ff;fill-opacity:1;stroke:#ff00ff;stroke-width:0.281397;stroke-dasharray:none;stroke-opacity:1"
       d="m 170.81876,265.93319 v 4.40449 c -0.18764,-0.33657 -0.37598,-0.6743 -0.47871,-0.87217 -0.10272,-0.19784 -0.11945,-0.2565 -0.14514,-0.30851 -0.0256,-0.052 -0.0604,-0.0957 -0.0694,-0.32221 -0.009,-0.22654 0.008,-0.63805 0.0593,-0.95348 0.0508,-0.31545 0.13667,-0.53557 0.21388,-0.77052 0.0771,-0.23495 0.14551,-0.4844 0.1961,-0.63124 0.0505,-0.14684 0.0849,-0.19092 0.11968,-0.26429 0.0348,-0.0734 0.069,-0.17622 0.10421,-0.28207 z" />
    <path
       id="path5657"
       style="fill:#ff00ff;fill-opacity:1;stroke:#ff00ff;stroke-width:0.281397;stroke-dasharray:none;stroke-opacity:1"
       d="m 170.92125,264.96445 0.15404,5.63802 c -0.10445,-0.0299 -0.20713,-0.0595 -0.29149,-0.13214 -0.0844,-0.0726 -0.15246,-0.19028 -0.22099,-0.29326 -0.0686,-0.10299 -0.13715,-0.19079 -0.19728,-0.25718 -0.0602,-0.0664 -0.11178,-0.11073 -0.14575,-0.154 -0.034,-0.0433 -0.051,-0.0871 -0.077,-0.12451 -0.026,-0.0375 -0.06,-0.067 -0.077,-0.095 -0.0171,-0.028 -0.0172,-0.0573 -0.0255,-0.0874 -0.008,-0.0301 -0.0252,-0.0598 -0.0427,-0.0823 -0.0174,-0.0225 -0.0347,-0.0371 -0.0433,-0.065 -0.008,-0.028 -0.008,-0.072 -0.0172,-0.10266 -0.009,-0.0307 -0.0255,-0.0454 -0.0255,-0.2643 -5e-5,-0.21889 0.0171,-0.64464 0.0421,-0.89401 0.025,-0.24936 0.0591,-0.32298 0.077,-0.38932 0.0179,-0.0664 0.0178,-0.1248 0.0344,-0.20533 0.0166,-0.0806 0.0511,-0.1833 0.0687,-0.26429 0.0176,-0.0811 0.0175,-0.13973 0.0338,-0.19821 0.0162,-0.0585 0.0504,-0.11752 0.11074,-0.27904 0.0603,-0.16152 0.14599,-0.42561 0.25713,-0.73391 0.11109,-0.3083 0.24757,-0.66052 0.38569,-1.016 z" />
    <path
       id="path5661"
       style="fill:#ff00ff;fill-opacity:1;stroke:#ff00ff;stroke-width:0.283727;stroke-dasharray:none;stroke-opacity:1"
       d="m 169.67244,278.85751 c 0.0129,0.002 0.0311,0.0298 0.058,0.0791 0.0616,0.11263 0.16472,0.33675 0.24172,0.50844 0.077,0.1717 0.12808,0.29125 0.15344,0.39631 0.0254,0.10509 0.0253,0.19458 0.0427,0.29866 0.0174,0.10411 0.0519,0.22313 0.0687,0.29815 0.0168,0.075 0.0166,0.10527 0.0331,0.12608 0.0165,0.0208 0.051,0.0354 0.0687,0.11161 0.0178,0.0762 0.0178,0.21064 0.0266,0.29193 0.009,0.0813 0.0255,0.11119 0.0339,0.33587 0.008,0.22468 0.008,0.64269 -0.0273,0.88151 -0.0358,0.23882 -0.10445,0.29877 -0.18069,0.31208 -0.0763,0.0133 -0.16181,-0.0169 -0.20381,-0.0315 -0.042,-0.0147 -0.0421,-0.0145 -0.0503,-0.0434 -0.008,-0.0289 -0.025,-0.0887 -0.0339,-0.14054 -0.009,-0.0518 -0.009,-0.0968 -0.0344,-0.17207 -0.0254,-0.0753 -0.0767,-0.17977 -0.11967,-0.36583 -0.043,-0.18604 -0.0769,-0.4546 -0.0943,-0.71563 -0.0173,-0.26105 -0.0178,-0.51496 -0.0178,-0.72392 v -0.61178 c 0,-0.23883 7e-5,-0.55244 0.007,-0.71048 0.004,-0.0889 0.0115,-0.12756 0.0279,-0.12453 z" />
    <path
       id="path5665"
       style="fill:#ff00ff;fill-opacity:1;stroke:#ff00ff;stroke-width:0.281397;stroke-dasharray:none;stroke-opacity:1"
       d="m 170.96687,264.35303 c 0.007,3.7e-4 0.0144,0.002 0.0224,0.004 0.0858,0.0205 0.24001,0.13755 0.36021,0.29987 0.1202,0.16231 0.20577,0.36828 0.24825,0.58907 0.0424,0.22078 0.0427,0.45562 0.0325,0.58042 -0.0104,0.1248 -0.0272,0.1394 -0.0433,0.17637 -0.0161,0.037 -0.0334,0.0957 -0.0516,0.12349 -0.0182,0.0278 -0.0353,0.0277 -0.061,0.0437 -0.0257,0.016 -0.0601,0.0453 -0.16294,0.0737 -0.10295,0.0284 -0.27382,0.0578 -0.39338,0.0722 -0.11956,0.0144 -0.18829,0.0138 -0.22099,0.008 -0.0327,-0.006 -0.0327,-0.0204 -0.0497,-0.0437 -0.0171,-0.0233 -0.051,-0.0529 -0.0681,-0.11028 -0.0171,-0.0574 -0.0172,-0.14564 -0.0255,-0.22668 -0.008,-0.081 -0.0255,-0.15442 -0.0343,-0.19213 -0.009,-0.0377 -0.009,-0.0375 -6e-4,-0.0727 0.008,-0.0352 0.0254,-0.10885 0.0343,-0.18246 0.009,-0.0736 0.009,-0.14692 0.0427,-0.28614 0.0337,-0.13922 0.10215,-0.34502 0.14398,-0.45539 0.0417,-0.11036 0.0585,-0.12464 0.0687,-0.154 0.0104,-0.0294 0.0104,-0.0738 0.0172,-0.0971 0.007,-0.0233 0.0244,-0.0232 0.0427,-0.0584 0.0165,-0.0319 0.0316,-0.0951 0.0984,-0.0915 z" />
    <path
       id="path5673"
       style="fill:#ff00ff;fill-opacity:1;stroke:#ff00ff;stroke-width:0.281397;stroke-dasharray:none;stroke-opacity:1"
       d="m 171.127,272.52186 0.5646,5.28581 c -0.54865,-0.26476 -1.09622,-0.5294 -1.38633,-0.69732 -0.29015,-0.16792 -0.3247,-0.2412 -0.37622,-0.31512 -0.0515,-0.074 -0.11981,-0.14707 -0.17122,-0.43964 -0.0514,-0.29256 -0.0855,-0.80638 -0.0776,-1.1217 0.008,-0.3153 0.0591,-0.43282 0.11908,-0.5723 0.06,-0.13946 0.12796,-0.3013 0.2044,-0.43353 0.0764,-0.13221 0.16251,-0.23469 0.21447,-0.30799 0.052,-0.0733 0.0688,-0.11755 0.0936,-0.15452 0.0248,-0.037 0.059,-0.0663 0.0776,-0.0955 0.0186,-0.0294 0.0188,-0.0587 0.0433,-0.10266 0.0244,-0.0439 0.0758,-0.10267 0.14456,-0.20534 0.0688,-0.10266 0.15428,-0.24958 0.24824,-0.39644 0.094,-0.14684 0.19673,-0.29382 0.30157,-0.4437 z" />
    <path
       id="path5681"
       style="fill:#ff00ff;fill-opacity:1;stroke:#ff00ff;stroke-width:0.281397;stroke-dasharray:none;stroke-opacity:1"
       d="m 167.06026,248.6136 0.82233,0.75119 c -0.0707,-0.0345 -0.13831,-0.0684 -0.19372,-0.0976 -0.15695,-0.0829 -0.2298,-0.13463 -0.2838,-0.1911 -0.054,-0.0565 -0.0902,-0.11898 -0.12678,-0.16621 -0.0366,-0.0472 -0.0731,-0.0783 -0.10903,-0.12451 -0.036,-0.0462 -0.0721,-0.10847 -0.10903,-0.17179 z m 0.82233,0.75119 c 0.12963,0.0633 0.27351,0.13047 0.39871,0.18755 0.19357,0.0882 0.33873,0.15085 0.41829,0.19313 0.0796,0.0423 0.0918,0.0627 0.13983,0.10369 0.048,0.0409 0.13233,0.10351 0.18721,0.15603 0.0549,0.0525 0.0794,0.0939 0.16352,0.15553 0.084,0.0616 0.22885,0.1447 0.44612,0.22769 0.21726,0.083 0.50792,0.16579 0.70798,0.23329 0.20007,0.0675 0.30889,0.11967 0.37444,0.14587 0.0656,0.0262 0.0896,0.0261 0.12145,0.0417 0.0318,0.0155 0.0685,0.0467 0.12263,0.0828 0.0541,0.0361 0.12671,0.0776 0.19906,0.11386 0.0724,0.0363 0.145,0.0677 0.29683,0.17686 0.15183,0.10923 0.38171,0.29611 0.52729,0.44725 0.14557,0.15117 0.20619,0.26495 0.29089,0.46761 0.0847,0.20265 0.19349,0.49361 0.24765,0.66021 0.0541,0.16661 0.0539,0.20804 0.0664,0.25413 0.0124,0.0461 0.0366,0.098 0.0545,0.22312 0.0179,0.12512 0.0302,0.3226 0.0421,0.51739 z" />
    <path
       id="path5689"
       style="fill:#ff00ff;fill-opacity:1;stroke:#ff00ff;stroke-width:0.281397;stroke-dasharray:none;stroke-opacity:1"
       d="m 168.03686,241.11535 -0.14575,6.82073 c -0.0962,-0.21661 -0.19283,-0.43485 -0.25948,-0.63177 -0.0666,-0.19691 -0.10307,-0.37356 -0.12146,-0.58093 -0.0183,-0.20736 -0.0179,-0.44597 -0.0237,-0.5916 -0.006,-0.14562 -0.018,-0.19741 -0.0243,-0.34764 -0.007,-0.15023 -0.007,-0.39926 -0.007,-0.65361 0,-0.25435 3.4e-4,-0.51434 0.0301,-0.76848 0.0299,-0.25414 0.0902,-0.50289 0.12086,-0.65361 0.0306,-0.15072 0.0303,-0.20282 0.048,-0.28563 0.0176,-0.0828 0.0542,-0.19723 0.0847,-0.33748 0.0305,-0.14025 0.0547,-0.30596 0.0847,-0.45641 0.03,-0.15046 0.0662,-0.28551 0.0847,-0.37915 0.0186,-0.0936 0.0188,-0.14577 0.0367,-0.32732 0.018,-0.18153 0.0546,-0.49281 0.0913,-0.8071 z" />
    <path
       id="path5693"
       style="fill:#ff00ff;fill-opacity:1;stroke:#ff00ff;stroke-width:0.281397;stroke-dasharray:none;stroke-opacity:1"
       d="m 172.14812,239.6639 v 5.1e-4 c 0.0561,-0.005 0.34659,0.431 0.34659,0.431 l -2.28748,-0.37356 h 1.01369 c 0.26623,0 0.42322,-5e-4 0.51366,-0.005 0.0905,-0.004 0.11518,-0.0149 0.18188,-0.026 0.0668,-0.011 0.17554,-0.0215 0.23166,-0.027 z" />
    <path
       id="path6258"
       style="fill:#000080;fill-opacity:1;stroke:#000080;stroke-width:0.281397;stroke-dasharray:none;stroke-opacity:1"
       d="m 172.31328,219.23486 c 0.0471,0.0203 0.0958,0.0412 0.14337,0.0518 0.0474,0.0106 0.0957,0.0104 0.12144,0.0326 0.0256,0.022 0.0256,0.0639 0.0492,0.0935 0.0236,0.0296 0.0719,0.0501 0.1333,0.1235 0.0615,0.0735 0.13403,0.1982 0.17003,0.47928 0.036,0.28109 0.0366,0.71706 -0.0486,1.24674 -0.0538,0.33423 -0.14034,0.69845 -0.21861,1.01039 z m 0.35014,3.03782 0.9568,8.29872 c -0.19315,-0.24856 -0.38645,-0.49734 -0.49528,-0.65261 -0.1088,-0.15524 -0.13342,-0.21749 -0.18249,-0.27038 -0.0491,-0.0529 -0.12146,-0.0948 -0.20557,-0.17738 -0.0842,-0.0825 -0.18123,-0.20712 -0.22987,-0.2892 -0.0486,-0.082 -0.0486,-0.12333 -0.0735,-0.15602 -0.0249,-0.0328 -0.0727,-0.0536 -0.205,-0.18805 -0.13231,-0.13449 -0.35067,-0.38353 -0.47159,-0.54891 -0.12092,-0.1654 -0.14502,-0.24845 -0.18128,-0.3319 -0.0362,-0.0834 -0.0847,-0.16632 -0.13331,-0.38372 -0.0485,-0.2174 -0.0966,-0.57061 -0.12086,-0.82997 -0.0244,-0.25938 -0.0249,-0.42548 -0.0142,-0.51893 0.0104,-0.0934 0.0347,-0.11428 0.0598,-0.15553 0.0251,-0.0412 0.0495,-0.10364 0.0622,-0.16619 0.0127,-0.0626 0.0127,-0.12453 0.0604,-0.25922 0.0477,-0.13468 0.14476,-0.34221 0.26601,-0.67444 0.12126,-0.33225 0.26619,-0.78924 0.38687,-1.11103 0.1207,-0.3218 0.2174,-0.50865 0.26663,-0.62311 0.0492,-0.11449 0.0496,-0.15594 0.13387,-0.48793 0.0311,-0.1225 0.0745,-0.29178 0.12028,-0.4742 z" />
    <path
       id="path6266"
       style="fill:#000080;fill-opacity:1;stroke:#000080;stroke-width:0.281397;stroke-dasharray:none;stroke-opacity:1"
       d="m 173.54153,213.17032 -2.97648,6.16662 c 0.38602,-0.99351 0.77287,-1.99028 1.11144,-2.74813 0.33857,-0.75784 0.62941,-1.27707 0.8715,-1.72347 0.24208,-0.4464 0.43551,-0.82002 0.56818,-1.04852 0.13265,-0.22852 0.20512,-0.31146 0.266,-0.3944 0.0609,-0.0829 0.10914,-0.16591 0.15936,-0.2521 z" />
    <path
       id="path6274"
       style="fill:#000080;fill-opacity:1;stroke:#000080;stroke-width:0.281397;stroke-dasharray:none;stroke-opacity:1"
       d="m 174.23297,202.20665 c 0.0983,5.3e-4 0.19095,0.008 0.26719,0.0244 0.24401,0.0523 0.31607,0.19746 0.38806,0.34155 l -6.46192,3.36359 c 0.31129,-0.20541 0.62611,-0.41304 0.80752,-0.52756 0.18141,-0.11453 0.23,-0.13532 0.2672,-0.16568 0.0372,-0.0304 0.0609,-0.072 0.10845,-0.10421 0.0474,-0.0322 0.12048,-0.0529 0.21743,-0.10418 0.097,-0.0512 0.21787,-0.13421 0.30274,-0.17687 0.0849,-0.0427 0.13306,-0.0428 0.29031,-0.14537 0.15725,-0.10257 0.42377,-0.31024 0.59305,-0.43507 0.16927,-0.12481 0.24165,-0.16637 0.29091,-0.20737 0.0493,-0.041 0.0736,-0.0824 0.0971,-0.10468 0.0236,-0.0223 0.0477,-0.0221 0.205,-0.14536 0.15726,-0.12328 0.44755,-0.37282 0.60548,-0.51792 0.15792,-0.1451 0.18256,-0.18657 0.20618,-0.20888 0.0236,-0.0223 0.0474,-0.0219 0.19254,-0.12451 0.14513,-0.10259 0.41161,-0.31053 0.56935,-0.44525 0.15774,-0.1347 0.20603,-0.19681 0.43546,-0.25005 0.15773,-0.0366 0.40168,-0.0678 0.61794,-0.0666 z" />
    <path
       id="path6278"
       style="fill:#000080;fill-opacity:1;stroke:#000080;stroke-width:0.281397;stroke-dasharray:none;stroke-opacity:1"
       d="m 174.42322,206.24695 -2.75905,5.91756 c 0.0483,-1.18079 0.0966,-2.36435 0.16766,-2.99767 0.0712,-0.63331 0.16793,-0.71628 0.27727,-0.84064 0.10925,-0.12436 0.23037,-0.29045 0.33888,-0.41523 0.10846,-0.12481 0.20551,-0.20792 0.38746,-0.43609 0.18195,-0.22816 0.44799,-0.60171 0.64104,-0.83049 0.19304,-0.22877 0.31437,-0.31208 0.45975,-0.35475 0.14536,-0.0427 0.31454,-0.0427 0.48699,-0.0427 z" />
    <path
       id="rect4681-1-8-7-6"
       style="fill:#0000ff;fill-opacity:1;stroke:#000000;stroke-width:0.333629;stroke-dasharray:none;stroke-opacity:1"
       inkscape:transform-center-x="-1.8927262"
       inkscape:transform-center-y="-0.23138584"
       d="m 152.85905,235.04042 17.80534,-17.81828 -6.98407,-5.76446 -17.80581,17.81795 z" />
    <path
       id="path6258-9"
       style="fill:#000080;fill-opacity:1;stroke:#000080;stroke-width:0.281397;stroke-dasharray:none;stroke-opacity:1"
       d="m 168.83391,216.81344 c 0.0104,0.045 0.0211,0.0914 0.0404,0.13067 0.0194,0.0393 0.049,0.0725 0.0445,0.10381 -0.005,0.0312 -0.0424,0.0567 -0.0549,0.091 -0.0125,0.0344 -9.7e-4,0.0803 -0.0309,0.16747 -0.0292,0.0873 -0.0982,0.21355 -0.3316,0.40994 -0.23338,0.1964 -0.62904,0.46282 -1.16217,0.72717 -0.33643,0.1668 -0.72008,0.32923 -1.0512,0.4655 z m -2.54581,2.09562 -6.95444,5.725 c 0.10788,-0.28512 0.21595,-0.57049 0.29057,-0.74043 0.0746,-0.16991 0.11616,-0.22491 0.13427,-0.29109 0.0181,-0.0662 0.012,-0.14176 0.0356,-0.25028 0.0236,-0.10847 0.0776,-0.25161 0.12243,-0.3353 0.0448,-0.0836 0.0824,-0.10884 0.0969,-0.14598 0.0146,-0.0372 0.005,-0.0829 0.0458,-0.2564 0.0414,-0.17349 0.13441,-0.47632 0.21085,-0.6608 0.0764,-0.18448 0.13719,-0.2518 0.19087,-0.32778 0.0536,-0.0759 0.0994,-0.16004 0.26721,-0.32626 0.1679,-0.16618 0.45942,-0.41488 0.68017,-0.58996 0.22071,-0.17515 0.37131,-0.27682 0.46272,-0.32649 0.0912,-0.0499 0.12498,-0.0457 0.17778,-0.0536 0.0527,-0.008 0.12437,-0.029 0.18896,-0.0584 0.0646,-0.0294 0.12087,-0.0672 0.27233,-0.11642 0.15144,-0.0492 0.39918,-0.1088 0.77496,-0.22775 0.37579,-0.11894 0.87934,-0.29767 1.2453,-0.41063 0.36596,-0.11297 0.59469,-0.16016 0.72871,-0.196 0.13399,-0.0359 0.17194,-0.0609 0.52491,-0.20523 0.13023,-0.0533 0.31051,-0.12654 0.50414,-0.20624 z" />
    <path
       style="fill:#000000;stroke:#000000;stroke-width:0.283727"
       d="m 159.11276,197.37245 c -0.3453,0 -0.68758,0 -1.09791,-0.06 -0.41033,-0.06 -0.88953,-0.1794 -1.50602,-0.23882 -0.61649,-0.0594 -1.36951,-0.0594 -1.77891,-0.0894 -0.40941,-0.03 -0.47789,-0.0897 -0.54593,-0.1491"
       id="path12391"
       inkscape:path-effect="#path-effect12393"
       inkscape:original-d="m 159.11276,197.37245 c -0.3453,0.003 -0.68758,0.003 -1.02682,0 -0.48222,-0.11676 -0.96142,-0.23618 -1.43757,-0.35823 -0.75603,0.003 -1.50905,0.003 -2.25902,0 -0.0714,-0.0571 -0.13995,-0.11676 -0.20536,-0.17912" />
  </g>
</svg>
