<?xml version="1.0" encoding="UTF-8" standalone="no"?>
<!-- Created with Inkscape (http://www.inkscape.org/) -->

<svg
   width="210mm"
   height="297mm"
   viewBox="0 0 210 297"
   version="1.1"
   id="svg14822"
   inkscape:version="1.2.2 (732a01da63, 2022-12-09)"
   sodipodi:docname="forward_crowbar.svg"
   xmlns:inkscape="http://www.inkscape.org/namespaces/inkscape"
   xmlns:sodipodi="http://sodipodi.sourceforge.net/DTD/sodipodi-0.dtd"
   xmlns:xlink="http://www.w3.org/1999/xlink"
   xmlns="http://www.w3.org/2000/svg"
   xmlns:svg="http://www.w3.org/2000/svg">
  <sodipodi:namedview
     id="namedview14824"
     pagecolor="#505050"
     bordercolor="#eeeeee"
     borderopacity="1"
     inkscape:showpageshadow="0"
     inkscape:pageopacity="0"
     inkscape:pagecheckerboard="0"
     inkscape:deskcolor="#505050"
     inkscape:document-units="mm"
     showgrid="false"
     inkscape:zoom="2.0888418"
     inkscape:cx="450.48887"
     inkscape:cy="754.48508"
     inkscape:window-width="1920"
     inkscape:window-height="1009"
     inkscape:window-x="-8"
     inkscape:window-y="-8"
     inkscape:window-maximized="1"
     inkscape:current-layer="layer1" />
  <defs
     id="defs14819">
    <inkscape:path-effect
       effect="bspline"
       id="path-effect2721-8"
       is_visible="true"
       lpeversion="1"
       weight="33.333333"
       steps="2"
       helper_size="0"
       apply_no_weight="true"
       apply_with_weight="true"
       only_selected="false" />
    <linearGradient
       inkscape:collect="always"
       xlink:href="#linearGradient8824"
       id="linearGradient8929"
       x1="139.00603"
       y1="137.75211"
       x2="139.90169"
       y2="140.61821"
       gradientUnits="userSpaceOnUse"
       gradientTransform="matrix(1.0000143,0,0,0.9836276,7.4087628,91.946719)" />
    <linearGradient
       inkscape:collect="always"
       id="linearGradient8824">
      <stop
         style="stop-color:#f4e3d7;stop-opacity:1;"
         offset="0"
         id="stop8820" />
      <stop
         style="stop-color:#e9c6af;stop-opacity:1"
         offset="1"
         id="stop8822" />
    </linearGradient>
    <inkscape:path-effect
       effect="bspline"
       id="path-effect12393"
       is_visible="true"
       lpeversion="1"
       weight="33.333333"
       steps="2"
       helper_size="0"
       apply_no_weight="true"
       apply_with_weight="true"
       only_selected="false" />
  </defs>
  <g
     inkscape:label="Layer 1"
     inkscape:groupmode="layer"
     id="layer1">
    <path
       id="path4653"
       style="fill:#000000;fill-opacity:1;stroke:#000000;stroke-width:0.408973;stroke-dasharray:none;stroke-opacity:1"
       d="m 118.85301,279.87889 a 8.3389257,3.3383762 2.6005321 0 0 7.81664,3.83342 8.3389257,3.3383762 2.6005321 0 0 8.81659,-2.79818 8.3389257,3.3383762 2.6005321 0 0 -7.81655,-3.83394 8.3389257,3.3383762 2.6005321 0 0 -8.81668,2.7987 z" />
    <path
       id="rect456"
       style="fill:#f4e3d7;stroke-width:0.184865"
       d="m 128.91166,173.18598 c 0.0885,0.19806 0.23076,0.36873 0.43318,0.46561 0.20421,0.0977 0.41061,0.17735 0.6135,0.28617 0.22866,0.13093 0.45976,0.24588 0.69531,0.31769 0.0203,0.008 0.0407,0.0169 0.061,0.0249 0.0476,0.0672 0.10194,0.13089 0.16337,0.1896 0.30231,0.28891 0.60292,0.59321 0.87459,0.98713 0.2539,0.34868 0.51072,0.70112 0.7266,1.14215 0.19491,0.43263 0.39739,0.86845 0.54014,1.37751 0.14015,0.51112 0.28572,1.01327 0.3583,1.58336 0.0983,0.64678 0.17448,1.30618 0.21261,1.97832 0.0331,0.76878 0.009,1.53834 -0.006,2.30821 -0.0222,0.9224 -0.0525,1.84396 -0.098,2.76314 -0.0233,0.66741 -0.0549,1.33514 -0.14671,1.98187 -0.0806,0.58964 -0.15535,1.18063 -0.19954,1.78618 -0.0448,0.4723 -0.0812,0.95217 -0.18543,1.39174 -0.12569,0.53981 -0.2667,1.07547 -0.46063,1.53253 -0.21112,0.44633 -0.45417,0.82954 -0.70608,1.18181 -0.24584,0.32423 -0.48666,0.6668 -0.69044,1.09387 -0.2297,0.36983 -0.45401,0.75067 -0.68736,1.11166 -0.17988,0.26592 -0.374,0.50555 -0.58964,0.63893 h -2.5e-4 c -0.42147,0.2607 -0.57102,0.80953 -0.50885,1.2301 h -13.94132 c -0.0568,-0.21043 -0.15631,-0.42451 -0.30623,-0.6181 -0.16141,-0.2084 -0.33029,-0.3935 -0.48475,-0.62216 -0.19491,-0.27263 -0.38364,-0.56113 -0.58041,-0.82854 -0.24053,-0.31163 -0.47645,-0.63585 -0.7112,-0.96425 -0.29561,-0.38026 -0.55058,-0.85573 -0.79508,-1.35463 -0.23914,-0.4929 -0.41094,-1.08068 -0.56553,-1.68604 -0.15539,-0.58443 -0.29107,-1.18279 -0.4096,-1.7994 -0.0864,-0.47004 -0.14151,-0.95776 -0.19698,-1.44459 -10e-4,-0.19402 -0.004,-0.38802 -0.005,-0.58201 -0.0192,-1.00596 0.0135,-2.00888 0.0516,-3.01119 0.0598,-1.35078 0.17296,-2.68652 0.29008,-4.02119 0.0826,-1.03675 0.22033,-2.04877 0.37266,-3.05237 0.12642,-0.79993 0.2998,-1.56409 0.47551,-2.32498 0.0365,-0.0498 0.0735,-0.10692 0.1108,-0.17231 0.17788,-0.31209 0.36693,-0.59728 0.55039,-0.89614 0.15772,-0.25621 0.31765,-0.51841 0.5009,-0.70044 0.17919,-0.18948 0.37177,-0.32466 0.56348,-0.45494 0.22059,-0.12961 0.44052,-0.25956 0.66633,-0.34869 0.22553,-0.089 0.37997,-0.27323 0.46986,-0.49052 z m -17.90902,6.11845 c -0.014,0.10492 -0.0287,0.20941 -0.0421,0.31464 0.002,-0.0417 0.004,-0.0833 0.005,-0.12504 0.012,-0.0634 0.0247,-0.12637 0.0369,-0.1896 z m 23.24219,13.15744 v 0.24551 c -0.0204,-0.005 -0.0415,-0.007 -0.0633,-0.007 -0.002,2e-5 -0.005,4.3e-4 -0.007,5.1e-4 0.0238,-0.0794 0.0468,-0.15966 0.0708,-0.2389 z m -24.18218,0.9612 c 0.0149,0.31337 0.0308,0.62654 0.0518,0.93833 -0.0174,-0.0345 -0.0343,-0.0699 -0.0518,-0.1042 z" />
    <path
       style="fill:none;stroke:#000000;stroke-width:0.26241"
       d="m 120.27279,178.68609 12.89765,-0.3524"
       id="path2494" />
    <path
       id="path2526"
       style="fill:none;stroke:#000000;stroke-width:0.26241"
       d="m 124.21391,177.62871 c -0.11971,0.94197 -0.23933,1.88206 -0.41858,2.58625 -0.17926,0.7042 -0.41829,1.17377 -0.53744,1.52695 -0.11916,0.35318 -0.1191,0.58807 -0.17881,0.76296 -0.0597,0.1749 -0.17903,0.29241 -0.23875,0.52864 -0.0597,0.23623 -0.0599,0.58851 -0.11989,0.8814 -0.06,0.29288 -0.17935,0.52809 -0.17777,0.64503 0.002,0.11695 0.12138,0.11707 0.23979,0.41224 0.1184,0.29516 0.23773,0.88219 0.29714,1.29312 0.0594,0.41093 0.0594,0.64578 0.12041,0.76195 0.061,0.11616 0.18025,0.1163 0.4191,0.2938 0.23884,0.1775 0.59747,0.53002 1.79113,0.35225 1.19366,-0.17776 3.22358,-0.88267 4.41685,-2.1735 1.19327,-1.29084 1.55186,-3.1701 1.73119,-4.34447 0.17932,-1.17438 0.17931,-1.6445 0.17931,-1.93816 0,-0.17465 2.7e-4,-0.28617 0.0382,-0.3487 z m 7.56192,1.23976 1.03614,0.16977 c -0.3551,-0.11642 -0.7133,-0.23358 -0.89402,-0.2328 -0.0732,3.1e-4 -0.11621,0.0204 -0.14212,0.063 z" />
    <path
       style="fill:none;stroke:#000000;stroke-width:0.26241"
       d="m 131.82694,179.03848 c 0.089,-0.23353 0.1786,-0.46847 0.2687,-0.70479"
       id="path2719"
       inkscape:path-effect="#path-effect2721-8"
       inkscape:original-d="m 131.82694,179.03848 c 0.0922,-0.23232 0.18178,-0.46726 0.2687,-0.70479" />
    <path
       id="path2813"
       style="fill:none;stroke:#000000;stroke-width:0.0888301"
       d="m 131.47094,178.56958 c -0.57945,0.004 -1.91004,0.0331 -3.43808,0.0763 -2.83189,0.08 -3.72106,0.13135 -3.77554,0.21807 -0.0392,0.0624 -0.0981,0.33523 -0.13126,0.6064 -0.0499,0.4085 -0.56621,2.14591 -0.95809,3.22417 -0.0528,0.14537 -0.14512,0.52222 -0.20516,0.83718 -0.06,0.31495 -0.13639,0.65522 -0.1695,0.75636 -0.0358,0.1094 0.01,0.34156 0.11317,0.57285 0.15278,0.34212 0.22017,0.63483 0.41497,1.81007 0.0504,0.30394 0.58077,0.71591 1.07075,0.83159 0.37631,0.0888 0.37251,0.0892 1.12036,-0.0442 1.38979,-0.24794 2.90072,-0.94452 3.82773,-1.76432 1.22533,-1.08362 1.91748,-2.93196 2.1782,-5.81856 0.0576,-0.6379 0.14739,-1.17257 0.20309,-1.20671 0.055,-0.0337 0.0811,-0.0758 0.0579,-0.094 -0.006,-0.005 -0.11536,-0.006 -0.30852,-0.005 z" />
    <path
       id="path2815"
       style="fill:none;stroke:#000000;stroke-width:0.0888301"
       d="m 131.61357,178.65854 -2.89392,0.0681 c -3.56822,0.0839 -4.2852,0.13482 -4.37706,0.31159 -0.0378,0.0727 -0.15348,0.49462 -0.25735,0.93731 -0.10387,0.44269 -0.37096,1.37159 -0.59326,2.06422 -0.56002,1.74492 -0.65591,2.33849 -0.46509,2.87853 0.0815,0.2307 0.19428,0.67674 0.25012,0.99169 0.0558,0.31496 0.143,0.68149 0.19379,0.81431 0.0954,0.24949 0.51748,0.55548 0.94569,0.6857 0.45612,0.1387 1.71193,-0.11981 2.82984,-0.58302 2.57755,-1.06802 3.63668,-2.70755 4.09335,-6.33499 0.0976,-0.77533 0.19937,-1.50493 0.22583,-1.62149 z" />
    <path
       id="path2817"
       style="fill:none;stroke:#000000;stroke-width:0.0888301"
       d="m 131.48231,178.77392 -1.03664,0.002 c -1.43982,0.002 -5.52676,0.16352 -5.79095,0.22874 -0.17061,0.0421 -0.24482,0.15106 -0.34314,0.50627 -0.0689,0.24909 -0.31647,1.10714 -0.54984,1.90665 -0.23338,0.7995 -0.50321,1.77679 -0.59997,2.17198 l -0.17622,0.71874 0.28216,1.16656 c 0.15503,0.64146 0.32181,1.23917 0.37052,1.3287 0.0487,0.0895 0.23847,0.24084 0.42169,0.33599 0.19906,0.1034 0.5156,0.17455 0.78652,0.17689 1.18822,0.0102 3.25246,-0.83809 4.26751,-1.75365 1.23642,-1.11523 1.74651,-2.37103 2.16114,-5.31685 z" />
    <path
       id="path2819"
       style="fill:none;stroke:#000000;stroke-width:0.0888301"
       d="m 131.33452,178.83492 -2.35132,0.063 c -2.61473,0.0701 -4.33482,0.16838 -4.41995,0.25212 -0.0638,0.0627 -0.68867,2.17047 -1.16635,3.93478 l -0.3204,1.18333 0.24288,1.01915 c 0.33781,1.41719 0.41033,1.56427 0.86869,1.76889 0.21122,0.0943 0.52855,0.17229 0.7054,0.17333 0.4834,0.003 1.60097,-0.30294 2.34924,-0.643 1.96606,-0.89349 2.98384,-2.08976 3.50424,-4.12082 0.20871,-0.81458 0.58757,-3.02902 0.58757,-3.4341 z" />
    <path
       id="path2821"
       style="fill:none;stroke:#000000;stroke-width:0.0888301"
       d="m 130.37125,178.95081 c -1.15291,2.6e-4 -4.99182,0.16125 -5.41732,0.22721 -0.39092,0.0606 -0.33814,-0.0737 -1.2418,3.14437 l -0.54261,1.93257 0.22686,0.95256 c 0.32304,1.35753 0.42221,1.55591 0.88109,1.76077 0.21122,0.0943 0.48841,0.17229 0.616,0.17333 0.49059,0.004 1.68793,-0.36686 2.58024,-0.79956 0.76587,-0.3714 1.05252,-0.57088 1.61595,-1.12437 0.79193,-0.77798 1.15255,-1.39485 1.47848,-2.52881 0.21167,-0.73642 0.67646,-3.18813 0.67646,-3.56779 0,-0.15732 -0.0689,-0.17046 -0.87335,-0.17028 z" />
    <path
       id="path2823"
       style="fill:none;stroke:#000000;stroke-width:0.0888301"
       d="m 130.29012,179.03824 c -1.65495,-9e-5 -5.17814,0.19279 -5.39665,0.29533 -0.26293,0.12337 -0.30634,0.24172 -1.04905,2.87394 l -0.58343,2.06778 0.23358,0.91648 c 0.33737,1.32432 0.42119,1.48719 0.8723,1.68858 0.21122,0.0943 0.46584,0.17229 0.56535,0.17333 0.38814,0.004 1.56266,-0.37834 2.41643,-0.78685 1.41237,-0.6758 2.42294,-1.70829 2.91563,-2.97866 0.18867,-0.48648 0.71087,-2.83175 0.84337,-3.78737 l 0.0646,-0.46256 z" />
    <path
       id="path2825"
       style="fill:none;stroke:#000000;stroke-width:0.0888301"
       d="m 130.44308,179.12923 c -0.30095,1.1e-4 -0.73933,0.0101 -1.37048,0.029 -2.54993,0.0765 -4.10703,0.20281 -4.24373,0.34361 -0.12917,0.13305 -0.40367,0.99105 -1.01442,3.16877 l -0.46303,1.64995 0.23823,0.86106 c 0.35438,1.28142 0.42567,1.41323 0.86715,1.61031 0.50746,0.22655 0.5831,0.22164 1.53739,-0.0996 2.34256,-0.78864 3.71278,-1.99939 4.27319,-3.7772 0.17281,-0.5482 0.79606,-3.4343 0.79738,-3.69232 2.7e-4,-0.0655 -0.12009,-0.0937 -0.62168,-0.0935 z" />
    <path
       id="path2827"
       style="fill:none;stroke:#000000;stroke-width:0.0888301"
       d="m 130.40846,179.22072 c -1.04654,0.008 -3.26364,0.0914 -4.25459,0.17486 -0.55851,0.047 -1.08532,0.12239 -1.17049,0.16723 -0.16289,0.0857 -0.51407,1.12153 -1.17462,3.46562 l -0.36691,1.30329 0.23669,0.81023 c 0.3481,1.19016 0.43309,1.35154 0.81908,1.55185 0.44593,0.23143 0.44659,0.23125 1.40459,-0.0844 2.41303,-0.79501 3.81369,-2.10004 4.34864,-4.05118 0.15717,-0.57328 0.72503,-3.171 0.72503,-3.31668 0,-0.0173 -0.21857,-0.0234 -0.56742,-0.0209 z" />
    <path
       id="path2829"
       style="fill:none;stroke:#000000;stroke-width:0.0888301"
       d="m 130.89681,179.27613 -1.77408,0.0615 c -1.81256,0.0625 -3.7139,0.19565 -3.98638,0.27956 -0.20005,0.0616 -0.42606,0.67087 -1.07127,2.88361 l -0.53434,1.83193 0.28164,0.89868 c 0.33222,1.06022 0.45346,1.26875 0.83355,1.43138 0.37058,0.15855 0.28894,0.16855 1.1953,-0.14436 1.71637,-0.59255 2.92431,-1.42231 3.62567,-2.48967 0.46339,-0.7052 0.63623,-1.19888 1.01029,-2.8831 0.17668,-0.79551 0.34358,-1.54176 0.37053,-1.65808 z" />
    <path
       id="path2831"
       style="fill:none;stroke:#000000;stroke-width:0.0888301"
       d="m 130.78312,179.36508 -1.58287,0.0595 c -2.76791,0.10431 -3.98563,0.21953 -4.11713,0.38936 -0.13121,0.16946 -0.64201,1.70912 -1.13121,3.40919 l -0.3297,1.14521 0.34055,0.9673 c 0.29199,0.8291 0.38398,0.99527 0.64493,1.16707 0.16739,0.1102 0.33605,0.20027 0.37466,0.20027 0.0386,0 0.40518,-0.12138 0.81495,-0.26991 1.29089,-0.46789 2.11165,-0.94691 2.86499,-1.67181 1.03391,-0.99488 1.24792,-1.50222 1.94513,-4.61235 z" />
    <path
       id="path2833"
       style="fill:none;stroke:#000000;stroke-width:0.0888301"
       d="m 130.11287,179.47894 c -0.88211,9e-5 -3.80679,0.17727 -4.36983,0.26483 -0.29182,0.0454 -0.56349,0.13328 -0.60411,0.19519 -0.10396,0.15844 -0.80903,2.30082 -1.14413,3.47679 l -0.28061,0.9856 0.32299,0.86463 c 0.23218,0.62147 0.40206,0.93242 0.60462,1.10658 0.15498,0.13325 0.29107,0.24246 0.30231,0.24246 0.0113,0 0.31482,-0.10376 0.67491,-0.23027 1.94593,-0.68368 3.36642,-1.77251 3.95899,-3.03508 0.26534,-0.56535 0.81297,-2.50443 0.99995,-3.54033 l 0.06,-0.3304 z" />
    <path
       id="path2835"
       style="fill:none;stroke:#000000;stroke-width:0.0888301"
       d="m 130.0922,179.57958 c -1.17493,-0.005 -4.34312,0.20136 -4.714,0.34006 -0.14613,0.0546 -0.29181,0.39888 -0.69403,1.64233 -0.27988,0.86527 -0.59097,1.85542 -0.69144,2.20045 l -0.18293,0.62724 0.22789,0.59472 c 0.29091,0.76021 0.46462,1.09713 0.69454,1.34446 0.10135,0.10903 0.19291,0.19824 0.2031,0.19824 0.0966,0 1.33239,-0.50176 1.76787,-0.71773 1.24952,-0.61967 2.26297,-1.50416 2.69911,-2.35598 0.28992,-0.56626 1.12551,-3.41056 1.12604,-3.83363 4e-5,-0.027 -0.16501,-0.039 -0.43615,-0.0402 z" />
    <path
       id="path2837"
       style="fill:none;stroke:#000000;stroke-width:0.0888301"
       d="m 130.06016,179.67362 c -1.02402,-0.006 -3.81704,0.16283 -4.47319,0.29634 -0.29205,0.0594 -0.32662,0.1393 -1.10227,2.55728 l -0.58602,1.82735 0.18139,0.47679 c 0.21722,0.57106 0.39935,0.93652 0.65785,1.32057 0.10577,0.15715 0.19563,0.28592 0.19947,0.28618 0.0532,0.005 1.28721,-0.52364 1.69295,-0.72485 1.18367,-0.587 2.23578,-1.48271 2.62623,-2.23551 0.27386,-0.52802 1.1808,-3.42052 1.18186,-3.76908 7e-5,-0.0227 -0.14196,-0.0336 -0.37827,-0.0351 z" />
    <path
       id="path2839"
       style="fill:none;stroke:#000000;stroke-width:0.0888301"
       d="m 130.04052,179.74529 c -0.18051,-5.2e-4 -0.46665,0.0125 -0.91314,0.0346 -1.4971,0.074 -3.20567,0.21172 -3.48666,0.28109 -0.25293,0.0624 -0.33914,0.26636 -1.07489,2.54 l -0.56844,1.75619 0.23513,0.57845 c 0.12925,0.31809 0.35086,0.76356 0.49248,0.99017 l 0.25735,0.41224 0.49145,-0.214 c 0.79641,-0.34644 1.57777,-0.7469 2.00921,-1.03033 0.62089,-0.40788 1.42505,-1.21097 1.65316,-1.65046 0.20077,-0.38683 0.82631,-2.20283 1.03147,-2.99493 0.0565,-0.21805 0.12471,-0.47158 0.15194,-0.5632 0.0297,-0.0998 0.0218,-0.13885 -0.27906,-0.13978 z" />
    <path
       id="path2841"
       style="fill:none;stroke:#000000;stroke-width:0.0888301"
       d="m 130.2524,179.80781 -1.13845,0.0605 c -1.34636,0.0712 -3.11991,0.21374 -3.39003,0.27245 -0.23726,0.0516 -0.34241,0.29747 -1.06713,2.49628 l -0.56174,1.70485 0.26046,0.60234 c 0.14334,0.33132 0.3455,0.74382 0.44907,0.91648 0.10357,0.17265 0.22753,0.31362 0.27544,0.31362 0.0479,0 0.61352,-0.26282 1.25679,-0.58455 1.26682,-0.63361 2.19829,-1.38027 2.63244,-2.10895 0.21972,-0.36878 0.77121,-1.89286 1.10744,-3.06151 z" />
    <path
       id="path2843"
       style="fill:none;stroke:#000000;stroke-width:0.0888301"
       d="m 129.7966,179.91964 c -0.48945,1.5e-4 -3.86762,0.2623 -4.02875,0.31261 -0.18648,0.0582 -0.32074,0.37968 -1.02115,2.44951 l -0.56173,1.66063 0.26614,0.58455 c 0.14657,0.32132 0.3473,0.71266 0.44598,0.86971 l 0.17932,0.28566 0.9121,-0.45035 c 1.69321,-0.83562 2.59295,-1.57968 3.01898,-2.49679 0.25659,-0.55235 0.91464,-2.43532 1.02373,-2.92936 0.0614,-0.27816 0.0551,-0.28626 -0.23462,-0.28617 z" />
    <path
       id="path2845"
       style="fill:none;stroke:#000000;stroke-width:0.0888301"
       d="m 129.84725,180.01469 c -0.30008,-0.008 -1.11046,0.0465 -2.79471,0.18198 l -1.28159,0.10318 -0.14315,0.27245 c -0.19183,0.36457 -1.27953,3.57252 -1.27953,3.77365 0,0.0873 0.16156,0.47501 0.35916,0.86157 0.1976,0.38656 0.40493,0.70248 0.46096,0.70248 0.14454,0 1.54234,-0.75479 2.17716,-1.17571 0.74984,-0.49719 1.2559,-1.03817 1.56272,-1.67181 0.22971,-0.47439 1.08264,-2.854 1.08264,-3.02034 0,-0.0156 -0.0436,-0.0249 -0.14366,-0.0275 z" />
    <path
       id="path2847"
       style="fill:none;stroke:#000000;stroke-width:0.0888301"
       d="m 129.69738,180.09551 c -0.77794,-10e-4 -3.79949,0.29555 -3.88509,0.38123 -0.10201,0.10211 -0.68279,1.68207 -1.1555,3.14437 l -0.24237,0.74974 0.37156,0.72637 0.37104,0.72637 0.46871,-0.23128 c 0.98708,-0.48669 1.98583,-1.1339 2.44278,-1.58337 0.55195,-0.5429 0.84077,-1.10224 1.41803,-2.74585 0.40194,-1.14442 0.40612,-1.16734 0.21084,-1.16758 z" />
    <path
       style="fill:none;stroke:#000000;stroke-width:0.0888301"
       d="m 124.83488,185.01786 -0.32156,-0.62807 0.23962,-0.75949 c 0.31744,-1.00613 1.0276,-2.94418 1.1104,-3.0303 0.0761,-0.0792 1.71479,-0.28496 2.98996,-0.37551 l 0.87774,-0.0623 -0.0625,0.25308 c -0.1467,0.59421 -0.95278,2.56058 -1.21346,2.96015 -0.15599,0.2391 -0.52144,0.62402 -0.81213,0.85536 -0.52186,0.41534 -2.21284,1.41518 -2.39342,1.41518 -0.0512,0 -0.23781,-0.28263 -0.41467,-0.62807 z"
       id="path2849" />
    <path
       style="fill:none;stroke:#000000;stroke-width:0.0888301"
       d="m 124.92978,184.99018 -0.3279,-0.57674 0.19409,-0.59512 c 0.37479,-1.14919 1.09873,-3.11012 1.1625,-3.14889 0.0893,-0.0543 1.94182,-0.28335 2.88858,-0.35715 l 0.78193,-0.061 -0.20982,0.60494 c -0.45256,1.30481 -0.97821,2.4166 -1.32663,2.80594 -0.35036,0.3915 -1.34818,1.08874 -2.32679,1.62586 l -0.50805,0.27885 z"
       id="path2851" />
    <path
       style="fill:none;stroke:#000000;stroke-width:0.0888301"
       d="m 124.97774,184.87507 -0.27948,-0.50658 0.45057,-1.27744 c 0.80865,-2.29268 0.82225,-2.3204 1.17403,-2.39254 0.54152,-0.11106 3.0512,-0.35785 3.10463,-0.3053 0.0697,0.0686 -0.45238,1.43087 -0.89131,2.32554 -0.26497,0.54009 -0.48094,0.8368 -0.83363,1.14529 -0.46805,0.40939 -2.1909,1.5176 -2.3593,1.5176 -0.0473,0 -0.2118,-0.22796 -0.36551,-0.50657 z"
       id="path2853" />
    <path
       style="fill:none;stroke:#000000;stroke-width:0.0888301"
       d="m 125.22141,185.09359 c -0.46883,-0.70744 -0.47657,-0.59357 0.16091,-2.36666 0.31962,-0.88897 0.65299,-1.687 0.74083,-1.77341 0.15395,-0.15143 1.0202,-0.29718 2.67838,-0.45065 l 0.55728,-0.0516 -0.22581,0.61576 c -0.39389,1.07405 -0.90549,2.08107 -1.24511,2.45083 -0.28727,0.31275 -1.79948,1.39212 -2.34388,1.67297 -0.16262,0.0839 -0.21252,0.0688 -0.3226,-0.0973 z"
       id="path2855" />
    <path
       style="fill:none;stroke:#000000;stroke-width:0.0888301"
       d="m 125.1615,184.82062 c -0.10255,-0.1632 -0.18645,-0.37864 -0.18645,-0.47877 0,-0.22304 0.64743,-2.06291 0.98845,-2.809 0.28521,-0.62398 0.3263,-0.6432 1.74335,-0.81525 0.44336,-0.0538 0.95725,-0.11714 1.14199,-0.14069 0.18473,-0.0236 0.33587,-0.008 0.33587,0.0353 0,0.1414 -0.63515,1.63175 -0.91799,2.15404 -0.15252,0.28164 -0.47773,0.68932 -0.72268,0.90594 -0.45821,0.40521 -1.98358,1.4452 -2.11971,1.4452 -0.042,0 -0.16029,-0.13352 -0.26283,-0.29672 z"
       id="path2857" />
    <path
       style="fill:none;stroke:#000000;stroke-width:0.0888301"
       d="m 125.2437,184.74442 c -0.0981,-0.15831 -0.17856,-0.32933 -0.17874,-0.38005 -5.3e-4,-0.17337 0.69094,-2.10924 0.96433,-2.69937 0.31126,-0.6719 0.34994,-0.69122 1.72234,-0.86042 0.41873,-0.0516 0.89276,-0.11518 1.05339,-0.14125 l 0.29207,-0.0474 -0.14731,0.37859 c -0.3472,0.89234 -0.92075,1.9926 -1.205,2.31157 -0.29423,0.33018 -1.1368,0.97443 -1.94162,1.4846 l -0.38104,0.24155 z"
       id="path2859" />
    <path
       style="fill:none;stroke:#000000;stroke-width:0.0888301"
       d="m 125.28727,184.61852 c -0.15184,-0.22795 -0.14806,-0.25824 0.13479,-1.07922 0.16006,-0.46458 0.29866,-0.88434 0.308,-0.93279 0.009,-0.0485 0.16182,-0.3926 0.33883,-0.76477 0.37244,-0.78304 0.37537,-0.78453 1.9307,-0.9841 1.09054,-0.13993 1.06009,-0.25235 0.33284,1.22838 -0.38321,0.78027 -0.57696,1.06434 -0.96136,1.40959 -0.43139,0.38745 -1.7786,1.35743 -1.88534,1.35743 -0.0232,0 -0.11254,-0.10554 -0.19846,-0.23452 z"
       id="path2861" />
    <path
       style="fill:none;stroke:#000000;stroke-width:0.0888301"
       d="m 125.34329,184.51895 c -0.10422,-0.19154 0.43594,-1.88324 0.86839,-2.71967 0.22367,-0.43263 0.34037,-0.56166 0.57445,-0.63518 0.41287,-0.12966 1.85178,-0.31414 1.9208,-0.24625 0.0986,0.097 -0.83306,1.87283 -1.18153,2.25223 -0.18261,0.19881 -0.28702,0.36147 -0.23202,0.36147 0.055,0 0.1,0.0359 0.1,0.0798 0,0.0439 -0.0705,0.0626 -0.15674,0.0415 -0.0947,-0.0232 -0.44039,0.17186 -0.87328,0.49264 -0.3941,0.29202 -0.7655,0.53102 -0.82535,0.53111 -0.0598,9e-5 -0.14746,-0.0709 -0.19471,-0.15773 z"
       id="path2863" />
    <path
       style="fill:none;stroke:#000000;stroke-width:0.0888301"
       d="m 125.45614,184.45881 c -0.0701,-0.17959 0.43877,-1.76731 0.80023,-2.49697 0.15164,-0.30612 0.35324,-0.59739 0.448,-0.64727 0.21814,-0.11483 1.76766,-0.36347 1.83743,-0.29484 0.075,0.0738 -0.56237,1.31012 -1.02724,1.99258 -0.21804,0.32009 -0.49717,0.62714 -0.62028,0.68231 -0.12312,0.0552 -0.43401,0.25176 -0.69087,0.43687 -0.66127,0.47652 -0.685,0.48692 -0.74727,0.32732 z"
       id="path2865" />
    <path
       style="fill:none;stroke:#000000;stroke-width:0.0888301"
       d="m 125.60838,184.076 c 0.12967,-0.56769 0.62411,-1.88944 0.85195,-2.27746 0.23279,-0.39645 0.45722,-0.50525 1.24652,-0.60429 0.24631,-0.0309 0.5243,-0.0772 0.61774,-0.10288 0.13512,-0.0371 0.065,0.14821 -0.34231,0.90523 -0.28172,0.52355 -0.61577,1.07319 -0.74234,1.22141 -0.1917,0.22449 -1.54853,1.19453 -1.67084,1.19453 -0.0207,0 -0.003,-0.15144 0.0393,-0.33654 z"
       id="path2873" />
    <path
       style="fill:none;stroke:#000000;stroke-width:0.0888301"
       d="m 125.73825,183.96248 c 0.0786,-0.35336 0.59851,-1.71351 0.80547,-2.10717 0.0798,-0.1517 0.27332,-0.32777 0.43015,-0.39126 0.34292,-0.13882 1.2256,-0.26552 1.2256,-0.17592 0,0.035 -0.19145,0.42243 -0.42544,0.86088 -0.46414,0.86968 -0.72832,1.1643 -1.55629,1.73557 l -0.54594,0.37668 z"
       id="path2875" />
    <path
       style="fill:none;stroke:#000000;stroke-width:0.0888301"
       d="m 125.87073,183.8923 c 0,-0.15004 0.46152,-1.35726 0.68771,-1.79885 0.15112,-0.29505 0.30517,-0.45997 0.5039,-0.53946 0.35414,-0.14165 0.958,-0.25278 0.958,-0.17629 0,0.0311 -0.16553,0.36957 -0.36785,0.75206 -0.25391,0.48005 -0.53257,0.84546 -0.8997,1.17979 -0.5699,0.51898 -0.88206,0.72522 -0.88206,0.58275 z"
       id="path2879" />
    <path
       style="fill:none;stroke:#000000;stroke-width:0.0888301"
       d="m 126.04986,183.64664 c 0,-0.13126 0.45326,-1.22161 0.65212,-1.56873 0.16194,-0.28266 0.2902,-0.38135 0.64817,-0.49873 0.24545,-0.0805 0.45898,-0.13405 0.47453,-0.11903 0.087,0.0841 -0.60556,1.20092 -0.99756,1.60861 -0.45049,0.46853 -0.77726,0.71148 -0.77726,0.57788 z"
       id="path2887" />
    <path
       style="fill:none;stroke:#000000;stroke-width:0.0888301"
       d="m 126.38833,182.18451 c -0.20502,-0.15247 -0.27969,-0.16513 -0.47023,-0.0797 -0.12458,0.0558 -0.22651,0.067 -0.22651,0.0247 0,-0.23288 0.63873,-0.23813 0.85139,-0.007 0.22553,0.24513 0.13851,0.28002 -0.15465,0.062 z"
       id="path2889" />
    <path
       style="fill:none;stroke:#000000;stroke-width:0.0888301"
       d="m 126.231,183.39526 c 0.001,-0.0462 0.12112,-0.32183 0.2667,-0.61255 0.30204,-0.6032 0.32272,-0.69999 0.13435,-0.62889 -0.0739,0.0279 -0.13435,0.0166 -0.13435,-0.0252 0,-0.0633 0.13751,-0.1505 0.35826,-0.22727 0.0246,-0.009 0.20029,-0.0837 0.39035,-0.16694 0.19005,-0.0832 0.36686,-0.13041 0.39291,-0.10478 0.0768,0.0755 -0.65558,1.12476 -1.04832,1.50198 -0.19905,0.19118 -0.361,0.30982 -0.3599,0.26364 z"
       id="path2977" />
    <path
       style="fill:none;stroke:#000000;stroke-width:0.0888301"
       d="m 126.62048,182.80473 c 0.0265,-0.0606 0.097,-0.2724 0.15663,-0.47073 0.0823,-0.27355 0.17377,-0.38485 0.37886,-0.46099 0.1487,-0.0552 0.28407,-0.0869 0.30082,-0.0704 0.0396,0.039 -0.76325,1.11227 -0.83202,1.11227 -0.0288,0 -0.0308,-0.0495 -0.004,-0.11012 z"
       id="path2981" />
    <path
       style="fill:none;stroke:#000000;stroke-width:0.0888301"
       d="m 126.58726,182.29054 c 0,-0.0443 0.0725,-0.0805 0.16123,-0.0805 0.0887,0 0.21462,-0.0495 0.27989,-0.11012 0.0956,-0.0887 0.11102,-0.0854 0.0793,0.0172 -0.0439,0.14171 -0.52037,0.30048 -0.52037,0.17338 z"
       id="path2985" />
    <path
       style="fill:none;stroke:#000000;stroke-width:0.0888301"
       d="m 126.85596,181.86709 c 0,-0.0433 0.0638,-0.10274 0.14168,-0.13215 0.24472,-0.0924 0.3241,-0.0585 0.1846,0.0787 -0.14882,0.14638 -0.32628,0.17547 -0.32628,0.0535 z"
       id="path2987" />
    <path
       style="fill:#ffffff;stroke:#000000;stroke-width:0.0888301"
       d="m 127.8412,180.69363 c 0,-0.0451 0.0569,-0.13787 0.12636,-0.20623 0.0695,-0.0684 0.14156,-0.16916 0.16015,-0.22401 0.0186,-0.0549 0.0968,-0.0853 0.1739,-0.0677 0.10604,0.0243 0.0671,0.0987 -0.16015,0.30596 -0.16514,0.15063 -0.30026,0.237 -0.30026,0.19193 z"
       id="path2993" />
    <path
       id="path3099"
       style="fill:#ffffff;stroke:#000000;stroke-width:0.26241"
       d="m 125.69136,183.53165 a 1.2987219,1.6738874 0 0 0 -1.29865,1.67384 1.2987219,1.6738874 0 0 0 1.29865,1.67384 1.2987219,1.6738874 0 0 0 1.29917,-1.67384 1.2987219,1.6738874 0 0 0 -1.29917,-1.67384 z" />
    <ellipse
       style="fill:#ffffff;stroke:#000000;stroke-width:0.26241"
       id="path3101"
       cx="128.73686"
       cy="181.41718"
       rx="1.4778558"
       ry="0.96909273" />
    <path
       id="rect3215"
       style="fill:#0000ff;stroke:#000000;stroke-width:0.204903"
       d="m 114.95968,196.44815 v 39.17351 h 13.85078 v -39.17351 z" />
    <path
       id="rect4554"
       style="fill:#800080;fill-opacity:1;stroke:#000000;stroke-width:0.520917;stroke-dasharray:none;stroke-opacity:1"
       d="m 116.98886,234.21891 v 49.00528 h 11.20707 c -0.0859,-1.69475 -0.20965,-3.38789 -0.3142,-5.08186 -0.16967,-2.74175 -0.24121,-5.48741 -0.29559,-8.23258 -0.0282,-2.91904 -0.0757,-5.8379 -0.13539,-8.75657 -0.0577,-2.68957 -0.0896,-5.3798 -0.11214,-8.06979 -0.014,-1.76193 -0.0212,-3.52349 -0.0258,-5.28547 -8.5e-4,-0.33833 0.0726,-0.61004 0.19069,-0.81855 v -1.58337 -4.61935 -5.51543 -1.04231 z" />
    <path
       id="path4981-5"
       style="fill:url(#linearGradient8929);fill-opacity:1;stroke:#f4e3d7;stroke-width:0.262823;stroke-dasharray:none;stroke-opacity:1"
       d="m 141.22216,224.5362 a 6.2696914,4.1406689 0 0 0 -6.26999,4.14065 6.2696914,4.1406689 0 0 0 6.26999,4.14064 6.2696914,4.1406689 0 0 0 6.26948,-4.14064 6.2696914,4.1406689 0 0 0 -6.26948,-4.14065 z" />
    <path
       id="path5293"
       style="fill:#000000;fill-opacity:1;stroke:#000000;stroke-width:0.262823;stroke-dasharray:none;stroke-opacity:1"
       d="m 124.88568,241.10725 -0.59222,0.74569 c 0.01,-0.008 0.0209,-0.0161 0.0331,-0.0265 0.0517,-0.0438 0.12598,-0.11684 0.1633,-0.1596 0.0373,-0.0428 0.0373,-0.0575 0.0527,-0.0737 0.0155,-0.0162 0.0454,-0.031 0.10439,-0.0966 0.059,-0.0656 0.14885,-0.18336 0.19379,-0.25567 0.0449,-0.0723 0.045,-0.10172 0.045,-0.13369 z m -0.59222,0.74569 c -0.032,0.0244 -0.0523,0.0358 -0.0641,0.0483 -0.0155,0.0162 -0.0156,0.0312 -0.0455,0.0666 -0.0298,0.0354 -0.0895,0.0938 -0.16433,0.1896 -0.0748,0.0957 -0.16458,0.22833 -0.25374,0.35988 z" />
    <path
       id="path5297"
       style="fill:#000000;fill-opacity:1;stroke:#000000;stroke-width:0.262823;stroke-dasharray:none;stroke-opacity:1"
       d="m 126.49801,238.28821 c -0.0304,0.0598 -0.0604,0.11861 -0.11266,0.21398 -0.0522,0.0954 -0.12675,0.22771 -0.16382,0.31668 -0.0371,0.089 -0.0371,0.13264 -0.0672,0.23483 -0.0301,0.1022 -0.0902,0.26387 -0.14934,0.42394 z" />
    <path
       id="path5301"
       style="fill:#000000;fill-opacity:1;stroke:#000000;stroke-width:0.262823;stroke-dasharray:none;stroke-opacity:1"
       d="m 127.1693,235.73347 -0.0444,0.88089 z" />
    <path
       id="path5325"
       style="fill:#000000;fill-opacity:1;stroke:#000000;stroke-width:0.262823;stroke-dasharray:none;stroke-opacity:1"
       d="m 120.31742,235.16061 0.77619,0.005 c -0.19437,-0.005 -0.4836,-0.005 -0.77619,-0.005 z m 0.77619,0.005 c 0.0454,9.9e-4 0.0873,0.002 0.12092,0.004 0.17782,0.009 0.17792,0.0233 0.29146,0.0666 0.11355,0.0433 0.33721,0.1168 0.4713,0.15299 0.13409,0.0362 0.17888,0.0369 0.26872,0.0595 0.0898,0.0225 0.22467,0.0664 0.32143,0.0879 0.0968,0.0215 0.15647,0.0218 0.19379,0.0305 0.0373,0.009 0.0518,0.0234 0.0816,0.0295 0.0299,0.006 0.0751,0.006 0.11266,0.0143 0.0376,0.008 0.0674,0.0229 0.11937,0.0295 0.052,0.007 0.12672,0.006 0.21653,0.0213 0.0898,0.0151 0.19394,0.0448 0.43254,0.0589 0.23859,0.0143 0.61177,0.0136 0.89504,-0.008 0.28328,-0.0222 0.4773,-0.0662 0.64132,-0.1103 0.16403,-0.0441 0.29849,-0.0882 0.493,-0.11742 0.19451,-0.0292 0.44843,-0.0438 0.74674,-0.0879 0.2983,-0.0442 0.64155,-0.11761 0.98289,-0.19061 z" />
    <path
       id="path5329"
       style="fill:#000000;fill-opacity:1;stroke:#000000;stroke-width:0.264999;stroke-dasharray:none;stroke-opacity:1"
       d="m 117.71585,271.03847 0.31677,1.13998 c 0,-0.16624 -1.9e-4,-0.33494 -0.0155,-0.46664 -0.0153,-0.1317 -0.0467,-0.2264 -0.063,-0.28474 -0.0164,-0.0583 -0.0162,-0.0795 -0.0305,-0.0961 -0.0143,-0.0166 -0.0463,-0.0271 -0.0682,-0.0419 -0.0219,-0.0148 -0.0321,-0.0363 -0.0532,-0.0785 -0.0211,-0.0422 -0.053,-0.10558 -0.0863,-0.17208 z" />
    <path
       id="path5629"
       style="fill:#ff00ff;fill-opacity:1;stroke:#ff00ff;stroke-width:0.264999;stroke-dasharray:none;stroke-opacity:1"
       d="m 119.86109,254.55807 c -0.0638,0.24461 -0.12722,0.48741 -0.15865,0.66198 -0.0314,0.17457 -0.0315,0.28018 -0.0315,0.44907 v 0.59118 c 0,0.18999 -2e-5,0.33806 -0.016,0.51728 -0.016,0.17921 -0.0477,0.39026 -0.0687,0.72295 -0.021,0.33269 -0.0314,0.78636 -0.0419,1.23765 z" />
    <path
       id="path5637"
       style="fill:#ff00ff;fill-opacity:1;stroke:#ff00ff;stroke-width:0.262823;stroke-dasharray:none;stroke-opacity:1"
       d="m 118.48984,258.99442 v 1.26924 c 0,0.35301 2.3e-4,0.60209 0.006,0.77872 0.005,0.17662 0.0162,0.28041 0.0269,0.35835 0.0107,0.078 0.0209,0.13006 0.0258,0.19214 0.005,0.0621 0.005,0.13491 0.0109,0.18706 0.006,0.0521 0.0164,0.0831 0.0212,0.12962 0.005,0.0464 0.005,0.10873 0.016,0.17129 0.006,0.032 0.0136,0.064 0.0238,0.10268 z m 0.13022,3.1891 0.15504,3.78788 c 0.0629,-0.30947 0.12615,-0.62102 0.17363,-0.8443 0.0475,-0.22327 0.079,-0.358 0.0951,-0.51338 0.0161,-0.15538 0.016,-0.33194 0.016,-0.4773 0,-0.14536 6e-5,-0.25981 -0.01,-0.34259 -0.01,-0.0827 -0.0307,-0.13459 -0.0419,-0.17639 -0.0112,-0.0418 -0.0115,-0.0731 -0.0264,-0.11436 -0.0149,-0.0413 -0.0463,-0.0929 -0.0631,-0.13979 -0.0168,-0.0469 -0.0171,-0.0888 -0.0269,-0.13012 -0.01,-0.0413 -0.0307,-0.0827 -0.047,-0.1347 -0.0164,-0.052 -0.0269,-0.1143 -0.0424,-0.1713 -0.0154,-0.0571 -0.0368,-0.10897 -0.0636,-0.21806 -0.0267,-0.10909 -0.0581,-0.27522 -0.0842,-0.38937 -0.0128,-0.0559 -0.0248,-0.0991 -0.0346,-0.13622 z" />
    <path
       id="path5641"
       style="fill:#ff00ff;fill-opacity:1;stroke:#ff00ff;stroke-width:0.262823;stroke-dasharray:none;stroke-opacity:1"
       d="m 118.75353,249.37696 0.12661,6.75942 c 0.0734,-0.23714 0.14719,-0.47614 0.19999,-0.65774 0.0528,-0.18161 0.0842,-0.3063 0.10026,-0.45646 0.0161,-0.15017 0.0165,-0.3265 0.0269,-0.4773 0.0104,-0.15079 0.0311,-0.27518 0.0419,-0.39952 0.0107,-0.12435 0.0108,-0.2491 0.0108,-0.46714 v -0.83056 c 0,-0.3011 -1.5e-4,-0.59187 -0.0155,-0.78889 -0.0154,-0.19702 -0.0468,-0.3009 -0.0734,-0.42036 -0.0266,-0.11949 -0.0476,-0.25426 -0.0584,-0.36344 -0.0108,-0.10919 -0.0108,-0.19223 -0.0367,-0.32176 -0.0259,-0.12953 -0.0789,-0.30641 -0.12661,-0.50373 -0.0477,-0.19733 -0.0897,-0.41501 -0.12144,-0.59675 -0.0317,-0.18174 -0.0529,-0.3275 -0.0744,-0.47577 z" />
    <path
       id="path5649"
       style="fill:#ff00ff;fill-opacity:1;stroke:#ff00ff;stroke-width:0.264999;stroke-dasharray:none;stroke-opacity:1"
       d="m 118.16848,277.70893 -0.31368,4.12016 c 0.0443,-0.0885 0.0889,-0.17771 0.17105,-0.34933 0.0821,-0.17163 0.20157,-0.42541 0.2837,-0.63407 0.0821,-0.20867 0.12677,-0.37285 0.16433,-0.47078 0.0376,-0.0979 0.0678,-0.12805 0.0827,-0.15658 0.0149,-0.0285 0.0146,-0.0584 0.0367,-0.11885 0.0221,-0.0605 0.0673,-0.14987 0.0899,-0.34313 0.0227,-0.19327 0.0222,-0.49191 -0.0145,-0.73794 -0.0367,-0.24603 -0.11131,-0.4404 -0.17053,-0.56741 -0.0592,-0.12701 -0.10362,-0.18627 -0.12712,-0.22376 -0.0235,-0.0375 -0.0238,-0.0528 -0.0305,-0.0749 -0.007,-0.0221 -0.0215,-0.0521 -0.0434,-0.0822 -0.0219,-0.0301 -0.0515,-0.0598 -0.0749,-0.11937 -0.0235,-0.0595 -0.0383,-0.14927 -0.0537,-0.24184 z" />
    <path
       id="path5653"
       style="fill:#ff00ff;fill-opacity:1;stroke:#ff00ff;stroke-width:0.262823;stroke-dasharray:none;stroke-opacity:1"
       d="m 118.75029,260.9209 v 4.40496 c 0.16367,-0.33661 0.32795,-0.67438 0.41755,-0.87226 0.0896,-0.19787 0.1042,-0.25654 0.12661,-0.30854 0.0224,-0.052 0.0527,-0.0957 0.0605,-0.32226 0.008,-0.22656 -0.007,-0.63811 -0.0517,-0.95357 -0.0443,-0.31548 -0.11921,-0.53563 -0.18655,-0.7706 -0.0673,-0.23497 -0.12693,-0.48446 -0.17105,-0.63131 -0.0441,-0.14685 -0.074,-0.19094 -0.10439,-0.26432 -0.0304,-0.0734 -0.0602,-0.17623 -0.0909,-0.2821 z" />
    <path
       id="path5657"
       style="fill:#ff00ff;fill-opacity:1;stroke:#ff00ff;stroke-width:0.262823;stroke-dasharray:none;stroke-opacity:1"
       d="m 118.66089,259.95207 -0.13436,5.63861 c 0.0911,-0.0299 0.18067,-0.0595 0.25425,-0.13216 0.0736,-0.0726 0.13299,-0.1903 0.19276,-0.29329 0.0598,-0.103 0.11963,-0.19082 0.17208,-0.2572 0.0525,-0.0664 0.0975,-0.11075 0.12713,-0.15402 0.0296,-0.0433 0.0445,-0.0871 0.0672,-0.12453 0.0227,-0.0375 0.0523,-0.067 0.0672,-0.095 0.0149,-0.028 0.015,-0.0573 0.0222,-0.0874 0.007,-0.0301 0.022,-0.0598 0.0372,-0.0823 0.0152,-0.0225 0.0303,-0.0371 0.0377,-0.065 0.007,-0.028 0.007,-0.072 0.015,-0.10268 0.008,-0.0307 0.0222,-0.0454 0.0222,-0.26432 5e-5,-0.21891 -0.0149,-0.64471 -0.0367,-0.8941 -0.0218,-0.24939 -0.0516,-0.32302 -0.0672,-0.38936 -0.0156,-0.0664 -0.0155,-0.12482 -0.03,-0.20536 -0.0145,-0.0806 -0.0446,-0.18331 -0.0599,-0.26431 -0.0154,-0.0811 -0.0153,-0.13975 -0.0295,-0.19824 -0.0141,-0.0585 -0.044,-0.11752 -0.0966,-0.27906 -0.0526,-0.16155 -0.12734,-0.42566 -0.22428,-0.73399 -0.0969,-0.30833 -0.21594,-0.66059 -0.33642,-1.0161 z" />
    <path
       id="path5661"
       style="fill:#ff00ff;fill-opacity:1;stroke:#ff00ff;stroke-width:0.264999;stroke-dasharray:none;stroke-opacity:1"
       d="m 119.75017,273.84658 c -0.0112,0.002 -0.0271,0.0298 -0.0506,0.0791 -0.0538,0.11264 -0.14367,0.33678 -0.21084,0.5085 -0.0672,0.17171 -0.11172,0.29127 -0.13384,0.39635 -0.0221,0.10509 -0.022,0.19459 -0.0372,0.29869 -0.0152,0.10411 -0.0452,0.22315 -0.0599,0.29818 -0.0147,0.075 -0.0145,0.10528 -0.0289,0.12609 -0.0144,0.0208 -0.0445,0.0354 -0.0599,0.11162 -0.0155,0.0762 -0.0155,0.21066 -0.0232,0.29197 -0.008,0.0813 -0.0223,0.11119 -0.0295,0.3359 -0.007,0.2247 -0.007,0.64275 0.0238,0.8816 0.0312,0.23885 0.0911,0.2988 0.15761,0.31212 0.0665,0.0133 0.14113,-0.0169 0.17777,-0.0315 0.0366,-0.0147 0.0367,-0.0145 0.0439,-0.0434 0.007,-0.0289 0.0218,-0.0887 0.0295,-0.14056 0.008,-0.0518 0.008,-0.0968 0.03,-0.17208 0.0221,-0.0753 0.0669,-0.1798 0.10438,-0.36587 0.0375,-0.18607 0.0671,-0.45465 0.0822,-0.71572 0.0151,-0.26107 0.0155,-0.515 0.0155,-0.72399 v -0.61184 c 0,-0.23885 -6e-5,-0.5525 -0.006,-0.71056 -0.003,-0.0889 -0.01,-0.12757 -0.0243,-0.12454 z" />
    <path
       id="path5665"
       style="fill:#ff00ff;fill-opacity:1;stroke:#ff00ff;stroke-width:0.262823;stroke-dasharray:none;stroke-opacity:1"
       d="m 118.6211,259.34058 c -0.006,3.7e-4 -0.0126,0.002 -0.0196,0.004 -0.0749,0.0205 -0.20935,0.13756 -0.3142,0.2999 -0.10484,0.16233 -0.17948,0.36831 -0.21653,0.58913 -0.037,0.2208 -0.0372,0.45567 -0.0284,0.58048 0.009,0.12482 0.0237,0.13942 0.0377,0.17639 0.014,0.037 0.0291,0.0957 0.045,0.12351 0.0159,0.0278 0.0308,0.0277 0.0532,0.0437 0.0224,0.016 0.0524,0.0453 0.14212,0.0737 0.0898,0.0284 0.23884,0.0578 0.34313,0.0722 0.10429,0.0144 0.16423,0.0138 0.19276,0.008 0.0285,-0.006 0.0285,-0.0204 0.0434,-0.0437 0.0149,-0.0233 0.0445,-0.0529 0.0594,-0.1103 0.0149,-0.0574 0.015,-0.14564 0.0222,-0.2267 0.007,-0.081 0.0223,-0.15444 0.03,-0.19214 0.008,-0.0377 0.008,-0.0375 5.2e-4,-0.0727 -0.007,-0.0352 -0.0222,-0.10886 -0.03,-0.18248 -0.008,-0.0736 -0.008,-0.14693 -0.0372,-0.28617 -0.0294,-0.13924 -0.0891,-0.34506 -0.12558,-0.45544 -0.0364,-0.11038 -0.0511,-0.12466 -0.0599,-0.15401 -0.009,-0.0294 -0.009,-0.0738 -0.015,-0.0971 -0.006,-0.0233 -0.0213,-0.0232 -0.0372,-0.0584 -0.0144,-0.0319 -0.0276,-0.0951 -0.0858,-0.0915 z" />
    <path
       id="path5673"
       style="fill:#ff00ff;fill-opacity:1;stroke:#ff00ff;stroke-width:0.262823;stroke-dasharray:none;stroke-opacity:1"
       d="m 118.48143,267.51027 -0.49248,5.28636 c 0.47856,-0.26478 0.95618,-0.52946 1.20924,-0.69739 0.25307,-0.16794 0.28322,-0.24123 0.32815,-0.31515 0.0449,-0.074 0.10451,-0.14709 0.14935,-0.43969 0.0448,-0.2926 0.0745,-0.80647 0.0677,-1.12182 -0.007,-0.31534 -0.0516,-0.43286 -0.10387,-0.57236 -0.0523,-0.13947 -0.11161,-0.30133 -0.17829,-0.43358 -0.0667,-0.13222 -0.14175,-0.23471 -0.18707,-0.30802 -0.0453,-0.0733 -0.06,-0.11756 -0.0816,-0.15453 -0.0216,-0.037 -0.0515,-0.0663 -0.0677,-0.0955 -0.0162,-0.0294 -0.0164,-0.0587 -0.0377,-0.10268 -0.0213,-0.0439 -0.0661,-0.10268 -0.12609,-0.20535 -0.06,-0.10268 -0.13457,-0.24962 -0.21653,-0.39648 -0.082,-0.14686 -0.1716,-0.29386 -0.26304,-0.44375 z" />
    <path
       id="path5681"
       style="fill:#ff00ff;fill-opacity:1;stroke:#ff00ff;stroke-width:0.262823;stroke-dasharray:none;stroke-opacity:1"
       d="m 122.02865,243.5995 -0.71728,0.75127 c 0.0617,-0.0345 0.12065,-0.0684 0.16898,-0.0976 0.1369,-0.0829 0.20044,-0.13465 0.24754,-0.19113 0.0471,-0.0565 0.0787,-0.11898 0.11059,-0.16622 0.0319,-0.0472 0.0637,-0.0783 0.0951,-0.12453 0.0314,-0.0462 0.0629,-0.10848 0.0951,-0.1718 z m -0.71728,0.75127 c -0.11307,0.0633 -0.23857,0.13048 -0.34778,0.18756 -0.16883,0.0882 -0.29545,0.15087 -0.36485,0.19316 -0.0694,0.0423 -0.0801,0.0627 -0.12196,0.10369 -0.0419,0.0409 -0.11543,0.10353 -0.1633,0.15605 -0.0479,0.0525 -0.0693,0.0939 -0.14263,0.15554 -0.0733,0.0616 -0.19961,0.14472 -0.38913,0.22772 -0.18951,0.083 -0.44303,0.16581 -0.61754,0.23331 -0.17451,0.0675 -0.26943,0.11969 -0.3266,0.14589 -0.0572,0.0262 -0.0782,0.0261 -0.10594,0.0417 -0.0277,0.0155 -0.0598,0.0467 -0.10697,0.0828 -0.0472,0.0361 -0.11052,0.0776 -0.17363,0.11386 -0.0631,0.0363 -0.12647,0.0677 -0.25891,0.17689 -0.13243,0.10924 -0.33295,0.29614 -0.45992,0.4473 -0.12698,0.15118 -0.17986,0.26497 -0.25374,0.46765 -0.0739,0.20267 -0.16877,0.49366 -0.21601,0.66028 -0.0472,0.16663 -0.047,0.20806 -0.0579,0.25416 -0.0108,0.0461 -0.0319,0.098 -0.0475,0.22314 -0.0156,0.12513 -0.0263,0.32264 -0.0367,0.51745 z" />
    <path
       id="path5689"
       style="fill:#ff00ff;fill-opacity:1;stroke:#ff00ff;stroke-width:0.262823;stroke-dasharray:none;stroke-opacity:1"
       d="m 121.17681,236.10046 0.12713,6.82144 c 0.0839,-0.21663 0.1682,-0.43489 0.22634,-0.63183 0.0581,-0.19693 0.0899,-0.3736 0.10594,-0.58099 0.016,-0.20738 0.0156,-0.44602 0.0207,-0.59166 0.005,-0.14564 0.0157,-0.19743 0.0212,-0.34768 0.006,-0.15025 0.006,-0.3993 0.006,-0.65368 0,-0.25438 -3e-4,-0.51439 -0.0263,-0.76856 -0.0261,-0.25417 -0.0787,-0.50294 -0.10542,-0.65368 -0.0267,-0.15073 -0.0264,-0.20284 -0.0419,-0.28566 -0.0154,-0.0828 -0.0473,-0.19725 -0.0739,-0.33751 -0.0266,-0.14027 -0.0477,-0.30599 -0.0739,-0.45646 -0.0262,-0.15047 -0.0577,-0.28554 -0.0739,-0.37919 -0.0162,-0.0936 -0.0164,-0.14578 -0.032,-0.32736 -0.0157,-0.18154 -0.0476,-0.49286 -0.0796,-0.80718 z" />
    <path
       id="path5693"
       style="fill:#ff00ff;fill-opacity:1;stroke:#ff00ff;stroke-width:0.262823;stroke-dasharray:none;stroke-opacity:1"
       d="m 117.59075,234.64886 v 5.1e-4 c -0.049,-0.005 -0.30231,0.43104 -0.30231,0.43104 l 1.99526,-0.3736 h -0.8842 c -0.23222,0 -0.36915,-5e-4 -0.44804,-0.005 -0.0789,-0.004 -0.10046,-0.0149 -0.15865,-0.026 -0.0582,-0.011 -0.15311,-0.0215 -0.20206,-0.027 z" />
    <path
       id="path6258"
       style="fill:#000080;fill-opacity:1;stroke:#000080;stroke-width:0.262823;stroke-dasharray:none;stroke-opacity:1"
       d="m 117.44669,214.21768 c -0.0411,0.0203 -0.0836,0.0412 -0.12506,0.0518 -0.0414,0.0106 -0.0835,0.0104 -0.10593,0.0326 -0.0224,0.022 -0.0223,0.0639 -0.0429,0.0935 -0.0206,0.0296 -0.0627,0.0501 -0.11627,0.12352 -0.0536,0.0735 -0.11691,0.19821 -0.14831,0.47933 -0.0314,0.28112 -0.0319,0.71713 0.0424,1.24686 0.0469,0.33428 0.12241,0.69853 0.19068,1.01051 z m -0.30541,3.03814 -0.83458,8.29958 c 0.16848,-0.24858 0.33708,-0.49739 0.43201,-0.65267 0.0949,-0.15526 0.11638,-0.21752 0.15918,-0.27042 0.0428,-0.0529 0.10594,-0.0948 0.17931,-0.17739 0.0734,-0.0825 0.15808,-0.20715 0.20051,-0.28923 0.0424,-0.082 0.0424,-0.12334 0.0641,-0.15604 0.0217,-0.0328 0.0634,-0.0536 0.17881,-0.18807 0.11541,-0.1345 0.30587,-0.38356 0.41134,-0.54897 0.10548,-0.16542 0.1265,-0.24847 0.15813,-0.33193 0.0316,-0.0834 0.0739,-0.16634 0.11628,-0.38376 0.0423,-0.21743 0.0842,-0.57067 0.10542,-0.83006 0.0213,-0.2594 0.0217,-0.42552 0.0124,-0.51899 -0.009,-0.0934 -0.0303,-0.11428 -0.0522,-0.15554 -0.0219,-0.0412 -0.0432,-0.10365 -0.0543,-0.16621 -0.0111,-0.0626 -0.0111,-0.12453 -0.0527,-0.25924 -0.0416,-0.1347 -0.12627,-0.34225 -0.23203,-0.67451 -0.10577,-0.33228 -0.23218,-0.78932 -0.33745,-1.11115 -0.10528,-0.32184 -0.18962,-0.5087 -0.23256,-0.62318 -0.0429,-0.11449 -0.0433,-0.15595 -0.11678,-0.48798 -0.0271,-0.12251 -0.065,-0.29181 -0.10491,-0.47424 z" />
    <path
       id="path6266"
       style="fill:#000080;fill-opacity:1;stroke:#000080;stroke-width:0.262823;stroke-dasharray:none;stroke-opacity:1"
       d="m 116.37534,208.1525 2.59625,6.16726 c -0.33671,-0.99361 -0.67414,-1.99048 -0.96946,-2.74841 -0.29532,-0.75792 -0.54901,-1.27721 -0.76017,-1.72366 -0.21116,-0.44644 -0.37988,-0.8201 -0.49559,-1.04862 -0.11571,-0.22854 -0.17893,-0.31149 -0.23203,-0.39445 -0.0531,-0.0829 -0.0952,-0.16593 -0.139,-0.25212 z" />
    <path
       id="path6274"
       style="fill:#000080;fill-opacity:1;stroke:#000080;stroke-width:0.262823;stroke-dasharray:none;stroke-opacity:1"
       d="m 115.77223,197.18767 c -0.0857,5.3e-4 -0.16655,0.008 -0.23306,0.0244 -0.21284,0.0523 -0.27569,0.19748 -0.33848,0.34158 l 5.63643,3.36395 c -0.27152,-0.20543 -0.54613,-0.41308 -0.70436,-0.52762 -0.15824,-0.11454 -0.20062,-0.13533 -0.23307,-0.1657 -0.0324,-0.0304 -0.0531,-0.072 -0.0946,-0.10421 -0.0414,-0.0322 -0.10508,-0.0529 -0.18965,-0.1042 -0.0846,-0.0512 -0.19004,-0.13422 -0.26407,-0.17689 -0.074,-0.0427 -0.11606,-0.0428 -0.25322,-0.14538 -0.13716,-0.10258 -0.36964,-0.31027 -0.51729,-0.43511 -0.14765,-0.12483 -0.21078,-0.1664 -0.25374,-0.20739 -0.043,-0.041 -0.0642,-0.0824 -0.0847,-0.1047 -0.0206,-0.0223 -0.0416,-0.0221 -0.17881,-0.14537 -0.13718,-0.12329 -0.39038,-0.37286 -0.52814,-0.51797 -0.13775,-0.14512 -0.15924,-0.1866 -0.17983,-0.20891 -0.0206,-0.0223 -0.0414,-0.0219 -0.16795,-0.12453 -0.12659,-0.10259 -0.35903,-0.31056 -0.49662,-0.44528 -0.13759,-0.13472 -0.17971,-0.19684 -0.37983,-0.25009 -0.13758,-0.0366 -0.35037,-0.0678 -0.539,-0.0666 z" />
    <path
       id="path6278"
       style="fill:#000080;fill-opacity:1;stroke:#000080;stroke-width:0.262823;stroke-dasharray:none;stroke-opacity:1"
       d="m 115.60628,201.2284 2.4066,5.91818 c -0.0421,-1.18092 -0.0842,-2.3646 -0.14624,-2.99798 -0.0621,-0.63338 -0.14649,-0.71636 -0.24185,-0.84073 -0.0953,-0.12437 -0.20095,-0.29048 -0.2956,-0.41528 -0.0946,-0.12481 -0.17925,-0.20794 -0.33796,-0.43613 -0.15871,-0.22819 -0.39076,-0.60177 -0.55915,-0.83057 -0.16838,-0.2288 -0.27421,-0.31212 -0.40102,-0.35479 -0.12679,-0.0427 -0.27436,-0.0427 -0.42478,-0.0427 z" />
    <path
       id="rect4681-1-8-7-6"
       style="fill:#0000ff;fill-opacity:1;stroke:#000000;stroke-width:0.311608;stroke-dasharray:none;stroke-opacity:1"
       inkscape:transform-center-x="1.6509376"
       inkscape:transform-center-y="-0.2314107"
       d="m 134.41572,230.02489 -15.53078,-17.82015 6.09188,-5.76506 15.53119,17.81981 z" />
    <path
       id="path6258-9"
       style="fill:#000080;fill-opacity:1;stroke:#000080;stroke-width:0.262823;stroke-dasharray:none;stroke-opacity:1"
       d="m 120.48158,211.796 c -0.009,0.045 -0.0184,0.0914 -0.0353,0.13069 -0.0169,0.0393 -0.0427,0.0725 -0.0388,0.10381 0.004,0.0312 0.037,0.0567 0.0479,0.091 0.0109,0.0344 10e-4,0.0803 0.0269,0.16749 0.0255,0.0873 0.0857,0.21357 0.28924,0.40999 0.20356,0.19641 0.54868,0.46286 1.0137,0.72724 0.29345,0.16682 0.6281,0.32927 0.91692,0.46555 z m 2.2206,2.09584 6.06604,5.72561 c -0.0941,-0.28516 -0.18837,-0.57056 -0.25346,-0.74052 -0.0651,-0.16992 -0.10132,-0.22493 -0.11711,-0.29112 -0.0158,-0.0662 -0.0105,-0.14177 -0.0311,-0.2503 -0.0206,-0.10849 -0.0677,-0.25164 -0.10679,-0.33534 -0.0391,-0.0836 -0.0718,-0.10885 -0.0845,-0.146 -0.0127,-0.0372 -0.004,-0.0829 -0.0399,-0.25642 -0.0361,-0.17351 -0.11724,-0.47637 -0.18392,-0.66087 -0.0667,-0.1845 -0.11966,-0.25183 -0.16648,-0.32782 -0.0468,-0.0759 -0.0867,-0.16005 -0.23308,-0.32629 -0.14645,-0.16619 -0.40073,-0.41493 -0.59328,-0.59002 -0.19252,-0.17517 -0.32388,-0.27685 -0.40361,-0.32652 -0.0795,-0.0499 -0.10902,-0.0457 -0.15507,-0.0536 -0.046,-0.008 -0.10848,-0.029 -0.16482,-0.0584 -0.0564,-0.0294 -0.10543,-0.0672 -0.23754,-0.11643 -0.1321,-0.0492 -0.34819,-0.10881 -0.67596,-0.22777 -0.32779,-0.11896 -0.76701,-0.2977 -1.08622,-0.41068 -0.31921,-0.11298 -0.51872,-0.16018 -0.63562,-0.19602 -0.11688,-0.0359 -0.14997,-0.0609 -0.45786,-0.20525 -0.11359,-0.0533 -0.27084,-0.12656 -0.43973,-0.20626 z" />
    <path
       style="fill:#000000;stroke:#000000;stroke-width:0.264999"
       d="m 128.96089,192.35297 c 0.30119,0 0.59975,0 0.95756,-0.06 0.35781,-0.06 0.77579,-0.17939 1.31363,-0.23885 0.53784,-0.0595 1.19466,-0.0595 1.55159,-0.0893 0.35694,-0.0299 0.41666,-0.0896 0.47637,-0.14928"
       id="path12391"
       inkscape:path-effect="#path-effect12393"
       inkscape:original-d="m 128.96089,192.35297 c 0.30119,0.003 0.59975,0.003 0.89565,0 0.42062,-0.11678 0.8386,-0.2362 1.25392,-0.35827 0.65946,0.003 1.31628,0.003 1.97045,0 0.0623,-0.0571 0.12207,-0.11677 0.17913,-0.17913" />
  </g>
</svg>
